<svg width="513" height="104" viewBox="0 0 513 104" fill="none" xmlns="http://www.w3.org/2000/svg">
<g clip-path="url(#clip0)">
<path d="M452.157 42.38C452.157 44.72 456.317 43.68 456.577 44.98C457.617 46.8 455.017 47.32 455.797 49.14C474.518 50.7 493.498 52 512.219 55.9C508.839 57.2 505.199 58.5 501.819 57.72C496.098 56.16 490.378 56.16 484.658 55.64C472.697 54.86 460.997 52.52 449.037 52.78C448.257 52.78 447.216 52.78 444.616 52.78C448.257 53.82 451.377 53.56 452.677 56.42C442.536 57.2 432.916 55.12 422.776 54.6C422.516 55.64 422.256 56.68 421.736 57.72C451.637 58.76 481.278 60.32 511.959 65.52C505.979 68.12 501.299 67.34 496.618 66.82C487.258 66.04 477.638 64.74 468.277 63.7C466.977 63.44 464.897 63.44 464.377 63.96C461.257 66.56 458.397 65 454.497 64.48C456.577 62.92 457.877 65.26 459.957 63.18C452.157 61.36 444.876 64.22 437.596 63.18C430.316 62.14 422.776 62.14 414.455 61.88C417.315 64.48 420.955 64.22 423.036 64.22C430.056 64.22 436.816 65.52 443.836 65.26C451.117 65 458.397 66.04 465.677 66.82C470.357 67.34 475.038 66.82 479.458 66.04C481.018 65.78 480.238 66.56 480.238 67.08C481.018 68.64 483.358 68.38 485.178 68.38C492.458 68.38 499.219 69.42 505.979 70.72C507.019 70.98 508.319 70.72 508.319 72.02C508.319 73.32 507.019 73.06 506.239 73.32C500.779 75.4 495.838 73.06 490.638 73.06C487.778 73.06 484.658 70.72 482.058 73.84C481.538 74.36 480.238 73.84 479.198 73.84C472.957 72.54 466.457 72.8 459.957 71.24C456.837 70.46 452.157 71.5 448.257 72.02C442.796 72.8 437.076 70.98 431.356 70.46C426.416 70.2 421.475 69.68 416.535 69.42C406.655 68.9 396.514 67.34 385.334 68.64C392.094 70.46 398.595 70.72 404.575 70.72C418.355 70.72 431.356 74.62 445.136 73.32C455.277 78.78 467.497 75.92 478.418 78.26C485.178 79.56 492.718 79.56 499.739 80.34C500.259 80.34 500.779 80.86 501.299 81.9C473.217 78.26 444.876 79.56 416.015 76.96C422.776 80.34 431.096 76.44 437.596 81.64C426.416 84.76 415.495 80.08 404.575 81.38C408.475 83.72 414.715 83.2 417.575 86.84C418.095 87.62 417.835 88.66 416.015 88.92C419.395 90.48 420.955 85.54 424.076 88.4C424.336 87.36 424.336 86.58 424.596 85.8C425.636 85.28 427.456 87.1 426.676 88.4C426.676 88.66 426.676 88.92 426.676 89.18C452.937 89.96 478.938 92.04 505.459 95.16C503.119 96.98 501.559 97.24 499.739 96.98C489.858 96.2 479.978 95.42 470.097 94.64C465.677 94.38 461.257 94.12 456.837 93.86C446.176 93.6 435.776 92.82 425.376 92.04C412.895 91.26 400.155 91.78 387.674 91.78C385.854 91.78 383.514 91.26 382.214 93.34C403.015 93.86 423.816 94.38 444.356 95.16C465.157 96.2 486.218 97.24 506.239 102.18C499.999 103.74 493.758 103.74 488.038 102.96C480.758 102.18 473.217 101.14 465.937 100.88C449.817 100.36 433.696 99.32 417.835 98.8C393.134 98.02 368.173 98.28 343.472 98.28C328.392 98.28 313.051 98.02 297.971 98.28C273.01 99.06 248.049 98.54 223.088 99.32C204.627 99.84 186.166 99.58 167.966 100.1C152.365 100.62 136.504 101.14 120.904 101.92C102.443 102.96 84.2423 102.18 65.7816 102.7C60.3214 102.7 55.1212 102.96 49.401 102.44C50.701 100.36 52.7811 100.1 54.8612 100.36C66.5617 100.62 78.2621 99.84 89.7026 98.8C95.1628 98.54 100.623 98.02 106.343 99.06C109.723 99.84 113.883 98.54 117.524 98.28C127.924 97.76 138.064 97.24 148.465 96.72C165.105 95.94 181.746 94.64 198.387 95.42C209.047 95.68 219.708 94.38 230.368 95.16C233.748 95.42 236.608 94.38 239.468 93.6C231.148 93.6 223.088 93.6 214.767 93.6C201.507 93.6 187.986 93.34 174.726 93.6C163.545 93.86 152.365 94.12 140.925 94.9C137.284 95.16 133.384 94.9 129.484 95.16C115.704 95.94 101.403 96.46 87.3625 96.2C79.8222 96.2 72.5419 95.94 65.0016 97.24C61.8815 97.76 59.2814 95.16 55.9012 96.2C56.1612 96.98 56.4213 97.76 56.9413 98.8C54.3412 98.8 51.2211 99.58 49.921 98.8C43.9408 95.16 36.6605 96.2 30.1602 94.9C27.8201 94.38 24.96 94.9 24.18 92.56C23.66 90.22 26.7801 90.22 28.0802 88.14C22.0999 85.8 21.5799 79.82 16.1197 75.92C14.0396 75.92 14.8196 80.34 10.3995 78C10.9195 82.16 16.6397 84.5 14.2996 88.66C11.1795 89.18 9.61943 87.36 8.57939 85.8C3.6392 79.3 -0.000939995 71.76 0.25907 64.48C0.51908 53.04 0.25907 41.34 5.19926 30.16C5.19926 29.38 5.45927 28.6 5.97929 28.08C7.27934 26.52 7.79936 23.92 10.9195 24.44C14.0396 24.96 14.5596 27.04 14.5596 28.86C14.8196 31.2 16.6397 31.98 19.2398 33.02C20.5399 30.68 20.0198 28.08 22.88 26.78C23.14 26.78 23.4 26.26 23.14 26C18.7198 22.36 24.96 22.36 26.2601 20.54C22.0999 17.42 20.7999 13.52 21.0599 8.84C18.7198 8.32 16.6397 8.06 14.8196 8.84C12.2195 9.88 11.9595 8.06 10.6595 7.28C11.4395 6.5 11.6995 5.46 13.7796 5.2C24.44 3.64 34.8404 2.34 45.7608 1.82C73.5819 0.52 101.663 0.26 129.744 0C146.385 0 163.025 0.78 179.666 1.82C184.606 2.08 189.546 0.26 194.487 1.04C205.667 2.6 216.587 1.56 227.768 1.82C237.908 2.08 248.049 0.78 258.189 1.82C275.35 3.38 292.51 2.34 309.671 2.86C322.932 3.38 336.192 3.64 349.193 4.42C365.833 5.72 382.474 6.76 399.115 7.8C414.715 8.84 430.576 8.58 445.656 11.18C455.537 12.74 465.677 13 475.558 15.08C481.278 16.38 486.998 17.68 492.978 18.2C495.838 18.46 494.278 19.76 495.058 20.8C489.598 19.5 483.618 19.5 478.158 18.46C472.177 17.16 466.197 16.9 460.217 19.24C456.057 20.8 451.377 19.76 447.216 19.24C432.916 17.42 418.355 16.38 404.055 15.08C387.414 13.52 370.513 13 353.353 11.7C339.312 10.66 325.272 10.92 311.491 10.14C295.371 9.1 279.51 10.14 263.649 9.36C255.069 8.84 246.489 8.84 237.908 8.58C231.928 8.32 226.208 10.66 219.968 9.1C220.748 9.36 221.528 10.14 222.568 10.14C237.388 10.14 251.689 13.26 266.769 13C275.87 12.74 285.23 13.26 294.331 14.3C298.751 14.82 303.171 13.78 307.851 14.04C318.511 15.08 329.432 14.82 340.092 15.34C357.513 16.12 374.934 16.12 392.094 17.16C410.815 18.2 429.536 20.54 447.997 23.92C456.577 25.48 465.937 26.52 475.038 26.78C475.818 26.78 476.598 27.04 477.378 27.56C470.877 27.56 464.377 27.56 457.877 26.78C457.097 28.6 459.697 28.34 460.217 29.9C446.436 32.76 432.656 27.56 419.135 29.64C421.996 31.98 426.156 31.2 429.536 31.2C439.676 31.46 449.297 33.28 459.177 34.58C463.077 35.1 467.497 34.58 471.137 35.88C473.478 36.66 477.638 34.06 477.898 38.22C483.358 36.92 488.038 40.82 493.498 40.3C499.219 39.78 504.419 41.34 509.879 42.12C511.179 42.38 512.739 42.64 512.999 43.94C513.259 45.5 511.699 46.02 510.139 46.54C505.199 48.1 500.779 45.76 496.098 45.76C494.798 45.76 493.238 45.24 491.938 45.5C478.418 45.76 465.417 43.16 452.157 42.38C443.576 41.6 435.256 40.82 426.676 40.04C426.676 40.3 426.676 40.82 426.416 41.08C434.996 41.86 443.316 43.68 452.157 42.38ZM415.235 45.24C422.516 48.62 430.056 47.32 437.336 47.58C430.056 46.54 423.036 45.5 415.235 45.24Z" fill="white"/>
<path d="M45.5018 50.4401C44.4618 49.6601 43.9417 48.6201 43.9417 47.8401C43.9417 47.5801 44.4618 47.3201 45.5018 47.3201C45.7618 45.7601 45.7618 43.9401 46.0218 42.1201C44.9818 41.3401 44.7218 39.5201 44.7218 37.4401C44.7218 35.3601 44.9818 34.3201 45.2418 34.3201C45.2418 34.3201 45.2418 34.3201 45.5018 34.3201C46.0218 35.1001 46.5418 35.6201 47.5819 36.1401C48.1019 36.1401 48.6219 36.1401 49.1419 36.4001C49.922 36.4001 50.962 36.1401 52.0021 35.8801C53.3021 35.3601 54.8622 35.1001 56.1622 35.1001C59.2823 35.1001 61.6224 36.1401 63.1825 37.9601C64.7426 39.7801 65.5226 42.3801 65.5226 45.2401C65.5226 46.5401 65.2626 48.1001 65.0026 50.1801C63.7025 56.6801 60.3224 60.8401 55.6422 62.1401L55.1222 61.8801C54.8622 61.8801 54.3422 61.8801 53.8221 61.6201C53.3021 61.3601 52.7821 61.3601 52.5221 61.3601C52.0021 61.3601 51.742 61.6201 50.962 62.1401C50.442 62.6601 49.922 62.9201 49.402 62.9201C48.6219 62.9201 47.8419 62.6601 47.0619 61.8801C45.7618 60.8401 45.2418 58.2401 45.2418 53.5601C45.2418 52.2601 45.5018 51.2201 45.5018 50.4401ZM51.742 46.8001C54.0821 46.8001 55.3822 47.0601 55.6422 47.3201C56.4222 47.8401 56.6822 48.3601 56.6822 48.8801C56.6822 49.1401 56.6822 49.4001 56.4222 49.6601C56.1622 49.9201 55.9022 50.1801 55.6422 50.1801C55.1222 50.1801 54.6022 50.1801 53.8221 49.9201C52.7821 49.6601 52.2621 49.6601 52.0021 49.4001V49.6601C53.8221 49.9201 55.1222 50.1801 55.6422 50.7001C54.0821 50.4401 52.7821 50.4401 52.0021 50.1801V52.0001C52.2621 54.6001 52.7821 56.9401 53.8221 58.5001C55.6422 57.7201 57.2023 56.4201 58.5023 54.3401C59.5424 52.5201 60.5824 50.7001 61.1024 48.6201C60.5824 50.1801 59.8024 51.4801 58.5023 53.0401C57.2023 54.6001 55.9022 55.6401 54.3421 56.4201C56.1622 54.8601 57.7223 53.0401 58.7623 50.7001C59.2823 49.4001 59.5424 47.8401 59.5424 46.0201C59.5424 44.4601 59.2823 42.9001 58.7623 41.0801C57.9823 38.7401 56.9423 37.7001 55.9022 37.7001C55.1222 37.7001 54.3421 38.2201 53.5621 39.0001C52.2621 40.3001 51.482 41.0801 51.482 41.0801C51.482 43.1601 51.482 44.9801 51.742 46.8001Z" fill="#1F478A"/>
<path d="M71.7628 34.8398C74.3629 34.8398 75.9229 35.3598 76.443 36.1398C76.703 36.6598 76.963 37.6998 76.963 39.5198C76.963 41.5998 76.703 44.4598 76.1829 48.3598C75.6629 52.2598 75.4029 55.3798 75.4029 57.1998C75.4029 59.0198 75.4029 60.5798 75.6629 61.3598C74.6229 60.8398 74.1029 57.9798 74.1029 53.2998C74.1029 52.7798 74.1029 51.9998 74.1029 51.4798C73.8429 54.8598 73.5828 57.7198 73.5828 59.7998C73.5828 61.0998 73.5828 61.8798 73.8429 61.8798C74.3629 62.1398 74.6229 62.1398 74.6229 62.1398C74.6229 62.3998 74.1029 62.3998 73.3228 62.3998C72.0228 62.3998 70.9827 62.1398 70.4627 61.8798C69.4227 61.0998 68.9027 58.2398 68.6426 52.7798C68.6426 49.3998 68.6426 46.0198 68.3826 42.8998C68.3826 41.0798 68.3826 39.7798 68.3826 39.2598C68.3826 37.6998 68.1226 36.3998 67.8626 35.8798C67.8626 35.8798 67.8626 35.8798 67.8626 35.6198C68.3826 35.0998 69.4227 34.8398 71.7628 34.8398Z" fill="#1F478A"/>
<path d="M101.924 55.1199C102.184 55.1199 102.184 55.1199 102.184 55.3799C102.184 56.1599 101.924 56.9399 101.144 58.2399C100.364 59.2799 99.844 60.0599 99.064 60.5799C97.5039 62.1399 95.4238 62.9199 93.0837 62.9199C91.0036 62.9199 89.1836 62.3999 87.6235 61.3599C84.7634 59.5399 83.2033 56.1599 82.9433 50.6999C82.9433 50.9599 82.9433 51.2199 82.9433 51.7399C82.9433 53.2999 83.2033 54.5999 83.4633 56.1599C83.9834 58.2399 84.5034 59.2799 85.5434 60.0599C83.4634 59.5399 82.1633 56.4199 81.9033 50.9599C81.1233 51.2199 80.6032 51.2199 80.6032 51.2199H80.3432C80.3432 51.2199 80.3432 51.2199 80.6032 50.9599C80.8633 50.9599 80.8633 50.6999 80.8633 50.6999C80.8633 50.6999 80.8633 50.4399 81.1233 50.1799C81.1233 50.1799 81.3833 49.9199 81.6433 49.9199C81.6433 46.2799 81.9033 42.6399 82.9433 39.5199C82.4233 39.2599 81.6433 38.4799 80.8633 37.6999C80.0832 36.9199 79.8232 36.1399 79.8232 35.3599C79.8232 35.0999 79.8232 35.0999 80.0832 35.0999C80.3432 35.0999 80.6032 35.3599 80.8633 35.8799C81.1233 36.3999 81.6433 36.6599 82.1633 36.6599C82.6833 36.6599 83.9834 36.3999 86.0634 36.1399C87.6235 35.8799 90.2236 35.3599 93.6037 34.8399C95.9438 34.5799 97.5039 34.3199 98.2839 34.3199C99.844 34.3199 100.624 35.8799 100.624 38.7399C100.624 40.0399 100.624 40.8199 100.364 41.5999C100.104 42.1199 97.7639 42.6399 93.0837 42.8999C96.4639 42.1199 98.0239 41.5999 98.0239 41.0799C98.0239 40.8199 96.7239 40.5599 94.3838 40.5599C92.8237 40.5599 91.0037 40.5599 89.4436 40.5599C88.9236 42.8999 88.6636 45.2399 88.4035 47.5799C90.4836 47.0599 92.3037 46.7999 94.3838 46.7999C95.9438 46.7999 96.7239 46.7999 96.9839 47.0599C96.9839 47.0599 97.2439 47.3199 97.5039 47.5799C97.7639 47.8399 97.7639 47.8399 97.7639 47.8399C97.7639 47.8399 97.7639 48.0999 97.5039 48.0999L97.2439 48.3599C97.2439 48.3599 97.2439 48.6199 97.2439 48.8799C97.2439 49.1399 97.2439 49.1399 97.2439 49.3999C97.2439 49.6599 97.2439 49.6599 96.9839 49.9199C96.7239 49.9199 96.7239 50.1799 96.7239 50.1799C96.7239 50.1799 96.7239 50.4399 96.4639 50.4399C96.2038 50.4399 96.2038 50.6999 96.2038 50.6999C94.3838 50.9599 91.7837 50.9599 88.4035 51.2199C88.6636 55.8999 89.4436 58.4999 91.0036 59.2799C91.7837 59.5399 92.3037 59.7999 92.8237 59.7999C93.8638 59.7999 95.1638 59.2799 96.7239 58.4999C97.7639 57.9799 98.804 56.9399 99.844 55.8999L101.144 54.5999C101.144 54.5999 101.144 54.5999 101.404 54.8599C101.664 55.1199 101.924 55.1199 101.924 55.1199ZM86.0634 23.1399C86.0634 23.1399 86.3235 23.1399 86.0634 23.1399C86.8435 24.1799 87.6235 24.9599 89.1836 26.2599C90.7436 27.5599 91.7837 28.0799 92.5637 28.3399H92.8237C92.8237 28.5999 92.3037 28.8599 91.5237 28.8599C91.2637 28.8599 91.2637 28.8599 91.0036 28.8599C89.1836 28.5999 88.1435 28.3399 87.6235 28.3399C86.3235 28.0799 85.2834 27.5599 84.7634 27.2999C84.5034 27.0399 84.2434 26.5199 84.2434 25.9999C84.2434 25.4799 84.5034 24.9599 84.7634 24.4399C85.2834 23.3999 85.8034 23.1399 86.0634 23.1399ZM92.0437 31.4599C92.3037 31.7199 92.8237 31.9799 93.6037 32.4999C94.3838 33.0199 95.1638 33.2799 95.6838 33.2799C95.6838 33.2799 95.6838 33.2799 95.9438 33.2799C95.9438 33.2799 95.9438 33.2799 95.9438 33.5399C95.9438 33.7999 95.6838 34.0599 95.4238 34.3199C94.9038 34.5799 94.6438 34.8399 94.1238 34.8399C93.6038 34.8399 92.3037 34.0599 90.4836 32.2399C89.9636 33.0199 89.1836 33.7999 88.1435 34.8399C87.8835 34.8399 87.6235 34.8399 87.3635 34.8399C87.1035 34.8399 86.5835 34.8399 86.0634 34.5799C85.2834 34.3199 85.0234 34.3199 85.0234 34.0599C85.5434 34.0599 86.0635 33.2799 87.1035 32.2399C88.1435 30.9399 88.6636 30.1599 88.6636 29.8999C88.6636 29.6399 88.9236 29.6399 89.4436 29.6399C89.9636 29.6399 90.4836 29.6399 91.0036 29.6399C91.7837 29.8999 92.3037 29.8999 92.3037 30.1599C92.0437 30.1599 92.0437 30.4199 91.7837 30.6799C92.8237 31.9799 94.1238 32.7599 95.6838 33.2799C94.3838 32.7599 93.0837 32.2399 92.0437 31.4599Z" fill="#1F478A"/>
<path d="M120.645 44.2001C120.645 41.8601 120.125 39.2601 119.085 36.4001V36.1401C119.085 35.3601 119.865 35.1001 121.165 35.1001C122.985 35.1001 124.025 35.6201 124.285 36.6601C124.805 38.2201 125.065 40.8201 125.065 44.4601C125.065 48.8801 124.545 52.5201 123.245 55.6401C121.685 60.0601 118.825 62.1401 115.185 62.1401C113.104 62.1401 111.284 61.8801 110.244 61.6201C108.944 61.1001 107.644 59.8001 106.604 57.7201C105.564 55.9001 105.044 54.3401 104.524 52.5201C104.004 50.4401 103.744 47.0601 103.744 42.9001C103.744 39.7801 104.004 37.7001 104.264 36.6601C104.524 35.6201 106.084 35.1001 108.684 35.1001C111.284 35.1001 112.584 35.6201 112.584 36.9201C112.584 37.1801 112.584 37.1801 112.584 37.4401C111.544 40.3001 111.024 44.2001 111.024 48.6201C111.024 50.4401 111.284 52.5201 111.544 54.6001C112.064 57.7201 112.844 59.0201 113.884 59.0201H114.144C114.405 59.2801 114.925 59.2801 115.445 59.2801C117.265 59.2801 118.305 57.7201 119.085 54.8601C119.605 53.0401 119.605 50.9601 119.605 48.6201C119.605 47.3201 119.345 45.2401 119.085 42.3801C118.825 39.2601 118.305 37.4401 118.045 36.4001C118.825 37.1801 119.345 38.7401 119.865 40.5601C120.385 42.3801 120.645 43.9401 120.645 45.2401C120.645 45.5001 120.645 45.7601 120.645 46.0201C120.645 45.5001 120.645 44.9801 120.645 44.2001Z" fill="#1F478A"/>
<path d="M142.746 34.8401C145.086 34.8401 146.646 35.3601 147.426 36.4001C147.946 36.9201 148.206 38.2201 148.206 40.3001C148.206 42.1201 147.946 44.9801 147.426 49.1401C147.166 50.4401 147.166 52.0001 146.906 53.5601C146.646 56.1601 146.386 57.4601 146.386 57.7201C146.126 59.8001 145.606 61.1001 145.346 61.6201C145.086 62.1401 144.046 62.1401 143.006 62.1401C140.926 62.1401 139.885 61.8801 139.885 61.1001C139.885 61.1001 139.886 60.8401 140.146 60.8401C140.406 60.3201 140.926 59.0201 141.446 56.6801C141.706 54.8601 141.966 53.5601 142.226 52.2601C141.706 55.3801 140.666 58.2401 139.365 60.0601C140.146 58.5001 140.666 56.4201 140.926 53.8201C141.186 51.4801 141.446 49.4001 141.446 47.3201V46.5401C141.186 44.9801 141.186 43.1601 140.926 41.6001C140.406 38.2201 139.886 36.4001 138.845 35.8801C138.585 35.8801 138.585 35.6201 138.585 35.6201C138.585 35.3601 139.105 35.1001 140.406 34.8401C141.186 34.8401 141.966 34.8401 142.746 34.8401ZM162.766 56.6801C162.766 56.6801 163.026 56.6801 162.766 56.6801C162.766 57.2001 161.726 58.2401 159.646 59.5401C157.566 60.8401 156.006 61.6201 155.226 61.6201C154.706 61.6201 153.146 60.3201 150.806 57.4601C148.986 55.3801 148.206 53.5601 147.686 51.7401C147.686 51.4801 147.686 50.7001 147.426 49.9201C147.426 49.9201 147.426 49.6601 147.426 49.4001C147.426 48.8801 147.686 48.1001 147.946 47.0601C149.506 42.6401 151.846 39.2601 154.706 36.9201C155.226 36.4001 156.266 35.8801 157.306 35.1001C156.006 35.6201 153.926 36.9201 151.326 39.5201C153.666 35.8801 156.006 34.3201 158.346 34.3201C159.126 34.3201 159.646 35.1001 160.426 36.9201C160.946 38.4801 161.206 39.7801 161.206 40.5601C161.206 41.3401 160.946 41.6001 160.686 41.6001C160.686 41.6001 160.426 41.6001 160.166 41.3401C159.906 41.0801 159.646 41.0801 159.126 41.0801C158.086 41.0801 156.526 42.1201 154.446 43.9401C153.146 45.2401 151.846 46.5401 150.286 47.8401C152.106 49.6601 153.666 51.4801 155.486 53.0401C158.086 55.3801 160.166 56.4201 161.466 56.4201C161.466 56.4201 161.726 56.4201 161.986 56.4201C162.246 56.4201 162.766 56.6801 162.766 56.6801Z" fill="#1F478A"/>
<path d="M168.487 34.8398C171.087 34.8398 172.647 35.3598 173.167 36.1398C173.427 36.6598 173.687 37.6998 173.687 39.5198C173.687 41.5998 173.427 44.4598 172.907 48.3598C172.387 52.2598 172.127 55.3798 172.127 57.1998C172.127 59.0198 172.127 60.5798 172.387 61.3598C171.347 60.8398 170.827 57.9798 170.827 53.2998C170.827 52.7798 170.827 51.9998 170.827 51.4798C170.567 54.8598 170.307 57.7198 170.307 59.7998C170.307 61.0998 170.307 61.8798 170.567 61.8798C171.087 62.1398 171.347 62.1398 171.347 62.1398C171.347 62.3998 170.827 62.3998 170.047 62.3998C168.747 62.3998 167.707 62.1398 167.187 61.8798C166.147 61.0998 165.627 58.2398 165.367 52.7798C165.367 49.3998 165.367 46.0198 165.107 42.8998C165.107 41.0798 165.107 39.7798 165.107 39.2598C165.107 37.6998 164.846 36.3998 164.586 35.8798C164.586 35.8798 164.586 35.8798 164.586 35.6198C164.846 35.0998 166.147 34.8398 168.487 34.8398Z" fill="#1F478A"/>
<path d="M198.648 55.1199C198.908 55.1199 198.908 55.1199 198.908 55.3799C198.908 56.1599 198.648 56.9399 197.868 58.2399C197.088 59.2799 196.568 60.0599 195.788 60.5799C194.228 62.1399 192.148 62.9199 189.807 62.9199C187.727 62.9199 185.907 62.3999 184.347 61.3599C181.487 59.5399 179.927 56.1599 179.667 50.6999C179.667 50.9599 179.667 51.2199 179.667 51.7399C179.667 53.2999 179.927 54.5999 180.187 56.1599C180.707 58.2399 181.227 59.2799 182.267 60.0599C180.187 59.5399 178.887 56.4199 178.627 50.9599C177.847 51.2199 177.327 51.2199 177.327 51.2199H177.067C177.067 51.2199 177.067 51.2199 177.327 50.9599C177.587 50.9599 177.587 50.6999 177.587 50.6999C177.587 50.6999 177.587 50.4399 177.847 50.1799C177.847 50.1799 178.107 49.9199 178.367 49.9199C178.367 46.2799 178.627 42.6399 179.667 39.5199C179.147 39.2599 178.367 38.4799 177.587 37.6999C176.807 36.9199 176.547 36.1399 176.547 35.3599C176.547 35.0999 176.547 35.0999 176.807 35.0999C177.067 35.0999 177.327 35.3599 177.587 35.8799C177.847 36.3999 178.367 36.6599 178.887 36.6599C179.407 36.6599 180.707 36.3999 182.787 36.1399C184.347 35.8799 186.947 35.3599 190.327 34.8399C192.668 34.5799 194.228 34.3199 195.008 34.3199C196.568 34.3199 197.348 35.8799 197.348 38.7399C197.348 40.0399 197.348 40.8199 197.088 41.5999C196.828 42.1199 194.488 42.6399 189.807 42.8999C193.188 42.1199 194.748 41.5999 194.748 41.0799C194.748 40.8199 193.448 40.5599 191.108 40.5599C189.547 40.5599 187.727 40.5599 186.167 40.5599C185.647 42.8999 185.387 45.2399 185.127 47.5799C187.207 47.0599 189.027 46.7999 191.108 46.7999C192.668 46.7999 193.448 46.7999 193.708 47.0599C193.708 47.0599 193.968 47.3199 194.228 47.5799C194.488 47.8399 194.488 47.8399 194.488 47.8399C194.488 47.8399 194.488 48.0999 194.228 48.0999L193.968 48.3599C193.968 48.3599 193.968 48.6199 193.968 48.8799C193.968 49.1399 193.968 49.1399 193.968 49.3999C193.968 49.6599 193.968 49.6599 193.708 49.9199C193.448 49.9199 193.448 50.1799 193.448 50.1799C193.448 50.1799 193.448 50.4399 193.188 50.4399C192.928 50.4399 192.928 50.6999 192.928 50.6999C191.107 50.9599 188.507 50.9599 185.127 51.2199C185.387 55.8999 186.167 58.4999 187.727 59.2799C188.507 59.5399 189.027 59.7999 189.547 59.7999C190.587 59.7999 191.888 59.2799 193.448 58.4999C194.488 57.9799 195.528 56.9399 196.568 55.8999L197.868 54.5999C197.868 54.5999 197.868 54.5999 198.128 54.8599C198.388 55.1199 198.388 55.1199 198.648 55.1199ZM188.507 31.4599C188.767 31.7199 189.287 31.9799 190.067 32.4999C190.847 33.0199 191.628 33.2799 192.148 33.2799C192.148 33.2799 192.148 33.2799 192.408 33.2799C192.408 33.2799 192.408 33.2799 192.408 33.5399C192.408 33.7999 192.148 34.0599 191.888 34.3199C191.368 34.5799 191.108 34.8399 190.587 34.8399C190.067 34.8399 188.767 34.0599 186.947 32.2399C186.427 33.0199 185.647 33.7999 184.607 34.8399C184.347 34.8399 184.087 34.8399 183.827 34.8399C183.567 34.8399 183.047 34.8399 182.527 34.5799C181.747 34.3199 181.487 34.3199 181.487 34.0599C182.007 34.0599 182.527 33.2799 183.567 32.2399C184.607 30.9399 185.127 30.1599 185.127 29.8999C185.127 29.6399 185.387 29.6399 185.907 29.6399C186.427 29.6399 186.947 29.6399 187.467 29.6399C188.247 29.8999 188.767 29.8999 188.767 30.1599C188.507 30.1599 188.507 30.4199 188.247 30.6799C189.287 31.9799 190.587 32.7599 192.148 33.2799C190.847 32.7599 189.807 32.2399 188.507 31.4599ZM187.467 63.9599C187.987 63.9599 188.507 64.2199 189.027 64.7399C189.547 65.2599 189.807 65.7799 189.807 66.2999C189.807 66.8199 189.547 67.0799 189.027 67.3399C188.507 67.5999 188.247 67.5999 188.247 67.5999C188.247 68.1199 187.987 68.6399 187.467 69.6799C187.467 69.6799 187.467 69.6799 187.467 69.4199C187.467 69.1599 187.467 68.8999 187.467 68.6399C187.467 68.3799 187.467 68.1199 187.467 67.8599C187.467 67.3399 187.467 67.0799 187.207 66.8199C186.947 66.5599 186.427 66.2999 186.167 66.0399C185.647 65.7799 185.387 65.2599 185.387 64.9999C185.387 64.7399 185.647 64.2199 186.167 63.9599C186.687 63.6999 186.947 63.9599 187.467 63.9599Z" fill="#1F478A"/>
<path d="M214.508 39.7798C214.508 38.4798 214.508 37.4398 214.768 36.9198C215.288 35.3598 216.588 34.8398 219.189 34.8398C219.969 34.8398 220.749 34.8398 221.529 35.0998C222.829 35.3598 223.349 35.6198 223.349 36.1398V36.3998C222.569 37.4398 221.789 39.7798 221.269 43.1598C221.009 45.7598 220.749 48.3598 220.749 50.6998C220.749 53.2998 221.269 55.8999 222.309 58.7599C220.749 56.4199 219.709 52.7798 219.449 48.0998C219.449 49.1398 219.449 50.1798 219.449 50.9599C219.449 53.8199 219.709 55.8998 220.489 57.1999C220.749 57.7199 221.009 58.2399 221.529 59.0199C222.309 59.2799 222.569 59.5399 222.569 60.0599C222.569 60.8399 222.049 61.0999 221.009 61.0999C219.189 61.0999 217.109 60.0599 215.028 57.7199C214.248 56.9399 212.948 55.1199 210.608 51.9998C209.308 50.4398 208.008 48.6198 206.708 46.2798C207.228 49.6598 207.488 51.9998 207.748 53.2998C208.268 56.6798 209.048 58.7598 209.828 59.7999V60.0599C209.828 60.5799 209.308 60.8399 208.008 61.0999C206.968 61.3599 206.188 61.3599 205.668 61.3599C204.108 61.3599 203.068 61.0998 202.548 60.5798C201.768 60.0598 201.508 59.0199 201.508 57.4599C201.508 55.8999 201.768 53.2998 202.288 50.1798C202.808 47.0598 203.068 44.4598 203.068 42.8998C203.068 41.8598 202.808 41.0798 202.548 40.2998C202.288 40.0398 201.508 39.5198 200.728 38.9998C200.468 38.7398 200.468 38.7398 200.468 38.2198C200.468 37.4398 200.988 36.6598 201.768 35.8798C202.548 35.0998 203.328 34.8398 204.368 34.8398C205.148 34.8398 205.928 34.8398 206.188 34.8398C206.708 35.0998 207.228 35.3598 207.748 35.8798C207.748 35.8798 208.008 36.3998 208.528 37.6998L210.348 41.5998C212.948 47.0598 215.028 51.2199 216.849 53.8199C215.288 50.4399 214.508 45.4998 214.508 39.7798Z" fill="#1F478A"/>
<path d="M252.99 34.8398C254.03 34.8398 254.81 34.8398 255.07 35.0998C255.85 35.3598 256.11 35.8798 256.11 36.6598C256.11 37.1798 255.85 37.9598 255.59 38.7398C255.07 39.5198 254.55 40.0398 254.03 40.0398C253.25 40.0398 252.47 40.0398 251.17 39.7798C249.87 39.5198 248.83 39.5198 248.31 39.5198C248.31 40.0398 248.31 40.5598 248.31 41.3398C248.31 42.3798 248.57 44.9798 248.83 49.3998C248.83 50.1798 249.09 51.7398 249.35 53.5599C249.61 54.5998 249.87 56.4198 250.65 58.4999C249.35 56.4198 248.57 53.5599 247.79 49.6598C247.79 49.9198 247.79 50.4398 247.79 50.6998C247.79 54.0798 248.57 57.1999 250.39 59.7999C250.39 60.0599 250.39 60.0599 250.39 60.3199C250.39 60.8399 249.87 61.3599 248.83 61.6199C248.05 61.8799 247.27 61.8798 246.49 61.8798C244.67 61.8798 243.37 61.3599 242.589 60.3199C242.069 59.7999 241.809 58.2399 241.809 56.1599C241.809 54.0799 242.069 50.1799 242.589 44.7198C242.85 41.8598 243.11 40.2998 243.11 39.5198C240.509 39.5198 238.949 39.5198 238.429 39.7798H238.169C237.649 39.7798 237.129 39.2598 236.609 38.2198C236.089 37.4398 235.829 36.6598 235.829 35.8798C235.829 35.3598 235.829 35.3598 236.089 35.3598H236.349C236.609 35.3598 237.129 35.6198 238.169 35.6198C239.729 35.6198 242.329 35.3598 245.45 35.0998C248.83 35.0998 251.43 34.8398 252.99 34.8398ZM241.029 36.6598C242.069 36.6598 244.15 36.3998 247.27 35.8798C243.63 36.1398 241.289 36.3998 240.769 36.3998C239.729 36.3998 238.689 36.3998 237.649 36.1398C238.429 36.3998 239.729 36.6598 241.029 36.6598Z" fill="#1F478A"/>
<path d="M279.771 45.4998C281.851 45.7598 282.891 46.2798 282.891 46.5398C282.891 47.0598 281.851 47.3198 279.771 47.5798C279.771 55.3798 280.551 59.5398 282.111 60.5798C282.371 60.5798 282.371 60.8398 282.371 60.8398C282.371 61.0998 281.851 61.3599 280.811 61.3599C280.031 61.3599 279.251 61.6199 278.731 61.6199C276.651 61.6199 275.351 61.0999 275.351 60.3199C274.831 57.9799 274.311 54.0799 274.311 48.3598C272.231 48.8798 269.631 49.3998 267.03 50.4398C266.77 53.0398 266.51 55.1199 266.25 56.1599C265.73 59.0199 265.21 60.8399 264.69 61.3599C264.17 61.6199 263.39 61.8798 262.35 61.8798C261.05 61.8798 260.27 61.6199 260.27 61.0999C260.27 61.0999 260.27 60.8398 260.53 60.8398C261.05 60.0598 261.57 57.4599 262.09 52.5199C261.57 55.3799 260.79 57.9799 259.49 60.0599C260.27 57.9799 260.79 55.6398 261.05 53.0398C260.79 53.0398 260.79 53.0398 260.53 53.0398C259.75 53.0398 258.97 52.2598 258.45 50.6998C257.93 49.3998 257.67 48.3598 257.67 47.3198C257.67 46.5398 257.93 46.0198 258.45 46.0198C258.71 46.0198 258.71 46.0198 259.23 46.0198C259.49 46.0198 259.75 46.0198 260.01 46.0198C260.53 46.0198 261.05 46.0198 261.57 46.0198C261.31 43.4198 261.05 41.5998 260.79 40.5598C260.27 37.9598 259.75 36.3998 258.71 35.8798C258.45 35.8798 258.45 35.6198 258.45 35.6198C258.45 35.3598 258.97 35.0998 260.27 35.0998C261.31 35.0998 262.09 34.8398 262.61 34.8398C264.95 34.8398 266.51 35.0998 267.03 35.8798C267.55 36.6598 267.81 38.2198 267.81 40.2998C267.81 41.5998 267.81 43.1598 267.55 44.9798C269.371 44.7198 270.931 44.7198 272.491 44.7198C273.011 44.7198 273.531 44.7198 274.311 44.7198C274.571 39.2598 274.831 36.3998 275.871 35.3598C276.131 35.0998 277.171 34.8398 278.471 34.8398C280.811 34.8398 282.111 35.0998 282.111 35.8798V36.1398C281.591 36.9198 281.331 38.2198 280.811 40.5598C280.031 42.3798 279.771 43.9398 279.771 45.4998ZM280.291 59.7999C278.991 56.9398 278.471 53.5598 278.471 49.3998C278.471 48.8798 278.471 48.3598 278.471 47.8398H277.951C277.951 48.6198 277.951 49.3998 277.951 50.1798C277.951 54.0798 278.731 57.4599 280.291 59.7999ZM278.991 42.1198C278.731 43.4198 278.471 44.4598 278.211 45.2398H278.471C278.731 44.7198 278.991 43.6798 278.991 42.1198Z" fill="#1F478A"/>
<path d="M311.492 59.5398C312.012 59.5398 312.272 59.5398 312.272 59.7998C312.272 60.3198 311.752 60.8398 310.452 61.6198C309.152 62.3998 308.372 62.6598 307.852 62.6598C306.812 62.6598 305.772 61.0998 304.732 57.9798C303.952 55.6398 303.432 53.8198 303.172 51.9998C303.172 54.8598 304.212 58.2398 305.772 61.6198C304.732 60.0598 303.432 57.9798 302.652 55.3798C302.392 54.5998 301.872 53.5598 301.352 52.2598C299.272 52.5198 297.192 52.7798 295.632 52.7798C293.812 59.2798 292.511 62.6598 291.471 62.6598C290.691 62.6598 289.391 61.8798 287.311 60.0598C285.231 58.4998 284.191 57.1998 284.191 56.6798C284.191 56.6798 284.451 56.6798 284.711 56.6798C284.971 56.6798 284.971 56.6798 285.231 56.6798C286.791 56.6798 288.351 55.1198 289.911 52.2598C287.311 51.9998 285.751 51.4798 285.751 51.2198V50.9598C285.751 50.4398 286.271 49.3998 287.051 47.5798C287.831 45.7598 288.351 44.9798 288.611 44.9798C288.611 44.9798 288.611 44.9798 288.611 45.2398C288.611 45.2398 288.611 45.2398 288.611 45.4998C288.611 45.7598 288.611 45.4998 288.611 45.7598C288.611 46.7998 289.651 47.5798 291.991 48.3598C292.771 46.2798 294.072 42.8998 295.632 38.4798C295.112 40.2998 294.852 41.3398 294.592 42.1198C294.332 43.4198 294.072 44.7198 293.812 45.7598C294.852 42.6398 295.632 40.2998 296.152 38.7398C295.892 37.9598 295.372 37.4398 295.112 37.1798V36.9198C295.112 36.3998 295.632 36.1398 296.672 35.6198C297.452 35.3598 298.232 35.0998 298.752 34.8398C299.272 34.5798 300.052 34.5798 300.312 34.5798C300.832 34.5798 301.092 34.5798 301.352 34.8398C302.132 35.3598 303.432 37.9598 304.992 42.3798C305.252 43.4198 306.292 46.2798 307.852 50.9598C308.372 52.5198 309.152 54.5998 310.192 57.4598C310.712 58.7598 311.232 59.5398 311.492 59.5398ZM296.412 49.1398C297.712 49.3998 299.012 49.3998 300.572 49.6598C300.052 47.8398 299.012 45.4998 297.712 42.1198C297.452 44.4598 296.932 46.7998 296.412 49.1398Z" fill="#1F478A"/>
<path d="M338.533 38.7398C338.793 42.6398 339.053 46.2798 339.313 50.1798C339.833 55.8998 340.353 59.2798 341.133 60.3198L341.393 60.5798C341.393 61.0998 340.873 61.3598 339.833 61.6198C339.053 61.8798 338.533 61.8798 338.013 61.8798C336.453 61.8798 335.413 61.6198 334.893 60.8398C334.373 60.0598 333.853 59.0198 333.853 57.7198C333.853 56.1598 334.113 53.8198 334.373 50.9598C334.633 47.5798 334.893 45.4998 335.153 44.1998C333.593 46.7998 332.553 48.8798 331.773 49.9198C330.213 52.7798 329.173 54.5998 328.913 55.6398C328.913 56.1598 328.653 56.4198 328.393 56.4198C328.133 56.4198 328.133 56.4198 327.873 56.1598C327.353 56.1598 326.833 55.8998 326.313 55.1198C326.053 54.8598 325.273 53.5598 323.973 51.2198C323.193 49.9198 322.153 47.8398 320.333 44.9798C321.373 50.4398 321.893 54.8598 321.893 57.9798C321.893 58.7598 321.893 59.2798 321.893 59.5398C321.373 61.0998 320.073 61.6198 317.732 61.6198C316.952 61.6198 316.432 61.6198 315.392 61.3598C314.352 61.0998 313.572 60.8398 313.572 60.3198V60.0598C314.352 59.0198 315.132 56.6798 315.392 53.2998C315.652 50.6998 315.912 48.3598 315.912 46.0198C315.912 43.4198 315.652 41.0798 314.872 38.7398C314.612 38.7398 314.352 38.4798 314.352 38.4798C314.092 38.4798 314.092 38.2198 314.092 37.9598C314.092 37.1798 314.352 36.3998 315.132 35.6198C315.912 34.8398 316.692 34.5798 317.472 34.5798C318.252 34.5798 318.772 34.5798 319.032 34.8398C319.292 35.0998 319.813 35.3598 320.073 35.8798C320.073 35.8798 320.853 37.1798 322.153 39.5198C323.713 42.6398 325.273 45.2398 326.573 47.5798C327.353 45.2398 328.133 42.8998 329.173 40.8198C330.733 37.4398 332.033 35.6198 333.073 35.0998C333.853 34.8398 334.893 34.5798 335.933 34.5798C338.273 34.5798 339.313 35.0998 339.313 36.1398C339.833 36.6598 339.573 37.4398 338.533 38.7398ZM317.472 48.0998C317.472 47.0598 317.472 46.0198 317.472 45.2398C317.472 43.4198 317.472 41.8598 317.212 40.5598C316.692 40.0398 316.172 39.5198 315.912 39.2598C316.692 41.5998 317.472 44.4598 317.472 48.0998Z" fill="#1F478A"/>
<path d="M367.654 51.7398C367.654 51.2198 368.694 50.9598 371.035 50.6998C372.855 50.4398 374.155 50.4398 375.195 50.4398C375.975 50.4398 376.495 50.6998 376.495 50.9598C376.495 51.2198 376.235 52.2598 375.975 54.5998C375.455 58.4998 374.935 61.0998 374.935 62.6598C374.935 63.6998 375.195 64.4798 375.455 64.7398C374.935 64.4798 374.675 64.2198 374.675 64.2198C374.415 63.9598 374.155 63.6998 374.155 63.4398C373.895 62.9198 373.895 61.8798 373.895 60.3198C373.895 59.0198 373.895 57.7198 374.155 56.1598C373.895 57.9798 373.635 59.5398 373.635 61.0998C373.635 62.1398 373.635 62.9198 373.635 63.1798C373.895 63.6998 373.895 64.2198 374.155 64.2198C374.415 64.4798 374.675 64.4798 375.195 64.7398C372.855 64.4798 371.295 63.9598 370.775 62.6598C370.515 61.8798 370.255 60.5798 369.735 58.7598C369.214 59.7998 368.174 60.5798 366.874 61.3598C365.574 62.1398 364.274 62.3998 362.974 62.3998C360.374 62.3998 358.554 60.8398 357.254 57.7198C356.214 55.3798 355.694 52.7798 355.694 49.9198V49.6598C355.694 50.1798 355.434 50.6998 355.434 51.4798C355.434 55.3798 356.214 57.9798 357.514 59.0198C355.434 58.2398 354.394 55.3798 354.394 50.1798C354.394 47.8398 354.654 45.2398 355.434 42.3798C356.214 38.9998 357.254 36.6598 358.554 35.3598C359.074 34.8398 359.594 34.5798 360.374 34.5798C361.154 34.5798 361.674 34.5798 362.454 34.5798C362.714 34.5798 362.974 34.5798 362.974 34.5798C363.234 34.5798 363.494 34.5798 363.494 34.5798C363.754 34.5798 364.014 34.5798 364.534 34.5798C365.054 34.5798 365.834 34.5798 366.354 34.8398C367.134 34.8398 367.394 35.0998 367.134 35.0998C367.394 35.0998 367.914 34.8398 368.174 34.5798C368.694 34.3198 368.954 34.0598 369.475 34.0598C370.255 34.0598 371.295 34.3198 372.595 34.8398C373.115 35.0998 373.375 35.6198 373.375 36.9198C373.375 37.4398 373.375 37.9598 373.375 38.7398C373.375 39.5198 373.375 40.0398 373.375 40.5598C373.375 41.3398 373.375 41.8598 373.635 42.1198C373.895 42.6398 373.895 43.1598 373.895 43.4198C373.895 43.1598 373.895 43.6798 373.635 44.4598C373.375 45.4998 373.115 46.2798 372.595 46.5398C372.335 46.7998 372.075 47.0598 372.075 47.3198C372.075 47.5798 372.075 47.8398 371.815 48.0998C371.815 48.0998 371.555 47.8398 371.555 47.5798C371.295 46.2798 370.515 44.1998 369.735 41.8598C368.954 39.7798 367.654 38.4798 365.834 37.4398C364.534 38.4798 363.494 40.8198 362.714 43.9398C362.194 46.2798 361.934 48.6198 361.934 51.2198C361.934 52.7798 362.194 54.3398 362.714 55.8998C363.494 57.9798 364.534 59.2798 365.574 59.2798C366.354 59.2798 367.134 58.7598 367.914 57.9798C368.434 57.1998 368.954 56.4198 369.475 55.6398C369.475 54.5998 369.214 53.8198 369.214 53.0398C368.174 52.5198 367.654 51.9998 367.654 51.7398Z" fill="#1F478A"/>
<path d="M382.995 34.8398C385.595 34.8398 387.155 35.3598 387.675 36.1398C387.935 36.6598 388.195 37.6998 388.195 39.5198C388.195 41.5998 387.935 44.4598 387.415 48.3598C386.895 52.2598 386.635 55.3798 386.635 57.1998C386.635 59.0198 386.635 60.5798 386.895 61.3598C385.855 60.8398 385.335 57.9798 385.335 53.2998C385.335 52.7798 385.335 51.9998 385.335 51.4798C385.075 54.8598 384.815 57.7198 384.815 59.7998C384.815 61.0998 384.815 61.8798 385.075 61.8798C385.595 62.1398 385.855 62.1398 385.855 62.1398C385.855 62.3998 385.335 62.3998 384.555 62.3998C383.255 62.3998 382.215 62.1398 381.695 61.8798C380.655 61.0998 380.135 58.2398 379.875 52.7798C379.875 49.3998 379.875 46.0198 379.615 42.8998C379.615 41.0798 379.615 39.7798 379.615 39.2598C379.615 37.6998 379.355 36.3998 379.095 35.8798C379.095 35.8798 379.095 35.8798 379.095 35.6198C379.615 35.0998 380.655 34.8398 382.995 34.8398Z" fill="#1F478A"/>
<path d="M418.096 59.5398C418.616 59.5398 418.876 59.5398 418.876 59.7998C418.876 60.3198 418.356 60.8398 417.056 61.6198C415.756 62.3998 414.976 62.6598 414.456 62.6598C413.416 62.6598 412.376 61.0998 411.336 57.9798C410.556 55.6398 410.036 53.8198 409.776 51.9998C409.776 54.8598 410.816 58.2398 412.376 61.6198C411.336 60.0598 410.036 57.9798 409.256 55.3798C408.996 54.5998 408.476 53.5598 407.956 52.2598C405.876 52.5198 403.796 52.7798 402.236 52.7798C400.416 59.2798 399.116 62.6598 398.076 62.6598C397.296 62.6598 395.995 61.8798 393.915 60.0598C391.835 58.4998 390.795 57.1998 390.795 56.6798C390.795 56.6798 391.055 56.6798 391.315 56.6798C391.575 56.6798 391.575 56.6798 391.835 56.6798C393.395 56.6798 394.955 55.1198 396.515 52.2598C393.915 51.9998 392.355 51.4798 392.355 51.2198V50.9598C392.355 50.4398 392.875 49.3998 393.655 47.5798C394.435 45.7598 394.955 44.9798 395.215 44.9798C395.215 44.9798 395.215 44.9798 395.215 45.2398C395.215 45.2398 395.215 45.2398 395.215 45.4998C395.215 45.7598 395.215 45.4998 395.215 45.7598C395.215 46.7998 396.255 47.5798 398.596 48.3598C399.376 46.2798 400.676 42.8998 402.236 38.4798C401.716 40.2998 401.456 41.3398 401.196 42.1198C400.936 43.4198 400.676 44.7198 400.416 45.7598C401.456 42.6398 402.236 40.2998 402.756 38.7398C402.496 37.9598 401.976 37.4398 401.716 37.1798V36.9198C401.716 36.3998 402.236 36.1398 403.276 35.6198C404.056 35.3598 404.836 35.0998 405.356 34.8398C405.876 34.5798 406.656 34.5798 406.916 34.5798C407.436 34.5798 407.696 34.5798 407.956 34.8398C408.736 35.3598 410.036 37.9598 411.596 42.3798C411.856 43.4198 412.896 46.2798 414.456 50.9598C414.976 52.5198 415.756 54.5998 416.796 57.4598C417.316 58.7598 417.836 59.5398 418.096 59.5398ZM403.016 49.1398C404.316 49.3998 405.616 49.3998 407.176 49.6598C406.656 47.8398 405.616 45.4998 404.316 42.1198C404.056 44.4598 403.536 46.7998 403.016 49.1398Z" fill="#1F478A"/>
</g>
<defs>
<clipPath id="clip0">
<rect width="513" height="104" fill="white"/>
</clipPath>
</defs>
</svg>
