<svg width="553" height="273" viewBox="0 0 553 273" fill="none" xmlns="http://www.w3.org/2000/svg">
<g clip-path="url(#clip0)">
<path d="M14.4284 159.689H7.87002V134.392L0 136.763V131.493L13.6414 126.486H14.4284V159.689Z" fill="url(#paint0_linear)"/>
<path d="M40.9241 159.689H34.3657V134.392L26.4957 136.763V131.493L40.1371 126.486H40.9241V159.689Z" fill="url(#paint1_linear)"/>
<path d="M52.2044 156.527C52.2044 156 52.2044 155.473 52.4668 155.209C52.7291 154.682 52.9914 154.419 53.2538 154.155C53.5161 153.892 54.0408 153.628 54.3031 153.365C54.5654 153.101 55.3524 153.101 55.8771 153.101C56.4018 153.101 56.9264 153.101 57.4511 153.365C57.9758 153.628 58.2381 153.892 58.5004 154.155C58.7628 154.419 59.0251 154.946 59.2875 155.209C59.5498 155.736 59.5498 156 59.5498 156.527C59.5498 157.054 59.5498 157.581 59.2875 157.845C59.0251 158.372 58.7628 158.635 58.5004 158.899C58.2381 159.162 57.7134 159.426 57.4511 159.689C56.9264 159.953 56.4018 159.953 55.8771 159.953C55.3524 159.953 54.8278 159.953 54.3031 159.689C53.7784 159.426 53.5161 159.162 53.2538 158.899C52.9914 158.635 52.7291 158.108 52.4668 157.845C52.4668 157.318 52.2044 157.054 52.2044 156.527Z" fill="url(#paint2_linear)"/>
<path d="M87.3572 145.986C87.3572 148.358 87.0949 150.73 86.5702 152.311C86.0455 154.155 85.2585 155.473 84.2092 156.791C83.1598 157.845 82.1105 158.899 80.7988 159.426C79.4872 159.953 77.9132 160.216 76.3392 160.216C74.7652 160.216 73.1912 159.953 71.8795 159.426C70.5678 158.899 69.2561 158.108 68.4691 156.791C67.6821 155.473 66.6328 154.155 66.1081 152.311C65.5835 150.466 65.3211 148.358 65.3211 145.986V140.189C65.3211 137.818 65.5835 135.446 66.1081 133.865C66.6328 132.02 67.4198 130.703 68.4691 129.385C69.5185 128.331 70.5678 127.277 71.8795 126.75C73.1912 126.223 74.7652 125.959 76.3392 125.959C77.9132 125.959 79.4872 126.223 80.7988 126.75C82.1105 127.277 83.4222 128.068 84.2092 129.385C85.2585 130.439 86.0455 132.02 86.5702 133.865C87.0949 135.709 87.3572 137.818 87.3572 140.189V145.986ZM80.7988 139.399C80.7988 137.818 80.7988 136.764 80.5365 135.709C80.2742 134.655 80.0118 133.865 79.7495 133.338C79.2248 132.811 78.9625 132.284 78.1755 132.02C77.6508 131.757 76.8638 131.493 76.3392 131.493C75.5522 131.493 75.0275 131.757 74.5028 132.02C73.9782 132.284 73.4535 132.811 73.1912 133.338C72.9288 133.865 72.4042 134.655 72.4042 135.709C72.1418 136.764 72.1418 137.818 72.1418 139.399V147.041C72.1418 148.622 72.1418 149.676 72.4042 150.73C72.6665 151.784 72.9288 152.574 73.1912 153.101C73.4535 153.628 73.9782 154.155 74.7652 154.419C75.5522 154.682 76.0768 154.946 76.6015 154.946C77.3885 154.946 77.9132 154.682 78.4378 154.419C78.9625 154.155 79.4872 153.628 79.7495 153.101C80.0118 152.574 80.5365 151.52 80.5365 150.73C80.7988 149.676 80.7988 148.358 80.7988 147.041V139.399Z" fill="url(#paint3_linear)"/>
<path d="M113.853 145.986C113.853 148.358 113.591 150.73 113.066 152.311C112.541 154.155 111.754 155.473 110.705 156.791C109.656 157.845 108.606 158.899 107.295 159.426C105.983 159.953 104.409 160.216 102.835 160.216C101.261 160.216 99.6869 159.953 98.3752 159.426C97.0636 158.899 95.7519 158.108 94.9649 156.791C94.1779 155.473 93.1286 154.155 92.6039 152.311C92.0792 150.466 91.8169 148.358 91.8169 145.986V140.189C91.8169 137.818 92.0792 135.446 92.6039 133.865C93.1286 132.02 93.9156 130.703 94.9649 129.385C96.0142 128.331 97.0636 127.277 98.3752 126.75C99.6869 126.223 101.261 125.959 102.835 125.959C104.409 125.959 105.983 126.223 107.295 126.75C108.606 127.277 109.918 128.068 110.705 129.385C111.754 130.439 112.541 132.02 113.066 133.865C113.591 135.709 113.853 137.818 113.853 140.189V145.986ZM107.295 139.399C107.295 137.818 107.295 136.764 107.032 135.709C106.77 134.655 106.508 133.865 106.245 133.338C105.721 132.811 105.458 132.284 104.671 132.02C103.884 131.757 103.36 131.493 102.835 131.493C102.048 131.493 101.523 131.757 100.999 132.02C100.474 132.284 99.9493 132.811 99.6869 133.338C99.4246 133.865 98.8999 134.655 98.8999 135.709C98.6376 136.764 98.6376 137.818 98.6376 139.399V147.041C98.6376 148.622 98.6376 149.676 98.8999 150.73C99.1623 151.784 99.4246 152.574 99.6869 153.101C99.9493 153.628 100.474 154.155 101.261 154.419C101.786 154.682 102.573 154.946 103.097 154.946C103.884 154.946 104.409 154.682 104.934 154.419C105.458 154.155 105.983 153.628 106.245 153.101C106.508 152.574 107.032 151.52 107.032 150.73C107.295 149.676 107.295 148.358 107.295 147.041V139.399Z" fill="url(#paint4_linear)"/>
<path d="M140.611 145.986C140.611 148.358 140.349 150.73 139.824 152.311C139.299 154.155 138.512 155.473 137.463 156.791C136.414 157.845 135.364 158.899 134.053 159.426C132.741 159.953 131.167 160.216 129.593 160.216C128.019 160.216 126.445 159.953 125.133 159.426C123.822 158.899 122.51 158.108 121.723 156.791C120.936 155.473 119.887 154.155 119.362 152.311C118.837 150.466 118.575 148.358 118.575 145.986V140.189C118.575 137.818 118.837 135.446 119.362 133.865C119.887 132.02 120.674 130.703 121.723 129.385C122.772 128.331 123.822 127.277 125.133 126.75C126.445 126.223 128.019 125.959 129.593 125.959C131.167 125.959 132.741 126.223 134.053 126.75C135.364 127.277 136.676 128.068 137.463 129.385C138.512 130.439 139.299 132.02 139.824 133.865C140.349 135.709 140.611 137.818 140.611 140.189V145.986ZM134.053 139.399C134.053 137.818 134.053 136.764 133.79 135.709C133.528 134.655 133.266 133.865 133.003 133.338C132.479 132.811 132.216 132.284 131.429 132.02C130.905 131.757 130.118 131.493 129.593 131.493C128.806 131.493 128.281 131.757 127.757 132.02C127.232 132.284 126.707 132.811 126.445 133.338C126.183 133.865 125.658 134.655 125.658 135.709C125.396 136.764 125.396 137.818 125.396 139.399V147.041C125.396 148.622 125.396 149.676 125.658 150.73C125.92 151.784 126.183 152.574 126.445 153.101C126.707 153.628 127.232 154.155 128.019 154.419C128.544 154.682 129.331 154.946 129.855 154.946C130.642 154.946 131.167 154.682 131.692 154.419C132.216 154.155 132.741 153.628 133.003 153.101C133.266 152.574 133.79 151.52 133.79 150.73C134.053 149.676 134.053 148.358 134.053 147.041V139.399Z" fill="url(#paint5_linear)"/>
<path d="M163.959 148.095V159.689H157.138V126.486H169.992C171.829 126.486 173.665 126.75 175.239 127.277C176.813 127.804 178.125 128.595 179.174 129.649C180.223 130.703 181.01 131.757 181.535 133.074C182.06 134.392 182.322 135.973 182.322 137.554C182.322 139.135 182.06 140.716 181.535 141.77C181.01 143.088 180.223 144.142 179.174 145.196C178.125 145.986 176.813 146.777 175.239 147.304C173.665 147.831 172.091 148.095 169.992 148.095H163.959ZM163.959 142.561H169.992C171.042 142.561 171.829 142.561 172.616 142.297C173.403 142.034 173.927 141.77 174.452 141.243C174.977 140.716 175.239 140.189 175.501 139.662C175.764 139.135 175.764 138.345 175.764 137.554C175.764 136.763 175.764 136.236 175.501 135.446C175.239 134.919 174.977 134.128 174.452 133.601C173.927 133.074 173.403 132.811 172.616 132.284C171.829 132.02 171.042 131.757 169.992 131.757H163.959V142.561Z" fill="url(#paint6_linear)"/>
<path d="M213.802 159.689H206.981V145.459H193.865V159.689H187.044V126.486H193.865V139.926H206.981V126.486H213.802V159.689Z" fill="url(#paint7_linear)"/>
<path d="M226.394 122.007H222.722L217.475 115.946H222.722L226.394 122.007ZM238.724 152.838H226.919L224.558 159.689H217.213L229.805 126.486H236.101L248.43 159.689H241.085L238.724 152.838ZM241.085 125.169H236.101L232.69 122.27L229.28 125.169H224.296L230.854 119.899H234.527L241.085 125.169ZM228.755 147.304H236.888L232.69 134.919L228.755 147.304Z" fill="url(#paint8_linear)"/>
<path d="M278.074 159.689H271.253L258.137 137.818V159.689H251.316V126.486H258.137L271.253 148.358V126.486H278.074V159.689Z" fill="url(#paint9_linear)"/>
<path d="M322.671 143.878C322.671 147.041 322.146 149.676 321.097 152.047C320.047 154.419 318.736 156.264 316.899 157.581L322.408 161.797L318.211 165.75L311.128 160.216C310.341 160.48 309.554 160.48 308.767 160.48C306.668 160.48 304.832 160.216 302.996 159.426C301.159 158.635 299.848 157.581 298.536 156.264C297.224 154.946 296.437 153.101 295.65 151.257C294.863 149.149 294.601 147.041 294.601 144.405V142.297C294.601 139.662 294.863 137.554 295.65 135.446C296.437 133.338 297.224 131.757 298.536 130.439C299.848 129.122 301.159 128.068 302.996 127.277C304.832 126.487 306.668 126.223 308.767 126.223C310.866 126.223 312.702 126.487 314.538 127.277C316.375 128.068 317.686 129.122 318.998 130.439C320.31 131.757 321.097 133.601 321.884 135.446C322.671 137.554 322.933 139.662 322.933 142.297V143.878H322.671ZM315.85 142.297C315.85 138.872 315.325 136.237 314.014 134.392C312.702 132.547 311.128 131.757 308.767 131.757C306.406 131.757 304.832 132.547 303.52 134.392C302.209 136.237 301.684 138.872 301.684 142.297V143.878C301.684 145.723 301.946 147.041 302.209 148.358C302.471 149.676 302.996 150.73 303.52 151.784C304.045 152.574 304.832 153.365 305.881 153.892C306.668 154.419 307.718 154.682 309.029 154.682C311.39 154.682 312.964 153.892 314.276 152.047C315.588 150.203 316.112 147.568 316.112 144.142V142.297H315.85Z" fill="url(#paint10_linear)"/>
<path d="M352.577 126.486V148.358C352.577 150.203 352.314 152.047 351.527 153.365C351.003 154.946 349.953 156 348.904 157.054C347.855 158.108 346.543 158.899 344.969 159.162C343.395 159.689 341.821 159.953 339.985 159.953C338.149 159.953 336.574 159.689 335 159.162C333.426 158.635 332.115 157.845 331.065 157.054C330.016 156 328.967 154.946 328.442 153.365C327.917 151.784 327.393 150.203 327.393 148.358V126.486H334.213V148.358C334.213 150.466 334.738 152.047 335.787 153.101C336.837 154.155 338.149 154.682 339.985 154.682C341.821 154.682 343.133 154.155 344.182 153.101C345.231 152.047 345.756 150.466 345.756 148.358V126.486H352.577Z" fill="url(#paint11_linear)"/>
<path d="M376.187 152.838H364.382L362.021 159.689H354.675L367.268 126.486H373.564L385.893 159.689H378.548L376.187 152.838ZM373.564 124.642H368.317L362.021 117.527H369.104L373.564 124.642ZM366.218 147.304H374.351L370.153 134.919L366.218 147.304Z" fill="url(#paint12_linear)"/>
<path d="M426.555 155.473C426.293 156 425.506 156.527 424.981 157.054C424.194 157.581 423.407 158.108 422.358 158.635C421.308 159.162 419.997 159.426 418.685 159.689C417.373 159.953 415.799 160.216 413.963 160.216C411.864 160.216 409.766 159.953 408.192 159.162C406.355 158.372 405.044 157.318 403.732 156C402.42 154.682 401.633 152.838 400.846 150.993C400.059 148.885 399.797 146.777 399.797 144.142V142.297C399.797 139.662 400.059 137.554 400.846 135.446C401.371 133.338 402.42 131.757 403.732 130.439C405.044 129.122 406.355 128.068 408.192 127.277C410.028 126.487 411.864 126.223 413.963 126.223C416.062 126.223 417.898 126.487 419.472 127.014C421.046 127.541 422.358 128.331 423.407 129.385C424.456 130.439 425.243 131.493 425.768 132.811C426.293 134.128 426.817 135.709 426.817 137.291H420.259C419.997 136.5 419.997 135.71 419.734 134.919C419.472 134.128 418.947 133.601 418.685 133.074C418.16 132.547 417.636 132.284 416.849 132.02C416.062 131.757 415.275 131.757 414.225 131.757C411.864 131.757 410.028 132.547 408.979 134.392C407.667 136.237 407.142 138.872 407.142 142.297V144.405C407.142 147.831 407.667 150.466 409.241 152.311C410.815 154.155 412.389 154.946 415.012 154.946C415.799 154.946 416.586 154.946 417.111 154.682C417.636 154.682 418.16 154.419 418.685 154.155C419.21 153.892 419.472 153.892 419.734 153.628C419.997 153.365 420.259 153.365 420.521 153.101V147.304H414.225V142.297H427.08V155.473H426.555Z" fill="url(#paint13_linear)"/>
<path d="M439.147 159.689H432.326V126.486H439.147V159.689Z" fill="url(#paint14_linear)"/>
<path d="M464.593 152.838H452.788L450.427 159.689H443.082L455.412 126.486H461.708L474.037 159.689H466.692L464.593 152.838ZM454.362 147.304H462.495L458.297 134.919L454.362 147.304ZM459.871 117.79H466.954L460.658 124.905H455.412L459.871 117.79Z" fill="url(#paint15_linear)"/>
<path d="M512.076 132.02H502.107V159.689H495.287V132.02H485.318V126.486H512.076V132.02Z" fill="url(#paint16_linear)"/>
<path d="M528.078 147.568H522.569V159.689H515.749V126.486H528.078C529.915 126.486 531.751 126.75 533.325 127.013C534.899 127.541 536.211 128.068 537.26 128.858C538.309 129.649 539.096 130.703 539.621 132.02C540.146 133.338 540.408 134.655 540.408 136.236C540.408 137.554 540.146 138.608 539.883 139.399C539.621 140.453 539.096 141.243 538.834 142.034C538.309 142.824 537.785 143.351 536.998 143.878C536.211 144.405 535.424 144.932 534.637 145.459L541.72 158.899V159.162H534.374L528.078 147.568ZM522.832 142.034H528.341C529.128 142.034 529.915 142.034 530.702 141.77C531.489 141.507 532.013 141.243 532.276 140.716C532.8 140.189 533.063 139.662 533.325 139.135C533.587 138.608 533.587 137.818 533.587 137.027C533.587 135.446 533.063 134.128 532.276 133.338C531.489 132.547 529.915 132.02 528.341 132.02H522.832V142.034Z" fill="url(#paint17_linear)"/>
<path d="M545.655 164.959C545.655 164.432 545.655 164.169 545.917 163.642C546.179 163.378 546.442 162.851 546.704 162.588C546.966 162.324 547.491 162.061 547.753 161.797C548.278 161.534 548.803 161.534 549.327 161.534C549.852 161.534 550.377 161.534 550.901 161.797C551.426 162.061 551.688 162.061 551.951 162.588C552.213 162.851 552.475 163.115 552.738 163.642C553 163.905 553 164.432 553 164.959C553 165.486 553 165.75 552.738 166.277C552.475 166.54 552.213 167.068 551.951 167.331C551.688 167.595 551.164 167.858 550.901 168.122C550.377 168.385 549.852 168.385 549.327 168.385C548.803 168.385 548.278 168.385 547.753 168.122C547.229 167.858 546.966 167.858 546.704 167.331C546.442 167.068 546.179 166.804 545.917 166.277C545.655 165.75 545.655 165.486 545.655 164.959ZM552.738 159.689H545.917V126.486H552.738V159.689Z" fill="url(#paint18_linear)"/>
<path d="M469.315 217.399C469.315 219.507 472.988 218.716 473.25 219.77C474.037 221.351 471.939 221.878 472.464 223.46C489.253 224.777 506.305 226.095 523.094 229.52C519.946 230.574 516.798 231.892 513.912 231.101C508.928 229.784 503.681 229.52 498.435 229.257C487.679 228.466 477.186 226.358 466.43 226.622C465.643 226.622 464.856 226.622 462.495 226.622C465.905 227.676 468.528 227.412 469.578 230.047C460.396 230.574 452.001 228.73 442.82 228.466C442.557 229.257 442.295 230.311 442.033 231.365C468.791 232.419 495.549 233.737 523.094 238.48C517.847 240.851 513.388 240.061 509.453 239.797C501.058 239.007 492.401 237.953 484.006 236.899C482.695 236.899 481.121 236.635 480.334 237.162C477.448 239.534 474.824 238.216 471.677 237.689C473.513 236.108 474.825 238.48 476.399 236.635C469.578 235.054 463.019 237.426 456.461 236.635C449.903 235.845 443.082 235.845 435.737 235.318C438.36 237.689 441.508 237.426 443.607 237.426C449.903 237.426 455.936 238.48 462.232 238.48C468.791 238.216 475.349 239.27 481.645 239.797C485.843 240.324 490.04 239.797 493.975 239.27C495.287 239.007 494.5 239.797 494.762 240.324C495.549 241.642 497.385 241.642 499.222 241.642C505.518 241.642 511.814 242.432 517.847 243.75C518.634 244.014 519.946 243.75 519.946 244.804C519.946 245.858 518.897 245.858 518.11 246.122C513.388 247.966 508.666 245.858 503.944 245.858C501.32 245.858 498.697 243.75 496.336 246.649C495.811 247.176 494.762 246.649 493.713 246.649C488.204 245.331 482.17 245.858 476.399 244.277C473.513 243.487 469.315 244.541 465.905 245.068C460.921 245.858 455.936 244.014 450.69 243.75C446.23 243.487 441.77 242.96 437.573 242.696C428.654 242.169 419.734 240.851 409.766 241.905C416.062 243.487 421.571 243.75 427.08 243.75C439.409 243.75 451.214 247.176 463.544 246.122C472.726 250.865 483.482 248.493 493.45 250.338C499.484 251.655 506.042 251.655 512.601 252.182C513.125 252.182 513.65 252.71 513.912 253.5C488.728 250.338 463.282 251.392 437.573 249.02C443.607 252.182 451.214 248.493 456.723 253.237C446.492 256.135 436.786 251.919 427.08 253.237C430.752 255.345 435.999 254.818 438.622 258.243C439.147 259.034 438.885 259.824 437.048 260.088C439.934 261.669 441.508 256.926 444.131 259.561C444.394 258.77 444.394 257.98 444.656 257.189C445.705 256.662 447.017 258.507 446.492 259.561C446.492 259.824 446.492 260.088 446.492 260.351C470.102 260.878 493.188 262.987 517.06 265.622C514.962 267.203 513.388 267.466 511.814 267.466C502.894 266.676 493.975 266.149 485.318 265.358C481.383 265.095 477.186 264.831 473.513 264.568C464.069 264.304 454.625 263.514 445.181 262.987C433.9 262.46 422.62 262.723 411.34 262.987C409.766 262.987 407.667 262.46 406.618 264.568C425.243 265.095 443.869 265.358 462.495 266.412C481.121 267.203 500.009 268.257 518.11 272.737C512.601 274.318 507.092 274.054 501.583 273.527C495.024 272.737 488.204 271.946 481.645 271.682C467.217 271.155 452.788 270.365 438.36 269.838C416.062 269.311 393.763 269.311 371.465 269.311C357.824 269.311 344.182 269.047 330.803 269.311C308.505 269.838 285.944 269.574 263.646 270.101C247.119 270.628 230.592 270.365 214.065 270.892C199.898 271.419 185.732 271.682 171.829 272.473C155.302 273.264 138.775 272.737 122.51 273C117.788 273 112.804 273.264 107.819 272.737C109.131 270.892 110.705 270.628 112.804 270.892C123.297 271.155 133.79 270.365 144.021 269.574C148.743 269.311 153.99 268.784 158.974 269.838C162.122 270.365 165.533 269.311 168.943 269.047C178.125 268.52 187.306 267.993 196.75 267.73C211.704 266.939 226.657 265.885 241.347 266.412C251.054 266.676 260.498 265.358 270.204 266.149C273.09 266.412 275.713 265.358 278.336 264.568C270.991 264.568 263.646 264.568 256.3 264.568C244.233 264.568 232.428 264.304 220.361 264.568C210.392 264.831 200.161 265.095 190.192 265.622C187.044 265.885 183.371 265.622 179.961 265.885C167.369 266.412 154.515 266.676 141.923 266.676C135.102 266.676 128.544 266.412 121.985 267.466C119.1 267.993 116.739 265.622 113.853 266.676C114.115 267.203 114.378 267.993 114.64 269.047C112.279 269.047 109.656 269.574 108.344 269.047C103.097 265.622 96.5389 266.676 90.7676 265.622C88.6689 265.095 86.0455 265.622 85.5209 263.514C84.9962 261.405 87.8819 261.405 88.9312 259.561C83.6845 257.453 83.1599 251.919 78.1755 248.757C76.3392 249.02 77.1262 252.973 72.9289 250.601C73.4535 254.291 78.4379 256.399 76.3392 260.351C73.4535 260.878 72.1419 259.034 71.0925 257.716C66.6328 251.919 63.4848 245.068 63.4848 238.48C63.7472 228.203 63.4848 217.662 67.9445 207.649C68.2068 206.858 68.4692 206.068 68.9938 205.541C70.0432 204.223 70.5678 201.851 73.4535 202.378C76.0769 202.642 76.6015 204.75 76.6015 206.331C76.6015 208.439 78.4379 208.966 80.7989 210.02C81.8482 207.912 81.3235 205.541 83.9469 204.487C84.2092 204.487 84.4715 203.96 84.2092 203.96C80.2742 200.797 85.7832 200.534 87.0949 198.953C83.1599 196.054 82.1105 192.628 82.3729 188.412C80.2742 188.149 78.4379 187.885 76.6015 188.412C74.5029 189.203 73.9782 187.622 72.9289 186.831C73.7159 186.041 73.7159 184.987 75.8145 184.723C85.2585 183.405 94.7026 182.088 104.671 181.824C129.855 180.77 154.777 180.507 179.961 180.243C194.914 180.243 209.867 180.77 224.82 181.824C229.28 182.088 233.74 180.507 238.199 181.034C248.168 182.351 258.137 181.561 268.105 181.824C277.287 182.088 286.206 181.034 295.388 181.824C310.603 183.142 326.081 182.351 341.559 182.878C353.364 183.405 365.169 183.669 376.974 184.459C391.927 185.514 406.88 186.568 421.833 187.358C435.737 188.149 449.903 188.149 463.806 190.52C472.726 192.101 481.908 192.365 490.827 194.209C495.811 195.264 501.058 196.581 506.305 197.108C508.928 197.372 507.354 198.689 508.141 199.48C503.157 198.162 497.91 198.426 492.926 197.372C487.417 196.318 482.17 195.791 476.661 197.899C472.988 199.48 468.791 198.162 465.118 197.899C452.264 196.318 439.409 195.527 426.555 194.209C411.34 192.892 396.124 192.101 380.909 191.047C368.317 190.257 355.725 190.257 343.395 189.466C328.967 188.676 314.801 189.466 300.372 188.676C292.765 188.149 284.895 188.149 277.287 188.149C272.04 188.149 266.794 189.993 261.285 188.676C262.072 188.939 262.859 189.73 263.646 189.73C277.025 189.73 289.879 192.628 303.258 192.101C311.39 191.838 319.785 192.365 328.18 193.419C332.115 193.946 336.05 192.892 340.51 193.155C349.954 194.21 359.922 193.946 369.629 194.209C385.106 195 400.846 195 416.324 195.791C433.113 196.845 449.903 198.953 466.43 201.851C474.3 203.169 482.432 204.223 490.565 204.487C491.352 204.487 491.876 204.75 492.663 205.277C486.63 205.277 480.858 205.277 475.349 204.487C474.562 206.068 477.186 205.804 477.448 207.385C465.118 209.757 452.788 205.277 440.459 207.122C443.082 209.23 446.755 208.439 449.903 208.703C459.084 208.703 467.741 210.547 476.399 211.601C480.071 212.128 483.744 211.601 487.154 212.919C489.253 213.71 492.926 211.338 493.188 215.027C498.172 213.973 502.37 217.399 507.092 216.872C512.076 216.345 516.798 217.926 521.782 218.453C522.832 218.716 524.406 218.716 524.668 220.034C524.93 221.615 523.356 221.878 522.045 222.405C517.585 223.987 513.65 221.878 509.453 221.878C508.403 221.878 507.092 221.615 505.78 221.615C492.926 220.297 481.12 218.189 469.315 217.399C461.708 216.872 454.1 216.081 446.492 215.291C446.492 215.554 446.492 215.818 446.492 216.345C453.838 216.872 461.445 218.453 469.315 217.399ZM436.261 220.034C442.82 222.932 449.378 221.878 455.936 222.142C449.64 221.088 443.082 220.034 436.261 220.034Z" fill="white"/>
<path d="M123.035 212.656C123.035 212.656 123.035 212.919 123.035 213.183C123.035 214.237 122.51 216.345 121.198 219.77C119.887 223.723 118.837 226.358 118.575 227.412C117.001 231.892 115.952 234 115.689 234.264C115.165 234.791 114.64 235.054 114.115 235.054C113.591 235.054 113.328 234.791 113.328 234.264C112.804 234.527 112.804 234.527 112.541 234.527C112.279 234.527 112.017 234.527 111.754 234.264C110.967 234 110.18 231.629 108.869 227.412C109.131 229.784 109.393 231.892 110.18 233.473C109.393 232.946 108.606 231.365 107.819 228.993C107.295 227.939 106.77 226.095 106.245 223.987C105.196 220.561 104.671 218.98 104.671 218.716C103.622 216.081 102.835 214.5 102.048 214.237C101.523 214.237 101.261 213.973 101.261 213.71C101.261 212.919 101.786 212.392 103.097 211.602C104.147 210.811 105.196 210.547 105.983 210.547C106.245 210.547 106.508 210.547 106.77 210.547C108.082 211.074 109.656 214.237 111.23 219.77C112.279 223.46 113.066 227.149 114.115 231.101C116.214 224.25 117.001 218.98 117.001 215.818C117.001 213.446 116.476 212.129 115.427 211.602C115.165 211.602 115.165 211.338 115.165 211.338C115.165 211.074 115.689 210.811 116.739 210.547C117.526 210.547 118.05 210.284 118.575 210.284C119.362 210.284 120.149 210.284 120.674 210.547C121.723 210.811 122.248 211.074 122.51 211.602C122.51 211.865 122.51 211.865 122.51 212.392C122.51 212.656 122.51 213.183 122.248 213.973C121.985 214.764 121.985 215.027 121.985 215.554C122.248 215.554 122.51 214.764 122.772 213.183C123.035 212.919 123.035 212.656 123.035 212.656Z" fill="#1F478A"/>
<path d="M143.759 213.973C144.021 214.5 144.284 215.291 144.546 216.081C145.333 218.189 145.595 220.034 145.595 222.142C145.595 224.25 145.333 226.095 144.546 227.939C144.021 229.52 142.972 230.838 141.923 232.155C140.611 233.736 139.299 234.527 137.988 234.527C137.725 234.527 137.725 234.527 137.463 234.527C136.676 235.054 135.364 235.318 134.053 235.318C133.528 235.318 133.003 235.318 132.479 235.318C130.905 235.054 129.331 234.264 128.019 232.682C126.707 231.365 125.658 229.784 125.133 228.203C124.609 226.885 124.346 225.304 124.346 223.459C124.346 218.453 125.396 215.027 127.494 213.446C127.494 212.655 128.544 211.865 130.905 210.547C131.954 210.02 133.266 209.757 134.84 209.757C137.201 209.757 139.037 210.284 140.873 211.338C141.66 211.865 142.185 212.392 142.71 213.182C142.71 212.655 142.71 212.128 142.71 211.865C142.71 211.074 142.71 210.547 142.447 210.284C142.185 210.02 141.66 209.757 141.398 209.493C140.873 209.23 140.611 208.703 140.611 208.439C140.611 207.912 140.873 207.649 141.398 207.122C141.923 206.595 142.447 206.595 142.972 206.595C143.497 206.595 144.284 206.858 144.808 207.649C145.333 208.176 145.595 208.966 145.595 209.493C145.595 209.757 145.595 210.02 145.333 210.284C145.071 210.811 144.808 211.601 144.546 212.128C144.284 212.392 144.021 213.182 143.759 213.973C144.021 213.973 144.021 213.709 143.759 213.973ZM134.84 232.155C134.84 232.155 135.102 231.892 135.889 231.628C137.725 230.838 138.512 227.412 138.512 221.615C138.512 219.243 138.512 217.399 138.25 216.345C137.725 213.973 136.676 212.655 135.102 212.655C134.315 212.655 133.528 212.919 132.479 213.446C132.216 213.973 131.692 214.5 131.167 215.554C130.38 217.399 129.855 219.77 129.855 222.405C129.855 223.986 129.855 224.777 130.118 225.304C130.118 225.568 130.38 225.568 130.38 225.568C130.38 225.041 130.38 224.514 130.38 223.723C130.38 220.297 130.905 217.399 131.954 215.818C131.429 218.98 131.429 221.351 131.429 222.669C131.429 223.986 131.692 225.304 131.954 226.885C132.216 228.466 133.003 229.784 133.528 230.574C134.053 231.892 134.577 232.155 134.84 232.155ZM130.905 209.757C130.905 209.757 131.954 208.966 134.053 207.385C134.577 206.858 135.102 206.595 135.364 206.331C135.889 205.804 136.151 205.541 136.414 205.014C136.414 205.014 136.414 204.75 136.676 204.75C136.938 204.75 137.463 205.014 137.725 205.804C137.988 206.331 138.25 206.858 138.25 207.385C138.25 208.176 137.725 208.703 136.938 208.966C136.676 208.966 135.889 209.23 134.315 209.493C133.266 209.757 132.479 209.757 131.954 210.284C131.692 210.547 131.429 210.547 131.429 210.547C131.167 210.547 130.905 210.284 130.905 209.757Z" fill="#1F478A"/>
<path d="M151.367 210.547C153.465 210.547 155.039 211.074 155.564 211.865C155.826 212.128 156.089 213.182 156.089 214.764C156.089 216.608 155.826 219.243 155.564 222.669C155.302 226.095 155.039 228.993 155.039 230.574C155.039 232.155 155.039 233.473 155.302 234.264C154.515 233.737 153.99 231.365 153.99 226.885C153.99 226.358 153.99 225.831 153.99 225.304C153.728 228.466 153.465 230.838 153.465 232.946C153.465 234 153.465 234.791 153.728 234.791C154.252 235.054 154.515 235.054 154.515 235.054C154.515 235.318 154.252 235.318 153.465 235.318C152.154 235.318 151.367 235.054 150.842 234.791C150.055 234.264 149.53 231.365 149.268 226.622C149.268 223.723 149.268 220.561 149.006 217.662C149.006 216.081 149.006 214.764 149.006 214.5C149.006 212.919 148.743 211.865 148.481 211.338C148.481 211.338 148.481 211.338 148.481 211.074C148.219 210.811 149.268 210.547 151.367 210.547Z" fill="#1F478A"/>
<path d="M183.896 223.987C184.945 223.723 185.732 223.46 186.257 222.932L186.519 222.669C186.782 222.669 187.044 222.932 187.306 223.723C187.569 224.25 187.569 224.777 187.569 225.304C187.569 227.149 186.782 227.939 185.208 227.939C184.683 227.939 184.158 227.939 183.634 227.676C183.634 229.257 183.634 230.574 183.634 231.628C183.634 234 183.634 235.318 183.896 235.845C183.371 235.318 183.109 234.791 183.109 234.527C182.847 234.264 182.847 233.737 182.584 233.21C182.322 231.892 182.06 230.047 182.06 228.203V227.412C182.06 227.939 182.06 228.73 182.06 229.52C182.06 230.838 182.06 231.892 182.322 232.946C182.322 233.737 182.584 234.527 182.847 234.791C183.109 235.054 183.371 235.581 183.896 236.108C182.584 235.845 181.797 235.318 181.01 234.791C180.223 234.264 179.699 233.21 179.436 231.892C179.174 230.838 178.912 228.993 178.912 226.622C177.338 226.358 176.026 226.358 175.239 226.358H174.714C174.19 226.622 173.665 226.622 172.878 226.622C172.878 226.622 172.616 226.885 172.091 227.149C171.829 227.412 171.566 227.676 171.304 227.676C170.779 227.676 170.517 227.149 170.255 226.358C169.205 226.095 168.681 225.568 168.681 225.041C168.681 223.723 169.468 221.878 171.304 218.716C172.616 216.345 173.927 214.5 175.239 212.655C176.288 211.338 177.075 210.547 177.338 210.284C177.6 210.284 177.862 210.02 178.125 210.02C178.912 209.493 180.486 209.493 182.322 209.493C182.322 209.493 182.584 209.493 182.847 209.493C183.109 209.493 183.371 209.493 183.371 209.493C184.421 209.493 184.945 210.02 184.945 210.811C184.945 211.074 184.945 212.655 184.683 215.291C184.158 219.243 183.896 221.878 183.896 223.987ZM174.714 223.723C175.501 223.723 176.813 223.987 178.649 223.987C178.649 222.405 178.649 220.824 178.649 219.243C178.649 217.399 178.649 215.818 178.387 214.5C177.6 215.818 176.813 217.135 176.288 218.98C175.239 220.824 174.977 222.405 174.714 223.723Z" fill="#1F478A"/>
<path d="M212.49 221.088C214.327 221.088 215.901 221.352 216.95 222.142C217.475 222.669 218 223.46 218.524 224.777C218.787 225.831 219.049 226.885 219.049 227.676C219.049 227.939 219.049 228.466 218.787 228.73C218.524 230.047 217.213 231.629 215.376 232.946C213.54 234.264 211.966 235.054 210.392 235.054C211.966 234.527 213.54 233.473 215.114 231.892C215.639 231.365 216.163 230.838 216.426 230.311C216.95 229.784 217.213 228.993 217.475 228.73C213.802 232.683 210.916 234.527 208.555 234.527C208.293 234.527 208.031 234.527 207.768 234.264C207.506 234 207.244 234 206.981 233.737C206.719 233.737 206.194 233.473 205.67 233.473C205.407 233.473 205.145 233.21 204.883 232.946C204.62 232.683 204.62 233.21 204.62 232.946C204.62 232.683 204.883 232.419 205.407 232.156C206.719 231.629 208.293 230.575 210.654 228.73C213.278 226.622 214.327 225.304 214.327 224.25C214.327 223.987 214.327 223.987 214.064 223.723C213.277 222.933 212.49 222.669 211.441 222.669C210.916 222.669 210.129 222.669 209.08 222.933C208.031 223.196 207.244 223.196 206.719 223.196C206.194 223.196 205.67 223.196 205.67 222.933L205.407 222.669C205.407 225.831 205.145 228.203 204.62 230.047C203.833 232.946 202.522 234.791 200.423 235.581C200.423 235.581 200.423 235.581 200.161 235.581C200.423 235.054 200.685 234.527 200.948 233.473C201.21 232.683 201.21 231.629 201.21 230.311C201.21 229.784 201.21 228.993 200.948 227.676C200.948 226.095 200.685 225.304 200.685 225.304C200.685 225.568 200.685 226.622 200.685 228.203C200.685 229.52 200.423 230.838 200.161 231.892C200.161 231.102 200.161 230.574 200.161 229.784C200.161 228.993 200.161 227.412 199.898 224.777C199.898 223.723 199.898 222.142 199.636 220.297C199.636 218.453 199.374 216.345 199.374 214.237C198.587 213.446 198.324 212.392 198.324 210.811C198.324 209.493 198.587 208.966 198.849 208.966C199.374 209.757 200.685 210.284 202.784 210.284C203.571 210.284 205.145 210.02 206.719 209.757C208.293 209.493 209.867 209.23 210.654 209.23C213.278 209.23 214.852 210.02 215.901 211.602C216.163 212.129 216.426 212.656 216.426 213.446C216.426 214.764 215.901 216.081 214.852 217.399C214.589 219.243 213.54 220.297 212.49 221.088ZM205.67 221.879C206.457 221.615 206.981 221.352 207.506 221.088C208.293 220.297 209.342 219.243 210.129 217.399C210.916 215.818 211.441 214.237 211.441 213.183C211.441 212.656 211.179 212.392 210.654 212.392C210.129 212.392 209.342 212.656 208.031 213.446L205.407 215.027C205.407 215.818 205.407 216.345 205.407 216.872C205.407 217.399 205.407 218.189 205.407 219.243C205.67 220.561 205.67 221.352 205.67 221.879Z" fill="#1F478A"/>
<path d="M236.101 218.98C236.101 216.872 235.576 214.5 234.789 211.865V211.601C234.789 211.074 235.314 210.547 236.625 210.547C238.199 210.547 239.249 211.074 239.511 211.865C240.036 213.183 240.298 215.554 240.298 218.98C240.298 222.932 239.773 226.358 238.724 228.993C237.15 232.946 234.789 234.791 231.641 234.791C229.805 234.791 228.231 234.527 227.181 234.264C226.132 234 224.82 232.682 223.771 230.838C222.984 229.257 222.197 227.676 221.935 226.095C221.41 223.987 221.148 221.088 221.148 217.399C221.148 214.764 221.41 212.655 221.672 211.865C221.935 210.811 223.246 210.284 225.607 210.284C227.968 210.284 229.018 210.811 229.018 211.865C229.018 211.865 229.018 212.128 229.018 212.392C228.231 215.027 227.706 218.453 227.706 222.405C227.706 223.987 227.968 225.831 228.231 227.939C228.755 230.574 229.542 232.155 230.329 231.892H230.592C230.854 232.155 231.379 232.155 231.641 232.155C233.215 232.155 234.264 230.838 234.789 228.203C235.051 226.622 235.314 224.777 235.314 222.669C235.314 221.351 235.314 219.507 235.051 217.135C234.789 214.5 234.527 212.655 234.002 211.865C234.527 212.655 235.051 213.973 235.576 215.818C236.101 217.399 236.363 218.716 236.363 220.034C236.363 220.297 236.363 220.561 236.363 220.561C236.101 220.034 236.101 219.507 236.101 218.98ZM240.036 206.068C240.56 206.068 241.347 206.331 241.872 207.122C242.397 207.649 242.659 208.439 242.659 208.966C242.659 209.23 242.659 209.493 242.397 209.757C242.134 210.284 241.872 211.074 241.61 211.601C241.347 211.865 241.085 212.655 240.823 213.446C240.298 214.5 240.036 215.027 239.773 215.027C239.773 215.027 239.773 215.027 239.773 214.764C239.773 214.5 239.773 213.973 239.773 213.183C239.773 212.392 239.773 211.865 239.773 211.601C239.773 210.811 239.773 210.284 239.511 210.02C239.249 209.757 238.724 209.493 238.462 209.23C237.937 208.966 237.675 208.439 237.675 208.176C237.675 207.649 237.937 207.385 238.462 206.858C238.986 206.331 239.511 206.068 240.036 206.068Z" fill="#1F478A"/>
<path d="M261.547 213.973C261.809 214.5 262.072 215.291 262.334 216.081C263.121 218.189 263.383 220.034 263.383 222.142C263.383 224.25 263.121 226.095 262.334 227.939C261.809 229.52 260.76 230.838 259.711 232.155C258.399 233.736 257.087 234.527 255.776 234.527C255.513 234.527 255.513 234.527 255.251 234.527C254.464 235.054 253.152 235.318 251.841 235.318C251.316 235.318 250.791 235.318 250.267 235.318C248.693 235.054 247.119 234.264 245.807 232.682C244.495 231.365 243.446 229.784 242.921 228.203C242.397 226.885 242.134 225.304 242.134 223.459C242.134 218.453 243.184 215.027 245.282 213.446C245.282 212.655 246.332 211.865 248.693 210.547C249.742 210.02 251.054 209.757 252.628 209.757C254.989 209.757 256.825 210.284 258.661 211.338C259.448 211.865 259.973 212.392 260.498 213.182C260.498 212.655 260.498 212.128 260.498 211.865C260.498 211.074 260.498 210.547 260.235 210.284C259.973 210.02 259.448 209.757 259.186 209.493C258.661 209.23 258.399 208.703 258.399 208.439C258.399 207.912 258.661 207.649 259.186 207.122C259.711 206.595 260.235 206.595 260.76 206.595C261.285 206.595 262.072 206.858 262.596 207.649C263.121 208.176 263.383 208.966 263.383 209.493C263.383 209.757 263.383 210.02 263.121 210.284C262.859 210.811 262.596 211.601 262.334 212.128C262.072 212.392 261.809 213.182 261.547 213.973C261.547 213.973 261.809 213.709 261.547 213.973ZM252.628 232.155C252.628 232.155 252.89 231.892 253.677 231.628C255.513 230.838 256.3 227.412 256.3 221.615C256.3 219.243 256.3 217.399 256.038 216.345C255.513 213.973 254.464 212.655 252.89 212.655C252.103 212.655 251.316 212.919 250.267 213.446C250.004 213.973 249.48 214.5 248.955 215.554C248.168 217.399 247.643 219.77 247.643 222.405C247.643 223.986 247.643 224.777 247.906 225.304C247.906 225.568 248.168 225.568 248.168 225.568C248.168 225.041 248.168 224.514 248.168 223.723C248.168 220.297 248.693 217.399 249.742 215.818C249.217 218.98 249.217 221.351 249.217 222.669C249.217 223.986 249.48 225.304 249.742 226.885C250.004 228.466 250.791 229.784 251.316 230.574C251.841 231.892 252.365 232.155 252.628 232.155ZM248.43 209.757C248.43 209.757 249.48 208.966 251.578 207.385C252.103 206.858 252.628 206.595 252.89 206.331C253.415 205.804 253.677 205.541 253.939 205.014C253.939 205.014 253.939 204.75 254.202 204.75C254.464 204.75 254.989 205.014 255.251 205.804C255.513 206.331 255.776 206.858 255.776 207.385C255.776 208.176 255.251 208.703 254.464 208.966C254.202 208.966 253.415 209.23 251.841 209.493C250.791 209.757 250.004 209.757 249.48 210.284C249.217 210.547 248.955 210.547 248.955 210.547C248.693 210.547 248.43 210.284 248.43 209.757Z" fill="#1F478A"/>
<path d="M283.583 228.466C283.845 228.466 283.845 228.73 283.583 228.466C283.845 229.784 283.058 231.101 281.484 232.946C280.697 233.736 279.648 234.264 278.074 234.527C276.762 234.791 275.451 235.054 274.139 235.054C272.565 235.054 271.516 234.791 270.466 234.264C270.204 234 269.679 233.736 269.155 233.209C267.318 231.101 266.531 228.203 266.531 224.777V224.513C266.531 224.777 266.269 225.568 266.269 226.358C266.269 230.047 266.794 232.155 268.105 232.946C266.269 232.419 265.22 229.784 265.22 225.041C265.22 222.932 265.482 220.561 266.007 217.926C266.794 214.763 267.581 212.655 268.892 211.601C269.155 211.338 269.679 211.074 270.466 210.811C270.991 210.811 271.778 210.811 272.303 210.811C272.565 210.811 272.565 210.811 272.827 210.811C273.09 210.811 273.352 210.811 273.352 210.811C273.614 210.811 273.877 210.811 274.139 210.811C274.664 210.811 275.188 210.811 275.713 211.074C276.238 211.074 276.5 211.338 276.5 211.338C276.762 211.338 277.025 211.338 277.549 211.074C278.074 210.811 278.336 210.811 278.861 210.811C279.648 210.811 280.435 211.074 281.747 211.601C282.009 211.865 282.271 212.392 282.271 213.446C282.271 213.709 282.271 214.236 282.271 215.027C282.271 215.818 282.271 216.345 282.271 216.608C282.271 217.135 282.271 217.662 282.534 218.189C282.796 218.716 282.796 219.243 282.796 219.507C282.796 219.507 282.796 219.77 282.534 220.561C282.271 221.615 282.009 222.142 281.484 222.405C281.222 222.669 280.96 222.932 280.96 222.932C280.96 223.196 280.96 223.459 280.697 223.723C280.697 223.723 280.697 223.459 280.435 223.196C280.173 221.878 279.648 220.297 278.861 217.926C278.074 216.081 277.025 214.763 275.451 213.973C274.139 215.027 273.09 217.135 272.565 220.034C272.04 222.142 271.778 224.514 271.778 226.622C271.778 230.311 273.09 232.419 275.713 232.419C277.287 232.419 278.599 231.892 279.648 231.101C280.435 230.574 281.222 229.784 282.009 228.73C282.534 227.939 283.058 227.412 283.058 227.412C283.058 227.412 283.321 227.412 283.321 227.676C283.321 227.676 283.321 227.939 283.321 228.203C283.321 228.466 283.321 228.203 283.583 228.466C283.321 228.466 283.583 228.466 283.583 228.466Z" fill="#1F478A"/>
<path d="M296.175 224.513C295.388 223.723 294.863 222.932 294.863 222.142C294.863 221.878 295.388 221.615 296.175 221.615C296.175 220.297 296.437 218.716 296.7 216.872C295.913 216.081 295.388 214.5 295.388 212.655C295.388 210.811 295.65 209.757 295.913 209.757C295.913 209.757 295.913 209.757 296.175 209.757C296.437 210.547 297.224 211.074 298.011 211.338C298.536 211.338 299.061 211.338 299.323 211.601C300.11 211.601 300.897 211.601 301.946 211.074C303.258 210.547 304.57 210.284 305.619 210.284C308.242 210.284 310.341 211.074 311.915 212.655C313.489 214.236 314.014 216.608 314.014 219.243C314.014 220.561 313.751 221.878 313.489 223.459C312.177 229.257 309.292 232.946 305.094 234.263L304.57 234C304.307 234 304.045 234 303.52 233.736C302.996 233.736 302.733 233.473 302.471 233.473C302.209 233.473 301.684 233.736 301.159 234C300.635 234.527 300.11 234.527 299.848 234.527C299.323 234.527 298.536 234.263 297.749 233.473C296.7 232.682 296.175 230.047 296.175 226.095C296.175 226.095 296.175 225.304 296.175 224.513ZM301.684 221.351C303.783 221.351 304.832 221.615 305.357 221.878C305.881 222.142 306.406 222.669 306.406 223.196C306.406 223.459 306.406 223.723 306.144 223.986C305.881 224.25 305.619 224.25 305.357 224.25C305.094 224.25 304.57 224.25 303.783 223.986C302.996 223.723 302.471 223.723 301.946 223.723V223.986C303.783 224.25 304.832 224.513 305.094 225.041C303.783 224.777 302.733 224.777 301.946 224.513V226.095C302.209 228.466 302.733 230.574 303.52 231.892C305.094 231.365 306.406 230.047 307.718 228.203C308.767 226.622 309.554 225.04 310.079 223.196C309.816 224.513 309.029 225.831 307.718 227.149C306.668 228.466 305.357 229.52 304.045 230.311C305.619 228.993 306.931 227.149 307.98 225.304C308.505 224.25 308.767 222.669 308.767 221.088C308.767 219.507 308.505 218.189 307.98 216.608C307.455 214.5 306.406 213.446 305.357 213.446C304.832 213.446 304.045 213.973 303.258 214.763C302.209 216.081 301.422 216.608 301.422 216.608C301.684 218.189 301.684 219.507 301.684 221.351Z" fill="#1F478A"/>
<path d="M335.263 213.973C335.525 214.5 335.787 215.291 336.05 216.081C336.837 218.189 337.099 220.034 337.099 222.142C337.099 224.25 336.837 226.095 336.05 227.939C335.525 229.52 334.476 230.838 333.426 232.156C332.115 233.737 330.803 234.527 329.491 234.527C329.229 234.527 329.229 234.527 328.967 234.527C328.18 235.054 326.868 235.318 325.556 235.318C325.032 235.318 324.507 235.318 323.982 235.318C322.408 235.054 320.834 234.264 319.523 232.683C318.211 231.365 317.162 229.784 316.637 228.203C316.112 226.885 315.85 225.304 315.85 223.46C315.85 218.453 316.899 215.027 318.998 213.446C318.998 212.656 320.047 211.865 322.408 210.547C323.458 210.02 324.769 209.757 326.343 209.757C328.704 209.757 330.541 210.284 332.377 211.338C333.164 211.865 333.689 212.392 334.213 213.183C334.213 212.656 334.213 212.129 334.213 211.865C334.213 211.074 334.213 210.547 333.951 210.284C333.689 210.02 333.164 209.757 332.902 209.493C332.377 209.23 332.115 208.703 332.115 208.439C332.115 207.912 332.377 207.649 332.902 207.122C333.426 206.595 333.951 206.595 334.476 206.595C335 206.595 335.787 206.858 336.312 207.649C336.837 208.176 337.099 208.966 337.099 209.493C337.099 209.757 337.099 210.02 336.837 210.284C336.574 210.811 336.312 211.601 336.05 212.129C335.787 212.392 335.525 213.183 335.263 213.973C335.525 213.973 335.525 213.71 335.263 213.973ZM326.606 232.156C326.606 232.156 326.868 231.892 327.655 231.629C329.491 230.838 330.278 227.412 330.278 221.615C330.278 219.243 330.278 217.399 330.016 216.345C329.491 213.973 328.442 212.656 326.868 212.656C326.081 212.656 325.294 212.919 324.245 213.446C323.982 213.973 323.458 214.5 322.933 215.554C322.146 217.399 321.621 219.77 321.621 222.406C321.621 223.987 321.621 224.777 321.884 225.304C321.884 225.568 322.146 225.568 322.146 225.568C322.146 225.041 322.146 224.514 322.146 223.723C322.146 220.297 322.671 217.399 323.72 215.818C323.195 218.98 323.195 221.351 323.195 222.669C323.195 223.987 323.458 225.304 323.72 226.885C323.982 228.466 324.769 229.784 325.294 230.574C325.819 231.892 326.343 232.156 326.606 232.156Z" fill="#1F478A"/>
<path d="M352.052 215.027C352.052 213.709 352.052 212.919 352.314 212.655C352.839 211.338 354.151 210.811 356.249 210.811C356.774 210.811 357.561 210.811 358.348 211.074C359.398 211.338 359.922 211.601 359.922 212.128V212.392C359.135 213.446 358.61 215.554 358.086 218.453C357.823 220.824 357.561 223.196 357.561 225.304C357.561 227.676 358.086 230.047 358.873 232.682C357.561 230.574 356.512 227.412 356.512 222.932C356.512 223.986 356.512 224.777 356.512 225.568C356.512 227.939 356.774 229.784 357.299 231.101C357.561 231.365 357.824 232.155 358.348 232.682C358.873 232.946 359.397 233.209 359.397 233.736C359.397 234.527 358.873 234.791 358.086 234.791C356.512 234.791 354.675 233.736 352.839 231.628C352.314 230.838 351.003 229.257 348.904 226.358C347.855 225.041 346.805 223.196 345.494 221.088C345.756 224.25 346.281 226.358 346.281 227.412C346.805 230.574 347.592 232.419 348.117 233.209V233.473C348.117 234 347.592 234.264 346.543 234.527C345.756 234.791 344.969 234.791 344.444 234.791C343.133 234.791 342.083 234.527 341.559 234C341.034 233.473 340.772 232.419 340.772 231.365C340.772 229.784 341.034 227.676 341.296 224.777C341.559 221.878 341.821 219.77 341.821 218.189C341.821 217.399 341.559 216.608 341.296 215.818C341.034 215.554 340.509 215.291 339.722 214.763C339.46 214.763 339.46 214.5 339.46 214.236C339.46 213.446 339.722 212.655 340.509 212.128C341.296 211.601 342.083 211.338 342.87 211.338C343.657 211.338 344.182 211.338 344.444 211.338C344.969 211.338 345.494 211.865 345.756 212.392C345.756 212.392 346.018 212.919 346.543 213.973L348.117 217.399C350.478 222.405 352.314 225.831 353.888 228.466C352.577 224.513 352.052 220.034 352.052 215.027Z" fill="#1F478A"/>
<path d="M383.532 225.568C383.532 225.304 384.582 224.777 386.68 224.514C388.254 224.25 389.566 224.25 390.615 224.25C391.402 224.25 391.665 224.514 391.665 224.777C391.665 225.041 391.402 226.095 391.14 227.939C390.615 231.365 390.353 233.737 390.353 235.318C390.353 236.372 390.353 236.899 390.615 237.426C390.353 237.162 390.091 236.899 389.828 236.899C389.566 236.635 389.566 236.372 389.304 236.108C389.041 235.845 389.041 234.791 389.041 233.209C389.041 232.155 389.041 230.838 389.304 229.52C389.041 231.101 388.779 232.682 388.779 234C388.779 234.791 388.779 235.581 388.779 235.845C388.779 236.372 389.041 236.635 389.304 236.899C389.304 237.162 389.828 237.162 390.353 237.426C388.254 237.162 386.943 236.635 386.418 235.581C386.156 235.054 385.893 233.736 385.631 232.155C385.106 233.209 384.057 234 383.008 234.527C381.696 235.054 380.647 235.581 379.597 235.581C377.236 235.581 375.662 234.264 374.351 231.365C373.564 229.257 373.039 226.885 373.039 224.25V223.986C373.039 224.25 372.777 225.041 372.777 225.831C372.777 229.52 373.301 231.628 374.613 232.682C372.777 232.155 371.727 229.52 371.727 224.777C371.727 222.669 371.99 220.297 372.514 217.926C373.301 214.763 374.088 212.655 375.4 211.601C375.662 211.338 376.187 211.074 376.974 210.811C377.499 210.811 378.286 210.811 378.81 210.811C379.073 210.811 379.073 210.811 379.335 210.811C379.597 210.811 379.86 210.811 379.86 210.811C380.122 210.811 380.384 210.811 380.647 210.811C381.171 210.811 381.696 210.811 382.221 211.074C382.745 211.074 383.008 211.338 383.008 211.338C383.27 211.338 383.532 211.338 384.057 211.074C384.582 210.811 384.844 210.811 385.369 210.811C386.156 210.811 386.943 211.074 388.254 211.601C388.517 211.865 388.779 212.392 388.779 213.446C388.779 213.709 388.779 214.236 388.779 215.027C388.779 215.818 388.779 216.345 388.779 216.608C388.779 217.135 388.779 217.662 389.041 217.926C389.304 218.453 389.304 218.98 389.304 219.243C389.304 219.243 389.304 219.507 389.041 220.297C388.779 221.351 388.517 221.878 387.992 222.142C387.73 222.405 387.467 222.669 387.467 222.932C387.467 223.196 387.467 223.459 387.205 223.459C387.205 223.459 387.205 223.196 386.943 222.932C386.68 221.615 386.156 220.034 385.369 217.662C384.582 215.818 383.532 214.5 381.958 213.709C380.647 214.763 379.86 216.608 379.073 219.507C378.548 221.615 378.286 223.723 378.286 226.095C378.286 227.676 378.548 228.993 379.073 230.311C379.597 232.155 380.647 233.209 381.696 233.209C382.483 233.209 383.008 232.946 383.795 232.155C384.319 231.628 384.844 230.838 385.106 230.047C385.106 229.257 384.844 228.466 384.844 227.676C383.795 226.358 383.532 226.095 383.532 225.568Z" fill="#1F478A"/>
<path d="M397.174 210.547C399.272 210.547 400.846 211.074 401.371 211.865C401.633 212.128 401.896 213.182 401.896 214.764C401.896 216.608 401.633 219.243 401.371 222.669C401.109 226.095 400.846 228.993 400.846 230.574C400.846 232.155 400.846 233.473 401.109 234.264C400.322 233.737 399.797 231.365 399.797 226.885C399.797 226.358 399.797 225.831 399.797 225.304C399.535 228.466 399.272 230.838 399.272 232.946C399.272 234 399.272 234.791 399.535 234.791C400.059 235.054 400.322 235.054 400.322 235.054C400.322 235.318 400.059 235.318 399.272 235.318C397.961 235.318 397.174 235.054 396.649 234.791C395.862 234.264 395.337 231.365 395.075 226.622C395.075 223.723 395.075 220.561 394.813 217.662C394.813 216.081 394.813 214.764 394.813 214.5C394.813 212.919 394.55 211.865 394.288 211.338C394.288 211.338 394.288 211.338 394.288 211.074C394.026 210.811 395.075 210.547 397.174 210.547Z" fill="#1F478A"/>
<path d="M428.654 232.682C429.178 232.682 429.441 232.682 429.441 232.946C429.441 233.473 428.916 234 427.867 234.527C426.817 235.054 426.03 235.318 425.506 235.318C424.719 235.318 423.669 234 422.62 231.101C421.833 228.993 421.571 227.412 421.308 225.831C421.308 228.466 422.095 231.365 423.669 234.527C422.62 233.21 421.571 231.365 420.784 228.73C420.521 228.203 419.997 227.149 419.734 225.831C417.898 226.095 416.062 226.095 414.488 226.095C412.914 231.892 411.602 235.054 410.553 235.054C410.028 235.054 408.716 234.264 406.88 232.682C405.044 231.101 403.994 230.047 403.994 229.784C403.994 229.784 404.257 229.784 404.519 229.784C404.781 229.784 404.781 229.784 405.044 229.784C406.355 229.784 407.667 228.466 409.241 225.831C406.88 225.568 405.568 225.304 405.306 224.777V224.514C405.306 223.987 405.568 222.932 406.355 221.615C407.142 220.034 407.667 219.243 407.929 219.243C407.929 219.243 407.929 219.243 407.929 219.507C407.929 220.297 408.979 221.088 410.815 221.878C411.602 219.77 412.651 216.872 414.225 213.182C413.701 214.764 413.438 215.818 413.176 216.345C412.914 217.662 412.651 218.716 412.651 219.77C413.438 216.872 414.225 214.764 414.75 213.446C414.488 212.919 414.225 212.392 413.701 212.128V211.865C413.701 211.601 414.225 211.074 415.275 210.547C416.062 210.284 416.586 210.02 417.111 209.757C417.636 209.493 418.16 209.493 418.685 209.493C419.21 209.493 419.472 209.493 419.734 209.757C420.521 210.284 421.571 212.392 423.145 216.608C423.407 217.399 424.194 220.034 425.768 224.25C426.293 225.568 426.817 227.676 427.867 230.311C427.867 232.155 428.391 232.682 428.654 232.682ZM416.062 201.851C416.586 201.851 416.849 201.588 417.373 201.588C418.685 201.588 419.734 202.115 420.259 203.432C420.259 203.696 420.259 203.96 420.259 204.223C420.259 204.75 419.997 205.541 419.734 206.068C419.472 206.331 419.472 206.595 418.947 206.858C418.685 207.122 418.423 207.385 418.16 207.649C417.636 208.176 417.373 208.703 417.111 209.493C417.111 208.966 417.373 208.439 417.636 207.912C417.636 207.649 418.16 207.385 418.685 206.595C418.685 206.595 418.685 206.595 418.423 206.595C417.898 207.122 417.636 207.385 417.111 207.912C416.586 208.703 416.324 209.23 416.586 209.757C416.586 209.757 416.586 210.02 416.324 210.02C416.062 210.02 415.537 209.757 415.275 209.23C415.012 208.703 414.75 208.176 414.75 207.912C414.75 207.385 415.012 206.595 415.799 205.804C416.586 205.014 416.849 204.487 416.849 203.96C416.849 203.696 416.849 203.696 416.849 203.432C416.586 202.905 416.062 202.642 415.275 202.642C415.012 202.905 414.75 203.432 414.75 203.696C414.75 203.96 414.75 204.223 414.488 204.75C414.488 205.277 414.488 205.541 414.225 205.804C414.225 205.804 414.225 205.541 413.963 205.541C413.701 205.541 413.701 205.277 413.701 205.014C413.701 204.75 413.438 204.487 413.438 204.487C413.438 204.487 413.438 204.487 413.438 204.223C413.438 203.96 413.438 203.96 413.438 203.96C413.438 203.696 413.438 203.432 413.176 203.169C413.176 202.905 412.914 202.378 412.914 202.378V202.115C413.176 201.851 413.701 201.588 413.963 201.588H414.225H414.488H414.75H415.012C415.799 201.588 416.062 201.588 416.062 201.851ZM415.012 223.196C416.062 223.46 417.373 223.46 418.685 223.723C418.16 222.142 417.373 219.77 416.062 216.872C415.799 219.243 415.537 221.351 415.012 223.196Z" fill="#1F478A"/>
<path d="M443.344 215.027C443.344 213.709 443.344 212.919 443.607 212.655C444.131 211.338 445.443 210.811 447.542 210.811C448.066 210.811 448.853 210.811 449.64 211.074C450.69 211.338 451.214 211.601 451.214 212.128V212.392C450.427 213.446 449.903 215.554 449.378 218.453C449.116 220.824 448.853 223.196 448.853 225.304C448.853 227.676 449.378 230.047 450.165 232.682C448.853 230.574 447.804 227.412 447.804 222.932C447.804 223.986 447.804 224.777 447.804 225.568C447.804 227.939 448.066 229.784 448.591 231.101C448.853 231.365 449.116 232.155 449.64 232.682C450.165 232.946 450.69 233.209 450.69 233.736C450.69 234.527 450.165 234.791 449.378 234.791C447.804 234.791 445.968 233.736 444.131 231.628C443.607 230.838 442.295 229.257 440.196 226.358C439.147 225.041 438.098 223.196 436.786 221.088C437.048 224.25 437.573 226.358 437.573 227.412C438.098 230.574 438.885 232.419 439.409 233.209V233.473C439.409 234 438.885 234.264 437.835 234.527C437.048 234.791 436.261 234.791 435.737 234.791C434.425 234.791 433.376 234.527 432.851 234C432.326 233.473 432.064 232.419 432.064 231.365C432.064 229.784 432.326 227.676 432.589 224.777C432.851 221.878 433.113 219.77 433.113 218.189C433.113 217.399 432.851 216.608 432.589 215.818C432.326 215.554 431.802 215.291 431.015 214.763C430.752 214.763 430.752 214.5 430.752 214.236C430.752 213.446 431.015 212.655 431.802 212.128C432.589 211.601 433.376 211.338 434.163 211.338C434.95 211.338 435.474 211.338 435.737 211.338C436.261 211.338 436.786 211.865 437.048 212.392C437.048 212.392 437.311 212.919 437.835 213.973L439.409 217.399C441.77 222.405 443.607 225.831 445.181 228.466C444.131 224.513 443.344 220.034 443.344 215.027Z" fill="#1F478A"/>
<path d="M200.685 38.473C211.966 33.2027 228.231 18.973 228.231 11.3311C228.231 8.16892 226.394 5.27027 222.197 5.27027C193.078 5.27027 135.889 43.2162 135.889 66.1419C135.889 69.5676 138.512 72.4662 142.972 72.4662C158.45 72.4662 176.813 61.3986 191.241 61.3986C198.062 61.3986 204.62 67.723 204.62 74.0473C207.506 73.5203 209.867 73.2568 212.228 73.2568C214.327 73.2568 215.376 74.8378 215.376 75.3649C215.376 75.8919 215.114 75.8919 214.589 75.8919C210.916 75.8919 207.768 76.1554 204.096 76.6824C199.374 90.3851 165.27 114.628 151.891 114.628C147.694 114.628 142.185 111.73 142.185 106.723C142.185 96.7095 172.353 81.9527 195.439 76.1554C196.226 74.0473 196.75 72.2027 196.75 70.3581C196.75 66.6689 194.914 63.5068 189.667 63.5068C178.387 63.5068 153.465 75.8919 140.611 75.8919C134.577 75.8919 127.757 71.4122 127.757 65.0878C127.494 39.7905 187.306 0 218.262 0C226.132 0 230.067 5.7973 230.067 10.8041C230.067 21.6081 204.883 41.3716 202.522 41.3716C201.472 41.3716 199.898 40.0541 199.898 39.2635C199.898 39 200.161 38.7365 200.685 38.473ZM194.652 78.2635C169.73 83.5338 147.956 97.7635 147.956 109.358C147.956 111.466 149.268 113.047 152.416 113.047C162.385 113.047 187.044 93.8108 194.652 78.2635Z" fill="url(#paint19_linear)"/>
<path d="M236.888 81.6892C244.758 81.1622 251.841 75.6284 256.038 71.4122L256.3 71.1487C256.563 70.8851 256.825 70.8851 256.825 70.8851C257.35 70.8851 257.612 71.1487 257.612 71.4122C257.612 71.9392 256.563 72.7297 256.038 72.9933C252.103 76.6824 245.807 82.4797 235.576 83.0068C231.641 86.1689 228.231 87.75 226.394 87.75C223.246 87.75 217.475 84.3243 217.475 78.2635C217.475 75.6284 218 73.2568 219.049 70.8851C219.049 70.3581 218.787 70.3581 218.787 69.8311C218.787 58.5 231.116 50.3311 238.199 50.3311C244.233 50.3311 248.693 54.0203 248.693 59.8176C248.693 60.8716 248.43 61.9257 248.43 62.9797C249.48 61.9257 250.791 60.0811 251.054 56.9189C251.316 54.2838 252.103 52.1757 252.628 50.8581C252.89 50.3311 253.152 50.0676 253.677 50.0676C255.251 50.3311 258.661 53.2297 258.399 55.0743C258.137 59.027 250.529 65.0878 247.906 65.3514C245.807 71.9392 241.347 77.473 236.888 81.6892ZM244.495 59.8176C244.495 55.3378 241.872 52.7027 236.888 52.7027C231.903 52.7027 222.197 58.7635 220.623 67.723C222.459 64.5608 230.854 55.6014 234.527 55.6014C236.101 55.3378 238.724 59.027 238.724 60.6081C238.724 61.6622 237.937 61.9257 236.888 62.4527C231.903 65.6149 225.345 71.4122 222.197 77.2095C224.558 80.3716 228.493 81.6892 233.215 82.2162C238.986 76.946 244.495 68.5135 244.495 59.8176ZM232.166 83.0068C227.444 82.4797 224.033 81.1622 221.672 78.527C221.148 79.5811 221.148 80.6351 221.148 81.6892C221.148 84.3243 222.722 86.1689 224.82 86.1689C226.919 86.1689 229.28 85.1149 232.166 83.0068ZM234.527 38.2095C237.675 36.1014 238.462 34.5203 236.625 33.2027C236.101 32.9392 235.576 32.6757 235.314 32.6757C234.527 32.6757 234.002 33.2027 232.953 34.2568C232.166 35.3108 231.379 35.5743 230.592 35.5743C229.28 35.5743 228.493 34.5203 228.231 33.7297C228.231 30.0405 231.116 29.25 234.002 29.25C240.56 30.0405 246.594 36.6284 240.823 40.5811C237.937 41.8986 234.002 43.2162 231.116 45.5878C230.854 46.1149 230.329 46.1149 230.067 46.1149C229.28 46.1149 228.755 45.3243 228.755 44.2703C230.329 42.1622 231.379 40.0541 234.527 38.2095Z" fill="url(#paint20_linear)"/>
<path d="M312.702 85.9053C310.079 85.9053 305.619 81.9526 305.619 78.7905C305.619 69.0405 315.063 59.8175 315.063 59.027C315.063 58.4999 314.801 58.2364 314.014 58.2364C311.128 58.2364 293.027 69.831 286.206 83.0067C283.583 88.5405 283.058 91.7026 282.009 91.7026C280.173 91.7026 278.074 88.804 278.074 86.6959C278.074 61.1351 308.505 18.9729 321.359 18.9729C324.507 18.9729 327.917 21.8715 327.917 24.5067C327.917 37.1553 293.552 66.1418 287.78 71.4121C286.206 75.1013 285.419 78.2634 285.157 81.1621C291.453 68.7769 311.128 56.1283 314.276 56.1283C315.85 56.1283 321.621 59.8175 321.621 63.5067C321.621 67.4594 311.128 75.8918 311.128 81.6891C311.128 83.2702 311.915 84.0607 313.227 84.0607C318.736 84.0607 328.18 75.6283 332.377 71.6756L332.639 71.4121C332.902 71.1486 333.164 71.1486 333.426 71.1486C333.951 71.1486 333.951 71.4121 333.951 71.6756C333.951 72.2026 332.902 72.9932 332.377 73.2567C328.18 77.4729 318.736 85.9053 312.702 85.9053ZM324.769 23.9797C315.063 23.9797 297.224 49.5405 289.354 68.2499C293.027 64.5607 325.819 36.3648 325.819 25.2972C325.819 24.2432 325.294 23.9797 324.769 23.9797Z" fill="url(#paint21_linear)"/>
<path d="M385.369 71.4122C385.369 71.9392 384.319 72.7298 383.795 72.9933C378.81 77.473 369.891 85.3784 363.07 85.3784C359.922 85.3784 356.774 83.7973 356.774 79.0541C356.774 75.6284 358.086 73.5203 358.086 71.6757C358.086 71.4122 357.824 71.1487 357.561 71.1487C355.463 71.1487 339.723 91.1757 335.263 91.1757C332.639 91.1757 327.917 88.2771 327.917 83.2703C327.917 74.0473 342.083 60.6082 342.083 55.3379C342.083 54.5473 342.608 54.2838 343.133 54.2838C345.232 54.2838 348.38 58.2365 348.38 61.6622C348.38 65.0879 334.476 80.6352 334.476 86.9595C334.476 88.0136 335 88.2771 335.787 88.2771C340.772 88.2771 359.66 64.0338 364.12 64.0338C365.956 64.0338 367.792 66.669 368.317 68.7771C369.366 67.723 370.678 65.6149 370.678 62.1892C370.678 59.5541 371.465 57.1825 371.99 56.1284C372.252 55.3379 372.514 55.0744 373.039 55.0744C374.613 55.0744 378.286 57.973 378.286 59.8176C378.286 63.7703 371.203 70.6217 368.317 70.8852C367.268 73.7838 364.12 78.2636 364.12 81.4257C364.12 82.4798 364.644 83.0068 365.956 83.0068C369.104 83.0068 373.564 80.3717 377.499 77.2095C379.86 75.6284 381.958 73.7838 384.319 71.4122L384.582 71.1487C384.844 70.8852 385.106 70.8852 385.369 70.8852C385.106 70.8852 385.369 71.1487 385.369 71.4122ZM359.922 43.7433C364.12 43.7433 368.317 44.5338 370.94 44.5338C376.187 44.5338 379.335 41.1082 380.122 41.1082C380.647 41.1082 380.909 41.3717 380.909 41.8987C380.909 42.6892 375.662 50.3311 370.94 50.3311C365.956 50.3311 360.972 46.9054 355.725 46.9054C352.315 46.9054 350.216 49.8041 349.429 49.8041C348.642 49.8041 348.38 49.2771 348.38 48.75C348.38 48.223 353.102 43.7433 359.922 43.7433Z" fill="url(#paint22_linear)"/>
<path d="M423.407 82.2161C424.456 81.6891 424.719 81.1621 425.243 81.1621C425.768 81.1621 425.768 81.4256 425.768 81.6891C425.768 82.2161 424.981 82.7432 424.194 83.2702C421.308 85.6418 418.423 86.6959 415.537 86.6959C412.389 86.6959 408.979 83.5337 408.979 79.054C408.979 75.6283 410.29 73.5202 410.29 71.6756C410.29 71.4121 410.028 71.1486 409.766 71.1486C407.667 71.1486 391.927 91.1756 387.467 91.1756C384.844 91.1756 380.122 88.2769 380.122 83.2702C380.122 74.0472 394.288 60.608 394.288 55.3377C394.288 54.5472 394.813 54.2837 395.337 54.2837C397.436 54.2837 400.584 58.2364 400.584 61.6621C400.584 65.0877 386.68 80.635 386.68 86.9594C386.68 88.0134 387.205 88.2769 387.992 88.2769C392.976 88.2769 411.864 64.0337 416.324 64.0337C418.423 64.0337 420.521 67.4594 420.521 69.5675C420.521 71.6756 416.062 78.7905 416.062 82.2161C416.062 83.2702 416.849 84.3242 417.898 84.3242C419.21 84.5877 421.046 83.7972 423.407 82.2161Z" fill="url(#paint23_linear)"/>
</g>
<defs>
<linearGradient id="paint0_linear" x1="7.17483" y1="159.674" x2="7.17483" y2="126.527" gradientUnits="userSpaceOnUse">
<stop offset="0.018018" stop-color="#FBC653"/>
<stop offset="0.3187" stop-color="#FCC656"/>
<stop offset="0.4795" stop-color="#FEC65C"/>
<stop offset="0.6357" stop-color="#FECD5F"/>
<stop offset="0.8573" stop-color="#FDDF68"/>
<stop offset="1" stop-color="#FCEF6F"/>
</linearGradient>
<linearGradient id="paint1_linear" x1="33.7679" y1="159.674" x2="33.7679" y2="126.527" gradientUnits="userSpaceOnUse">
<stop offset="0.018018" stop-color="#FBC653"/>
<stop offset="0.3187" stop-color="#FCC656"/>
<stop offset="0.4795" stop-color="#FEC65C"/>
<stop offset="0.6357" stop-color="#FECD5F"/>
<stop offset="0.8573" stop-color="#FDDF68"/>
<stop offset="1" stop-color="#FCEF6F"/>
</linearGradient>
<linearGradient id="paint2_linear" x1="55.9621" y1="159.923" x2="55.9621" y2="152.922" gradientUnits="userSpaceOnUse">
<stop offset="0.018018" stop-color="#FBC653"/>
<stop offset="0.3187" stop-color="#FCC656"/>
<stop offset="0.4795" stop-color="#FEC65C"/>
<stop offset="0.6357" stop-color="#FECD5F"/>
<stop offset="0.8573" stop-color="#FDDF68"/>
<stop offset="1" stop-color="#FCEF6F"/>
</linearGradient>
<linearGradient id="paint3_linear" x1="76.161" y1="160.128" x2="76.161" y2="126.116" gradientUnits="userSpaceOnUse">
<stop offset="0.018018" stop-color="#FBC653"/>
<stop offset="0.3187" stop-color="#FCC656"/>
<stop offset="0.4795" stop-color="#FEC65C"/>
<stop offset="0.6357" stop-color="#FECD5F"/>
<stop offset="0.8573" stop-color="#FDDF68"/>
<stop offset="1" stop-color="#FCEF6F"/>
</linearGradient>
<linearGradient id="paint4_linear" x1="102.757" y1="160.128" x2="102.757" y2="126.116" gradientUnits="userSpaceOnUse">
<stop offset="0.018018" stop-color="#FBC653"/>
<stop offset="0.3187" stop-color="#FCC656"/>
<stop offset="0.4795" stop-color="#FEC65C"/>
<stop offset="0.6357" stop-color="#FECD5F"/>
<stop offset="0.8573" stop-color="#FDDF68"/>
<stop offset="1" stop-color="#FCEF6F"/>
</linearGradient>
<linearGradient id="paint5_linear" x1="129.35" y1="160.128" x2="129.35" y2="126.116" gradientUnits="userSpaceOnUse">
<stop offset="0.018018" stop-color="#FBC653"/>
<stop offset="0.3187" stop-color="#FCC656"/>
<stop offset="0.4795" stop-color="#FEC65C"/>
<stop offset="0.6357" stop-color="#FECD5F"/>
<stop offset="0.8573" stop-color="#FDDF68"/>
<stop offset="1" stop-color="#FCEF6F"/>
</linearGradient>
<linearGradient id="paint6_linear" x1="169.763" y1="159.674" x2="169.763" y2="126.572" gradientUnits="userSpaceOnUse">
<stop offset="0.018018" stop-color="#FBC653"/>
<stop offset="0.3187" stop-color="#FCC656"/>
<stop offset="0.4795" stop-color="#FEC65C"/>
<stop offset="0.6357" stop-color="#FECD5F"/>
<stop offset="0.8573" stop-color="#FDDF68"/>
<stop offset="1" stop-color="#FCEF6F"/>
</linearGradient>
<linearGradient id="paint7_linear" x1="200.453" y1="159.674" x2="200.453" y2="126.572" gradientUnits="userSpaceOnUse">
<stop offset="0.018018" stop-color="#FBC653"/>
<stop offset="0.3187" stop-color="#FCC656"/>
<stop offset="0.4795" stop-color="#FEC65C"/>
<stop offset="0.6357" stop-color="#FECD5F"/>
<stop offset="0.8573" stop-color="#FDDF68"/>
<stop offset="1" stop-color="#FCEF6F"/>
</linearGradient>
<linearGradient id="paint8_linear" x1="232.854" y1="159.674" x2="232.854" y2="115.818" gradientUnits="userSpaceOnUse">
<stop offset="0.018018" stop-color="#FBC653"/>
<stop offset="0.3187" stop-color="#FCC656"/>
<stop offset="0.4795" stop-color="#FEC65C"/>
<stop offset="0.6357" stop-color="#FECD5F"/>
<stop offset="0.8573" stop-color="#FDDF68"/>
<stop offset="1" stop-color="#FCEF6F"/>
</linearGradient>
<linearGradient id="paint9_linear" x1="264.789" y1="159.674" x2="264.789" y2="126.572" gradientUnits="userSpaceOnUse">
<stop offset="0.018018" stop-color="#FBC653"/>
<stop offset="0.3187" stop-color="#FCC656"/>
<stop offset="0.4795" stop-color="#FEC65C"/>
<stop offset="0.6357" stop-color="#FECD5F"/>
<stop offset="0.8573" stop-color="#FDDF68"/>
<stop offset="1" stop-color="#FCEF6F"/>
</linearGradient>
<linearGradient id="paint10_linear" x1="308.652" y1="165.586" x2="308.652" y2="126.116" gradientUnits="userSpaceOnUse">
<stop offset="0.018018" stop-color="#FBC653"/>
<stop offset="0.3187" stop-color="#FCC656"/>
<stop offset="0.4795" stop-color="#FEC65C"/>
<stop offset="0.6357" stop-color="#FECD5F"/>
<stop offset="0.8573" stop-color="#FDDF68"/>
<stop offset="1" stop-color="#FCEF6F"/>
</linearGradient>
<linearGradient id="paint11_linear" x1="339.977" y1="160.128" x2="339.977" y2="126.572" gradientUnits="userSpaceOnUse">
<stop offset="0.018018" stop-color="#FBC653"/>
<stop offset="0.3187" stop-color="#FCC656"/>
<stop offset="0.4795" stop-color="#FEC65C"/>
<stop offset="0.6357" stop-color="#FECD5F"/>
<stop offset="0.8573" stop-color="#FDDF68"/>
<stop offset="1" stop-color="#FCEF6F"/>
</linearGradient>
<linearGradient id="paint12_linear" x1="370.337" y1="159.674" x2="370.337" y2="117.704" gradientUnits="userSpaceOnUse">
<stop offset="0.018018" stop-color="#FBC653"/>
<stop offset="0.3187" stop-color="#FCC656"/>
<stop offset="0.4795" stop-color="#FEC65C"/>
<stop offset="0.6357" stop-color="#FECD5F"/>
<stop offset="0.8573" stop-color="#FDDF68"/>
<stop offset="1" stop-color="#FCEF6F"/>
</linearGradient>
<linearGradient id="paint13_linear" x1="413.037" y1="160.128" x2="413.037" y2="126.116" gradientUnits="userSpaceOnUse">
<stop offset="0.018018" stop-color="#FBC653"/>
<stop offset="0.3187" stop-color="#FCC656"/>
<stop offset="0.4795" stop-color="#FEC65C"/>
<stop offset="0.6357" stop-color="#FECD5F"/>
<stop offset="0.8573" stop-color="#FDDF68"/>
<stop offset="1" stop-color="#FCEF6F"/>
</linearGradient>
<linearGradient id="paint14_linear" x1="435.804" y1="159.674" x2="435.804" y2="126.572" gradientUnits="userSpaceOnUse">
<stop offset="0.018018" stop-color="#FBC653"/>
<stop offset="0.3187" stop-color="#FCC656"/>
<stop offset="0.4795" stop-color="#FEC65C"/>
<stop offset="0.6357" stop-color="#FECD5F"/>
<stop offset="0.8573" stop-color="#FDDF68"/>
<stop offset="1" stop-color="#FCEF6F"/>
</linearGradient>
<linearGradient id="paint15_linear" x1="458.563" y1="159.674" x2="458.563" y2="117.704" gradientUnits="userSpaceOnUse">
<stop offset="0.018018" stop-color="#FBC653"/>
<stop offset="0.3187" stop-color="#FCC656"/>
<stop offset="0.4795" stop-color="#FEC65C"/>
<stop offset="0.6357" stop-color="#FECD5F"/>
<stop offset="0.8573" stop-color="#FDDF68"/>
<stop offset="1" stop-color="#FCEF6F"/>
</linearGradient>
<linearGradient id="paint16_linear" x1="498.658" y1="159.674" x2="498.658" y2="126.572" gradientUnits="userSpaceOnUse">
<stop offset="0.018018" stop-color="#FBC653"/>
<stop offset="0.3187" stop-color="#FCC656"/>
<stop offset="0.4795" stop-color="#FEC65C"/>
<stop offset="0.6357" stop-color="#FECD5F"/>
<stop offset="0.8573" stop-color="#FDDF68"/>
<stop offset="1" stop-color="#FCEF6F"/>
</linearGradient>
<linearGradient id="paint17_linear" x1="528.784" y1="159.674" x2="528.784" y2="126.572" gradientUnits="userSpaceOnUse">
<stop offset="0.018018" stop-color="#FBC653"/>
<stop offset="0.3187" stop-color="#FCC656"/>
<stop offset="0.4795" stop-color="#FEC65C"/>
<stop offset="0.6357" stop-color="#FECD5F"/>
<stop offset="0.8573" stop-color="#FDDF68"/>
<stop offset="1" stop-color="#FCEF6F"/>
</linearGradient>
<linearGradient id="paint18_linear" x1="549.322" y1="168.108" x2="549.322" y2="126.572" gradientUnits="userSpaceOnUse">
<stop offset="0.018018" stop-color="#FBC653"/>
<stop offset="0.3187" stop-color="#FCC656"/>
<stop offset="0.4795" stop-color="#FEC65C"/>
<stop offset="0.6357" stop-color="#FECD5F"/>
<stop offset="0.8573" stop-color="#FDDF68"/>
<stop offset="1" stop-color="#FCEF6F"/>
</linearGradient>
<linearGradient id="paint19_linear" x1="178.743" y1="114.726" x2="178.743" y2="0" gradientUnits="userSpaceOnUse">
<stop offset="0.018018" stop-color="#FBC653"/>
<stop offset="0.3187" stop-color="#FCC656"/>
<stop offset="0.4795" stop-color="#FEC65C"/>
<stop offset="0.6357" stop-color="#FECD5F"/>
<stop offset="0.8573" stop-color="#FDDF68"/>
<stop offset="1" stop-color="#FCEF6F"/>
</linearGradient>
<linearGradient id="paint20_linear" x1="237.715" y1="87.8172" x2="237.715" y2="29.3169" gradientUnits="userSpaceOnUse">
<stop offset="0.018018" stop-color="#FBC653"/>
<stop offset="0.3187" stop-color="#FCC656"/>
<stop offset="0.4795" stop-color="#FEC65C"/>
<stop offset="0.6357" stop-color="#FECD5F"/>
<stop offset="0.8573" stop-color="#FDDF68"/>
<stop offset="1" stop-color="#FCEF6F"/>
</linearGradient>
<linearGradient id="paint21_linear" x1="306.274" y1="91.5648" x2="306.274" y2="18.7407" gradientUnits="userSpaceOnUse">
<stop offset="0.018018" stop-color="#FBC653"/>
<stop offset="0.3187" stop-color="#FCC656"/>
<stop offset="0.4795" stop-color="#FEC65C"/>
<stop offset="0.6357" stop-color="#FECD5F"/>
<stop offset="0.8573" stop-color="#FDDF68"/>
<stop offset="1" stop-color="#FCEF6F"/>
</linearGradient>
<linearGradient id="paint22_linear" x1="356.645" y1="91.1649" x2="356.645" y2="41.232" gradientUnits="userSpaceOnUse">
<stop offset="0.018018" stop-color="#FBC653"/>
<stop offset="0.3187" stop-color="#FCC656"/>
<stop offset="0.4795" stop-color="#FEC65C"/>
<stop offset="0.6357" stop-color="#FECD5F"/>
<stop offset="0.8573" stop-color="#FDDF68"/>
<stop offset="1" stop-color="#FCEF6F"/>
</linearGradient>
<linearGradient id="paint23_linear" x1="402.752" y1="91.1648" x2="402.752" y2="54.3498" gradientUnits="userSpaceOnUse">
<stop offset="0.018018" stop-color="#FBC653"/>
<stop offset="0.3187" stop-color="#FCC656"/>
<stop offset="0.4795" stop-color="#FEC65C"/>
<stop offset="0.6357" stop-color="#FECD5F"/>
<stop offset="0.8573" stop-color="#FDDF68"/>
<stop offset="1" stop-color="#FCEF6F"/>
</linearGradient>
<clipPath id="clip0">
<rect width="553" height="273" fill="white"/>
</clipPath>
</defs>
</svg>
