<svg width="55" height="55" viewBox="0 0 55 55" fill="none" xmlns="http://www.w3.org/2000/svg">
<path d="M27.427 54.7513C27.9447 54.7513 28.2036 54.7513 28.7213 54.7513V36.0945C26.6505 36.0945 24.3208 36.0945 22.25 36.0945V28.58C24.3208 28.58 26.6505 28.58 28.7213 28.58C28.7213 28.58 28.7213 28.58 28.7213 28.3209C28.7213 26.507 28.7213 24.6932 28.7213 22.8793C28.7213 21.5837 28.9802 20.2881 29.4979 18.9925C30.2744 16.9195 31.8275 15.1057 33.8983 14.3283C34.9337 13.8101 35.7103 13.551 36.7456 13.551C37.5222 13.551 38.2987 13.551 39.0753 13.551C40.1107 13.551 40.8872 13.551 41.9226 13.551C42.4403 13.551 43.2169 13.551 43.7346 13.8101H43.9934V20.2881C43.9934 20.5472 43.9935 20.5472 43.7346 20.5472C42.4404 20.5472 41.1461 20.5472 39.8519 20.5472C39.3342 20.5472 38.5576 20.5472 38.0399 20.8064C37.2633 21.0655 36.7456 21.8428 36.4868 22.6202C36.4868 23.1384 36.2279 23.3976 36.2279 23.9158C36.2279 25.4705 36.2279 27.0253 36.2279 28.58V28.8391H43.7346C43.4758 31.4303 43.2169 33.7624 42.6992 36.3536C40.6284 36.3536 38.2987 36.3536 36.2279 36.3536V36.6128V53.1965C46.5819 49.5688 54.0886 39.4631 54.0886 27.8026C54.0886 12.7736 41.9226 0.854004 27.1682 0.854004C12.1549 0.854004 0.247803 13.0327 0.247803 27.8026C0.506653 42.5726 12.4137 54.7513 27.427 54.7513Z" fill="white"/>
</svg>
