<svg width="55" height="55" viewBox="0 0 55 55" fill="none" xmlns="http://www.w3.org/2000/svg">
<path d="M27.6903 0.594727C12.6771 0.594727 0.77002 12.7734 0.77002 27.5433C0.77002 42.3133 12.936 54.492 27.6903 54.492C42.7036 54.492 54.6106 42.3133 54.6106 27.5433C54.6106 12.7734 42.4447 0.594727 27.6903 0.594727ZM31.5731 34.7988C27.6903 41.2768 18.8895 42.8315 12.9359 38.4264C7.24127 34.2805 5.94706 26.5069 9.57094 20.5471C13.7125 14.069 22.7722 12.5143 28.7257 17.4376C28.9846 17.6967 29.2434 17.9559 28.7257 18.215C27.9492 19.2515 26.9138 20.288 26.1372 21.3244C25.8784 21.5836 25.6195 21.5836 25.3606 21.3244C20.4425 17.6967 13.4536 20.288 12.4182 26.5069C11.6417 30.6528 14.2302 34.5396 18.1129 35.8352C22.2545 36.8717 26.1373 35.0579 27.6903 31.171C27.9492 30.3937 27.9492 30.3937 27.1726 30.3937C25.1018 30.3937 23.0311 30.3937 20.9603 30.3937C20.4426 30.3937 20.4425 30.3937 20.4425 29.8754C20.4425 28.839 20.4425 27.5434 20.4425 26.5069C20.4425 25.9886 20.7014 25.9886 20.9603 25.9886C23.0311 25.9886 24.843 25.9886 26.9138 25.9886C28.9845 25.9886 30.7965 25.9886 32.8673 25.9886C33.1262 25.9886 33.385 25.9886 33.385 26.2477C33.6438 29.0981 33.385 31.9484 31.5731 34.7988ZM47.6216 26.2477C47.6216 27.2842 47.6216 28.0616 47.6216 29.0981C47.6216 29.6163 47.3628 29.6163 47.104 29.6163C46.3275 29.6163 45.2921 29.6163 44.5155 29.6163C44.2567 29.6163 43.9978 29.6163 43.9978 30.1346C43.9978 31.171 43.9978 31.9484 43.9978 32.9849C43.9978 33.244 43.9977 33.5031 43.4801 33.5031C42.9624 33.5031 42.4447 33.5031 41.927 33.5031C41.4093 33.5031 40.6328 33.7623 40.3739 33.5031C40.1151 33.244 40.3739 32.4667 40.3739 31.6893C40.3739 31.1711 40.6328 30.3937 40.3739 30.1346C40.1151 29.6163 39.3385 30.1346 38.5619 30.1346C38.0442 30.1346 37.7854 30.1346 37.2677 30.1346C36.75 30.1346 36.75 30.1346 36.75 29.6163C36.75 28.839 36.75 27.8025 36.75 27.0251C36.75 26.5069 37.0089 26.5069 37.2677 26.5069C38.0442 26.5069 39.0796 26.5069 39.8562 26.5069C40.115 26.5069 40.3739 26.5069 40.3739 25.9886C40.3739 24.9521 40.3739 24.1748 40.3739 23.1383C40.3739 22.8792 40.3739 22.62 40.8916 22.62C41.927 22.62 42.9624 22.62 43.7389 22.62C43.9978 22.62 44.2566 22.8792 44.2566 23.1383C44.2566 23.9157 44.2566 24.9521 44.2566 25.7295C44.2566 25.9886 44.2566 26.2477 44.7743 26.2477C45.5508 26.2477 46.5862 26.2477 47.3628 26.2477C47.3628 25.7295 47.6216 25.9886 47.6216 26.2477Z" fill="white"/>
</svg>
