<svg width="167" height="38" viewBox="0 0 167 38" fill="none" xmlns="http://www.w3.org/2000/svg">
<g clip-path="url(#clip0)">
<path d="M56.7994 2.90447H56.314V3.63058H55.8285V1.69427H57.0421C57.7703 1.69427 58.0131 1.93631 58.0131 2.42039C58.0131 2.66243 57.7703 2.90447 57.5276 2.90447L58.2558 3.63058H57.5276L56.7994 2.90447ZM56.7994 2.66243C57.0421 2.66243 57.2849 2.66243 57.2849 2.42039C57.2849 2.17835 57.2849 2.17835 56.7994 2.17835H56.314V2.90447H56.7994V2.66243Z" fill="url(#paint0_linear)"/>
<path d="M56.7993 0.484076C58.013 0.484076 58.9839 1.45223 58.9839 2.66242C58.9839 3.87261 58.013 4.84076 56.7993 4.84076C55.5857 4.84076 54.6147 3.87261 54.6147 2.66242C54.6147 1.45223 55.5857 0.484076 56.7993 0.484076ZM56.7993 0C55.3429 0 54.1293 1.21019 54.1293 2.66242C54.1293 4.11465 55.3429 5.32484 56.7993 5.32484C58.2557 5.32484 59.4694 4.11465 59.4694 2.66242C59.4694 1.21019 58.2557 0 56.7993 0Z" fill="url(#paint1_linear)"/>
<path d="M53.6438 16.4586L44.9055 1.69427C43.4491 -0.726113 40.2935 -0.726113 38.8371 1.69427L31.5552 14.0382L29.1278 18.3949H25.0014L23.7877 16.4586L15.2921 1.69427C13.8357 -0.726113 10.6802 -0.726113 9.22377 1.69427L0.4854 16.4586C-0.970996 18.879 0.728132 21.7834 3.39819 21.7834H15.5348L24.2732 36.5478C25.4869 38.4841 28.3996 38.4841 29.6133 36.5478L38.3517 21.7834H50.4883C53.1584 21.7834 54.8575 18.879 53.6438 16.4586Z" fill="url(#paint2_linear)"/>
<path d="M68.936 19.6051L65.5378 15.2484V21.7834H62.1395V10.8917H65.5378L69.9069 16.4586L74.2761 10.8917H77.4316V21.7834H74.2761V15.2484L70.6351 19.6051H68.936Z" fill="url(#paint3_linear)"/>
<path d="M88.1119 19.3631C87.141 19.6051 85.9273 19.6051 84.9564 19.6051C82.529 19.6051 82.0436 19.121 82.0436 18.1529C82.7718 18.3949 83.7427 18.3949 84.9564 18.3949C89.5683 18.3949 90.0537 17.1847 90.0537 15.9745C90.0537 14.5223 89.0828 13.3121 84.9564 13.3121H84.4709C80.3444 13.3121 79.1308 15.2484 79.1308 17.4268V18.1529C79.1308 20.3312 80.3444 22.2675 84.4709 22.2675C84.4709 22.2675 88.1119 22.0255 89.3255 21.7834L88.1119 19.3631ZM84.9564 15.2484C86.8982 15.2484 87.141 15.7325 87.141 15.9745C87.141 16.2166 86.8982 16.7006 84.9564 16.7006C83.9854 16.7006 83.0145 16.7006 82.2863 16.4586C82.2863 15.7325 83.0145 15.2484 84.9564 15.2484Z" fill="url(#paint4_linear)"/>
<path d="M100.249 19.3631C99.2776 19.6051 98.0639 19.6051 97.093 19.6051C94.6657 19.6051 94.1802 19.121 94.1802 18.1529C94.9084 18.3949 95.8793 18.3949 97.093 18.3949C101.705 18.3949 102.19 17.1847 102.19 15.9745C102.19 14.5223 101.219 13.3121 97.093 13.3121H96.6075C92.4811 13.3121 91.2674 15.2484 91.2674 17.4268V18.1529C91.2674 20.3312 92.4811 22.2675 96.6075 22.2675H97.093C98.5494 22.2675 100.249 22.0255 101.462 21.7834L100.249 19.3631ZM97.3357 15.2484C99.2776 15.2484 99.5203 15.7325 99.5203 15.9745C99.5203 16.2166 99.2776 16.7006 97.3357 16.7006C96.3648 16.7006 95.3939 16.7006 94.6657 16.4586C94.6657 15.7325 95.1511 15.2484 97.3357 15.2484Z" fill="url(#paint5_linear)"/>
<path d="M110.201 22.5096C109.23 24.4459 108.259 25.656 105.831 25.656C105.346 25.656 104.618 25.656 104.375 25.414V22.9936C104.86 22.9936 105.346 22.9936 105.831 22.9936C107.045 22.9936 107.288 22.5096 107.773 21.7834L108.016 21.5414L103.647 13.7962V13.5541H106.317L109.23 19.121L111.657 13.5541H114.327V14.2803L110.201 22.5096Z" fill="url(#paint6_linear)"/>
<path d="M117.24 21.7834V10.8917H120.638V19.121H129.134V21.7834H117.24Z" fill="url(#paint7_linear)"/>
<path d="M141.513 21.7834H140.785L139.814 21.2994C138.6 21.7834 137.144 22.0255 135.445 22.0255C131.561 22.0255 130.347 20.8153 130.347 19.3631V19.121C130.347 17.6688 131.561 16.7006 135.445 16.7006C136.658 16.7006 137.629 16.7006 138.6 16.9427C138.6 15.9745 138.357 15.4905 135.93 15.4905C134.716 15.4905 132.775 15.7325 131.561 15.9745V13.5541C132.775 13.3121 134.716 13.0701 136.173 13.0701C140.299 13.0701 141.756 14.2803 141.756 16.7006V21.7834H141.513ZM138.6 19.6051V18.879C137.872 18.6369 136.901 18.6369 135.687 18.6369C133.503 18.6369 133.26 19.121 133.26 19.3631C133.26 19.8471 133.503 20.0892 135.687 20.0892C136.901 20.0892 137.629 19.8471 138.6 19.6051Z" fill="url(#paint8_linear)"/>
<path d="M144.183 13.5541L145.154 14.0382C146.368 13.5541 147.581 13.3121 149.28 13.3121C153.407 13.3121 154.621 15.2484 154.621 17.4268V21.7834H151.708V17.6688C151.708 16.7006 151.708 15.7325 149.28 15.7325C148.31 15.7325 147.339 15.9745 146.61 15.9745V21.7834H143.698V13.5541H144.183Z" fill="url(#paint9_linear)"/>
<path d="M167 21.7834H166.272L165.301 21.2994C164.087 21.7834 162.873 22.0255 161.174 22.0255C157.048 22.0255 155.834 20.0892 155.834 17.9108V17.4268C155.834 15.2484 157.048 13.3121 161.174 13.3121C162.145 13.3121 163.116 13.5541 164.087 13.7962V9.68153H164.815L167 10.8917V21.7834ZM164.087 19.3631V15.9745C163.359 15.7325 162.388 15.7325 161.417 15.7325C158.99 15.7325 158.99 16.7006 158.99 17.6688C158.99 18.6369 158.99 19.6051 161.417 19.6051C162.388 19.6051 163.359 19.6051 164.087 19.3631Z" fill="url(#paint10_linear)"/>
<path d="M77.1889 32.9172C76.7034 32.9172 76.4607 33.1592 75.9752 33.1592C75.0043 33.1592 74.5188 32.6752 74.5188 31.2229C74.5188 29.7707 75.247 29.2866 75.9752 29.2866C76.2179 29.2866 76.7034 29.2866 77.1889 29.5287V30.0127C76.7034 30.0127 76.4607 29.7707 76.2179 29.7707C75.7325 29.7707 75.247 30.0127 75.247 31.2229C75.247 32.4331 75.4898 32.6752 76.2179 32.6752C76.4607 32.6752 76.7034 32.6752 77.1889 32.4331V32.9172Z" fill="url(#paint11_linear)"/>
<path d="M80.8299 31.2229C80.8299 32.4331 80.5872 32.9172 79.3735 32.9172C77.9171 32.9172 77.9171 32.1911 77.9171 31.2229V29.0446H78.6453V31.2229C78.6453 32.1911 78.6453 32.4331 79.3735 32.4331C80.1017 32.4331 80.1017 32.1911 80.1017 31.2229V29.0446H80.8299V31.2229Z" fill="url(#paint12_linear)"/>
<path d="M83.7427 32.9172L82.0436 30.4968V32.9172H81.3154V29.2866H82.0436L83.7427 31.707V29.2866H84.4709V32.9172H83.7427Z" fill="url(#paint13_linear)"/>
<path d="M88.1119 32.6752C87.6264 32.9172 87.141 32.9172 86.6555 32.9172C85.9273 32.9172 85.1991 32.4331 85.1991 30.9809C85.1991 29.5287 85.9273 29.0446 86.8982 29.0446C87.3837 29.0446 87.8691 29.0446 88.3546 29.2866L88.1119 29.7707C87.6264 29.7707 87.1409 29.5287 86.8982 29.5287C86.17 29.5287 85.9273 29.7707 85.9273 30.9809C85.9273 32.1911 86.4128 32.4331 86.6555 32.4331C86.8982 32.4331 87.1409 32.4331 87.3837 32.1911V31.2229H86.6555V30.7389H88.1119V32.6752Z" fill="url(#paint14_linear)"/>
<path d="M92.9665 32.9172L91.2673 30.4968V32.9172H90.5391V29.2866H91.2673L92.9665 31.707V29.2866H93.6947V32.9172H92.9665Z" fill="url(#paint15_linear)"/>
<path d="M96.6074 32.9172V31.2229H95.151V32.9172H94.4228V29.2866H95.151V30.7388H96.6074V29.2866H97.3356V32.9172H96.6074Z" fill="url(#paint16_linear)"/>
<path d="M100.734 32.9172L100.491 32.1911H99.0347L98.792 32.9172H98.0638L99.5202 29.0446H100.248L101.705 32.9172H100.734ZM100.248 31.707L99.7629 30.0127L99.2775 31.707H100.248Z" fill="url(#paint17_linear)"/>
<path d="M104.86 31.2229C104.86 32.4331 104.618 32.9172 103.404 32.9172C101.948 32.9172 101.948 32.1911 101.948 31.2229V29.0446H102.676V31.2229C102.676 32.1911 102.676 32.4331 103.404 32.4331C104.132 32.4331 104.132 32.1911 104.132 31.2229V29.0446H104.86V31.2229Z" fill="url(#paint18_linear)"/>
<path d="M110.201 32.9172H109.472L108.501 31.2229L107.773 31.949V32.9172H107.045V29.2866H107.773V30.9809L109.472 29.2866H110.201L108.987 30.7388L110.201 32.9172Z" fill="url(#paint19_linear)"/>
<path d="M113.113 32.9172V31.2229H111.414V32.9172H110.929V29.2866H111.414V30.7388H113.113V29.2866H113.842V32.9172H113.113Z" fill="url(#paint20_linear)"/>
<path d="M116.997 32.9172L116.754 32.1911H115.298L115.055 32.9172H114.327L115.783 29.0446H116.512L117.968 32.9172H116.997ZM116.512 31.707L116.026 30.0127L115.541 31.707H116.512Z" fill="url(#paint21_linear)"/>
<path d="M119.182 29.2866H118.453V33.1592H119.182V29.2866Z" fill="url(#paint22_linear)"/>
<path d="M123.065 29.7707V32.9172H122.337V29.7707H121.123V29.2866H124.036V29.7707H123.065Z" fill="url(#paint23_linear)"/>
<path d="M126.949 32.9172V31.2229H125.25V32.9172H124.522V29.2866H125.25V30.7388H126.949V29.2866H127.434V32.9172H126.949Z" fill="url(#paint24_linear)"/>
<path d="M130.833 32.9172L130.59 32.1911H129.134L128.891 32.9172H128.163L129.619 29.0446H130.347L131.804 32.9172H130.833ZM130.347 31.707L129.862 30.0127L129.376 31.707H130.347Z" fill="url(#paint25_linear)"/>
<path d="M134.474 32.9172C133.988 32.9172 133.746 33.1592 133.26 33.1592C132.289 33.1592 131.804 32.6752 131.804 31.2229C131.804 29.7707 132.532 29.2866 133.26 29.2866C133.503 29.2866 133.988 29.2866 134.474 29.5287V30.0127C133.988 30.0127 133.746 29.7707 133.503 29.7707C133.017 29.7707 132.532 30.0127 132.532 31.2229C132.532 32.4331 132.775 32.6752 133.503 32.6752C133.746 32.6752 133.988 32.6752 134.474 32.4331V32.9172Z" fill="url(#paint26_linear)"/>
<path d="M139.571 32.6752C139.086 32.9172 138.6 32.9172 138.115 32.9172C137.387 32.9172 136.658 32.4331 136.658 30.9809C136.658 29.5287 137.387 29.0446 138.357 29.0446C138.843 29.0446 139.328 29.0446 139.814 29.2866L139.571 29.7707C139.086 29.7707 138.6 29.5287 138.357 29.5287C137.629 29.5287 137.387 29.7707 137.387 30.9809C137.387 32.1911 137.872 32.4331 138.115 32.4331C138.357 32.4331 138.6 32.4331 138.843 32.1911V31.2229H138.115V30.7389H139.571V32.6752Z" fill="url(#paint27_linear)"/>
<path d="M141.028 29.2866H140.299V33.1592H141.028V29.2866Z" fill="url(#paint28_linear)"/>
<path d="M144.426 32.9172L144.183 32.1911H142.727L142.484 32.9172H141.756L143.212 29.0446H143.94L145.397 32.9172H144.426ZM143.94 31.707L143.455 30.0127L142.969 31.707H143.94Z" fill="url(#paint29_linear)"/>
<path d="M148.795 29.7707V32.9172H148.067V29.7707H147.096V29.2866H150.009V29.7707H148.795Z" fill="url(#paint30_linear)"/>
<path d="M152.193 29.2866C152.922 29.2866 153.407 29.7707 153.407 30.4968C153.407 30.9809 153.164 31.465 152.679 31.465L153.407 33.1592H152.679L151.951 31.465H151.222V32.9172H150.494V29.0446H152.193V29.2866ZM151.222 30.9809H152.193C152.436 30.9809 152.679 30.7389 152.679 30.2548C152.679 29.7707 152.436 29.5287 152.193 29.5287H151.222V30.9809Z" fill="url(#paint31_linear)"/>
<path d="M154.863 29.2866H154.135V33.1592H154.863V29.2866Z" fill="url(#paint32_linear)"/>
<path d="M79.1307 29.0446L78.4025 28.3185H79.1307L79.6162 29.0446H79.1307Z" fill="url(#paint33_linear)"/>
<path d="M129.862 28.8025L130.347 28.0764H131.076L130.347 28.8025H129.862Z" fill="url(#paint34_linear)"/>
<path d="M143.212 28.8025L143.698 28.0764H144.426L143.698 28.8025H143.212Z" fill="url(#paint35_linear)"/>
<path d="M154.62 33.4013H154.135C154.135 33.4013 153.892 33.4013 153.892 33.6433V33.8854C153.892 33.8854 153.892 34.1274 154.135 34.1274H154.62C154.62 34.1274 154.863 34.1274 154.863 33.8854L154.62 33.4013C154.863 33.4013 154.62 33.4013 154.62 33.4013Z" fill="url(#paint36_linear)"/>
</g>
<defs>
<linearGradient id="paint0_linear" x1="16.0227" y1="38.3398" x2="137.005" y2="-67.7119" gradientUnits="userSpaceOnUse">
<stop stop-color="#DDC468"/>
<stop offset="0.8687" stop-color="#DDC468"/>
</linearGradient>
<linearGradient id="paint1_linear" x1="15.9569" y1="38.2648" x2="136.94" y2="-67.7864" gradientUnits="userSpaceOnUse">
<stop stop-color="#DDC468"/>
<stop offset="0.8687" stop-color="#DDC468"/>
</linearGradient>
<linearGradient id="paint2_linear" x1="9.01065" y1="30.3402" x2="129.993" y2="-75.711" gradientUnits="userSpaceOnUse">
<stop stop-color="#DDC468"/>
<stop offset="0.8687" stop-color="#DDC468"/>
</linearGradient>
<linearGradient id="paint3_linear" x1="28.3693" y1="52.4245" x2="149.352" y2="-53.6267" gradientUnits="userSpaceOnUse">
<stop stop-color="#DDC468"/>
<stop offset="0.8687" stop-color="#DDC468"/>
</linearGradient>
<linearGradient id="paint4_linear" x1="35.6855" y1="60.771" x2="156.668" y2="-45.2805" gradientUnits="userSpaceOnUse">
<stop stop-color="#DDC468"/>
<stop offset="0.8687" stop-color="#DDC468"/>
</linearGradient>
<linearGradient id="paint5_linear" x1="41.014" y1="66.8498" x2="161.997" y2="-39.2017" gradientUnits="userSpaceOnUse">
<stop stop-color="#DDC468"/>
<stop offset="0.8687" stop-color="#DDC468"/>
</linearGradient>
<linearGradient id="paint6_linear" x1="45.4861" y1="71.9514" x2="166.469" y2="-34.1" gradientUnits="userSpaceOnUse">
<stop stop-color="#DDC468"/>
<stop offset="0.8687" stop-color="#DDC468"/>
</linearGradient>
<linearGradient id="paint7_linear" x1="51.4999" y1="78.8122" x2="172.483" y2="-27.2393" gradientUnits="userSpaceOnUse">
<stop stop-color="#DDC468"/>
<stop offset="0.8687" stop-color="#DDC468"/>
</linearGradient>
<linearGradient id="paint8_linear" x1="57.9341" y1="86.1521" x2="178.917" y2="-19.8992" gradientUnits="userSpaceOnUse">
<stop stop-color="#DDC468"/>
<stop offset="0.8687" stop-color="#DDC468"/>
</linearGradient>
<linearGradient id="paint9_linear" x1="63.3288" y1="92.3064" x2="184.311" y2="-13.7452" gradientUnits="userSpaceOnUse">
<stop stop-color="#DDC468"/>
<stop offset="0.8687" stop-color="#DDC468"/>
</linearGradient>
<linearGradient id="paint10_linear" x1="69.1961" y1="98.9999" x2="190.179" y2="-7.05143" gradientUnits="userSpaceOnUse">
<stop stop-color="#DDC468"/>
<stop offset="0.8687" stop-color="#DDC468"/>
</linearGradient>
<linearGradient id="paint11_linear" x1="38.4534" y1="63.9283" x2="159.436" y2="-42.1229" gradientUnits="userSpaceOnUse">
<stop stop-color="#DDC468"/>
<stop offset="0.8687" stop-color="#DDC468"/>
</linearGradient>
<linearGradient id="paint12_linear" x1="39.644" y1="65.2867" x2="160.627" y2="-40.7645" gradientUnits="userSpaceOnUse">
<stop stop-color="#DDC468"/>
<stop offset="0.8687" stop-color="#DDC468"/>
</linearGradient>
<linearGradient id="paint13_linear" x1="41.4257" y1="67.3193" x2="162.409" y2="-38.732" gradientUnits="userSpaceOnUse">
<stop stop-color="#DDC468"/>
<stop offset="0.8687" stop-color="#DDC468"/>
</linearGradient>
<linearGradient id="paint14_linear" x1="43.1439" y1="69.2796" x2="164.127" y2="-36.772" gradientUnits="userSpaceOnUse">
<stop stop-color="#DDC468"/>
<stop offset="0.8687" stop-color="#DDC468"/>
</linearGradient>
<linearGradient id="paint15_linear" x1="45.3885" y1="71.8401" x2="166.371" y2="-34.211" gradientUnits="userSpaceOnUse">
<stop stop-color="#DDC468"/>
<stop offset="0.8687" stop-color="#DDC468"/>
</linearGradient>
<linearGradient id="paint16_linear" x1="47.0256" y1="73.7076" x2="168.008" y2="-32.3432" gradientUnits="userSpaceOnUse">
<stop stop-color="#DDC468"/>
<stop offset="0.8687" stop-color="#DDC468"/>
</linearGradient>
<linearGradient id="paint17_linear" x1="48.9576" y1="75.9117" x2="169.94" y2="-30.1394" gradientUnits="userSpaceOnUse">
<stop stop-color="#DDC468"/>
<stop offset="0.8687" stop-color="#DDC468"/>
</linearGradient>
<linearGradient id="paint18_linear" x1="50.0654" y1="77.1753" x2="171.048" y2="-28.8761" gradientUnits="userSpaceOnUse">
<stop stop-color="#DDC468"/>
<stop offset="0.8687" stop-color="#DDC468"/>
</linearGradient>
<linearGradient id="paint19_linear" x1="52.5617" y1="80.0231" x2="173.544" y2="-26.0282" gradientUnits="userSpaceOnUse">
<stop stop-color="#DDC468"/>
<stop offset="0.8687" stop-color="#DDC468"/>
</linearGradient>
<linearGradient id="paint20_linear" x1="54.112" y1="81.7917" x2="175.095" y2="-24.2597" gradientUnits="userSpaceOnUse">
<stop stop-color="#DDC468"/>
<stop offset="0.8687" stop-color="#DDC468"/>
</linearGradient>
<linearGradient id="paint21_linear" x1="56.0441" y1="83.9957" x2="177.027" y2="-22.0553" gradientUnits="userSpaceOnUse">
<stop stop-color="#DDC468"/>
<stop offset="0.8687" stop-color="#DDC468"/>
</linearGradient>
<linearGradient id="paint22_linear" x1="56.8876" y1="84.9571" x2="177.87" y2="-21.0925" gradientUnits="userSpaceOnUse">
<stop stop-color="#DDC468"/>
<stop offset="0.8687" stop-color="#DDC468"/>
</linearGradient>
<linearGradient id="paint23_linear" x1="58.3559" y1="86.6329" x2="179.338" y2="-19.4179" gradientUnits="userSpaceOnUse">
<stop stop-color="#DDC468"/>
<stop offset="0.8687" stop-color="#DDC468"/>
</linearGradient>
<linearGradient id="paint24_linear" x1="60.0868" y1="88.608" x2="181.07" y2="-17.4435" gradientUnits="userSpaceOnUse">
<stop stop-color="#DDC468"/>
<stop offset="0.8687" stop-color="#DDC468"/>
</linearGradient>
<linearGradient id="paint25_linear" x1="62.0185" y1="90.812" x2="183.001" y2="-15.2398" gradientUnits="userSpaceOnUse">
<stop stop-color="#DDC468"/>
<stop offset="0.8687" stop-color="#DDC468"/>
</linearGradient>
<linearGradient id="paint26_linear" x1="63.3036" y1="92.2775" x2="184.286" y2="-13.7737" gradientUnits="userSpaceOnUse">
<stop stop-color="#DDC468"/>
<stop offset="0.8687" stop-color="#DDC468"/>
</linearGradient>
<linearGradient id="paint27_linear" x1="65.4179" y1="94.6895" x2="186.401" y2="-11.3615" gradientUnits="userSpaceOnUse">
<stop stop-color="#DDC468"/>
<stop offset="0.8687" stop-color="#DDC468"/>
</linearGradient>
<linearGradient id="paint28_linear" x1="66.4336" y1="95.8481" x2="187.416" y2="-10.203" gradientUnits="userSpaceOnUse">
<stop stop-color="#DDC468"/>
<stop offset="0.8687" stop-color="#DDC468"/>
</linearGradient>
<linearGradient id="paint29_linear" x1="67.8705" y1="97.4877" x2="188.853" y2="-8.56388" gradientUnits="userSpaceOnUse">
<stop stop-color="#DDC468"/>
<stop offset="0.8687" stop-color="#DDC468"/>
</linearGradient>
<linearGradient id="paint30_linear" x1="69.5587" y1="99.4135" x2="190.541" y2="-6.63816" gradientUnits="userSpaceOnUse">
<stop stop-color="#DDC468"/>
<stop offset="0.8687" stop-color="#DDC468"/>
</linearGradient>
<linearGradient id="paint31_linear" x1="71.3062" y1="101.407" x2="192.289" y2="-4.64443" gradientUnits="userSpaceOnUse">
<stop stop-color="#DDC468"/>
<stop offset="0.8687" stop-color="#DDC468"/>
</linearGradient>
<linearGradient id="paint32_linear" x1="72.3596" y1="102.61" x2="193.343" y2="-3.4432" gradientUnits="userSpaceOnUse">
<stop stop-color="#DDC468"/>
<stop offset="0.8687" stop-color="#DDC468"/>
</linearGradient>
<linearGradient id="paint33_linear" x1="38.4966" y1="63.9779" x2="159.479" y2="-42.0734" gradientUnits="userSpaceOnUse">
<stop stop-color="#DDC468"/>
<stop offset="0.8687" stop-color="#DDC468"/>
</linearGradient>
<linearGradient id="paint34_linear" x1="60.6715" y1="89.2743" x2="181.654" y2="-16.7762" gradientUnits="userSpaceOnUse">
<stop stop-color="#DDC468"/>
<stop offset="0.8687" stop-color="#DDC468"/>
</linearGradient>
<linearGradient id="paint35_linear" x1="66.4535" y1="95.8713" x2="187.436" y2="-10.1808" gradientUnits="userSpaceOnUse">
<stop stop-color="#DDC468"/>
<stop offset="0.8687" stop-color="#DDC468"/>
</linearGradient>
<linearGradient id="paint36_linear" x1="73.6635" y1="104.095" x2="194.646" y2="-1.95455" gradientUnits="userSpaceOnUse">
<stop stop-color="#DDC468"/>
<stop offset="0.8687" stop-color="#DDC468"/>
</linearGradient>
<clipPath id="clip0">
<rect width="167" height="38" fill="white"/>
</clipPath>
</defs>
</svg>
