<svg width="253" height="180" viewBox="0 0 253 180" fill="none" xmlns="http://www.w3.org/2000/svg">
<path d="M195.173 8.36483H194.137V10.1787H192.584V5.25537H195.431C196.985 5.25537 197.761 5.77361 197.761 6.8101C197.761 7.58746 197.502 8.10571 196.726 8.36483L198.279 10.4378H196.726L195.173 8.36483ZM195.431 7.58746C196.208 7.58746 196.467 7.32834 196.467 6.8101C196.467 6.29186 196.208 6.03273 195.431 6.03273H194.137V7.58746H195.431Z" fill="white"/>
<path d="M195.173 2.40498C198.02 2.40498 200.608 4.73707 200.608 7.84653C200.608 10.6969 198.279 13.2881 195.173 13.2881C192.325 13.2881 189.737 10.956 189.737 7.84653C189.737 4.73707 192.325 2.40498 195.173 2.40498ZM195.173 1.10938C191.549 1.10938 188.701 3.95971 188.701 7.58741C188.701 11.2151 191.549 14.0654 195.173 14.0654C198.797 14.0654 201.644 11.2151 201.644 7.58741C201.644 3.95971 198.797 1.10938 195.173 1.10938Z" fill="white"/>
<path d="M187.407 41.0142L166.44 5.25548C163.075 -0.445187 155.051 -0.445187 151.945 5.25548L134.602 35.0544L128.389 45.4193H118.553L115.965 41.0142L95.2567 5.25548C91.8917 -0.445187 83.8673 -0.445187 80.7611 5.25548L59.5355 41.0142C56.1704 46.7149 60.312 53.7112 66.7833 53.7112H96.0333L116.741 89.2108C119.589 94.1341 126.578 94.1341 129.684 89.2108L150.392 53.7112H179.642C186.631 53.7112 190.772 46.7149 187.407 41.0142Z" fill="white"/>
<path d="M16.3075 144.663L8.02434 134.298V150.105H0V123.674H8.02434L18.3783 137.149L28.7323 123.674H36.7566V150.105H28.7323V134.298L20.4491 144.663H16.3075Z" fill="white"/>
<path d="M62.3828 144.404C59.7943 144.922 56.947 144.922 54.8762 144.922C48.9226 144.922 48.1461 143.626 47.8872 141.294C49.958 141.812 52.0288 142.071 54.8762 142.071C66.0067 142.071 67.0421 139.221 67.0421 136.112V135.593C67.0421 132.225 64.9713 129.375 54.8762 129.375H53.5819C43.4868 129.375 40.8983 133.78 40.8983 139.221V140.776C40.8983 146.217 43.7457 150.622 53.5819 150.622C53.5819 150.622 62.124 150.363 65.2302 149.586L62.3828 144.404ZM54.6173 134.557C59.5355 134.557 59.7943 135.593 59.7943 136.371C59.7943 137.148 59.5355 137.926 54.3585 137.926C51.77 137.926 49.958 137.666 48.1461 137.407C48.4049 135.334 49.958 134.557 54.6173 134.557Z" fill="white"/>
<path d="M91.8915 144.404C89.303 144.922 86.4557 144.922 84.3849 144.922C78.4313 144.922 77.6548 143.626 77.3959 141.294C79.4667 141.812 81.5375 142.071 84.3849 142.071C95.5154 142.071 96.5508 139.221 96.5508 136.112V135.593C96.5508 132.225 94.48 129.375 84.3849 129.375H83.0906C72.9955 129.375 70.407 133.78 70.407 139.221V140.776C70.407 146.217 73.2543 150.622 83.0906 150.622H83.8672C87.2322 150.622 91.6327 150.363 94.7388 149.586L91.8915 144.404ZM84.3849 134.557C89.303 134.557 89.5619 135.593 89.5619 136.371C89.5619 137.148 89.303 137.926 84.126 137.926C81.5375 137.926 79.7256 137.666 77.9136 137.407C78.1725 135.334 79.7256 134.557 84.3849 134.557Z" fill="white"/>
<path d="M115.706 152.177C113.376 156.842 111.305 159.951 105.352 159.951C104.316 159.951 102.763 159.951 101.728 159.433V153.732C102.763 153.991 104.316 153.991 105.093 153.991C107.94 153.991 108.717 152.955 109.493 151.141L109.752 150.364L99.1395 131.448V129.893H105.87L112.858 143.367L119.071 129.893H125.801V131.448L115.706 152.177Z" fill="white"/>
<path d="M132.79 150.105V123.674H140.814V143.627H161.263V150.105H132.79Z" fill="white"/>
<path d="M191.031 150.104H189.219L186.889 148.809C183.783 150.104 180.677 150.882 176.535 150.882C166.958 150.882 164.111 147.772 164.111 144.404V143.885C164.111 140.517 167.217 137.926 176.277 137.926C179.383 137.926 181.712 138.185 183.783 138.703C183.783 136.63 183.007 135.334 177.312 135.334C174.206 135.334 169.805 135.853 166.699 136.63V130.67C169.805 130.152 174.206 129.634 177.571 129.634C187.407 129.634 191.031 132.743 191.031 138.185V150.104ZM184.042 144.922V143.108C181.971 142.59 179.9 142.331 177.053 142.331C171.876 142.331 171.617 143.367 171.617 144.145C171.617 145.181 171.876 145.699 177.571 145.699C179.9 145.958 181.971 145.699 184.042 144.922Z" fill="white"/>
<path d="M197.502 130.411L199.832 131.707C202.679 130.411 205.785 129.634 209.668 129.634C219.763 129.634 222.352 134.039 222.352 139.48V150.104H215.104V140.258C215.104 137.667 215.104 135.334 209.15 135.334C206.821 135.334 204.491 135.594 202.679 136.112V150.104H195.431V130.411H197.502Z" fill="white"/>
<path d="M252.637 150.104H250.825L248.496 148.809C245.648 150.104 242.542 150.882 238.659 150.882C228.564 150.882 225.976 146.477 225.976 141.035V139.48C225.976 134.039 228.823 129.634 238.659 129.634C241.248 129.634 243.578 129.893 245.648 130.411V120.824H247.46L252.896 123.674V150.104H252.637ZM245.389 144.145V136.112C243.319 135.594 241.248 135.335 238.918 135.335C232.965 135.335 232.965 137.667 232.965 140.258C232.965 142.849 232.965 145.181 238.918 145.181C241.248 145.181 243.578 144.922 245.389 144.145Z" fill="white"/>
<path d="M35.9801 177.053C34.9447 177.312 33.9093 177.312 33.1328 177.312C30.8031 177.312 29.5089 176.276 29.5089 172.648C29.5089 169.02 31.062 167.984 33.1328 167.984C33.9093 167.984 34.9447 168.243 35.9801 168.243L35.7213 169.539C34.6859 169.279 33.9093 169.279 33.3916 169.279C31.8385 169.279 31.3208 170.057 31.3208 172.648C31.3208 175.239 32.0974 176.017 33.3916 176.017C33.9093 176.017 34.6859 175.758 35.7213 175.758L35.9801 177.053Z" fill="white"/>
<path d="M44.5222 173.166C44.5222 175.758 44.2633 177.312 40.8983 177.312C37.5332 177.312 37.2744 175.758 37.2744 173.166V167.984H39.0863V173.166C39.0863 175.758 39.0863 176.017 40.8983 176.017C42.7102 176.017 42.7102 175.498 42.7102 173.166V167.984H44.5222V173.166Z" fill="white"/>
<path d="M52.0288 177.312L48.1461 171.093V177.312H46.3341V167.984H48.1461L52.2877 174.462V167.984H53.8407V177.312H52.0288Z" fill="white"/>
<path d="M62.6416 176.535C61.6062 177.053 60.312 177.312 59.0177 177.312C56.9469 177.312 55.3938 176.276 55.3938 172.648C55.3938 169.02 56.9469 167.984 59.2766 167.984C60.312 167.984 61.3474 168.243 62.6416 168.502L62.3828 169.798C61.0885 169.539 60.312 169.279 59.5354 169.279C57.9823 169.279 57.2058 170.057 57.2058 172.648C57.2058 175.498 58.2412 176.017 59.2766 176.017C59.7943 176.017 60.5708 175.758 61.0885 175.758V173.425H59.2766V172.13H62.9005V176.535H62.6416Z" fill="white"/>
<path d="M74.2899 177.312L70.1483 171.093V177.312H68.3363V167.984H70.1483L74.2899 174.462V167.984H75.843V177.312H74.2899Z" fill="white"/>
<path d="M83.0907 177.312V173.166H79.4668V177.312H77.6549V167.984H79.4668V171.871H83.0907V167.984H84.9026V177.312H83.0907Z" fill="white"/>
<path d="M92.6681 177.312L91.8916 175.239H88.2677L87.4911 177.312H85.6792L89.0442 167.984H90.8562L94.2212 177.312H92.6681ZM91.6327 173.944L90.3385 169.798L89.0442 173.944H91.6327Z" fill="white"/>
<path d="M102.505 173.166C102.505 175.758 102.246 177.312 98.8806 177.312C95.5156 177.312 95.2567 175.758 95.2567 173.166V167.984H97.0687V173.166C97.0687 175.758 97.0687 176.017 98.8806 176.017C100.693 176.017 100.693 175.498 100.693 173.166V167.984H102.505V173.166Z" fill="white"/>
<path d="M115.706 177.312H113.894L111.564 173.166L110.011 174.98V177.312H108.199V167.984H110.011V172.648L113.635 167.984H115.706L112.6 171.871L115.706 177.312Z" fill="white"/>
<path d="M122.436 177.312V173.166H118.812V177.312H117.259V167.984H118.812V171.871H122.436V167.984H124.248V177.312H122.436Z" fill="white"/>
<path d="M132.272 177.312L131.496 175.239H127.872L127.095 177.312H125.283L128.648 167.984H130.46L133.825 177.312H132.272ZM131.237 173.944L129.943 169.798L128.648 173.944H131.237Z" fill="white"/>
<path d="M137.19 167.984H135.378V177.312H137.19V167.984Z" fill="white"/>
<path d="M146.509 169.279V177.312H144.697V169.279H142.108V167.984H149.097V169.279H146.509Z" fill="white"/>
<path d="M155.827 177.312V173.166H152.203V177.312H150.392V167.984H152.203V171.871H155.827V167.984H157.38V177.312H155.827Z" fill="white"/>
<path d="M165.405 177.312L164.628 175.239H161.005L160.487 177.312H158.675L162.04 167.984H163.852L167.217 177.312H165.405ZM164.37 173.944L163.075 169.798L161.781 173.944H164.37Z" fill="white"/>
<path d="M174.206 177.053C173.17 177.312 172.135 177.312 171.358 177.312C169.029 177.312 167.735 176.276 167.735 172.648C167.735 169.02 169.288 167.984 171.358 167.984C172.135 167.984 173.17 168.243 174.206 168.243L173.947 169.539C172.912 169.279 172.135 169.279 171.617 169.279C170.064 169.279 169.547 170.057 169.547 172.648C169.547 175.239 170.323 176.017 171.617 176.017C172.135 176.017 172.912 175.758 173.947 175.758L174.206 177.053Z" fill="white"/>
<path d="M186.631 176.535C185.595 177.053 184.301 177.312 183.007 177.312C180.936 177.312 179.383 176.276 179.383 172.648C179.383 169.02 180.936 167.984 183.266 167.984C184.301 167.984 185.336 168.243 186.631 168.502L186.372 169.798C185.078 169.539 184.301 169.279 183.524 169.279C181.971 169.279 181.195 170.057 181.195 172.648C181.195 175.498 182.23 176.017 183.266 176.017C183.783 176.017 184.56 175.758 185.078 175.758V173.425H183.266V172.13H186.889V176.535H186.631Z" fill="white"/>
<path d="M190.255 167.984H188.443V177.312H190.255V167.984Z" fill="white"/>
<path d="M198.02 177.312L197.243 175.239H193.62L192.843 177.312H191.031L194.396 167.984H196.208L199.573 177.312H198.02ZM196.985 173.944L195.69 169.798L194.137 173.944H196.985Z" fill="white"/>
<path d="M208.892 169.279V177.312H207.08V169.279H204.491V167.984H211.48V169.279H208.892Z" fill="white"/>
<path d="M216.916 167.984C218.469 167.984 219.505 169.02 219.505 170.834C219.505 172.13 218.987 173.166 217.951 173.425L220.022 177.312H218.21L216.398 173.685H214.586V177.312H212.774V167.984H216.916ZM214.328 172.389H216.398C217.175 172.389 217.693 171.871 217.693 170.834C217.693 169.798 217.175 169.279 216.398 169.279H214.328V172.389Z" fill="white"/>
<path d="M223.128 167.984H221.316V177.312H223.128V167.984Z" fill="white"/>
<path d="M40.6395 167.725L39.3453 165.652H40.6395L41.9337 167.725H40.6395Z" fill="white"/>
<path d="M163.075 167.466L164.369 165.393H165.923L164.369 167.466H163.075Z" fill="white"/>
<path d="M195.173 167.466L196.467 165.393H198.02L196.467 167.466H195.173Z" fill="white"/>
<path d="M222.611 178.089H221.834C221.575 178.089 221.316 178.348 221.316 178.608V179.385C221.316 179.644 221.575 179.903 221.834 179.903H222.611C222.869 179.903 223.128 179.644 223.128 179.385V178.608C223.128 178.348 222.869 178.089 222.611 178.089Z" fill="white"/>
</svg>
