<svg width="54" height="55" viewBox="0 0 54 55" fill="none" xmlns="http://www.w3.org/2000/svg">
<path d="M35.7301 16.9194C32.6239 14.3282 29.0001 13.5508 24.8585 14.069C20.9757 14.8464 17.8695 16.9194 15.5398 20.2879C13.7279 23.1383 13.2102 25.9886 13.7279 29.3572C13.9867 31.4302 14.7632 33.5031 16.0575 35.0579V35.317C15.5398 36.8717 15.0222 38.4264 14.5045 39.722C14.5045 39.722 14.5045 39.722 14.5045 39.9812C16.0576 39.4629 17.6106 38.9447 19.1637 38.4264C19.4226 38.4264 19.4226 38.4264 19.4226 38.4264C19.6815 38.4264 19.6814 38.6856 19.9403 38.6856C22.7876 40.2403 25.635 40.7585 28.7412 40.2403C32.1063 39.722 35.2124 37.9082 37.2832 35.317C39.354 32.9849 40.1306 30.1346 40.1306 26.766C40.1306 25.9886 40.1306 25.2113 39.8717 24.4339C39.8717 21.8427 38.3186 18.9923 35.7301 16.9194ZM35.7301 32.2075C35.7301 32.7258 35.4713 33.244 35.2125 33.7623C35.2125 34.0214 34.9536 34.2805 34.6947 34.5396C34.177 35.0579 33.4005 35.317 32.624 35.5761C31.8474 35.8352 31.0708 35.8352 30.2943 35.317C29 34.7987 27.9646 34.5396 26.6704 33.7623C25.3761 32.9849 24.3408 32.2075 23.3054 31.171C22.27 30.1346 21.4934 28.839 20.7169 27.8025C20.1992 27.0251 19.6815 26.2477 19.4226 25.2113C19.1638 24.4339 19.1637 23.3974 19.1637 22.62C19.4226 21.5836 19.6814 20.8062 20.458 20.0288C20.7168 19.7697 20.7169 19.7697 20.9757 19.5106C21.2346 19.2515 21.4934 19.2515 22.0111 19.2515C22.27 19.2515 22.5288 19.2515 22.7876 19.2515C23.0465 19.2515 23.0465 19.2515 23.3054 19.5106C23.3054 19.7697 23.5642 19.7697 23.5642 20.0288C24.0819 21.0653 24.3408 22.1018 24.8585 23.3974C24.8585 23.6565 24.8585 23.9156 24.8585 24.1748C24.5996 24.693 24.0819 24.9521 23.823 25.4704C23.823 25.4704 23.8231 25.4704 23.5642 25.7295C23.3054 25.9886 23.3054 26.2477 23.5642 26.5069C24.3408 28.0616 25.3761 29.3572 26.9292 30.3937C27.7058 30.9119 28.4823 31.4302 29.2589 31.6893C29.5177 31.9484 29.7766 31.6893 30.0355 31.4302C30.5532 30.9119 31.0709 30.3937 31.3297 29.8754C31.5886 29.6163 31.8474 29.6163 32.1062 29.6163C32.6239 29.8754 32.8828 29.8754 33.4005 30.1346C34.177 30.3937 34.6947 30.9119 35.4713 31.171C35.4713 31.4302 35.7301 31.6893 35.7301 32.2075Z" fill="white"/>
<path d="M26.9293 0.594727C11.916 0.594727 0.00891113 12.7734 0.00891113 27.5433C0.00891113 42.3133 12.1748 54.492 26.9293 54.492C41.9425 54.492 53.8496 42.3133 53.8496 27.5433C53.8496 12.7734 41.9425 0.594727 26.9293 0.594727ZM40.3895 37.1308C37.801 40.4994 34.4359 42.8315 30.2943 43.6089C26.9292 44.3862 23.5642 43.868 20.1992 42.3133C19.9403 42.3133 19.6815 42.0541 19.6815 42.0541H19.4226C16.5753 43.0906 13.7279 43.868 10.8805 44.9045H10.6218V44.6454C11.6572 41.795 12.4336 39.2038 13.469 36.3535V36.0944C12.4336 34.0214 11.6571 31.9484 11.3983 29.8754C11.1394 27.5434 11.3983 25.4704 11.916 23.1383C12.6926 20.288 14.2456 17.6967 16.5753 15.8829C19.1638 13.5508 22.5288 11.9961 26.1527 11.7369C29.2589 11.4778 32.1063 11.9961 34.6948 13.2917C37.5421 14.8464 39.8718 16.9194 41.4249 19.7697C42.978 22.3609 43.4956 24.9521 43.4956 28.0616C43.4956 30.9119 42.4603 34.2805 40.3895 37.1308Z" fill="white"/>
</svg>
