<svg width="54" height="55" viewBox="0 0 54 55" fill="none" xmlns="http://www.w3.org/2000/svg">
<path d="M23.5598 32.7257C26.4071 30.9118 29.5133 29.3571 32.3606 27.5433C29.5133 25.7294 26.4071 24.1747 23.5598 22.3608C23.5598 25.9885 23.5598 29.3571 23.5598 32.7257Z" fill="white"/>
<path d="M26.9248 0.594727C11.9116 0.594727 0.0045166 12.7734 0.0045166 27.5433C0.0045166 42.3133 12.1704 54.492 26.9248 54.492C41.6792 54.492 53.8452 42.3133 53.8452 27.5433C53.8452 12.7734 41.9381 0.594727 26.9248 0.594727ZM44.0089 28.5798C44.0089 30.1346 44.0089 31.4302 43.75 32.9849C43.75 34.0214 43.4912 35.0579 43.2324 36.0944C42.7147 37.6491 41.6792 38.6856 39.8673 39.2038C39.0907 39.4629 38.3142 39.4629 37.5377 39.4629C34.4315 39.7221 31.3253 39.7221 27.9603 39.7221C27.7014 39.7221 27.1837 39.7221 26.9248 39.7221C24.854 39.7221 22.7833 39.7221 20.7125 39.7221C19.4182 39.7221 18.124 39.7221 17.0886 39.4629C16.0532 39.4629 15.0178 39.2038 13.9824 39.2038C12.6881 38.9447 11.6528 38.1673 10.8762 37.1308C10.6174 36.6126 10.3585 36.0944 10.3585 35.5761C10.0996 34.5396 10.0996 33.244 10.0996 32.2075C10.0996 30.6528 9.84084 28.839 9.84084 27.2842C9.84084 25.7295 9.84077 24.1748 10.0996 22.8792C10.0996 21.8427 10.3585 20.8062 10.6174 20.0288C11.1351 18.4741 12.4293 17.1785 13.9824 16.9194C15.0178 16.6603 16.0532 16.6602 17.0886 16.6602C19.9359 16.4011 22.7832 16.4011 25.6306 16.4011C27.9602 16.4011 30.2899 16.4011 32.6195 16.4011C33.9138 16.4011 34.9492 16.4011 36.2434 16.6602C37.2788 16.6602 38.3142 16.9194 39.3496 16.9194C40.385 17.1785 41.4204 17.6967 42.197 18.4741C42.7147 18.9923 42.9735 19.7697 42.9735 20.5471C43.2324 21.3244 43.2324 22.3609 43.2324 23.1383C44.0089 24.4339 44.0089 26.5069 44.0089 28.5798Z" fill="white"/>
</svg>
