<svg width="66" height="66" viewBox="0 0 66 66" fill="none" xmlns="http://www.w3.org/2000/svg">
<circle cx="33" cy="33" r="33" fill="#C4C4C4"/>
<path d="M26.7343 20.0507C26.7343 15.898 30.1007 12.5317 34.2533 12.5317C38.4059 12.5317 41.7723 15.898 41.7723 20.0507C41.7723 24.2033 38.4059 27.5697 34.2533 27.5697C30.1007 27.5697 26.7343 24.2033 26.7343 20.0507Z" fill="black" fill-opacity="0.65"/>
<path d="M29.002 30.9114H37.8337C39.6445 30.9114 41.1052 30.9114 42.2879 31.008C43.5057 31.1075 44.5754 31.3177 45.5651 31.8219C47.137 32.6229 48.4152 33.9011 49.2162 35.473C49.7204 36.4627 49.9306 37.5324 50.0301 38.7502C50.1267 39.9329 50.1267 41.3936 50.1267 43.2044V44.2785C50.1267 45.2013 49.3786 45.9494 48.4558 45.9494H18.3799C17.4571 45.9494 16.709 45.2013 16.709 44.2785V43.2044C16.709 41.3936 16.709 39.933 16.8056 38.7502C16.9051 37.5324 17.1153 36.4627 17.6196 35.4731C18.4205 33.9011 19.6986 32.623 21.2706 31.822C22.2602 31.3177 23.33 31.1075 24.5478 31.008C25.7305 30.9114 27.1912 30.9114 29.002 30.9114Z" fill="black" fill-opacity="0.65"/>
</svg>
