<svg class="animated" id="freepik_stories-paper-map" xmlns="http://www.w3.org/2000/svg" viewBox="0 0 500 500" version="1.1" xmlns:xlink="http://www.w3.org/1999/xlink" xmlns:svgjs="http://svgjs.com/svgjs"><style>svg#freepik_stories-paper-map:not(.animated) .animable {opacity: 0;}svg#freepik_stories-paper-map.animated #freepik--background-complete--inject-10 {animation: 1s 1 forwards linear fadeIn;animation-delay: 0s;}svg#freepik_stories-paper-map.animated #freepik--Map--inject-10 {animation: 1s 1 forwards cubic-bezier(.36,-0.01,.5,1.38) zoomOut,6s Infinite  linear floating;animation-delay: 0s,1s;}svg#freepik_stories-paper-map.animated #freepik--Character--inject-10 {animation: 1s 1 forwards cubic-bezier(.36,-0.01,.5,1.38) slideRight,3s Infinite  linear floating;animation-delay: 0s,1.5s;}            @keyframes fadeIn {                0% {                    opacity: 0;                }                100% {                    opacity: 1;                }            }                    @keyframes zoomOut {                0% {                    opacity: 0;                    transform: scale(1.5);                }                100% {                    opacity: 1;                    transform: scale(1);                }            }                    @keyframes floating {                0% {                    opacity: 1;                    transform: translateY(0px);                }                50% {                    transform: translateY(-10px);                }                100% {                    opacity: 1;                    transform: translateY(0px);                }            }                    @keyframes slideRight {                0% {                    opacity: 0;                    transform: translateX(30px);                }                100% {                    opacity: 1;                    transform: translateX(0);                }            }        </style><g id="freepik--background-complete--inject-10" class="animable" style="transform-origin: 250px 225.15px;"><rect y="382.4" width="500" height="0.25" style="fill: rgb(230, 230, 230); transform-origin: 250px 382.525px;" id="el86ao04fj80g" class="animable"></rect><rect x="385.39" y="394.47" width="34.4" height="0.25" style="fill: rgb(230, 230, 230); transform-origin: 402.59px 394.595px;" id="elphwfnw71jvq" class="animable"></rect><rect x="255.61" y="394.93" width="10.28" height="0.25" style="fill: rgb(230, 230, 230); transform-origin: 260.75px 395.055px;" id="elbj5utt6ft9n" class="animable"></rect><rect x="355.58" y="390.91" width="19.36" height="0.25" style="fill: rgb(230, 230, 230); transform-origin: 365.26px 391.035px;" id="elfpulmiyomtr" class="animable"></rect><rect x="72.44" y="391.5" width="25.68" height="0.25" style="fill: rgb(230, 230, 230); transform-origin: 85.28px 391.625px;" id="el93x08113icp" class="animable"></rect><rect x="53.9" y="395.05" width="17.54" height="0.25" style="fill: rgb(230, 230, 230); transform-origin: 62.67px 395.175px;" id="el5veb0e1rjpc" class="animable"></rect><rect x="134.44" y="388.97" width="93.68" height="0.25" style="fill: rgb(230, 230, 230); transform-origin: 181.28px 389.095px;" id="el8ffwewpv0wh" class="animable"></rect><path d="M237,337.8H43.91a5.71,5.71,0,0,1-5.7-5.71V60.66A5.71,5.71,0,0,1,43.91,55H237a5.71,5.71,0,0,1,5.71,5.71V332.09A5.71,5.71,0,0,1,237,337.8ZM43.91,55.2a5.46,5.46,0,0,0-5.45,5.46V332.09a5.46,5.46,0,0,0,5.45,5.46H237a5.47,5.47,0,0,0,5.46-5.46V60.66A5.47,5.47,0,0,0,237,55.2Z" style="fill: rgb(230, 230, 230); transform-origin: 140.46px 196.4px;" id="elutwixn5gw5c" class="animable"></path><path d="M453.31,337.8H260.21a5.72,5.72,0,0,1-5.71-5.71V60.66A5.72,5.72,0,0,1,260.21,55h193.1A5.71,5.71,0,0,1,459,60.66V332.09A5.71,5.71,0,0,1,453.31,337.8ZM260.21,55.2a5.47,5.47,0,0,0-5.46,5.46V332.09a5.47,5.47,0,0,0,5.46,5.46h193.1a5.47,5.47,0,0,0,5.46-5.46V60.66a5.47,5.47,0,0,0-5.46-5.46Z" style="fill: rgb(230, 230, 230); transform-origin: 356.75px 196.4px;" id="el0314077ka0jc" class="animable"></path><polygon points="287.29 258.68 289.52 257.51 291.74 258.68 291.74 382.4 287.29 382.4 287.29 258.68" style="fill: rgb(240, 240, 240); transform-origin: 289.515px 319.955px;" id="elgix2y1yyq1" class="animable"></polygon><polygon points="312.99 258.68 315.22 257.51 317.44 258.68 317.44 382.4 312.99 382.4 312.99 258.68" style="fill: rgb(240, 240, 240); transform-origin: 315.215px 319.955px;" id="el04m117fb279" class="animable"></polygon><polygon points="338.69 258.68 340.92 257.51 343.14 258.68 343.14 382.4 338.69 382.4 338.69 258.68" style="fill: rgb(240, 240, 240); transform-origin: 340.915px 319.955px;" id="eluj0flb178oe" class="animable"></polygon><polygon points="364.39 258.68 366.62 257.51 368.84 258.68 368.84 382.4 364.39 382.4 364.39 258.68" style="fill: rgb(240, 240, 240); transform-origin: 366.615px 319.955px;" id="elus2q3w60w8" class="animable"></polygon><polygon points="390.1 258.68 392.32 257.51 394.55 258.68 394.55 382.4 390.1 382.4 390.1 258.68" style="fill: rgb(240, 240, 240); transform-origin: 392.325px 319.955px;" id="elo70pxk2ylxp" class="animable"></polygon><polygon points="415.8 258.68 418.02 257.51 420.25 258.68 420.25 382.4 415.8 382.4 415.8 258.68" style="fill: rgb(240, 240, 240); transform-origin: 418.025px 319.955px;" id="els7piu7s331" class="animable"></polygon><polygon points="441.5 258.68 443.72 257.51 445.95 258.68 445.95 382.4 441.5 382.4 441.5 258.68" style="fill: rgb(240, 240, 240); transform-origin: 443.725px 319.955px;" id="elmdy9vnyc2yf" class="animable"></polygon><g id="elr744pu8igs"><rect x="289.52" y="274.53" width="154.2" height="4" style="fill: rgb(240, 240, 240); transform-origin: 366.62px 276.53px; transform: rotate(180deg);" class="animable"></rect></g><g id="el63i4jnkgtpr"><rect x="289.52" y="358.53" width="154.2" height="4" style="fill: rgb(240, 240, 240); transform-origin: 366.62px 360.53px; transform: rotate(180deg);" class="animable"></rect></g><rect x="122.62" y="97.76" width="109.76" height="242.76" style="fill: rgb(235, 235, 235); transform-origin: 177.5px 219.14px;" id="el48pxfcctcmt" class="animable"></rect><rect x="127.83" y="97.76" width="104.56" height="242.76" style="fill: rgb(250, 250, 250); transform-origin: 180.11px 219.14px;" id="elm5jl4hsmbxh" class="animable"></rect><g id="el047to0tnmfiq"><rect x="64.24" y="172.36" width="231.74" height="93.55" style="fill: rgb(250, 250, 250); transform-origin: 180.11px 219.135px; transform: rotate(90deg);" class="animable"></rect></g><g id="elkxmhegr3hm"><rect x="167.45" y="91.48" width="25.31" height="77.95" style="fill: rgb(235, 235, 235); transform-origin: 180.105px 130.455px; transform: rotate(90deg);" class="animable"></rect></g><g id="elnec0wi8h67"><rect x="152.43" y="253.95" width="55.36" height="77.95" style="fill: rgb(235, 235, 235); transform-origin: 180.11px 292.925px; transform: rotate(90deg);" class="animable"></rect></g><g id="el9g0eoy37lh"><rect x="141.14" y="150.05" width="35.22" height="108.05" style="fill: rgb(235, 235, 235); transform-origin: 158.75px 204.075px; transform: rotate(180deg);" class="animable"></rect></g><g id="eldqctbg3tdl"><rect x="183.87" y="150.05" width="35.22" height="108.05" style="fill: rgb(235, 235, 235); transform-origin: 201.48px 204.075px; transform: rotate(180deg);" class="animable"></rect></g><g id="el0mtfs6ukars"><rect x="110.3" y="218.42" width="231.74" height="1.43" style="fill: rgb(240, 240, 240); transform-origin: 226.17px 219.135px; transform: rotate(90deg);" class="animable"></rect></g><path d="M219.08,209.1a4.69,4.69,0,1,1-4.69-4.69A4.7,4.7,0,0,1,219.08,209.1Z" style="fill: rgb(224, 224, 224); transform-origin: 214.39px 209.1px;" id="el08u8llw27h5a" class="animable"></path><path d="M220.92,208.13a4.7,4.7,0,1,1-4.69-4.69A4.69,4.69,0,0,1,220.92,208.13Z" style="fill: rgb(250, 250, 250); transform-origin: 216.22px 208.14px;" id="ely4w9wml4jqi" class="animable"></path><rect x="122.62" y="340.52" width="20.94" height="20.94" style="fill: rgb(235, 235, 235); transform-origin: 133.09px 350.99px;" id="elz6q5tflxy3" class="animable"></rect><g id="elyzzsyh4jngh"><rect x="143.57" y="340.52" width="109.81" height="20.94" style="fill: rgb(250, 250, 250); transform-origin: 198.475px 350.99px; transform: rotate(180deg);" class="animable"></rect></g><rect x="122.62" y="361.46" width="41.88" height="20.94" style="fill: rgb(235, 235, 235); transform-origin: 143.56px 371.93px;" id="elj1jse3xs8oc" class="animable"></rect><g id="el7wz9f2lsxwk"><rect x="164.51" y="361.46" width="109.81" height="20.94" style="fill: rgb(250, 250, 250); transform-origin: 219.415px 371.93px; transform: rotate(180deg);" class="animable"></rect></g><rect x="265.89" y="97.76" width="49.36" height="129.56" style="fill: rgb(224, 224, 224); transform-origin: 290.57px 162.54px;" id="elykwyl4l36h" class="animable"></rect><rect x="268.9" y="97.76" width="49.36" height="129.56" style="fill: rgb(245, 245, 245); transform-origin: 293.58px 162.54px;" id="elp3kkh4mfsms" class="animable"></rect><g id="elfh1dvdfa32n"><rect x="234.88" y="143.27" width="117.4" height="38.53" style="fill: rgb(255, 255, 255); transform-origin: 293.58px 162.535px; transform: rotate(90deg);" class="animable"></rect></g><g id="elxg3aw6hebjd"><rect x="253.01" y="161.4" width="117.4" height="2.28" style="fill: rgb(224, 224, 224); transform-origin: 311.71px 162.54px; transform: rotate(90deg);" class="animable"></rect></g><rect x="271.14" y="184.75" width="44.88" height="8.16" style="fill: rgb(245, 245, 245); transform-origin: 293.58px 188.83px;" id="els621j8upzo" class="animable"></rect><rect x="332.44" y="97.76" width="49.36" height="129.56" style="fill: rgb(224, 224, 224); transform-origin: 357.12px 162.54px;" id="elrrmvrrtwpo" class="animable"></rect><rect x="335.45" y="97.76" width="49.36" height="129.56" style="fill: rgb(245, 245, 245); transform-origin: 360.13px 162.54px;" id="elh05zpo77crk" class="animable"></rect><g id="elrwaspkxqz8"><rect x="301.43" y="143.27" width="117.4" height="38.53" style="fill: rgb(255, 255, 255); transform-origin: 360.13px 162.535px; transform: rotate(90deg);" class="animable"></rect></g><g id="elhjv1yogfx6m"><rect x="319.56" y="161.4" width="117.4" height="2.28" style="fill: rgb(224, 224, 224); transform-origin: 378.26px 162.54px; transform: rotate(90deg);" class="animable"></rect></g><rect x="337.69" y="184.75" width="44.88" height="8.16" style="fill: rgb(245, 245, 245); transform-origin: 360.13px 188.83px;" id="ela505xdm4m19" class="animable"></rect><rect x="398.98" y="97.76" width="49.36" height="129.56" style="fill: rgb(224, 224, 224); transform-origin: 423.66px 162.54px;" id="elirdk5mbdc7f" class="animable"></rect><rect x="402" y="97.76" width="49.36" height="129.56" style="fill: rgb(245, 245, 245); transform-origin: 426.68px 162.54px;" id="elgr44qh9m7jv" class="animable"></rect><g id="elh9nztbakm4i"><rect x="367.98" y="143.27" width="117.4" height="38.53" style="fill: rgb(255, 255, 255); transform-origin: 426.68px 162.535px; transform: rotate(90deg);" class="animable"></rect></g><g id="elkybzy71g9jp"><rect x="386.11" y="161.4" width="117.4" height="2.28" style="fill: rgb(224, 224, 224); transform-origin: 444.81px 162.54px; transform: rotate(90deg);" class="animable"></rect></g><rect x="404.24" y="184.75" width="44.88" height="8.16" style="fill: rgb(245, 245, 245); transform-origin: 426.68px 188.83px;" id="elfaixf6qyxbq" class="animable"></rect><rect x="53.9" y="97.76" width="49.36" height="129.56" style="fill: rgb(224, 224, 224); transform-origin: 78.58px 162.54px;" id="elnhiolcnxvaa" class="animable"></rect><rect x="56.92" y="97.76" width="49.36" height="129.56" style="fill: rgb(245, 245, 245); transform-origin: 81.6px 162.54px;" id="elox22cljn8v" class="animable"></rect><g id="eluz4pz68pzl"><rect x="22.9" y="143.27" width="117.4" height="38.53" style="fill: rgb(255, 255, 255); transform-origin: 81.6px 162.535px; transform: rotate(90deg);" class="animable"></rect></g><g id="elf8czyesgh7b"><rect x="41.03" y="161.4" width="117.4" height="2.28" style="fill: rgb(224, 224, 224); transform-origin: 99.73px 162.54px; transform: rotate(90deg);" class="animable"></rect></g><rect x="59.16" y="184.75" width="44.88" height="8.16" style="fill: rgb(245, 245, 245); transform-origin: 81.6px 188.83px;" id="eljap3pbntnx" class="animable"></rect><polygon points="122.63 74.5 122.63 87.5 131 87.5 122.63 74.5" style="fill: rgb(235, 235, 235); transform-origin: 126.815px 81px;" id="elfz7z4tqpyaa" class="animable"></polygon><polygon points="232.39 74.5 122.63 74.5 131 87.5 240.76 87.5 232.39 74.5" style="fill: rgb(250, 250, 250); transform-origin: 181.695px 81px;" id="el1u14pmnqdpg" class="animable"></polygon></g><g id="freepik--Shadow--inject-10" class="animable" style="transform-origin: 250px 416.24px;"><ellipse cx="250" cy="416.24" rx="193.89" ry="11.32" style="fill: rgb(245, 245, 245); transform-origin: 250px 416.24px;" id="els50nwcy4gjp" class="animable"></ellipse></g><g id="freepik--Map--inject-10" class="animable" style="transform-origin: 207.64px 271.595px;"><polygon points="254.87 398.06 338.15 401.68 326.14 129.61 242.85 125.99 254.87 398.06" style="fill: rgb(64, 123, 255); transform-origin: 290.5px 263.835px;" id="el8ld2zytbxa4" class="animable"></polygon><g id="eliok2dv75okb"><polygon points="254.87 398.06 338.15 401.68 326.14 129.61 242.85 125.99 254.87 398.06" style="opacity: 0.6; transform-origin: 290.5px 263.835px;" class="animable"></polygon></g><polygon points="172.42 413.33 254.87 398.06 242.85 125.99 160.4 141.26 172.42 413.33" style="fill: rgb(64, 123, 255); transform-origin: 207.635px 269.66px;" id="elpu9om0kbqar" class="animable"></polygon><g id="elrk4o1bpnarf"><polygon points="172.42 413.33 254.87 398.06 242.85 125.99 160.4 141.26 172.42 413.33" style="opacity: 0.6; transform-origin: 207.635px 269.66px;" class="animable"></polygon></g><polygon points="89.13 409.71 172.42 413.33 160.4 141.26 77.11 137.64 89.13 409.71" style="fill: rgb(64, 123, 255); transform-origin: 124.765px 275.485px;" id="el5xrr0qn3cxo" class="animable"></polygon><g id="eljl6b92ctzzb"><polygon points="89.13 409.71 172.42 413.33 160.4 141.26 77.11 137.64 89.13 409.71" style="opacity: 0.6; transform-origin: 124.765px 275.485px;" class="animable"></polygon></g><g id="el3m0hdzsdfvb"><rect x="123.91" y="126.82" width="0.93" height="16.64" style="fill: rgb(64, 123, 255); transform-origin: 124.375px 135.14px; transform: rotate(-87.51deg);" class="animable"></rect></g><g id="elg1d4bq4xqq"><rect x="77.82" y="257.52" width="0.93" height="6.4" style="fill: rgb(64, 123, 255); transform-origin: 78.285px 260.72px; transform: rotate(-2.53deg);" class="animable"></rect></g><g id="elg90djmob4o5"><rect x="78.49" y="268.63" width="0.93" height="14.4" style="fill: rgb(64, 123, 255); transform-origin: 78.955px 275.83px; transform: rotate(-2.53deg);" class="animable"></rect></g><g id="el71uiao3tt1"><circle cx="125.12" cy="206.41" r="22.29" style="fill: rgb(64, 123, 255); opacity: 0.6; transform-origin: 125.12px 206.41px;" class="animable"></circle></g><g id="elc8esdnf00ql"><circle cx="225.92" cy="306.19" r="15.62" style="fill: rgb(64, 123, 255); opacity: 0.2; transform-origin: 225.92px 306.19px; transform: rotate(-47.82deg);" class="animable"></circle></g><path d="M331.49,314.44,278.74,287,299,226.34l22.3,18.25,7.72-9.43-80.45-65.84-54.68-34.47-6.5,10.3,31.14,19.63-58.36,54.35L84.31,275.25,91.55,285l22.71-16.8,27.18,139.37,11.95-2.33L125.11,260.21l18.86-14,18.73,13,84.6,25.07,16.42,8.56L246.3,328.81,222,395.36l11.44,4.18,24.11-66,17-35.07,51.33,26.74ZM168,248.11l-13.72-9.51,13.36-9.88.27-.21,61.23-57,12.25,7.73,47.48,38.85-21.1,63.18L251.89,273Z" style="fill: rgb(64, 123, 255); transform-origin: 207.9px 271.21px;" id="elr8iwl9kb2mb" class="animable"></path><g id="el1evhvz625ehj"><polygon points="173.2 413.33 255.65 398.06 243.63 125.99 161.18 141.26 173.2 413.33" style="fill: rgb(38, 50, 56); opacity: 0.3; mix-blend-mode: multiply; transform-origin: 208.415px 269.66px;" class="animable"></polygon></g><g id="el2dvswqtkbvx"><circle cx="125.12" cy="206.41" r="22.29" style="opacity: 0.1; transform-origin: 125.12px 206.41px;" class="animable"></circle></g><g id="elp4ronosz04q"><path d="M331.49,314.44,278.74,287,299,226.34l22.3,18.25,7.72-9.43-80.45-65.84-54.68-34.47-6.5,10.3,31.14,19.63-58.36,54.35L84.31,275.25,91.55,285l22.71-16.8,27.18,139.37,11.95-2.33L125.11,260.21l18.86-14,18.73,13,84.6,25.07,16.42,8.56L246.3,328.81,222,395.36l11.44,4.18,24.11-66,17-35.07,51.33,26.74ZM168,248.11l-13.72-9.51,13.36-9.88.27-.21,61.23-57,12.25,7.73,47.48,38.85-21.1,63.18L251.89,273Z" style="opacity: 0.7; transform-origin: 207.9px 271.21px;" class="animable"></path></g><path d="M327.54,130l-84.81-3.68-82.46,15.26-84.72-3.68L87.72,413.51l84.82,3.69L255,401.93l84.73,3.69Zm-72,259.78-1.38-.06-1.36.26-81.09,15L99.4,401.83,88.3,150.63l71.44,3.1,1.39.06,1.36-.25,81.09-15,72.29,3.14L327,392.87Z" style="fill: rgb(64, 123, 255); transform-origin: 207.64px 271.76px;" id="elwlzrii4hqhd" class="animable"></path><g id="elmgc8qcwv5d"><path d="M327.54,130l-84.81-3.68-82.46,15.26-84.72-3.68L87.72,413.51l84.82,3.69L255,401.93l84.73,3.69Zm-72,259.78-1.38-.06-1.36.26-81.09,15L99.4,401.83,88.3,150.63l71.44,3.1,1.39.06,1.36-.25,81.09-15,72.29,3.14L327,392.87Z" style="opacity: 0.7; transform-origin: 207.64px 271.76px;" class="animable"></path></g><g id="eldbutndss0xe"><rect x="123.91" y="126.82" width="0.93" height="16.64" style="opacity: 0.7; transform-origin: 124.375px 135.14px; transform: rotate(-87.51deg);" class="animable"></rect></g><g id="el5dynp93l252"><rect x="77.82" y="257.52" width="0.93" height="6.4" style="opacity: 0.7; transform-origin: 78.285px 260.72px; transform: rotate(-2.53deg);" class="animable"></rect></g><g id="el8c0x0bcnvqq"><rect x="78.49" y="268.63" width="0.93" height="14.4" style="opacity: 0.7; transform-origin: 78.955px 275.83px; transform: rotate(-2.53deg);" class="animable"></rect></g></g><g id="freepik--Character--inject-10" class="animable" style="transform-origin: 359.358px 278.075px;"><path d="M370.55,185.34a39.84,39.84,0,0,0-57.75,54.14l-.54,14.73,14.44-3a39.84,39.84,0,0,0,43.85-65.9Z" style="fill: rgb(64, 123, 255); transform-origin: 344.806px 215.73px;" id="elbubumuhg7o" class="animable"></path><g id="eluu8gswtnsu"><circle cx="344.81" cy="215.76" r="30.09" style="fill: rgb(64, 123, 255); transform-origin: 344.81px 215.76px; transform: rotate(-4.82deg);" class="animable"></circle></g><g id="elbl9pb2frd4"><circle cx="344.81" cy="215.76" r="30.09" style="opacity: 0.3; transform-origin: 344.81px 215.76px; transform: rotate(-4.82deg);" class="animable"></circle></g><polygon points="361.98 410.99 354.64 410.99 353.91 393.98 361.25 393.98 361.98 410.99" style="fill: rgb(228, 137, 123); transform-origin: 357.945px 402.485px;" id="elsitm6sw1bla" class="animable"></polygon><path d="M399.71,189.36c.64,1.26,1.17,2.38,1.68,3.58s1,2.37,1.51,3.56c1,2.39,1.84,4.82,2.62,7.29s1.51,5,2.07,7.56c.31,1.27.53,2.59.79,3.9s.41,2.64.52,4l.1,1,0,.26,0,.38a7.36,7.36,0,0,1,0,1.15,8.62,8.62,0,0,1-1.37,4,12.42,12.42,0,0,1-4.35,3.92,30.8,30.8,0,0,1-8,3,70.11,70.11,0,0,1-15.43,1.85l-.7-5.47A130.25,130.25,0,0,0,392.72,225a26.68,26.68,0,0,0,5.54-2.91c.67-.49,1.12-1.08,1-1.1a.93.93,0,0,0-.22.54,1.8,1.8,0,0,0,0,.22s0,.06,0,0l0-.1,0-.21-.16-.82a85.1,85.1,0,0,0-3.78-13.29c-.8-2.22-1.67-4.43-2.56-6.63s-1.87-4.43-2.77-6.45Z" style="fill: rgb(228, 137, 123); transform-origin: 394.086px 212.085px;" id="elm692ty34v1" class="animable"></path><path d="M398.41,184c6.38,3,10,23.1,10,23.1l-15.57,6.21a116.48,116.48,0,0,1-5.5-17.15C385.2,186.9,391.9,180.9,398.41,184Z" style="fill: rgb(64, 123, 255); transform-origin: 397.672px 198.243px;" id="elttwegatsnr" class="animable"></path><g id="el017004kp530o"><path d="M398.41,184c6.38,3,10,23.1,10,23.1l-15.57,6.21a116.48,116.48,0,0,1-5.5-17.15C385.2,186.9,391.9,180.9,398.41,184Z" style="fill: rgb(255, 255, 255); opacity: 0.7; transform-origin: 397.672px 198.243px;" class="animable"></path></g><polygon points="417.14 410.99 409.79 410.99 404.73 393.98 412.08 393.98 417.14 410.99" style="fill: rgb(228, 137, 123); transform-origin: 410.935px 402.485px;" id="elpxsa84k58bd" class="animable"></polygon><polygon points="353.91 393.98 354.28 402.75 361.63 402.75 361.26 393.98 353.91 393.98" style="fill: rgb(206, 111, 100); transform-origin: 357.77px 398.365px;" id="eljwfv30foojo" class="animable"></polygon><polygon points="412.08 393.98 404.73 393.98 407.34 402.75 414.69 402.75 412.08 393.98" style="fill: rgb(206, 111, 100); transform-origin: 409.71px 398.365px;" id="elmk0vvjmp7g" class="animable"></polygon><path d="M369.43,247.36S363.34,299,367.91,320c5,23,36.53,81.06,36.53,81.06H417.9s-25.09-56.17-27.95-79c-3.1-24.75,4.84-54.64,4.84-74.71Z" style="fill: rgb(64, 123, 255); transform-origin: 392.055px 324.205px;" id="elhebjs0rlwdr" class="animable"></path><g id="el9oysf2c2p9"><path d="M369.43,247.36S363.34,299,367.91,320c5,23,36.53,81.06,36.53,81.06H417.9s-25.09-56.17-27.95-79c-3.1-24.75,4.84-54.64,4.84-74.71Z" style="opacity: 0.6; transform-origin: 392.055px 324.205px;" class="animable"></path></g><path d="M380.61,229l-5.13-1.84.16,9.39s4.15.27,6.45-2.43Z" style="fill: rgb(228, 137, 123); transform-origin: 378.785px 231.859px;" id="el0upy5eo95ai" class="animable"></path><polygon points="369 226.82 369.5 234.57 375.64 236.54 375.48 227.16 369 226.82" style="fill: rgb(228, 137, 123); transform-origin: 372.32px 231.68px;" id="elajedl2bpr19" class="animable"></polygon><path d="M361.13,162c.12.58-.09,1.11-.47,1.19s-.78-.33-.9-.91.09-1.12.47-1.19S361,161.39,361.13,162Z" style="fill: rgb(38, 50, 56); transform-origin: 360.445px 162.141px;" id="ell9ox7ew40as" class="animable"></path><path d="M361.09,163.07a21.26,21.26,0,0,1-1.78,5.53,3.42,3.42,0,0,0,2.88,0Z" style="fill: rgb(222, 87, 83); transform-origin: 360.75px 165.994px;" id="el7c2l6mn1cat" class="animable"></path><path d="M359.63,158.41a.36.36,0,0,1-.29-.16.34.34,0,0,1,.11-.48,3.44,3.44,0,0,1,3.17-.09.35.35,0,0,1,.17.46.34.34,0,0,1-.46.17,2.74,2.74,0,0,0-2.51.05A.41.41,0,0,1,359.63,158.41Z" style="fill: rgb(38, 50, 56); transform-origin: 361.052px 157.873px;" id="elewrqyxemz9e" class="animable"></path><path d="M382.28,163c-1.06,5.37-2.11,15.22,1.65,18.81,0,0-1.47,5.45-11.45,5.45-11,0-5.25-5.45-5.25-5.45,6-1.44,5.84-5.88,4.79-10.06Z" style="fill: rgb(228, 137, 123); transform-origin: 374.829px 175.13px;" id="elvi1t0se87gb" class="animable"></path><path d="M365.06,182.83l1.22-2.19s19-3.47,19.53.39a7.39,7.39,0,0,1-.25,2.42Z" style="fill: rgb(64, 123, 255); transform-origin: 375.442px 181.329px;" id="el99vkea0m6on" class="animable"></path><path d="M406.71,411.37a2.36,2.36,0,0,1-1.77-.49.68.68,0,0,1,0-.82.81.81,0,0,1,.54-.41c1.08-.26,3.1,1.14,3.19,1.2a.17.17,0,0,1-.06.31A9.32,9.32,0,0,1,406.71,411.37Zm-.92-1.4a.78.78,0,0,0-.22,0,.48.48,0,0,0-.32.23c-.16.29-.06.41,0,.45.31.41,1.81.42,2.91.24A5.74,5.74,0,0,0,405.79,410Z" style="fill: rgb(64, 123, 255); transform-origin: 406.775px 410.504px;" id="elrfm3wfio0c" class="animable"></path><path d="M408.58,411.17a.11.11,0,0,1-.08,0c-.76-.41-2.23-2-2.08-2.84a.57.57,0,0,1,.56-.45,1,1,0,0,1,.74.22c.85.7,1,2.82,1,2.91a.16.16,0,0,1-.08.16A.14.14,0,0,1,408.58,411.17Zm-1.48-3H407c-.23,0-.25.13-.26.18-.09.48.85,1.7,1.6,2.27a4.19,4.19,0,0,0-.86-2.3A.64.64,0,0,0,407.1,408.19Z" style="fill: rgb(64, 123, 255); transform-origin: 407.565px 409.526px;" id="eltmuk3teyypp" class="animable"></path><path d="M351.69,411.37c-.95,0-1.86-.13-2.16-.56a.66.66,0,0,1,0-.76.88.88,0,0,1,.55-.4c1.23-.34,3.79,1.13,3.9,1.19a.17.17,0,0,1,.09.18.17.17,0,0,1-.14.14A13.12,13.12,0,0,1,351.69,411.37Zm-1.17-1.43a1.66,1.66,0,0,0-.33,0,.55.55,0,0,0-.35.25c-.12.21-.07.32,0,.38.34.48,2.2.49,3.57.29A7.93,7.93,0,0,0,350.52,409.94Z" style="fill: rgb(64, 123, 255); transform-origin: 351.741px 410.485px;" id="el5batgxj4s9y" class="animable"></path><path d="M353.91,411.17l-.08,0c-.88-.4-2.64-2-2.5-2.82,0-.19.17-.44.64-.48a1.25,1.25,0,0,1,1,.3c.93.76,1.13,2.74,1.14,2.82a.18.18,0,0,1-.07.16A.21.21,0,0,1,353.91,411.17Zm-1.8-3H352c-.31,0-.33.16-.34.2-.08.5,1.11,1.74,2,2.29a4.18,4.18,0,0,0-1-2.27A1,1,0,0,0,352.11,408.19Z" style="fill: rgb(64, 123, 255); transform-origin: 352.716px 409.515px;" id="elqd673aa4p7p" class="animable"></path><path d="M407.09,411H417a.76.76,0,0,1,.75.52l1.73,6.73a1.16,1.16,0,0,1-1.28,1.34c-3.45,0-5.13-.22-9.47-.22-2.67,0-8.18.24-11.86.24s-4.18-3.14-2.67-3.43c6.78-1.28,9.33-3,11.5-4.71A2.29,2.29,0,0,1,407.09,411Z" style="fill: rgb(38, 50, 56); transform-origin: 406.449px 415.305px;" id="el3coi3y3w0xk" class="animable"></path><path d="M354.69,410.14h8a.63.63,0,0,1,.62.5l1.46,6.53a1.07,1.07,0,0,1-1.06,1.31c-2.9-.05-7.08-.22-10.71-.22-4.26,0-7.93.23-12.92.23-3,0-3.85-3.05-2.59-3.32,5.75-1.26,10.44-1.39,15.41-4.46A3.41,3.41,0,0,1,354.69,410.14Z" style="fill: rgb(38, 50, 56); transform-origin: 350.862px 414.315px;" id="elpxi0xv8oiea" class="animable"></path><path d="M364.45,194.62c-3.47,4.07-7,8-10.6,12s-7.28,7.8-11.05,11.63L340,221.07l-.43.42a9.35,9.35,0,0,1-.76.67,10,10,0,0,1-1.57,1,12.13,12.13,0,0,1-3,1.1,25.83,25.83,0,0,1-9.58.12,64.48,64.48,0,0,1-16.07-4.83l1.64-5.27a109.11,109.11,0,0,0,15.12,1.42,31.69,31.69,0,0,0,3.46-.17,11.4,11.4,0,0,0,2.79-.61,3.23,3.23,0,0,0,.73-.39c.05-.05.08-.08.07-.1h0l.1-.11.16-.19,2.58-3,10.36-12c3.47-4,7-8,10.5-11.9Z" style="fill: rgb(228, 137, 123); transform-origin: 336.52px 206px;" id="el6mlc9ark525" class="animable"></path><g id="eltn9ubgdciol"><path d="M391.94,197.22l-4.64-1a116.48,116.48,0,0,0,5.5,17.15l6.43-2.57C397.91,207.35,394.57,202.28,391.94,197.22Z" style="fill: rgb(64, 123, 255); opacity: 0.2; transform-origin: 393.265px 204.795px;" class="animable"></path></g><path d="M352.5,200.61c-.21,3.86-.25,8.57,0,14.31l6.83-16.66Z" style="fill: rgb(64, 123, 255); transform-origin: 355.829px 206.59px;" id="el1kffh52qq6r" class="animable"></path><path d="M311.22,214.8l-5.59-5.37-3.08,9s2.14,2.66,7.31,1.27Z" style="fill: rgb(228, 137, 123); transform-origin: 306.885px 214.766px;" id="el411ccxofgf7" class="animable"></path><polygon points="301.39 207.57 299.22 215.44 302.55 218.45 305.63 209.43 301.39 207.57" style="fill: rgb(228, 137, 123); transform-origin: 302.425px 213.01px;" id="el2b5wdage9fc" class="animable"></polygon><path d="M380.26,156.84c1,7.23,1.95,11.4-.92,15.79-4.31,6.6-13.77,5.1-16.91-1.68-2.82-6.1-4-16.89,2.44-21.13A9.94,9.94,0,0,1,380.26,156.84Z" style="fill: rgb(228, 137, 123); transform-origin: 370.706px 162.509px;" id="elh80b6dbnvb" class="animable"></path><path d="M388.22,153c.1-4.67-3.24-8.07-4.94-7.57-2-8.37-16.3-4.12-16.3-4.12s3.33-4.75-3.13-4.77-4.65,5.15-4.65,5.15-3.93-3.85-6.49.32,3,5.62,3,5.62-4.64-1.07-5.25,5,7.65,1.23,7.65,1.23c1.4,2.58,3.05,3.09,4.65,2.88a3.66,3.66,0,0,1,3.91,2.55c2.31,7,6.73,13.31,13.32,11.38C385.26,169.11,388.07,159.83,388.22,153Z" style="fill: rgb(38, 50, 56); transform-origin: 369.325px 153.781px;" id="ell37zkqoo58" class="animable"></path><path d="M371,159.93a8.29,8.29,0,0,1-1.07,5.19c-1.23,2-3.08,1.29-3.78-.76-.63-1.85-.75-5.13,1-6.47S370.71,157.77,371,159.93Z" style="fill: rgb(228, 137, 123); transform-origin: 368.394px 161.819px;" id="elyx3o5rp6gwb" class="animable"></path><g id="elvkgyq1497j"><path d="M373.11,265.11c-1.22-3.58-3.49.12-5.85,6.09-.83,11.84-1.44,26-.76,37.3C369.23,294.57,375.8,273,373.11,265.11Z" style="opacity: 0.3; transform-origin: 369.976px 286.102px;" class="animable"></path></g><path d="M355.5,247.36s-16,46.11-15.22,68.52c.83,23.3,11.27,85.17,11.27,85.17H364s-1.84-60.51-1.29-83.4c.61-24.95,18.62-70.29,18.62-70.29Z" style="fill: rgb(64, 123, 255); transform-origin: 360.791px 324.205px;" id="elrqgzgtnjul9" class="animable"></path><g id="elz0ticj42b7o"><path d="M355.5,247.36s-16,46.11-15.22,68.52c.83,23.3,11.27,85.17,11.27,85.17H364s-1.84-60.51-1.29-83.4c.61-24.95,18.62-70.29,18.62-70.29Z" style="opacity: 0.6; transform-origin: 360.791px 324.205px;" class="animable"></path></g><path d="M400.83,396.33c-.06,0,2.85,4.93,2.85,4.93h15.14l-1.49-4.93Z" style="fill: rgb(64, 123, 255); transform-origin: 409.825px 398.795px;" id="el9xh284flf9g" class="animable"></path><path d="M349.15,396.1c-.06,0,.7,5.16.7,5.16H365l.41-4.61Z" style="fill: rgb(64, 123, 255); transform-origin: 357.278px 398.68px;" id="elilwv2s9asj" class="animable"></path><path d="M355.93,183.86s-7.82,8.84-.43,63.5h39.29c.27-6-3.52-35.45,2.3-63.87a100.85,100.85,0,0,0-13.16-1.66,140.87,140.87,0,0,0-16.7,0A74.19,74.19,0,0,0,355.93,183.86Z" style="fill: rgb(64, 123, 255); transform-origin: 374.707px 214.471px;" id="elo6frmjgb7" class="animable"></path><g id="elbufb7q3dg9g"><path d="M355.93,183.86s-7.82,8.84-.43,63.5h39.29c.27-6-3.52-35.45,2.3-63.87a100.85,100.85,0,0,0-13.16-1.66,140.87,140.87,0,0,0-16.7,0A74.19,74.19,0,0,0,355.93,183.86Z" style="fill: rgb(255, 255, 255); opacity: 0.7; transform-origin: 374.707px 214.471px;" class="animable"></path></g><path d="M363.76,190.36c-.09,7-13.84,24.13-13.84,24.13L336.58,204.4s4.24-9.64,11-15.73C356.19,180.86,363.86,182.14,363.76,190.36Z" style="fill: rgb(64, 123, 255); transform-origin: 350.17px 198.971px;" id="el4cyjlvtef9u" class="animable"></path><g id="ell3luwu7mjj"><path d="M363.76,190.36c-.09,7-13.84,24.13-13.84,24.13L336.58,204.4s4.24-9.64,11-15.73C356.19,180.86,363.86,182.14,363.76,190.36Z" style="fill: rgb(255, 255, 255); opacity: 0.7; transform-origin: 350.17px 198.971px;" class="animable"></path></g></g><defs>     <filter id="active" height="200%">         <feMorphology in="SourceAlpha" result="DILATED" operator="dilate" radius="2"></feMorphology>                <feFlood flood-color="#32DFEC" flood-opacity="1" result="PINK"></feFlood>        <feComposite in="PINK" in2="DILATED" operator="in" result="OUTLINE"></feComposite>        <feMerge>            <feMergeNode in="OUTLINE"></feMergeNode>            <feMergeNode in="SourceGraphic"></feMergeNode>        </feMerge>    </filter>    <filter id="hover" height="200%">        <feMorphology in="SourceAlpha" result="DILATED" operator="dilate" radius="2"></feMorphology>                <feFlood flood-color="#ff0000" flood-opacity="0.5" result="PINK"></feFlood>        <feComposite in="PINK" in2="DILATED" operator="in" result="OUTLINE"></feComposite>        <feMerge>            <feMergeNode in="OUTLINE"></feMergeNode>            <feMergeNode in="SourceGraphic"></feMergeNode>        </feMerge>            <feColorMatrix type="matrix" values="0   0   0   0   0                0   1   0   0   0                0   0   0   0   0                0   0   0   1   0 "></feColorMatrix>    </filter></defs></svg>