<svg width="151" height="35" viewBox="0 0 151 35" fill="#767B84" xmlns="http://www.w3.org/2000/svg">
    <path d="M25.813 0.0262627L25.4072 0.340326C24.5333 1.01911 23.6177 1.64724 22.6709 2.21458L16.3452 6.04413C14.899 6.92553 14.0146 8.45533 14.0146 10.0966V19.6502C14.0146 19.7414 14.1291 19.8021 14.2019 19.7414L14.4933 19.5083C15.4296 18.789 16.4076 18.1204 17.4168 17.5024L23.6697 13.7134C25.0639 12.8725 25.917 11.4237 25.9899 9.85342C25.9899 9.85342 25.969 5.43626 25.917 3.96726C25.8754 2.88323 25.8962 1.71815 25.969 0.634128L26.0002 0.198491V0.117443C26.0002 0.0161317 25.8962 -0.0345238 25.813 0.0262627Z" fill="#F2A52B"/>
    <path d="M25.813 14.2726L25.4072 14.5867C24.5333 15.2655 23.6177 15.8936 22.6709 16.4609L16.3452 20.2905C14.899 21.1719 14.0146 22.7017 14.0146 24.3429V33.8864C14.0146 33.9776 14.1291 34.0384 14.2019 33.9776L14.4933 33.7446C15.4296 33.0253 16.4076 32.3566 17.4168 31.7386L23.6697 27.9496C25.0639 27.1087 25.917 25.66 25.9899 24.0896C25.9899 24.0896 25.969 19.6725 25.917 18.2035C25.8754 17.1195 25.8962 15.9544 25.969 14.8704L26.0002 14.4347V14.3537C26.0002 14.2625 25.8962 14.2118 25.813 14.2726Z"/>
    <path d="M0.18728 0.0262627L0.593032 0.340326C1.46698 1.01911 2.38255 1.64724 3.32933 2.21458L9.65507 6.04413C11.1013 6.92553 11.9856 8.45533 11.9856 10.0966V19.6502C11.9856 19.7414 11.8711 19.8021 11.7983 19.7414L11.507 19.5083C10.5706 18.789 9.59264 18.1204 8.58344 17.5024L2.33052 13.7134C0.936365 12.8725 0.0832181 11.4237 0.0103889 9.85342C0.0103889 9.85342 0.0312176 5.43626 0.0832384 3.96726C0.124855 2.88323 0.104047 1.71815 0.0312176 0.634128L0 0.198491V0.117443C0 0.0161317 0.104047 -0.0345238 0.18728 0.0262627Z"/>
    <path d="M0.18728 14.2726L0.593032 14.5867C1.46698 15.2655 2.38255 15.8936 3.32933 16.4609L9.65507 20.2905C11.1013 21.1719 11.9856 22.7017 11.9856 24.3429V33.8864C11.9856 33.9776 11.8711 34.0384 11.7983 33.9776L11.507 33.7446C10.5706 33.0253 9.59264 32.3566 8.58344 31.7386L2.33052 27.9496C0.936365 27.1087 0.0832181 25.66 0.0103889 24.0896C0.0103889 24.0896 0.0312176 19.6725 0.0832384 18.2035C0.124855 17.1195 0.104047 15.9544 0.0312176 14.8704L0 14.4347V14.3537C0 14.2625 0.104047 14.2118 0.18728 14.2726Z"/>
    <path d="M38.5439 30.9241V5.75086C38.5439 5.52469 38.7233 5.34375 38.9475 5.34375H55.8966C56.1208 5.34375 56.3002 5.52469 56.3002 5.75086V9.84463C56.3002 10.0708 56.1208 10.2517 55.8966 10.2517H44.9111C44.6869 10.2517 44.5075 10.4327 44.5075 10.6589V15.2728C44.5075 15.499 44.6869 15.6799 44.9111 15.6799H54.5963C54.8205 15.6799 54.9998 15.8609 54.9998 16.0871V20.2034C54.9998 20.4296 54.8205 20.6105 54.5963 20.6105H44.9111C44.6869 20.6105 44.5075 20.7915 44.5075 21.0177V30.9241C44.5075 31.1503 44.3282 31.3312 44.104 31.3312H38.9475C38.7457 31.3312 38.5439 31.1277 38.5439 30.9241Z"/>
    <path d="M66.8598 27.4236C67.4203 27.4236 67.9583 27.4009 68.474 27.3783C68.743 27.3557 68.9896 27.3557 69.2138 27.3331C69.4829 27.3105 69.6846 27.0843 69.6846 26.7903C69.6846 25.9308 69.6846 24.1214 69.6846 23.375C69.6846 23.1715 69.5277 23.0132 69.3484 22.9679C69.169 22.9453 68.9224 22.9001 68.6534 22.8775C68.205 22.8322 67.779 22.8096 67.3979 22.8096C66.8598 22.8096 66.3666 22.8322 65.8958 22.9001C65.4249 22.9679 64.999 23.081 64.6403 23.262C64.2816 23.4429 64.0125 23.6691 63.7883 23.9857C63.5866 24.2797 63.4745 24.6642 63.4745 25.1166C63.4745 25.9987 63.7659 26.5867 64.3712 26.926C64.999 27.2652 65.8285 27.4236 66.8598 27.4236ZM66.4114 11.0938C68.0929 11.0938 69.5053 11.2747 70.6263 11.6592C71.7472 12.0437 72.644 12.5639 73.3166 13.265C73.9892 13.9662 74.46 14.803 74.7514 15.8208C75.0429 16.816 75.1774 17.9242 75.1774 19.1456V30.4317C75.1774 30.6352 75.0429 30.7936 74.8635 30.8388C74.0789 30.9971 73.0476 31.1781 71.7921 31.3816C70.3348 31.6078 68.5861 31.7435 66.5011 31.7435C65.2008 31.7435 64.0125 31.6304 62.9588 31.4042C61.9051 31.1781 60.9859 30.8162 60.2236 30.296C59.4614 29.7758 58.8785 29.1199 58.4525 28.283C58.0489 27.4688 57.8472 26.451 57.8472 25.2523C57.8472 24.0988 58.0938 23.1262 58.5646 22.3346C59.0354 21.543 59.6631 20.8871 60.4702 20.4121C61.2549 19.9372 62.1741 19.5979 63.183 19.3717C64.1919 19.1682 65.268 19.0551 66.3666 19.0551C67.1064 19.0551 67.7566 19.0777 68.3395 19.1456C68.9224 19.2134 69.3708 19.2813 69.7295 19.3944V18.8742C69.7295 17.9242 69.438 17.1552 68.8551 16.5898C68.2722 16.0244 67.2409 15.7303 65.8061 15.7303C64.842 15.7303 63.878 15.7982 62.9364 15.9339C62.1741 16.047 61.5015 16.1827 60.9186 16.3636C60.6944 16.4315 60.4478 16.2732 60.403 16.047L59.8201 12.3829C59.7977 12.1794 59.9098 11.9758 60.1115 11.9306C60.3806 11.8627 60.672 11.7949 61.0083 11.7044C61.5015 11.5913 62.0396 11.5009 62.6449 11.4104C63.2278 11.3199 63.8556 11.2521 64.5058 11.1842C65.0887 11.1164 65.7388 11.0938 66.4114 11.0938Z"/>
    <path d="M91.5882 16.1533C91.5434 16.3794 91.3192 16.5151 91.095 16.4699C90.669 16.3794 90.2207 16.2664 89.6826 16.1759C88.9876 16.0402 88.2477 15.9723 87.4631 15.9723C87.1043 15.9723 86.6784 15.9949 86.1851 16.0628C85.8713 16.108 85.6022 16.1533 85.378 16.1985C85.1987 16.2437 85.0642 16.4021 85.0642 16.6056V30.9451C85.0642 31.1713 84.8848 31.3522 84.6606 31.3522H79.7732C79.549 31.3522 79.3696 31.1713 79.3696 30.9451V12.9868C79.3696 12.8059 79.4817 12.6476 79.6387 12.6023C80.6027 12.2857 81.7013 11.9916 82.9792 11.6976C84.3692 11.381 85.9161 11.2227 87.62 11.2227C87.9339 11.2227 88.2926 11.2453 88.741 11.2905C89.1669 11.3357 89.6153 11.381 90.0413 11.4488C90.4673 11.5167 90.9157 11.5845 91.3416 11.675C91.6331 11.7429 91.8797 11.7881 92.1039 11.8786C92.3057 11.9464 92.4178 12.15 92.3729 12.3535L91.5882 16.1533Z"/>
    <path d="M105.624 20.8614C105.624 19.052 105.377 17.7854 104.906 17.0391C104.435 16.2927 103.628 15.9082 102.485 15.9082C102.126 15.9082 101.767 15.9308 101.364 15.9534C101.095 15.976 100.848 15.9987 100.602 16.0439C100.4 16.0665 100.243 16.2474 100.243 16.451V30.9036C100.243 31.1297 100.064 31.3107 99.8393 31.3107H94.9519C94.7277 31.3107 94.5483 31.1297 94.5483 30.9036V12.5834C94.5483 12.4025 94.6829 12.2215 94.8622 12.1763C95.2658 12.0858 95.7366 11.9727 96.2522 11.8597C96.9024 11.724 97.5974 11.5882 98.3148 11.4752C99.0322 11.3621 99.7945 11.2716 100.557 11.2037C101.319 11.1359 102.081 11.1133 102.821 11.1133C104.278 11.1133 105.444 11.2942 106.363 11.6561C107.148 11.9727 107.821 12.3346 108.381 12.7644C108.516 12.8774 108.695 12.8774 108.852 12.787C109.614 12.2894 110.466 11.8823 111.43 11.6109C112.484 11.2942 113.47 11.1133 114.367 11.1133C115.981 11.1133 117.304 11.3395 118.335 11.7692C119.367 12.1989 120.196 12.8322 120.802 13.6238C121.407 14.4154 121.833 15.3654 122.057 16.4736C122.281 17.5819 122.393 18.8032 122.393 20.1377V30.8583C122.393 31.0845 122.214 31.2654 121.99 31.2654H117.102C116.878 31.2654 116.699 31.0845 116.699 30.8583V20.8162C116.699 19.0068 116.452 17.7402 116.004 16.9938C115.533 16.2474 114.726 15.8629 113.582 15.8629C113.269 15.8629 112.843 15.9308 112.305 16.0891C111.901 16.2022 111.542 16.3379 111.251 16.4736C111.071 16.5641 111.004 16.7676 111.049 16.9486C111.184 17.4236 111.273 17.9438 111.296 18.464C111.341 19.0972 111.363 19.7758 111.363 20.4995V30.8583C111.363 31.0845 111.184 31.2654 110.959 31.2654H106.072C105.848 31.2654 105.668 31.0845 105.668 30.8583V20.8614H105.624Z"/>
    <path d="M131.899 31.3297H127.012C126.788 31.3297 126.608 31.1487 126.608 30.9225V12.0143C126.608 11.7882 126.788 11.6072 127.012 11.6072H131.899C132.123 11.6072 132.303 11.7882 132.303 12.0143V30.9225C132.303 31.1261 132.123 31.3297 131.899 31.3297ZM132.818 5.90762C132.818 6.92541 132.482 7.73964 131.81 8.32769C131.137 8.91574 130.33 9.20977 129.411 9.20977C128.491 9.20977 127.684 8.91574 127.012 8.32769C126.339 7.73964 126.003 6.92541 126.003 5.90762C126.003 4.88983 126.339 4.0756 127.012 3.48755C127.684 2.8995 128.491 2.60547 129.411 2.60547C130.33 2.60547 131.115 2.8995 131.81 3.48755C132.482 4.0756 132.818 4.88983 132.818 5.90762Z"/>
    <path d="M142.458 27.3018C143.512 27.3018 144.252 27.2114 144.678 27.0078C145.104 26.8043 145.328 26.4198 145.328 25.8543C145.328 25.402 145.036 25.0175 144.498 24.6782C143.938 24.339 143.086 23.9545 141.942 23.5247C141.046 23.2081 140.239 22.8688 139.521 22.5069C138.804 22.1677 138.176 21.7379 137.66 21.2404C137.145 20.7428 136.764 20.1773 136.472 19.4988C136.181 18.8203 136.046 18.0061 136.046 17.0561C136.046 15.2015 136.741 13.754 138.154 12.6683C139.566 11.6053 141.494 11.0625 143.938 11.0625C145.171 11.0625 146.337 11.1756 147.458 11.3791C148.399 11.5601 149.162 11.741 149.789 11.9446C149.991 12.0124 150.103 12.216 150.058 12.4195L149.251 15.9705C149.206 16.1967 148.96 16.3324 148.736 16.2645C148.198 16.0836 147.615 15.9479 146.987 15.8122C146.202 15.6312 145.328 15.5408 144.364 15.5408C142.57 15.5408 141.673 16.0383 141.673 17.0109C141.673 17.2371 141.718 17.4406 141.786 17.6216C141.853 17.8025 142.01 17.9608 142.256 18.1191C142.481 18.2775 142.794 18.4584 143.198 18.6394C143.602 18.8203 144.095 19.0238 144.7 19.25C145.956 19.7024 146.987 20.1547 147.794 20.5845C148.601 21.0368 149.251 21.5118 149.722 22.0094C150.193 22.5296 150.529 23.095 150.709 23.7057C150.91 24.339 151 25.0627 151 25.8769C151 27.822 150.26 29.2922 148.758 30.2873C147.256 31.2825 145.148 31.7801 142.436 31.7801C140.642 31.7801 139.162 31.6218 137.974 31.3278C137.033 31.079 136.315 30.8754 135.822 30.7171C135.643 30.6492 135.53 30.4457 135.575 30.2421L136.36 26.5102C136.405 26.2614 136.651 26.1257 136.898 26.2162C137.728 26.5102 138.58 26.759 139.454 26.94C140.463 27.2114 141.472 27.3018 142.458 27.3018Z"/>
</svg>
