<svg width="19" height="19" viewBox="0 0 19 19" fill="none" xmlns="http://www.w3.org/2000/svg">
<path fill-rule="evenodd" clip-rule="evenodd" d="M2.37484 9.50005C2.37484 8.56438 2.55913 7.63788 2.9172 6.77343C3.27526 5.90899 3.80008 5.12353 4.4617 4.46191C5.12332 3.8003 5.90877 3.27547 6.77322 2.91741C7.63766 2.55934 8.56417 2.37505 9.49984 2.37505C10.4355 2.37505 11.362 2.55934 12.2265 2.91741C13.0909 3.27547 13.8764 3.8003 14.538 4.46191C15.1996 5.12353 15.7244 5.90898 16.0825 6.77343C16.4405 7.63787 16.6248 8.56438 16.6248 9.50005C16.6248 11.3897 15.8742 13.202 14.538 14.5382C13.2018 15.8744 11.3895 16.625 9.49984 16.625C7.61017 16.625 5.7979 15.8744 4.4617 14.5382C3.12551 13.202 2.37484 11.3897 2.37484 9.50005ZM9.49984 0.791717C4.69046 0.791717 0.791504 4.69068 0.791505 9.50005C0.791505 14.3094 4.69046 18.2084 9.49984 18.2084C14.3092 18.2084 18.2082 14.3094 18.2082 9.50005C18.2082 4.69067 14.3092 0.791716 9.49984 0.791717ZM8.47621 4.98201C8.3269 4.8378 8.12693 4.758 7.91935 4.75981C7.71178 4.76161 7.51322 4.84487 7.36644 4.99165C7.21966 5.13843 7.1364 5.33699 7.1346 5.54457C7.13279 5.75214 7.21259 5.95211 7.3568 6.10143L10.7554 9.50005L7.3568 12.8987C7.28118 12.9717 7.22087 13.0591 7.17938 13.1556C7.13789 13.2522 7.11605 13.3561 7.11514 13.4612C7.11423 13.5663 7.13426 13.6706 7.17406 13.7679C7.21387 13.8652 7.27265 13.9536 7.34698 14.0279C7.42132 14.1022 7.50971 14.161 7.607 14.2008C7.70429 14.2406 7.80854 14.2607 7.91366 14.2597C8.01877 14.2588 8.12266 14.237 8.21924 14.1955C8.31583 14.154 8.40318 14.0937 8.47621 14.0181L12.4345 10.0598C12.583 9.9113 12.6663 9.70997 12.6663 9.50005C12.6663 9.29013 12.583 9.0888 12.4345 8.94034L8.47621 4.98201Z" fill="white"/>
</svg>
