<svg width="16" height="18" viewBox="0 0 16 18" fill="none" xmlns="http://www.w3.org/2000/svg">
<path d="M13 5.66669C13 4.3406 12.4732 3.06883 11.5355 2.13115C10.5979 1.19347 9.3261 0.666687 8 0.666687C6.67392 0.666687 5.40215 1.19347 4.46447 2.13115C3.52678 3.06883 3 4.3406 3 5.66669C3 11.5 0.5 13.1667 0.5 13.1667H15.5C15.5 13.1667 13 11.5 13 5.66669Z" stroke="#2CC8FA" stroke-width="0.5" stroke-linecap="round" stroke-linejoin="round"/>
<path d="M9.44139 16.5C9.29489 16.7526 9.0846 16.9622 8.8316 17.1079C8.5786 17.2537 8.2918 17.3304 7.99977 17.3304C7.70779 17.3304 7.42093 17.2537 7.16792 17.1079C6.9149 16.9622 6.70461 16.7526 6.55811 16.5" stroke="#2CC8FA" stroke-width="0.5" stroke-linecap="round" stroke-linejoin="round"/>
</svg>
