<svg width="16" height="16" viewBox="0 0 16 16" fill="none" xmlns="http://www.w3.org/2000/svg">
<path d="M4.8 3.6C4.8 1.61178 6.41177 0 8.4 0C10.3882 0 12 1.61178 12 3.6C12 5.58823 10.3882 7.2 8.4 7.2C6.41177 7.2 4.8 5.58823 4.8 3.6Z" fill="#DBB867"/>
<path d="M5.88576 8.8H10.1142C10.9813 8.79999 11.6806 8.79999 12.2469 8.84625C12.83 8.89389 13.3421 8.99453 13.8159 9.23595C14.5686 9.61944 15.1805 10.2314 15.564 10.984C15.8055 11.4579 15.9061 11.97 15.9537 12.5531C16 13.1194 16 13.8188 16 14.6857V15.2C16 15.6418 15.6418 16 15.2 16H0.800001C0.358173 16 1.86549e-07 15.6418 1.86549e-07 15.2V14.6857C-7.21342e-06 13.8187 -1.33406e-05 13.1194 0.0462554 12.5531C0.0938951 11.97 0.194546 11.4579 0.435974 10.9841C0.819461 10.2314 1.43138 9.61946 2.18405 9.23596C2.65788 8.99454 3.17004 8.89389 3.75311 8.84625C4.31941 8.79999 5.01874 8.79999 5.88576 8.8Z" fill="#DBB867"/>
</svg>
