<svg width="28" height="28" viewBox="0 0 28 28" fill="none" xmlns="http://www.w3.org/2000/svg">
<path fill-rule="evenodd" clip-rule="evenodd" d="M2.33331 14C2.33331 7.56004 7.57165 2.33337 14 2.33337L14.3264 2.33786C20.6157 2.5109 25.6666 7.66919 25.6666 14C25.6666 20.4284 20.44 25.6667 14 25.6667C7.57165 25.6667 2.33331 20.4284 2.33331 14ZM16.31 18.6667C16.6483 18.3167 16.6483 17.7684 16.2983 17.43L12.8566 14L16.2983 10.57C16.6483 10.2317 16.6483 9.67171 16.31 9.33337C15.96 8.98337 15.4116 8.98337 15.0733 9.33337L11.0016 13.3817C10.8383 13.545 10.745 13.7667 10.745 14C10.745 14.2334 10.8383 14.455 11.0016 14.6184L15.0733 18.6667C15.2366 18.8417 15.4583 18.9234 15.68 18.9234C15.9133 18.9234 16.135 18.8417 16.31 18.6667Z" fill="url(#paint0_linear)"/>
<defs>
<linearGradient id="paint0_linear" x1="2.36219" y1="14.0184" x2="25.4874" y2="14.0184" gradientUnits="userSpaceOnUse">
<stop stop-color="#293171"/>
<stop offset="1" stop-color="#1D214A"/>
</linearGradient>
</defs>
</svg>
