<svg width="56" height="56" viewBox="0 0 56 56" fill="none" xmlns="http://www.w3.org/2000/svg">
<circle cx="28" cy="28" r="28" fill="#AB8843"/>
<path fill-rule="evenodd" clip-rule="evenodd" d="M27.6374 41.2182C27.7851 41.2954 27.9502 41.3346 28.1153 41.3333C28.2804 41.332 28.4442 41.2915 28.5931 41.213L33.3503 38.67C34.6994 37.9509 35.7558 37.1468 36.5799 36.2106C38.3719 34.171 39.3505 31.5678 39.333 28.8835L39.2767 20.0293C39.2713 19.0095 38.6015 18.0995 37.6108 17.7687L28.7609 14.7994C28.228 14.619 27.6441 14.6229 27.1206 14.8086L18.3043 17.8838C17.319 18.2276 16.6613 19.1442 16.6667 20.1653L16.723 29.013C16.7405 31.7011 17.7526 34.2926 19.5741 36.3113C20.4064 37.2344 21.4722 38.0267 22.8359 38.734L27.6374 41.2182ZM26.3779 30.8119C26.5766 31.0028 26.8343 31.097 27.092 31.0943C27.3498 31.093 27.6061 30.9963 27.8021 30.8028L33.0009 25.6775C33.3915 25.2918 33.3875 24.672 32.9929 24.2916C32.5969 23.9111 31.9593 23.9137 31.5687 24.2994L27.0773 28.7265L25.2383 26.9588C24.8423 26.5783 24.2061 26.5823 23.8141 26.968C23.4235 27.3537 23.4275 27.9734 23.8235 28.3539L26.3779 30.8119Z" fill="white"/>
</svg>
