<svg width="56" height="56" viewBox="0 0 56 56" fill="none" xmlns="http://www.w3.org/2000/svg">
<circle cx="28" cy="28" r="28" fill="#AB8843"/>
<path fill-rule="evenodd" clip-rule="evenodd" d="M33.8812 15.6915L33.8825 16.691C37.5554 16.9789 39.9815 19.4816 39.9855 23.3197L40 34.5541C40.0052 38.7386 37.3763 41.3133 33.1624 41.32L22.8692 41.3333C18.6816 41.3387 16.0198 38.7027 16.0145 34.5061L16 23.4036C15.9947 19.5402 18.3354 17.0442 22.0082 16.707L22.0069 15.7075C22.0056 15.1211 22.44 14.68 23.0193 14.68C23.5985 14.6787 24.0329 15.1185 24.0342 15.7048L24.0355 16.6377L31.8552 16.627L31.8539 15.6942C31.8525 15.1078 32.287 14.668 32.8662 14.6667C33.4323 14.6654 33.8799 15.1051 33.8812 15.6915ZM18.0286 23.8154L37.9595 23.7888V23.3224C37.9029 20.4571 36.4653 18.9539 33.8851 18.73L33.8864 19.7561C33.8864 20.3292 33.4402 20.7836 32.8741 20.7836C32.2949 20.785 31.8591 20.3319 31.8591 19.7588L31.8578 18.6793L24.0382 18.69L24.0395 19.7681C24.0395 20.3425 23.6064 20.7956 23.0272 20.7956C22.4479 20.797 22.0122 20.3452 22.0122 19.7708L22.0109 18.7446C19.4438 19.0019 18.0234 20.5104 18.0273 23.401L18.0286 23.8154ZM32.3199 29.8724V29.8871C32.3331 30.5001 32.8333 30.9652 33.4402 30.9519C34.0326 30.9372 34.5052 30.4295 34.492 29.8164C34.4644 29.2301 33.9891 28.7516 33.3981 28.753C32.7925 28.7663 32.3186 29.2594 32.3199 29.8724ZM33.4073 35.8561C32.8017 35.8428 32.3133 35.3377 32.312 34.7246C32.2988 34.1116 32.7846 33.6039 33.3902 33.5892H33.4033C34.022 33.5892 34.5236 34.0943 34.5236 34.7206C34.5249 35.347 34.0247 35.8547 33.4073 35.8561ZM26.8962 29.8937C26.9225 30.5068 27.4241 30.9852 28.0296 30.9585C28.622 30.9305 29.0946 30.4241 29.0683 29.8111C29.0538 29.2114 28.5667 28.745 27.9743 28.7463C27.3688 28.773 26.8948 29.2807 26.8962 29.8937ZM28.0349 35.7961C27.4293 35.8228 26.9291 35.3443 26.9014 34.7313C26.9014 34.1183 27.374 33.6119 27.9796 33.5839C28.572 33.5826 29.0604 34.049 29.0736 34.6474C29.1012 35.2617 28.6273 35.7681 28.0349 35.7961ZM21.4725 29.9404C21.4988 30.5534 22.0003 31.0332 22.6059 31.0052C23.1983 30.9785 23.6709 30.4708 23.6433 29.8577C23.6301 29.2581 23.143 28.7916 22.5493 28.793C21.9437 28.8196 21.4711 29.3273 21.4725 29.9404ZM22.6112 35.8028C22.0056 35.8308 21.5054 35.351 21.4777 34.738C21.4764 34.1249 21.9503 33.6172 22.5559 33.5905C23.1483 33.5892 23.6367 34.0557 23.6498 34.6553C23.6775 35.2684 23.2049 35.7761 22.6112 35.8028Z" fill="white"/>
</svg>
