<svg width="56" height="56" viewBox="0 0 56 56" fill="none" xmlns="http://www.w3.org/2000/svg">
<circle cx="28" cy="28" r="28" fill="#AB8843"/>
<path fill-rule="evenodd" clip-rule="evenodd" d="M20.1507 18H29.2068C32.4362 18 34.6909 20.2254 34.6909 23.4146V32.5854C34.6909 35.7746 32.4362 38 29.2068 38H20.1507C16.9214 38 14.6667 35.7746 14.6667 32.5854V23.4146C14.6667 20.2254 16.9214 18 20.1507 18ZM38.8649 21.5258C39.3956 21.2434 40.0182 21.2729 40.5247 21.6066C41.0311 21.939 41.3334 22.5166 41.3334 23.148V32.8519C41.3334 33.4846 41.0311 34.0609 40.5247 34.3933C40.2478 34.5743 39.9384 34.6667 39.6265 34.6667C39.3666 34.6667 39.1067 34.6025 38.8637 34.4729L37.0735 33.5283C36.411 33.1766 36 32.4707 36 31.6866V24.3121C36 23.5266 36.411 22.8207 37.0735 22.4717L38.8649 21.5258Z" fill="white"/>
</svg>
