<svg width="56" height="56" viewBox="0 0 56 56" fill="none" xmlns="http://www.w3.org/2000/svg">
<circle cx="28" cy="28" r="28" fill="#AB8843"/>
<path fill-rule="evenodd" clip-rule="evenodd" d="M14.6667 28.0201C14.6667 20.9962 20.28 14.6667 28.0267 14.6667C35.6 14.6667 41.3333 20.876 41.3333 27.98C41.3333 36.219 34.6133 41.3334 28 41.3334C25.8133 41.3334 23.3867 40.7458 21.44 39.5974C20.76 39.1835 20.1867 38.8763 19.4533 39.1167L16.76 39.9179C16.08 40.1316 15.4667 39.5974 15.6667 38.8763L16.56 35.8852C16.7067 35.4712 16.68 35.0306 16.4667 34.6834C15.32 32.5735 14.6667 30.2634 14.6667 28.0201ZM26.2666 28.0201C26.2666 28.9682 27.0266 29.7293 27.9733 29.7427C28.92 29.7427 29.68 28.9682 29.68 28.0335C29.68 27.0854 28.92 26.3242 27.9733 26.3242C27.04 26.3109 26.2666 27.0854 26.2666 28.0201ZM32.4133 28.0334C32.4133 28.9682 33.1733 29.7427 34.12 29.7427C35.0666 29.7427 35.8266 28.9682 35.8266 28.0334C35.8266 27.0853 35.0666 26.3242 34.12 26.3242C33.1733 26.3242 32.4133 27.0853 32.4133 28.0334ZM21.8266 29.7427C20.8933 29.7427 20.12 28.9682 20.12 28.0334C20.12 27.0853 20.88 26.3242 21.8266 26.3242C22.7733 26.3242 23.5333 27.0853 23.5333 28.0334C23.5333 28.9682 22.7733 29.7293 21.8266 29.7427Z" fill="white"/>
</svg>
