<svg width="45" height="54" viewBox="0 0 45 54" fill="none" xmlns="http://www.w3.org/2000/svg">
<path fill-rule="evenodd" clip-rule="evenodd" d="M29.2509 6.66536C29.2509 10.3465 26.2298 13.3307 22.5031 13.3307C18.7764 13.3307 15.7553 10.3465 15.7553 6.66536C15.7553 2.98418 18.7764 0 22.5031 0C26.2298 0 29.2509 2.98418 29.2509 6.66536ZM11.5874 10.9507C11.5874 13.8685 9.19759 16.2339 6.24956 16.2339C3.30154 16.2339 0.911685 13.8685 0.911685 10.9507C0.911685 8.03289 3.30154 5.66752 6.24956 5.66752C9.19759 5.66752 11.5874 8.03289 11.5874 10.9507ZM15.7551 22.6202V22.5631H15.7709C15.7604 22.4096 15.7544 22.2547 15.7544 22.0982C15.7544 18.4204 18.7721 15.4395 22.4947 15.4395C26.2174 15.4395 29.2351 18.4204 29.2351 22.0982C29.2351 22.2547 29.2291 22.4089 29.2186 22.5631H29.2343V22.6239C28.9219 22.73 28.6162 22.8679 28.3226 23.0384C27.6303 23.4396 27.0243 24.0172 26.5792 24.7684L22.5007 31.6473L18.4222 24.7684C17.9772 24.018 17.3711 23.4403 16.6796 23.0392C16.3822 22.8664 16.0728 22.727 15.7559 22.6202H15.7551ZM29.2336 53.0033C27.1284 53.6506 24.8944 53.9999 22.5817 53.9999C20.2045 53.9999 17.9113 53.6306 15.7552 52.9484V52.9462C14.7033 52.5725 13.6747 52.1595 12.6693 51.7079C5.51319 47.9477 0 40.1872 0 31.6495V24.4117V24.2597H0.00224753C0.0839077 20.8666 2.88807 18.1416 6.33503 18.1416C9.23359 18.1416 11.6774 20.0687 12.4303 22.6989C12.1853 22.7923 11.9471 22.9057 11.7171 23.0392C11.0256 23.4411 10.4195 24.0172 9.97453 24.7684L5.11013 32.9716C4.6389 33.768 4.42388 34.6074 4.42388 35.4201C4.42388 36.2772 4.65763 37.1092 5.07791 37.8344C5.49221 38.5499 6.10129 39.1676 6.85945 39.6073C7.5899 40.0315 8.43123 40.2799 9.33548 40.2799H14.4921L18.4822 47.0119C18.907 47.7275 19.4838 48.2762 20.1416 48.6573C20.8675 49.0785 21.6864 49.2891 22.5007 49.2891V49.3002C23.3039 49.3002 24.1227 49.0859 24.8599 48.6566C25.5184 48.274 26.0953 47.7245 26.5178 47.0112L30.5087 40.2791H35.6653C36.5703 40.2791 37.4116 40.0307 38.1413 39.6066C38.8987 39.1669 39.5078 38.5484 39.9221 37.8336C40.3341 37.1211 40.5641 36.2891 40.5641 35.4201H40.5754C40.5754 34.6066 40.3604 33.7672 39.8884 32.9716L35.024 24.7684C34.579 24.0172 33.9729 23.4396 33.2806 23.0385C33.0499 22.905 32.8124 22.7908 32.5697 22.6974C33.3233 20.068 35.7664 18.1423 38.6642 18.1423C42.1119 18.1423 44.9161 20.8681 44.997 24.2605H44.9993V24.4125V31.6503C44.9993 40.1879 39.4861 47.9485 32.3299 51.7086L32.2201 51.7579C31.2471 52.1948 30.2487 52.6432 29.2328 53.004L29.2336 53.0033ZM39.1594 16.2339C42.1074 16.2339 44.4973 13.8685 44.4973 10.9507C44.4973 8.03289 42.1074 5.66752 39.1594 5.66752C36.2114 5.66752 33.8215 8.03289 33.8215 10.9507C33.8215 13.8685 36.2114 16.2339 39.1594 16.2339Z" fill="#273879"/>
<path fill-rule="evenodd" clip-rule="evenodd" d="M37.3637 34.4378L32.4993 26.2346C31.7396 24.9518 29.8637 24.9518 29.104 26.2346L25.0615 33.0519L23.6328 35.4618H21.3665L20.7597 34.4371L15.8961 26.2338C15.1349 24.951 13.2605 24.951 12.5 26.2338L7.63564 34.4371C6.86624 35.7369 7.81244 37.3712 9.33477 37.3712H16.1613L21.0069 45.5462C21.6759 46.6741 23.3241 46.6741 23.9916 45.5462L28.8381 37.3712H35.6653C37.1869 37.3712 38.1338 35.7362 37.3637 34.4371V34.4378Z" fill="#273879"/>
</svg>
