<svg width="349" height="144" viewBox="0 0 349 144" fill="none" xmlns="http://www.w3.org/2000/svg">
<path d="M81.488 52.184C80.9013 52.4293 80.2453 52.6533 79.52 52.856C78.7947 53.0587 78.0747 53.16 77.36 53.16C76.784 53.16 76.2293 53.0747 75.696 52.904C75.1733 52.7227 74.7093 52.4133 74.304 51.976C73.9093 51.528 73.5947 50.936 73.36 50.2C73.1253 49.464 73.008 48.536 73.008 47.416C73.008 46.328 73.1093 45.416 73.312 44.68C73.5253 43.944 73.824 43.352 74.208 42.904C74.592 42.456 75.0613 42.1413 75.616 41.96C76.1707 41.768 76.7947 41.672 77.488 41.672C78.0533 41.672 78.6507 41.7253 79.28 41.832C79.92 41.928 80.592 42.0667 81.296 42.248L81.04 43.288C80.3467 43.128 79.712 42.9947 79.136 42.888C78.5707 42.7813 78.048 42.728 77.568 42.728C77.0347 42.728 76.5653 42.8027 76.16 42.952C75.7653 43.1013 75.4293 43.3573 75.152 43.72C74.8853 44.0827 74.6827 44.568 74.544 45.176C74.4053 45.7733 74.336 46.52 74.336 47.416C74.336 48.3653 74.416 49.144 74.576 49.752C74.7467 50.3493 74.9707 50.824 75.248 51.176C75.536 51.5173 75.8613 51.7573 76.224 51.896C76.5867 52.024 76.9653 52.088 77.36 52.088C77.8613 52.088 78.3573 52.024 78.848 51.896C79.3387 51.7573 79.776 51.624 80.16 51.496V47.752H77.408V46.664H81.488V52.184ZM85.3416 45.752C86.0456 45.432 86.659 45.2027 87.1816 45.064C87.715 44.9253 88.2163 44.856 88.6856 44.856C89.0803 44.856 89.443 44.9093 89.7736 45.016C90.1043 45.112 90.3923 45.2667 90.6376 45.48C90.883 45.6827 91.075 45.9493 91.2136 46.28C91.3523 46.6107 91.4216 47 91.4216 47.448V53H90.1256V47.8C90.1256 47.1707 89.9763 46.6907 89.6776 46.36C89.379 46.0187 88.9256 45.848 88.3176 45.848C87.9443 45.848 87.523 45.912 87.0536 46.04C86.595 46.168 86.019 46.392 85.3256 46.712V53H84.0296V41H85.3256L85.3416 45.752ZM93.7953 43.528V41.896H95.1553V43.528H93.7953ZM93.8273 53V45H95.1233V53H93.8273ZM103.717 50.696C103.717 51.304 103.802 51.704 103.973 51.896C104.154 52.088 104.421 52.184 104.773 52.184C104.922 52.184 105.077 52.1733 105.237 52.152C105.407 52.12 105.583 52.0827 105.765 52.04L105.925 52.952C105.551 53.0373 105.242 53.096 104.997 53.128C104.751 53.16 104.517 53.176 104.293 53.176C103.642 53.1653 103.162 52.9787 102.853 52.616C102.554 52.2427 102.405 51.6133 102.405 50.728V41H103.701L103.717 50.696ZM107.814 45.288C108.187 45.2027 108.651 45.112 109.206 45.016C109.76 44.92 110.326 44.872 110.902 44.872C111.328 44.872 111.739 44.9147 112.134 45C112.539 45.0747 112.896 45.2187 113.206 45.432C113.526 45.6453 113.776 45.9333 113.958 46.296C114.15 46.6587 114.246 47.1173 114.246 47.672V53.016H113.254L113.19 52.296C112.582 52.5627 111.984 52.776 111.398 52.936C110.822 53.0853 110.283 53.16 109.782 53.16C109.408 53.16 109.062 53.112 108.742 53.016C108.432 52.92 108.16 52.7707 107.926 52.568C107.702 52.3547 107.526 52.088 107.398 51.768C107.27 51.448 107.206 51.0587 107.206 50.6C107.206 50.1627 107.275 49.7893 107.414 49.48C107.552 49.1707 107.771 48.9147 108.07 48.712C108.368 48.5093 108.752 48.3653 109.222 48.28C109.702 48.184 110.272 48.136 110.934 48.136C111.542 48.136 112.214 48.168 112.95 48.232V47.656C112.95 47.2933 112.886 46.9947 112.758 46.76C112.64 46.5253 112.475 46.3387 112.262 46.2C112.048 46.0613 111.798 45.9653 111.51 45.912C111.232 45.8587 110.934 45.832 110.614 45.832C110.144 45.832 109.67 45.8747 109.19 45.96C108.72 46.0347 108.304 46.104 107.942 46.168L107.814 45.288ZM112.966 49.016C112.582 48.9733 112.23 48.9467 111.91 48.936C111.59 48.9147 111.291 48.904 111.014 48.904C110.48 48.904 110.048 48.9413 109.718 49.016C109.387 49.08 109.131 49.1813 108.95 49.32C108.768 49.4587 108.646 49.6347 108.582 49.848C108.518 50.0507 108.486 50.2853 108.486 50.552C108.486 51.16 108.63 51.5867 108.918 51.832C109.216 52.0773 109.611 52.2 110.102 52.2C110.507 52.2 110.95 52.1307 111.43 51.992C111.92 51.8533 112.427 51.6613 112.95 51.416L112.966 49.016ZM110.23 55.384V54.232H111.478V55.384H110.23ZM116.639 43.528V41.896H117.999V43.528H116.639ZM116.671 53V45H117.967V53H116.671ZM131.44 52.84C130.864 52.9467 130.326 53.0267 129.824 53.08C129.323 53.144 128.859 53.176 128.432 53.176C127.771 53.176 127.211 53.096 126.752 52.936C126.304 52.776 125.936 52.5307 125.648 52.2C125.36 51.8587 125.152 51.4267 125.024 50.904C124.896 50.3813 124.832 49.752 124.832 49.016C124.832 48.28 124.896 47.6507 125.024 47.128C125.163 46.5947 125.376 46.1627 125.664 45.832C125.952 45.4907 126.326 45.2453 126.784 45.096C127.254 44.936 127.819 44.856 128.48 44.856C129.291 44.856 130.278 44.9627 131.44 45.176L131.264 46.12C130.731 46.024 130.251 45.9493 129.824 45.896C129.398 45.832 129.014 45.8 128.672 45.8C128.171 45.8 127.755 45.864 127.424 45.992C127.104 46.1093 126.848 46.296 126.656 46.552C126.464 46.808 126.331 47.1387 126.256 47.544C126.182 47.9493 126.144 48.4347 126.144 49C126.144 49.5653 126.182 50.0507 126.256 50.456C126.331 50.8613 126.464 51.192 126.656 51.448C126.848 51.704 127.104 51.896 127.424 52.024C127.755 52.1413 128.171 52.2 128.672 52.2C129.014 52.2 129.398 52.1733 129.824 52.12C130.251 52.056 130.731 51.976 131.264 51.88L131.44 52.84ZM134.588 50.2C134.588 50.872 134.738 51.3627 135.036 51.672C135.346 51.9813 135.788 52.136 136.364 52.136C137.143 52.136 138.092 51.8747 139.212 51.352V45H140.508V53H139.484L139.372 52.248C138.743 52.5467 138.14 52.7707 137.564 52.92C136.999 53.0693 136.476 53.144 135.996 53.144C135.186 53.144 134.524 52.9307 134.012 52.504C133.511 52.0773 133.26 51.416 133.26 50.52V45H134.556L134.588 50.2ZM145.642 55.384V54.232H146.89V55.384H145.642ZM146.298 44.856C147.13 44.856 147.796 44.9573 148.298 45.16C148.81 45.3627 149.199 45.6453 149.466 46.008C149.743 46.3707 149.924 46.808 150.01 47.32C150.095 47.832 150.138 48.392 150.138 49C150.138 49.608 150.095 50.168 150.01 50.68C149.924 51.192 149.743 51.6293 149.466 51.992C149.199 52.3547 148.81 52.6373 148.298 52.84C147.796 53.0427 147.13 53.144 146.298 53.144C145.466 53.144 144.794 53.0427 144.282 52.84C143.78 52.6373 143.391 52.3547 143.114 51.992C142.847 51.6293 142.671 51.192 142.586 50.68C142.5 50.168 142.458 49.608 142.458 49C142.458 48.392 142.5 47.832 142.586 47.32C142.671 46.808 142.847 46.3707 143.114 46.008C143.391 45.6453 143.78 45.3627 144.282 45.16C144.794 44.9573 145.466 44.856 146.298 44.856ZM146.298 45.752C145.743 45.752 145.295 45.816 144.954 45.944C144.623 46.072 144.367 46.2693 144.186 46.536C144.015 46.8027 143.898 47.144 143.834 47.56C143.78 47.9653 143.754 48.4507 143.754 49.016C143.754 49.5813 143.78 50.072 143.834 50.488C143.898 50.8933 144.015 51.2293 144.186 51.496C144.367 51.7627 144.623 51.96 144.954 52.088C145.295 52.216 145.743 52.28 146.298 52.28C146.852 52.28 147.295 52.216 147.626 52.088C147.967 51.96 148.223 51.7627 148.394 51.496C148.575 51.2293 148.692 50.8933 148.746 50.488C148.81 50.072 148.842 49.5813 148.842 49.016C148.842 48.4507 148.81 47.9653 148.746 47.56C148.692 47.144 148.575 46.8027 148.394 46.536C148.223 46.2693 147.967 46.072 147.626 45.944C147.295 45.816 146.852 45.752 146.298 45.752ZM146.298 42.808L145.13 43.96H144.058L146.058 41.816H146.538L148.394 43.96H147.37L146.298 42.808ZM158.425 52.84C157.849 52.9467 157.31 53.0267 156.809 53.08C156.307 53.144 155.843 53.176 155.417 53.176C154.755 53.176 154.195 53.096 153.737 52.936C153.289 52.776 152.921 52.5307 152.633 52.2C152.345 51.8587 152.137 51.4267 152.009 50.904C151.881 50.3813 151.817 49.752 151.817 49.016C151.817 48.28 151.881 47.6507 152.009 47.128C152.147 46.5947 152.361 46.1627 152.649 45.832C152.937 45.4907 153.31 45.2453 153.769 45.096C154.238 44.936 154.803 44.856 155.465 44.856C156.275 44.856 157.262 44.9627 158.425 45.176L158.249 46.12C157.715 46.024 157.235 45.9493 156.809 45.896C156.382 45.832 155.998 45.8 155.657 45.8C155.155 45.8 154.739 45.864 154.409 45.992C154.089 46.1093 153.833 46.296 153.641 46.552C153.449 46.808 153.315 47.1387 153.241 47.544C153.166 47.9493 153.129 48.4347 153.129 49C153.129 49.5653 153.166 50.0507 153.241 50.456C153.315 50.8613 153.449 51.192 153.641 51.448C153.833 51.704 154.089 51.896 154.409 52.024C154.739 52.1413 155.155 52.2 155.657 52.2C155.998 52.2 156.382 52.1733 156.809 52.12C157.235 52.056 157.715 51.976 158.249 51.88L158.425 52.84ZM166.514 45.752C167.218 45.432 167.831 45.2027 168.354 45.064C168.887 44.9253 169.388 44.856 169.858 44.856C170.252 44.856 170.615 44.9093 170.946 45.016C171.276 45.112 171.564 45.2667 171.81 45.48C172.055 45.6827 172.247 45.9493 172.385 46.28C172.524 46.6107 172.594 47 172.594 47.448V53H171.298V47.8C171.298 47.1707 171.148 46.6907 170.85 46.36C170.551 46.0187 170.098 45.848 169.49 45.848C169.116 45.848 168.695 45.912 168.226 46.04C167.767 46.168 167.191 46.392 166.498 46.712V53H165.202V41H166.498L166.514 45.752ZM178.391 44.856C179.223 44.856 179.89 44.9573 180.391 45.16C180.903 45.3627 181.292 45.6453 181.559 46.008C181.836 46.3707 182.018 46.808 182.103 47.32C182.188 47.832 182.231 48.392 182.231 49C182.231 49.608 182.188 50.168 182.103 50.68C182.018 51.192 181.836 51.6293 181.559 51.992C181.292 52.3547 180.903 52.6373 180.391 52.84C179.89 53.0427 179.223 53.144 178.391 53.144C177.559 53.144 176.887 53.0427 176.375 52.84C175.874 52.6373 175.484 52.3547 175.207 51.992C174.94 51.6293 174.764 51.192 174.679 50.68C174.594 50.168 174.551 49.608 174.551 49C174.551 48.392 174.594 47.832 174.679 47.32C174.764 46.808 174.94 46.3707 175.207 46.008C175.484 45.6453 175.874 45.3627 176.375 45.16C176.887 44.9573 177.559 44.856 178.391 44.856ZM178.391 45.752C177.836 45.752 177.388 45.816 177.047 45.944C176.716 46.072 176.46 46.2693 176.279 46.536C176.108 46.8027 175.991 47.144 175.927 47.56C175.874 47.9653 175.847 48.4507 175.847 49.016C175.847 49.5813 175.874 50.072 175.927 50.488C175.991 50.8933 176.108 51.2293 176.279 51.496C176.46 51.7627 176.716 51.96 177.047 52.088C177.388 52.216 177.836 52.28 178.391 52.28C178.946 52.28 179.388 52.216 179.719 52.088C180.06 51.96 180.316 51.7627 180.487 51.496C180.668 51.2293 180.786 50.8933 180.839 50.488C180.903 50.072 180.935 49.5813 180.935 49.016C180.935 48.4507 180.903 47.9653 180.839 47.56C180.786 47.144 180.668 46.8027 180.487 46.536C180.316 46.2693 180.06 46.072 179.719 45.944C179.388 45.816 178.946 45.752 178.391 45.752ZM177.751 55.384V54.232H178.999V55.384H177.751ZM185.398 45.672C186.038 45.416 186.625 45.2133 187.158 45.064C187.702 44.9147 188.198 44.84 188.646 44.84C189.073 44.84 189.457 44.92 189.798 45.08C190.15 45.2293 190.443 45.4693 190.678 45.8C190.923 46.1307 191.11 46.5627 191.238 47.096C191.366 47.6187 191.43 48.248 191.43 48.984C191.43 50.4133 191.19 51.4693 190.71 52.152C190.23 52.824 189.462 53.16 188.406 53.16C187.681 53.16 186.758 52.9893 185.638 52.648V55.88H184.342V45H185.334L185.398 45.672ZM185.654 51.704C186.71 52.0027 187.547 52.152 188.166 52.152C188.902 52.152 189.414 51.9013 189.702 51.4C189.99 50.8987 190.134 50.0933 190.134 48.984C190.134 48.3867 190.097 47.8853 190.022 47.48C189.947 47.0747 189.835 46.7493 189.686 46.504C189.537 46.2587 189.355 46.0827 189.142 45.976C188.929 45.8693 188.683 45.816 188.406 45.816C188.043 45.816 187.633 45.88 187.174 46.008C186.726 46.1253 186.214 46.2907 185.638 46.504L185.654 51.704ZM204.534 52.84C203.958 52.9467 203.419 53.0267 202.918 53.08C202.417 53.144 201.953 53.176 201.526 53.176C200.865 53.176 200.305 53.096 199.846 52.936C199.398 52.776 199.03 52.5307 198.742 52.2C198.454 51.8587 198.246 51.4267 198.118 50.904C197.99 50.3813 197.926 49.752 197.926 49.016C197.926 48.28 197.99 47.6507 198.118 47.128C198.257 46.5947 198.47 46.1627 198.758 45.832C199.046 45.4907 199.419 45.2453 199.878 45.096C200.347 44.936 200.913 44.856 201.574 44.856C202.385 44.856 203.371 44.9627 204.534 45.176L204.358 46.12C203.825 46.024 203.345 45.9493 202.918 45.896C202.491 45.832 202.107 45.8 201.766 45.8C201.265 45.8 200.849 45.864 200.518 45.992C200.198 46.1093 199.942 46.296 199.75 46.552C199.558 46.808 199.425 47.1387 199.35 47.544C199.275 47.9493 199.238 48.4347 199.238 49C199.238 49.5653 199.275 50.0507 199.35 50.456C199.425 50.8613 199.558 51.192 199.75 51.448C199.942 51.704 200.198 51.896 200.518 52.024C200.849 52.1413 201.265 52.2 201.766 52.2C202.107 52.2 202.491 52.1733 202.918 52.12C203.345 52.056 203.825 51.976 204.358 51.88L204.534 52.84ZM207.682 50.2C207.682 50.872 207.831 51.3627 208.13 51.672C208.439 51.9813 208.882 52.136 209.458 52.136C210.237 52.136 211.186 51.8747 212.306 51.352V45H213.602V53H212.578L212.466 52.248C211.837 52.5467 211.234 52.7707 210.658 52.92C210.093 53.0693 209.57 53.144 209.09 53.144C208.279 53.144 207.618 52.9307 207.106 52.504C206.605 52.0773 206.354 51.416 206.354 50.52V45H207.65L207.682 50.2ZM208.866 40.936C208.983 40.9147 209.149 40.8827 209.362 40.84C209.575 40.7973 209.805 40.776 210.05 40.776C210.466 40.776 210.802 40.8613 211.058 41.032C211.325 41.2027 211.458 41.544 211.458 42.056C211.458 42.3973 211.373 42.6427 211.202 42.792C211.031 42.9413 210.807 43.0747 210.53 43.192C210.445 43.2347 210.365 43.2827 210.29 43.336C210.226 43.3893 210.194 43.4747 210.194 43.592V43.736H209.458V43.592C209.458 43.2827 209.543 43.0533 209.714 42.904C209.885 42.7547 210.103 42.6107 210.37 42.472C210.455 42.4293 210.535 42.3813 210.61 42.328C210.685 42.264 210.722 42.1733 210.722 42.056C210.722 41.8533 210.663 41.7147 210.546 41.64C210.429 41.5547 210.263 41.512 210.05 41.512C209.709 41.512 209.325 41.5653 208.898 41.672L208.866 40.936ZM216.064 45.288C216.437 45.2027 216.901 45.112 217.456 45.016C218.01 44.92 218.576 44.872 219.152 44.872C219.578 44.872 219.989 44.9147 220.384 45C220.789 45.0747 221.146 45.2187 221.456 45.432C221.776 45.6453 222.026 45.9333 222.208 46.296C222.4 46.6587 222.496 47.1173 222.496 47.672V53.016H221.504L221.44 52.296C220.832 52.5627 220.234 52.776 219.648 52.936C219.072 53.0853 218.533 53.16 218.032 53.16C217.658 53.16 217.312 53.112 216.992 53.016C216.682 52.92 216.41 52.7707 216.176 52.568C215.952 52.3547 215.776 52.088 215.648 51.768C215.52 51.448 215.456 51.0587 215.456 50.6C215.456 50.1627 215.525 49.7893 215.664 49.48C215.802 49.1707 216.021 48.9147 216.32 48.712C216.618 48.5093 217.002 48.3653 217.472 48.28C217.952 48.184 218.522 48.136 219.184 48.136C219.792 48.136 220.464 48.168 221.2 48.232V47.656C221.2 47.2933 221.136 46.9947 221.008 46.76C220.89 46.5253 220.725 46.3387 220.512 46.2C220.298 46.0613 220.048 45.9653 219.76 45.912C219.482 45.8587 219.184 45.832 218.864 45.832C218.394 45.832 217.92 45.8747 217.44 45.96C216.97 46.0347 216.554 46.104 216.192 46.168L216.064 45.288ZM221.216 49.016C220.832 48.9733 220.48 48.9467 220.16 48.936C219.84 48.9147 219.541 48.904 219.264 48.904C218.73 48.904 218.298 48.9413 217.968 49.016C217.637 49.08 217.381 49.1813 217.2 49.32C217.018 49.4587 216.896 49.6347 216.832 49.848C216.768 50.0507 216.736 50.2853 216.736 50.552C216.736 51.16 216.88 51.5867 217.168 51.832C217.466 52.0773 217.861 52.2 218.352 52.2C218.757 52.2 219.2 52.1307 219.68 51.992C220.17 51.8533 220.677 51.6613 221.2 51.416L221.216 49.016ZM230.886 45.368C232.006 45.0267 232.929 44.856 233.654 44.856C234.71 44.856 235.478 45.1973 235.958 45.88C236.438 46.552 236.678 47.6027 236.678 49.032C236.678 49.6933 236.625 50.2853 236.518 50.808C236.422 51.32 236.251 51.752 236.006 52.104C235.761 52.456 235.425 52.7227 234.998 52.904C234.582 53.0853 234.054 53.176 233.414 53.176C232.902 53.176 232.321 53.112 231.67 52.984C231.03 52.8453 230.342 52.6533 229.606 52.408V41H230.902L230.886 45.368ZM230.886 51.752C231.942 52.0507 232.779 52.2 233.398 52.2C234.134 52.2 234.646 51.9493 234.934 51.448C235.222 50.9467 235.366 50.1413 235.366 49.032C235.366 47.9227 235.222 47.1173 234.934 46.616C234.646 46.1147 234.134 45.864 233.398 45.864C232.779 45.864 231.942 46.0133 230.886 46.312V51.752ZM238.923 45.288C239.296 45.2027 239.76 45.112 240.315 45.016C240.87 44.92 241.435 44.872 242.011 44.872C242.438 44.872 242.848 44.9147 243.243 45C243.648 45.0747 244.006 45.2187 244.315 45.432C244.635 45.6453 244.886 45.9333 245.067 46.296C245.259 46.6587 245.355 47.1173 245.355 47.672V53.016H244.363L244.299 52.296C243.691 52.5627 243.094 52.776 242.507 52.936C241.931 53.0853 241.392 53.16 240.891 53.16C240.518 53.16 240.171 53.112 239.851 53.016C239.542 52.92 239.27 52.7707 239.035 52.568C238.811 52.3547 238.635 52.088 238.507 51.768C238.379 51.448 238.315 51.0587 238.315 50.6C238.315 50.1627 238.384 49.7893 238.523 49.48C238.662 49.1707 238.88 48.9147 239.179 48.712C239.478 48.5093 239.862 48.3653 240.331 48.28C240.811 48.184 241.382 48.136 242.043 48.136C242.651 48.136 243.323 48.168 244.059 48.232V47.656C244.059 47.2933 243.995 46.9947 243.867 46.76C243.75 46.5253 243.584 46.3387 243.371 46.2C243.158 46.0613 242.907 45.9653 242.619 45.912C242.342 45.8587 242.043 45.832 241.723 45.832C241.254 45.832 240.779 45.8747 240.299 45.96C239.83 46.0347 239.414 46.104 239.051 46.168L238.923 45.288ZM244.075 49.016C243.691 48.9733 243.339 48.9467 243.019 48.936C242.699 48.9147 242.4 48.904 242.123 48.904C241.59 48.904 241.158 48.9413 240.827 49.016C240.496 49.08 240.24 49.1813 240.059 49.32C239.878 49.4587 239.755 49.6347 239.691 49.848C239.627 50.0507 239.595 50.2853 239.595 50.552C239.595 51.16 239.739 51.5867 240.027 51.832C240.326 52.0773 240.72 52.2 241.211 52.2C241.616 52.2 242.059 52.1307 242.539 51.992C243.03 51.8533 243.536 51.6613 244.059 51.416L244.075 49.016ZM241.339 55.384V54.232H242.587V55.384H241.339ZM248.804 45.816C249.551 45.464 250.207 45.2133 250.772 45.064C251.338 44.9147 251.86 44.84 252.34 44.84C253.14 44.84 253.791 45.0533 254.292 45.48C254.794 45.9067 255.044 46.568 255.044 47.464V52.984H253.748V47.784C253.748 47.112 253.594 46.6213 253.284 46.312C252.986 46.0027 252.548 45.848 251.972 45.848C251.599 45.848 251.178 45.912 250.708 46.04C250.239 46.168 249.658 46.392 248.964 46.712V53H247.668V45H248.692L248.804 45.816ZM267.433 45L267.193 45.992H264.105V50.584C264.105 51.192 264.217 51.608 264.441 51.832C264.665 52.056 264.99 52.168 265.417 52.168C265.694 52.168 266.003 52.136 266.345 52.072C266.686 51.9973 267.049 51.9173 267.433 51.832L267.609 52.744C267.118 52.8613 266.654 52.9573 266.217 53.032C265.79 53.1173 265.39 53.16 265.017 53.16C264.323 53.16 263.779 52.9733 263.385 52.6C263.001 52.216 262.809 51.544 262.809 50.584V45.992V45V42.552H264.105V45H267.433ZM269.907 45.288C270.281 45.2027 270.745 45.112 271.299 45.016C271.854 44.92 272.419 44.872 272.995 44.872C273.422 44.872 273.833 44.9147 274.227 45C274.633 45.0747 274.99 45.2187 275.299 45.432C275.619 45.6453 275.87 45.9333 276.051 46.296C276.243 46.6587 276.339 47.1173 276.339 47.672V53.016H275.347L275.283 52.296C274.675 52.5627 274.078 52.776 273.491 52.936C272.915 53.0853 272.377 53.16 271.875 53.16C271.502 53.16 271.155 53.112 270.835 53.016C270.526 52.92 270.254 52.7707 270.019 52.568C269.795 52.3547 269.619 52.088 269.491 51.768C269.363 51.448 269.299 51.0587 269.299 50.6C269.299 50.1627 269.369 49.7893 269.507 49.48C269.646 49.1707 269.865 48.9147 270.163 48.712C270.462 48.5093 270.846 48.3653 271.315 48.28C271.795 48.184 272.366 48.136 273.027 48.136C273.635 48.136 274.307 48.168 275.043 48.232V47.656C275.043 47.2933 274.979 46.9947 274.851 46.76C274.734 46.5253 274.569 46.3387 274.355 46.2C274.142 46.0613 273.891 45.9653 273.603 45.912C273.326 45.8587 273.027 45.832 272.707 45.832C272.238 45.832 271.763 45.8747 271.283 45.96C270.814 46.0347 270.398 46.104 270.035 46.168L269.907 45.288ZM275.059 49.016C274.675 48.9733 274.323 48.9467 274.003 48.936C273.683 48.9147 273.385 48.904 273.107 48.904C272.574 48.904 272.142 48.9413 271.811 49.016C271.481 49.08 271.225 49.1813 271.043 49.32C270.862 49.4587 270.739 49.6347 270.675 49.848C270.611 50.0507 270.579 50.2853 270.579 50.552C270.579 51.16 270.723 51.5867 271.011 51.832C271.31 52.0773 271.705 52.2 272.195 52.2C272.601 52.2 273.043 52.1307 273.523 51.992C274.014 51.8533 274.521 51.6613 275.043 51.416L275.059 49.016ZM272.323 55.384V54.232H273.571V55.384H272.323ZM278.733 43.528V41.896H280.093V43.528H278.733ZM278.765 53V45H280.061V53H278.765ZM293.534 52.84C292.958 52.9467 292.419 53.0267 291.918 53.08C291.417 53.144 290.953 53.176 290.526 53.176C289.865 53.176 289.305 53.096 288.846 52.936C288.398 52.776 288.03 52.5307 287.742 52.2C287.454 51.8587 287.246 51.4267 287.118 50.904C286.99 50.3813 286.926 49.752 286.926 49.016C286.926 48.28 286.99 47.6507 287.118 47.128C287.257 46.5947 287.47 46.1627 287.758 45.832C288.046 45.4907 288.419 45.2453 288.878 45.096C289.347 44.936 289.913 44.856 290.574 44.856C291.385 44.856 292.371 44.9627 293.534 45.176L293.358 46.12C292.825 46.024 292.345 45.9493 291.918 45.896C291.491 45.832 291.107 45.8 290.766 45.8C290.265 45.8 289.849 45.864 289.518 45.992C289.198 46.1093 288.942 46.296 288.75 46.552C288.558 46.808 288.425 47.1387 288.35 47.544C288.275 47.9493 288.238 48.4347 288.238 49C288.238 49.5653 288.275 50.0507 288.35 50.456C288.425 50.8613 288.558 51.192 288.75 51.448C288.942 51.704 289.198 51.896 289.518 52.024C289.849 52.1413 290.265 52.2 290.766 52.2C291.107 52.2 291.491 52.1733 291.918 52.12C292.345 52.056 292.825 51.976 293.358 51.88L293.534 52.84ZM296.826 45.752C297.53 45.432 298.143 45.2027 298.666 45.064C299.199 44.9253 299.701 44.856 300.17 44.856C300.565 44.856 300.927 44.9093 301.258 45.016C301.589 45.112 301.877 45.2667 302.122 45.48C302.367 45.6827 302.559 45.9493 302.698 46.28C302.837 46.6107 302.906 47 302.906 47.448V53H301.61V47.8C301.61 47.1707 301.461 46.6907 301.162 46.36C300.863 46.0187 300.41 45.848 299.802 45.848C299.429 45.848 299.007 45.912 298.538 46.04C298.079 46.168 297.503 46.392 296.81 46.712V53H295.514V41H296.81L296.826 45.752ZM308.72 44.856C309.552 44.856 310.218 44.9573 310.72 45.16C311.232 45.3627 311.621 45.6453 311.888 46.008C312.165 46.3707 312.346 46.808 312.432 47.32C312.517 47.832 312.56 48.392 312.56 49C312.56 49.608 312.517 50.168 312.432 50.68C312.346 51.192 312.165 51.6293 311.888 51.992C311.621 52.3547 311.232 52.6373 310.72 52.84C310.218 53.0427 309.552 53.144 308.72 53.144C307.888 53.144 307.216 53.0427 306.704 52.84C306.202 52.6373 305.813 52.3547 305.536 51.992C305.269 51.6293 305.093 51.192 305.008 50.68C304.922 50.168 304.88 49.608 304.88 49C304.88 48.392 304.922 47.832 305.008 47.32C305.093 46.808 305.269 46.3707 305.536 46.008C305.813 45.6453 306.202 45.3627 306.704 45.16C307.216 44.9573 307.888 44.856 308.72 44.856ZM308.72 45.752C308.165 45.752 307.717 45.816 307.376 45.944C307.045 46.072 306.789 46.2693 306.608 46.536C306.437 46.8027 306.32 47.144 306.256 47.56C306.202 47.9653 306.176 48.4507 306.176 49.016C306.176 49.5813 306.202 50.072 306.256 50.488C306.32 50.8933 306.437 51.2293 306.608 51.496C306.789 51.7627 307.045 51.96 307.376 52.088C307.717 52.216 308.165 52.28 308.72 52.28C309.274 52.28 309.717 52.216 310.048 52.088C310.389 51.96 310.645 51.7627 310.816 51.496C310.997 51.2293 311.114 50.8933 311.168 50.488C311.232 50.072 311.264 49.5813 311.264 49.016C311.264 48.4507 311.232 47.9653 311.168 47.56C311.114 47.144 310.997 46.8027 310.816 46.536C310.645 46.2693 310.389 46.072 310.048 45.944C309.717 45.816 309.274 45.752 308.72 45.752ZM308.72 42.808L307.552 43.96H306.48L308.48 41.816H308.96L310.816 43.96H309.792L308.72 42.808ZM305.776 40.808C305.829 40.7653 305.914 40.696 306.032 40.6C306.16 40.504 306.298 40.408 306.448 40.312C306.608 40.216 306.773 40.1307 306.944 40.056C307.125 39.9813 307.301 39.944 307.472 39.944C307.696 39.944 307.92 39.9867 308.144 40.072C308.368 40.1467 308.586 40.232 308.8 40.328C309.013 40.424 309.21 40.5147 309.392 40.6C309.573 40.6747 309.738 40.712 309.888 40.712C310.005 40.712 310.133 40.68 310.272 40.616C310.421 40.5413 310.56 40.4667 310.688 40.392C310.816 40.3067 310.922 40.2267 311.008 40.152C311.104 40.0773 311.152 40.04 311.152 40.04L311.632 40.728C311.578 40.7707 311.493 40.84 311.376 40.936C311.258 41.0213 311.12 41.112 310.96 41.208C310.8 41.304 310.634 41.3893 310.464 41.464C310.293 41.528 310.138 41.56 310 41.56C309.84 41.56 309.658 41.5227 309.456 41.448C309.264 41.3733 309.061 41.288 308.848 41.192C308.634 41.096 308.416 41.0107 308.192 40.936C307.978 40.8613 307.765 40.824 307.552 40.824C307.402 40.824 307.253 40.856 307.104 40.92C306.954 40.984 306.816 41.0587 306.688 41.144C306.56 41.2187 306.453 41.2933 306.368 41.368C306.282 41.432 306.234 41.464 306.224 41.464L305.776 40.808ZM74.576 69.752C75.28 69.432 75.8933 69.2027 76.416 69.064C76.9493 68.9253 77.4507 68.856 77.92 68.856C78.3147 68.856 78.6773 68.9093 79.008 69.016C79.3387 69.112 79.6267 69.2667 79.872 69.48C80.1173 69.6827 80.3093 69.9493 80.448 70.28C80.5867 70.6107 80.656 71 80.656 71.448V77H79.36V71.8C79.36 71.1707 79.2107 70.6907 78.912 70.36C78.6133 70.0187 78.16 69.848 77.552 69.848C77.1787 69.848 76.7573 69.912 76.288 70.04C75.8293 70.168 75.2533 70.392 74.56 70.712V77H73.264V65H74.56L74.576 69.752ZM86.4536 68.856C87.2856 68.856 87.9523 68.9573 88.4536 69.16C88.9656 69.3627 89.355 69.6453 89.6216 70.008C89.899 70.3707 90.0803 70.808 90.1656 71.32C90.251 71.832 90.2936 72.392 90.2936 73C90.2936 73.608 90.251 74.168 90.1656 74.68C90.0803 75.192 89.899 75.6293 89.6216 75.992C89.355 76.3547 88.9656 76.6373 88.4536 76.84C87.9523 77.0427 87.2856 77.144 86.4536 77.144C85.6216 77.144 84.9496 77.0427 84.4376 76.84C83.9363 76.6373 83.547 76.3547 83.2696 75.992C83.003 75.6293 82.827 75.192 82.7416 74.68C82.6563 74.168 82.6136 73.608 82.6136 73C82.6136 72.392 82.6563 71.832 82.7416 71.32C82.827 70.808 83.003 70.3707 83.2696 70.008C83.547 69.6453 83.9363 69.3627 84.4376 69.16C84.9496 68.9573 85.6216 68.856 86.4536 68.856ZM86.4536 69.752C85.899 69.752 85.451 69.816 85.1096 69.944C84.779 70.072 84.523 70.2693 84.3416 70.536C84.171 70.8027 84.0536 71.144 83.9896 71.56C83.9363 71.9653 83.9096 72.4507 83.9096 73.016C83.9096 73.5813 83.9363 74.072 83.9896 74.488C84.0536 74.8933 84.171 75.2293 84.3416 75.496C84.523 75.7627 84.779 75.96 85.1096 76.088C85.451 76.216 85.899 76.28 86.4536 76.28C87.0083 76.28 87.451 76.216 87.7816 76.088C88.123 75.96 88.379 75.7627 88.5496 75.496C88.731 75.2293 88.8483 74.8933 88.9016 74.488C88.9656 74.072 88.9976 73.5813 88.9976 73.016C88.9976 72.4507 88.9656 71.9653 88.9016 71.56C88.8483 71.144 88.731 70.8027 88.5496 70.536C88.379 70.2693 88.123 70.072 87.7816 69.944C87.451 69.816 87.0083 69.752 86.4536 69.752ZM94.9326 79.384V78.232H96.1806V79.384H94.9326ZM92.5006 69.288C92.874 69.2027 93.338 69.112 93.8926 69.016C94.4473 68.92 95.0126 68.872 95.5886 68.872C96.0153 68.872 96.426 68.9147 96.8206 69C97.226 69.0747 97.5833 69.2187 97.8926 69.432C98.2126 69.6453 98.4633 69.9333 98.6446 70.296C98.8366 70.6587 98.9326 71.1173 98.9326 71.672V77.016H97.9406L97.8766 76.296C97.2686 76.5627 96.6713 76.776 96.0846 76.936C95.5086 77.0853 94.97 77.16 94.4686 77.16C94.0953 77.16 93.7486 77.112 93.4286 77.016C93.1193 76.92 92.8473 76.7707 92.6126 76.568C92.3886 76.3547 92.2126 76.088 92.0846 75.768C91.9566 75.448 91.8926 75.0587 91.8926 74.6C91.8926 74.1627 91.962 73.7893 92.1006 73.48C92.2393 73.1707 92.458 72.9147 92.7566 72.712C93.0553 72.5093 93.4393 72.3653 93.9086 72.28C94.3886 72.184 94.9593 72.136 95.6206 72.136C96.2286 72.136 96.9006 72.168 97.6366 72.232V71.656C97.6366 71.2933 97.5726 70.9947 97.4446 70.76C97.3273 70.5253 97.162 70.3387 96.9486 70.2C96.7353 70.0613 96.4846 69.9653 96.1966 69.912C95.9193 69.8587 95.6206 69.832 95.3006 69.832C94.8313 69.832 94.3566 69.8747 93.8766 69.96C93.4073 70.0347 92.9913 70.104 92.6286 70.168L92.5006 69.288ZM97.6526 73.016C97.2686 72.9733 96.9166 72.9467 96.5966 72.936C96.2766 72.9147 95.978 72.904 95.7006 72.904C95.1673 72.904 94.7353 72.9413 94.4046 73.016C94.074 73.08 93.818 73.1813 93.6366 73.32C93.4553 73.4587 93.3326 73.6347 93.2686 73.848C93.2046 74.0507 93.1726 74.2853 93.1726 74.552C93.1726 75.16 93.3166 75.5867 93.6046 75.832C93.9033 76.0773 94.298 76.2 94.7886 76.2C95.194 76.2 95.6366 76.1307 96.1166 75.992C96.6073 75.8533 97.114 75.6613 97.6366 75.416L97.6526 73.016ZM94.1486 65.944C94.1806 66.1467 94.2446 66.3173 94.3406 66.456C94.4473 66.5947 94.5646 66.712 94.6926 66.808C94.8206 66.8933 94.9593 66.9573 95.1086 67C95.258 67.032 95.3966 67.048 95.5246 67.048C95.8446 67.048 96.1433 66.968 96.4206 66.808C96.7086 66.648 96.8846 66.36 96.9486 65.944H97.5406C97.4233 66.712 97.1993 67.24 96.8686 67.528C96.5486 67.816 96.1006 67.96 95.5246 67.96C95.002 67.96 94.5753 67.8107 94.2446 67.512C93.9246 67.2027 93.6953 66.68 93.5566 65.944H94.1486ZM107.534 76.84C106.958 76.9467 106.419 77.0267 105.918 77.08C105.417 77.144 104.953 77.176 104.526 77.176C103.865 77.176 103.305 77.096 102.846 76.936C102.398 76.776 102.03 76.5307 101.742 76.2C101.454 75.8587 101.246 75.4267 101.118 74.904C100.99 74.3813 100.926 73.752 100.926 73.016C100.926 72.28 100.99 71.6507 101.118 71.128C101.257 70.5947 101.47 70.1627 101.758 69.832C102.046 69.4907 102.419 69.2453 102.878 69.096C103.347 68.936 103.913 68.856 104.574 68.856C105.385 68.856 106.371 68.9627 107.534 69.176L107.358 70.12C106.825 70.024 106.345 69.9493 105.918 69.896C105.491 69.832 105.107 69.8 104.766 69.8C104.265 69.8 103.849 69.864 103.518 69.992C103.198 70.1093 102.942 70.296 102.75 70.552C102.558 70.808 102.425 71.1387 102.35 71.544C102.275 71.9493 102.238 72.4347 102.238 73C102.238 73.5653 102.275 74.0507 102.35 74.456C102.425 74.8613 102.558 75.192 102.75 75.448C102.942 75.704 103.198 75.896 103.518 76.024C103.849 76.1413 104.265 76.2 104.766 76.2C105.107 76.2 105.491 76.1733 105.918 76.12C106.345 76.056 106.825 75.976 107.358 75.88L107.534 76.84ZM115.623 74.696C115.623 75.304 115.708 75.704 115.879 75.896C116.06 76.088 116.327 76.184 116.679 76.184C116.828 76.184 116.983 76.1733 117.143 76.152C117.314 76.12 117.49 76.0827 117.671 76.04L117.831 76.952C117.458 77.0373 117.148 77.096 116.903 77.128C116.658 77.16 116.423 77.176 116.199 77.176C115.548 77.1653 115.068 76.9787 114.759 76.616C114.46 76.2427 114.311 75.6133 114.311 74.728V65H115.607L115.623 74.696ZM126.222 76.536C125.518 76.728 124.867 76.8773 124.27 76.984C123.683 77.08 123.134 77.128 122.622 77.128C121.352 77.128 120.424 76.792 119.838 76.12C119.251 75.448 118.958 74.4027 118.958 72.984C118.958 72.376 119 71.816 119.086 71.304C119.171 70.792 119.347 70.3547 119.614 69.992C119.891 69.6293 120.28 69.3467 120.782 69.144C121.294 68.9413 121.966 68.84 122.798 68.84C123.64 68.84 124.302 68.9413 124.782 69.144C125.272 69.3467 125.64 69.6347 125.886 70.008C126.131 70.3707 126.286 70.808 126.35 71.32C126.424 71.8213 126.462 72.376 126.462 72.984V73.416H120.27C120.28 74.3333 120.472 75.016 120.846 75.464C121.219 75.912 121.854 76.136 122.75 76.136C123.624 76.136 124.718 75.9493 126.03 75.576L126.222 76.536ZM125.15 72.664C125.15 72.1627 125.123 71.7307 125.07 71.368C125.027 70.9947 124.926 70.6907 124.766 70.456C124.606 70.2107 124.371 70.0293 124.062 69.912C123.752 69.7947 123.336 69.736 122.814 69.736C122.27 69.736 121.832 69.7947 121.502 69.912C121.171 70.0293 120.915 70.2107 120.734 70.456C120.552 70.7013 120.43 71.0107 120.366 71.384C120.302 71.7467 120.27 72.1733 120.27 72.664H125.15ZM122.638 66.808L121.47 67.96H120.398L122.398 65.816H122.878L124.734 67.96H123.71L122.638 66.808ZM129.476 69.816C130.223 69.464 130.879 69.2133 131.444 69.064C132.01 68.9147 132.532 68.84 133.012 68.84C133.812 68.84 134.463 69.0533 134.964 69.48C135.466 69.9067 135.716 70.568 135.716 71.464V76.984H134.42V71.784C134.42 71.112 134.266 70.6213 133.956 70.312C133.658 70.0027 133.22 69.848 132.644 69.848C132.271 69.848 131.85 69.912 131.38 70.04C130.911 70.168 130.33 70.392 129.636 70.712V77H128.34V69H129.364L129.476 69.816ZM151.225 66.232V67.176H149.577V77H148.585L148.521 76.328C147.881 76.584 147.289 76.7867 146.745 76.936C146.211 77.0853 145.721 77.16 145.273 77.16C144.835 77.16 144.446 77.0853 144.105 76.936C143.763 76.776 143.47 76.5307 143.225 76.2C142.99 75.8693 142.809 75.4427 142.681 74.92C142.553 74.3867 142.489 73.752 142.489 73.016C142.489 71.5867 142.729 70.536 143.209 69.864C143.689 69.1813 144.457 68.84 145.513 68.84C146.238 68.84 147.161 69.0107 148.281 69.352V67.176H145.945V66.232H148.281V65H149.577V66.232H151.225ZM148.249 70.296C147.193 69.9973 146.355 69.848 145.737 69.848C145.001 69.848 144.489 70.0987 144.201 70.6C143.913 71.1013 143.769 71.9067 143.769 73.016C143.769 73.6133 143.806 74.1147 143.881 74.52C143.955 74.9253 144.067 75.2507 144.217 75.496C144.366 75.7413 144.547 75.9173 144.761 76.024C144.974 76.1307 145.219 76.184 145.497 76.184C145.859 76.184 146.265 76.1253 146.713 76.008C147.171 75.88 147.689 75.7093 148.265 75.496L148.249 70.296ZM154.475 67.72L156.011 65.528H157.163L155.499 67.72H154.475ZM152.891 69.288C153.265 69.2027 153.729 69.112 154.283 69.016C154.838 68.92 155.403 68.872 155.979 68.872C156.406 68.872 156.817 68.9147 157.211 69C157.617 69.0747 157.974 69.2187 158.283 69.432C158.603 69.6453 158.854 69.9333 159.035 70.296C159.227 70.6587 159.323 71.1173 159.323 71.672V77.016H158.331L158.267 76.296C157.659 76.5627 157.062 76.776 156.475 76.936C155.899 77.0853 155.361 77.16 154.859 77.16C154.486 77.16 154.139 77.112 153.819 77.016C153.51 76.92 153.238 76.7707 153.003 76.568C152.779 76.3547 152.603 76.088 152.475 75.768C152.347 75.448 152.283 75.0587 152.283 74.6C152.283 74.1627 152.353 73.7893 152.491 73.48C152.63 73.1707 152.849 72.9147 153.147 72.712C153.446 72.5093 153.83 72.3653 154.299 72.28C154.779 72.184 155.35 72.136 156.011 72.136C156.619 72.136 157.291 72.168 158.027 72.232V71.656C158.027 71.2933 157.963 70.9947 157.835 70.76C157.718 70.5253 157.553 70.3387 157.339 70.2C157.126 70.0613 156.875 69.9653 156.587 69.912C156.31 69.8587 156.011 69.832 155.691 69.832C155.222 69.832 154.747 69.8747 154.267 69.96C153.798 70.0347 153.382 70.104 153.019 70.168L152.891 69.288ZM158.043 73.016C157.659 72.9733 157.307 72.9467 156.987 72.936C156.667 72.9147 156.369 72.904 156.091 72.904C155.558 72.904 155.126 72.9413 154.795 73.016C154.465 73.08 154.209 73.1813 154.027 73.32C153.846 73.4587 153.723 73.6347 153.659 73.848C153.595 74.0507 153.563 74.2853 153.563 74.552C153.563 75.16 153.707 75.5867 153.995 75.832C154.294 76.0773 154.689 76.2 155.179 76.2C155.585 76.2 156.027 76.1307 156.507 75.992C156.998 75.8533 157.505 75.6613 158.027 75.416L158.043 73.016ZM162.741 69.752C163.295 69.4747 163.85 69.256 164.405 69.096C164.97 68.9253 165.498 68.84 165.989 68.84C166.426 68.84 166.815 68.92 167.157 69.08C167.498 69.2293 167.775 69.4747 167.989 69.816C168.629 69.5067 169.226 69.2667 169.781 69.096C170.346 68.9253 170.879 68.84 171.381 68.84C171.722 68.84 172.037 68.888 172.325 68.984C172.623 69.08 172.879 69.2347 173.093 69.448C173.317 69.6507 173.487 69.9227 173.605 70.264C173.733 70.5947 173.797 71 173.797 71.48V77H172.501V71.688C172.501 71.0053 172.362 70.5307 172.085 70.264C171.807 69.9867 171.45 69.848 171.013 69.848C170.618 69.848 170.186 69.928 169.717 70.088C169.258 70.2373 168.789 70.4187 168.309 70.632C168.394 70.888 168.437 71.176 168.437 71.496V77H167.141V71.688C167.141 71.0053 167.002 70.5307 166.725 70.264C166.447 69.9867 166.09 69.848 165.653 69.848C165.258 69.848 164.826 69.928 164.357 70.088C163.898 70.2373 163.429 70.4187 162.949 70.632V77H161.653V69H162.677L162.741 69.752ZM181.991 69.752C182.545 69.4747 183.1 69.256 183.655 69.096C184.22 68.9253 184.748 68.84 185.239 68.84C185.676 68.84 186.065 68.92 186.407 69.08C186.748 69.2293 187.025 69.4747 187.239 69.816C187.879 69.5067 188.476 69.2667 189.031 69.096C189.596 68.9253 190.129 68.84 190.631 68.84C190.972 68.84 191.287 68.888 191.575 68.984C191.873 69.08 192.129 69.2347 192.343 69.448C192.567 69.6507 192.737 69.9227 192.855 70.264C192.983 70.5947 193.047 71 193.047 71.48V77H191.751V71.688C191.751 71.0053 191.612 70.5307 191.335 70.264C191.057 69.9867 190.7 69.848 190.263 69.848C189.868 69.848 189.436 69.928 188.967 70.088C188.508 70.2373 188.039 70.4187 187.559 70.632C187.644 70.888 187.687 71.176 187.687 71.496V77H186.391V71.688C186.391 71.0053 186.252 70.5307 185.975 70.264C185.697 69.9867 185.34 69.848 184.903 69.848C184.508 69.848 184.076 69.928 183.607 70.088C183.148 70.2373 182.679 70.4187 182.199 70.632V77H180.903V69H181.927L181.991 69.752ZM195.548 69.288C195.921 69.2027 196.385 69.112 196.94 69.016C197.495 68.92 198.06 68.872 198.636 68.872C199.063 68.872 199.473 68.9147 199.868 69C200.273 69.0747 200.631 69.2187 200.94 69.432C201.26 69.6453 201.511 69.9333 201.692 70.296C201.884 70.6587 201.98 71.1173 201.98 71.672V77.016H200.988L200.924 76.296C200.316 76.5627 199.719 76.776 199.132 76.936C198.556 77.0853 198.017 77.16 197.516 77.16C197.143 77.16 196.796 77.112 196.476 77.016C196.167 76.92 195.895 76.7707 195.66 76.568C195.436 76.3547 195.26 76.088 195.132 75.768C195.004 75.448 194.94 75.0587 194.94 74.6C194.94 74.1627 195.009 73.7893 195.148 73.48C195.287 73.1707 195.505 72.9147 195.804 72.712C196.103 72.5093 196.487 72.3653 196.956 72.28C197.436 72.184 198.007 72.136 198.668 72.136C199.276 72.136 199.948 72.168 200.684 72.232V71.656C200.684 71.2933 200.62 70.9947 200.492 70.76C200.375 70.5253 200.209 70.3387 199.996 70.2C199.783 70.0613 199.532 69.9653 199.244 69.912C198.967 69.8587 198.668 69.832 198.348 69.832C197.879 69.832 197.404 69.8747 196.924 69.96C196.455 70.0347 196.039 70.104 195.676 70.168L195.548 69.288ZM200.7 73.016C200.316 72.9733 199.964 72.9467 199.644 72.936C199.324 72.9147 199.025 72.904 198.748 72.904C198.215 72.904 197.783 72.9413 197.452 73.016C197.121 73.08 196.865 73.1813 196.684 73.32C196.503 73.4587 196.38 73.6347 196.316 73.848C196.252 74.0507 196.22 74.2853 196.22 74.552C196.22 75.16 196.364 75.5867 196.652 75.832C196.951 76.0773 197.345 76.2 197.836 76.2C198.241 76.2 198.684 76.1307 199.164 75.992C199.655 75.8533 200.161 75.6613 200.684 75.416L200.7 73.016ZM198.572 66.808L197.404 67.96H196.332L198.332 65.816H198.812L200.668 67.96H199.644L198.572 66.808ZM209.769 69H211.097L207.657 77.656C207.476 78.104 207.268 78.4667 207.033 78.744C206.809 79.0213 206.542 79.2507 206.233 79.432C205.977 79.5813 205.689 79.704 205.369 79.8C205.06 79.896 204.702 79.9813 204.297 80.056L204.121 79.144C204.473 79.0587 204.777 78.9733 205.033 78.888C205.289 78.8027 205.513 78.696 205.705 78.568C206.089 78.3227 206.388 77.9387 206.601 77.416L206.777 77H206.425L203.257 69H204.585L207.177 75.752L209.769 69ZM219.723 77L216.539 69H217.867L220.523 75.928L223.179 69H224.507L221.323 77H219.723ZM231.373 69.224C231.565 69.2133 231.719 69.1653 231.837 69.08C231.954 68.9947 232.045 68.8987 232.109 68.792C232.173 68.6747 232.21 68.5573 232.221 68.44C232.231 68.312 232.231 68.2053 232.221 68.12H233.069C233.101 68.3333 233.101 68.552 233.069 68.776C233.037 69 232.957 69.208 232.829 69.4C232.701 69.592 232.519 69.7573 232.285 69.896C232.05 70.024 231.746 70.104 231.373 70.136V69.224ZM229.501 68.856C230.333 68.856 230.999 68.9573 231.501 69.16C232.013 69.3627 232.402 69.6453 232.669 70.008C232.946 70.3707 233.127 70.808 233.213 71.32C233.298 71.832 233.341 72.392 233.341 73C233.341 73.608 233.298 74.168 233.213 74.68C233.127 75.192 232.946 75.6293 232.669 75.992C232.402 76.3547 232.013 76.6373 231.501 76.84C230.999 77.0427 230.333 77.144 229.501 77.144C228.669 77.144 227.997 77.0427 227.485 76.84C226.983 76.6373 226.594 76.3547 226.317 75.992C226.05 75.6293 225.874 75.192 225.789 74.68C225.703 74.168 225.661 73.608 225.661 73C225.661 72.392 225.703 71.832 225.789 71.32C225.874 70.808 226.05 70.3707 226.317 70.008C226.594 69.6453 226.983 69.3627 227.485 69.16C227.997 68.9573 228.669 68.856 229.501 68.856ZM229.501 69.752C228.946 69.752 228.498 69.816 228.157 69.944C227.826 70.072 227.57 70.2693 227.389 70.536C227.218 70.8027 227.101 71.144 227.037 71.56C226.983 71.9653 226.957 72.4507 226.957 73.016C226.957 73.5813 226.983 74.072 227.037 74.488C227.101 74.8933 227.218 75.2293 227.389 75.496C227.57 75.7627 227.826 75.96 228.157 76.088C228.498 76.216 228.946 76.28 229.501 76.28C230.055 76.28 230.498 76.216 230.829 76.088C231.17 75.96 231.426 75.7627 231.597 75.496C231.778 75.2293 231.895 74.8933 231.949 74.488C232.013 74.072 232.045 73.5813 232.045 73.016C232.045 72.4507 232.013 71.9653 231.949 71.56C231.895 71.144 231.778 70.8027 231.597 70.536C231.426 70.2693 231.17 70.072 230.829 69.944C230.498 69.816 230.055 69.752 229.501 69.752ZM228.061 67.72L229.597 65.528H230.749L229.085 67.72H228.061ZM235.452 67.528V65.896H236.812V67.528H235.452ZM235.484 77V69H236.78V77H235.484ZM250.253 76.84C249.677 76.9467 249.138 77.0267 248.637 77.08C248.136 77.144 247.672 77.176 247.245 77.176C246.584 77.176 246.024 77.096 245.565 76.936C245.117 76.776 244.749 76.5307 244.461 76.2C244.173 75.8587 243.965 75.4267 243.837 74.904C243.709 74.3813 243.645 73.752 243.645 73.016C243.645 72.28 243.709 71.6507 243.837 71.128C243.976 70.5947 244.189 70.1627 244.477 69.832C244.765 69.4907 245.138 69.2453 245.597 69.096C246.066 68.936 246.632 68.856 247.293 68.856C248.104 68.856 249.09 68.9627 250.253 69.176L250.077 70.12C249.544 70.024 249.064 69.9493 248.637 69.896C248.21 69.832 247.826 69.8 247.485 69.8C246.984 69.8 246.568 69.864 246.237 69.992C245.917 70.1093 245.661 70.296 245.469 70.552C245.277 70.808 245.144 71.1387 245.069 71.544C244.994 71.9493 244.957 72.4347 244.957 73C244.957 73.5653 244.994 74.0507 245.069 74.456C245.144 74.8613 245.277 75.192 245.469 75.448C245.661 75.704 245.917 75.896 246.237 76.024C246.568 76.1413 246.984 76.2 247.485 76.2C247.826 76.2 248.21 76.1733 248.637 76.12C249.064 76.056 249.544 75.976 250.077 75.88L250.253 76.84ZM253.913 67.72L255.449 65.528H256.601L254.937 67.72H253.913ZM252.329 69.288C252.702 69.2027 253.166 69.112 253.721 69.016C254.275 68.92 254.841 68.872 255.417 68.872C255.843 68.872 256.254 68.9147 256.649 69C257.054 69.0747 257.411 69.2187 257.721 69.432C258.041 69.6453 258.291 69.9333 258.473 70.296C258.665 70.6587 258.761 71.1173 258.761 71.672V77.016H257.769L257.705 76.296C257.097 76.5627 256.499 76.776 255.913 76.936C255.337 77.0853 254.798 77.16 254.297 77.16C253.923 77.16 253.577 77.112 253.257 77.016C252.947 76.92 252.675 76.7707 252.441 76.568C252.217 76.3547 252.041 76.088 251.913 75.768C251.785 75.448 251.721 75.0587 251.721 74.6C251.721 74.1627 251.79 73.7893 251.929 73.48C252.067 73.1707 252.286 72.9147 252.585 72.712C252.883 72.5093 253.267 72.3653 253.737 72.28C254.217 72.184 254.787 72.136 255.449 72.136C256.057 72.136 256.729 72.168 257.465 72.232V71.656C257.465 71.2933 257.401 70.9947 257.273 70.76C257.155 70.5253 256.99 70.3387 256.777 70.2C256.563 70.0613 256.313 69.9653 256.025 69.912C255.747 69.8587 255.449 69.832 255.129 69.832C254.659 69.832 254.185 69.8747 253.705 69.96C253.235 70.0347 252.819 70.104 252.457 70.168L252.329 69.288ZM257.481 73.016C257.097 72.9733 256.745 72.9467 256.425 72.936C256.105 72.9147 255.806 72.904 255.529 72.904C254.995 72.904 254.563 72.9413 254.233 73.016C253.902 73.08 253.646 73.1813 253.465 73.32C253.283 73.4587 253.161 73.6347 253.097 73.848C253.033 74.0507 253.001 74.2853 253.001 74.552C253.001 75.16 253.145 75.5867 253.433 75.832C253.731 76.0773 254.126 76.2 254.617 76.2C255.022 76.2 255.465 76.1307 255.945 75.992C256.435 75.8533 256.942 75.6613 257.465 75.416L257.481 73.016ZM267.362 76.84C266.786 76.9467 266.248 77.0267 265.746 77.08C265.245 77.144 264.781 77.176 264.354 77.176C263.693 77.176 263.133 77.096 262.674 76.936C262.226 76.776 261.858 76.5307 261.57 76.2C261.282 75.8587 261.074 75.4267 260.946 74.904C260.818 74.3813 260.754 73.752 260.754 73.016C260.754 72.28 260.818 71.6507 260.946 71.128C261.085 70.5947 261.298 70.1627 261.586 69.832C261.874 69.4907 262.248 69.2453 262.706 69.096C263.176 68.936 263.741 68.856 264.402 68.856C265.213 68.856 266.2 68.9627 267.362 69.176L267.186 70.12C266.653 70.024 266.173 69.9493 265.746 69.896C265.32 69.832 264.936 69.8 264.594 69.8C264.093 69.8 263.677 69.864 263.346 69.992C263.026 70.1093 262.77 70.296 262.578 70.552C262.386 70.808 262.253 71.1387 262.178 71.544C262.104 71.9493 262.066 72.4347 262.066 73C262.066 73.5653 262.104 74.0507 262.178 74.456C262.253 74.8613 262.386 75.192 262.578 75.448C262.77 75.704 263.026 75.896 263.346 76.024C263.677 76.1413 264.093 76.2 264.594 76.2C264.936 76.2 265.32 76.1733 265.746 76.12C266.173 76.056 266.653 75.976 267.186 75.88L267.362 76.84ZM275.339 69.368C276.459 69.0267 277.382 68.856 278.107 68.856C279.163 68.856 279.931 69.1973 280.411 69.88C280.891 70.552 281.131 71.6027 281.131 73.032C281.131 73.6933 281.078 74.2853 280.971 74.808C280.875 75.32 280.704 75.752 280.459 76.104C280.214 76.456 279.878 76.7227 279.451 76.904C279.035 77.0853 278.507 77.176 277.867 77.176C277.355 77.176 276.774 77.112 276.123 76.984C275.483 76.8453 274.795 76.6533 274.059 76.408V65H275.355L275.339 69.368ZM275.339 75.752C276.395 76.0507 277.232 76.2 277.851 76.2C278.587 76.2 279.099 75.9493 279.387 75.448C279.675 74.9467 279.819 74.1413 279.819 73.032C279.819 71.9227 279.675 71.1173 279.387 70.616C279.099 70.1147 278.587 69.864 277.851 69.864C277.232 69.864 276.395 70.0133 275.339 70.312V75.752ZM283.376 69.288C283.749 69.2027 284.213 69.112 284.768 69.016C285.323 68.92 285.888 68.872 286.464 68.872C286.891 68.872 287.301 68.9147 287.696 69C288.101 69.0747 288.459 69.2187 288.768 69.432C289.088 69.6453 289.339 69.9333 289.52 70.296C289.712 70.6587 289.808 71.1173 289.808 71.672V77.016H288.816L288.752 76.296C288.144 76.5627 287.547 76.776 286.96 76.936C286.384 77.0853 285.845 77.16 285.344 77.16C284.971 77.16 284.624 77.112 284.304 77.016C283.995 76.92 283.723 76.7707 283.488 76.568C283.264 76.3547 283.088 76.088 282.96 75.768C282.832 75.448 282.768 75.0587 282.768 74.6C282.768 74.1627 282.837 73.7893 282.976 73.48C283.115 73.1707 283.333 72.9147 283.632 72.712C283.931 72.5093 284.315 72.3653 284.784 72.28C285.264 72.184 285.835 72.136 286.496 72.136C287.104 72.136 287.776 72.168 288.512 72.232V71.656C288.512 71.2933 288.448 70.9947 288.32 70.76C288.203 70.5253 288.037 70.3387 287.824 70.2C287.611 70.0613 287.36 69.9653 287.072 69.912C286.795 69.8587 286.496 69.832 286.176 69.832C285.707 69.832 285.232 69.8747 284.752 69.96C284.283 70.0347 283.867 70.104 283.504 70.168L283.376 69.288ZM288.528 73.016C288.144 72.9733 287.792 72.9467 287.472 72.936C287.152 72.9147 286.853 72.904 286.576 72.904C286.043 72.904 285.611 72.9413 285.28 73.016C284.949 73.08 284.693 73.1813 284.512 73.32C284.331 73.4587 284.208 73.6347 284.144 73.848C284.08 74.0507 284.048 74.2853 284.048 74.552C284.048 75.16 284.192 75.5867 284.48 75.832C284.779 76.0773 285.173 76.2 285.664 76.2C286.069 76.2 286.512 76.1307 286.992 75.992C287.483 75.8533 287.989 75.6613 288.512 75.416L288.528 73.016ZM285.168 64.936C285.285 64.9147 285.451 64.8827 285.664 64.84C285.877 64.7973 286.107 64.776 286.352 64.776C286.768 64.776 287.104 64.8613 287.36 65.032C287.627 65.2027 287.76 65.544 287.76 66.056C287.76 66.3973 287.675 66.6427 287.504 66.792C287.333 66.9413 287.109 67.0747 286.832 67.192C286.747 67.2347 286.667 67.2827 286.592 67.336C286.528 67.3893 286.496 67.4747 286.496 67.592V67.736H285.76V67.592C285.76 67.2827 285.845 67.0533 286.016 66.904C286.187 66.7547 286.405 66.6107 286.672 66.472C286.757 66.4293 286.837 66.3813 286.912 66.328C286.987 66.264 287.024 66.1733 287.024 66.056C287.024 65.8533 286.965 65.7147 286.848 65.64C286.731 65.5547 286.565 65.512 286.352 65.512C286.011 65.512 285.627 65.5653 285.2 65.672L285.168 64.936ZM293.258 69.816C294.004 69.464 294.66 69.2133 295.226 69.064C295.791 68.9147 296.314 68.84 296.794 68.84C297.594 68.84 298.244 69.0533 298.746 69.48C299.247 69.9067 299.498 70.568 299.498 71.464V76.984H298.202V71.784C298.202 71.112 298.047 70.6213 297.738 70.312C297.439 70.0027 297.002 69.848 296.426 69.848C296.052 69.848 295.631 69.912 295.161 70.04C294.692 70.168 294.111 70.392 293.418 70.712V77H292.122V69H293.146L293.258 69.816ZM312.878 76.84C312.302 76.9467 311.763 77.0267 311.262 77.08C310.761 77.144 310.297 77.176 309.87 77.176C309.209 77.176 308.649 77.096 308.19 76.936C307.742 76.776 307.374 76.5307 307.086 76.2C306.798 75.8587 306.59 75.4267 306.462 74.904C306.334 74.3813 306.27 73.752 306.27 73.016C306.27 72.28 306.334 71.6507 306.462 71.128C306.601 70.5947 306.814 70.1627 307.102 69.832C307.39 69.4907 307.763 69.2453 308.222 69.096C308.691 68.936 309.257 68.856 309.918 68.856C310.729 68.856 311.715 68.9627 312.878 69.176L312.702 70.12C312.169 70.024 311.689 69.9493 311.262 69.896C310.835 69.832 310.451 69.8 310.11 69.8C309.609 69.8 309.193 69.864 308.862 69.992C308.542 70.1093 308.286 70.296 308.094 70.552C307.902 70.808 307.769 71.1387 307.694 71.544C307.619 71.9493 307.582 72.4347 307.582 73C307.582 73.5653 307.619 74.0507 307.694 74.456C307.769 74.8613 307.902 75.192 308.094 75.448C308.286 75.704 308.542 75.896 308.862 76.024C309.193 76.1413 309.609 76.2 310.11 76.2C310.451 76.2 310.835 76.1733 311.262 76.12C311.689 76.056 312.169 75.976 312.702 75.88L312.878 76.84ZM316.17 69.752C316.874 69.432 317.487 69.2027 318.01 69.064C318.543 68.9253 319.044 68.856 319.514 68.856C319.908 68.856 320.271 68.9093 320.602 69.016C320.932 69.112 321.22 69.2667 321.466 69.48C321.711 69.6827 321.903 69.9493 322.042 70.28C322.18 70.6107 322.25 71 322.25 71.448V77H320.954V71.8C320.954 71.1707 320.804 70.6907 320.506 70.36C320.207 70.0187 319.754 69.848 319.146 69.848C318.772 69.848 318.351 69.912 317.882 70.04C317.423 70.168 316.847 70.392 316.154 70.712V77H314.858V65H316.154L316.17 69.752ZM326.447 67.72L327.983 65.528H329.135L327.471 67.72H326.447ZM331.471 76.552C330.767 76.744 330.117 76.8933 329.519 77C328.933 77.096 328.383 77.144 327.871 77.144C326.602 77.144 325.674 76.808 325.087 76.136C324.501 75.464 324.207 74.4187 324.207 73C324.207 72.392 324.25 71.832 324.335 71.32C324.421 70.808 324.597 70.3707 324.863 70.008C325.141 69.6453 325.53 69.3627 326.031 69.16C326.543 68.9573 327.215 68.856 328.047 68.856C328.89 68.856 329.551 68.9573 330.031 69.16C330.522 69.3627 330.89 69.6507 331.135 70.024C331.381 70.3867 331.535 70.824 331.599 71.336C331.674 71.8373 331.711 72.392 331.711 73V73.432H325.519C325.53 74.3493 325.722 75.032 326.095 75.48C326.469 75.928 327.103 76.152 327.999 76.152C328.874 76.152 329.967 75.9653 331.279 75.592L331.471 76.552ZM330.399 72.68C330.399 72.1787 330.373 71.7467 330.319 71.384C330.277 71.0107 330.175 70.7067 330.015 70.472C329.855 70.2267 329.621 70.0453 329.311 69.928C329.002 69.8107 328.586 69.752 328.063 69.752C327.519 69.752 327.082 69.8107 326.751 69.928C326.421 70.0453 326.165 70.2267 325.983 70.472C325.802 70.7173 325.679 71.0267 325.615 71.4C325.551 71.7627 325.519 72.1893 325.519 72.68H330.399ZM334.742 69.672C335.382 69.416 335.969 69.2133 336.502 69.064C337.046 68.9147 337.542 68.84 337.99 68.84C338.417 68.84 338.801 68.92 339.142 69.08C339.494 69.2293 339.787 69.4693 340.022 69.8C340.267 70.1307 340.454 70.5627 340.582 71.096C340.71 71.6187 340.774 72.248 340.774 72.984C340.774 74.4133 340.534 75.4693 340.054 76.152C339.574 76.824 338.806 77.16 337.75 77.16C337.025 77.16 336.102 76.9893 334.982 76.648V79.88H333.686V69H334.678L334.742 69.672ZM334.998 75.704C336.054 76.0027 336.891 76.152 337.51 76.152C338.246 76.152 338.758 75.9013 339.046 75.4C339.334 74.8987 339.478 74.0933 339.478 72.984C339.478 72.3867 339.441 71.8853 339.366 71.48C339.291 71.0747 339.179 70.7493 339.03 70.504C338.881 70.2587 338.699 70.0827 338.486 69.976C338.273 69.8693 338.027 69.816 337.75 69.816C337.387 69.816 336.977 69.88 336.518 70.008C336.07 70.1253 335.558 70.2907 334.982 70.504L334.998 75.704ZM74.576 98.696C74.576 99.304 74.6613 99.704 74.832 99.896C75.0133 100.088 75.28 100.184 75.632 100.184C75.7813 100.184 75.936 100.173 76.096 100.152C76.2667 100.12 76.4427 100.083 76.624 100.04L76.784 100.952C76.4107 101.037 76.1013 101.096 75.856 101.128C75.6107 101.16 75.376 101.176 75.152 101.176C74.5013 101.165 74.0213 100.979 73.712 100.616C73.4133 100.243 73.264 99.6133 73.264 98.728V89H74.56L74.576 98.696ZM78.6729 93.288C79.0462 93.2027 79.5102 93.112 80.0649 93.016C80.6195 92.92 81.1849 92.872 81.7609 92.872C82.1875 92.872 82.5982 92.9147 82.9929 93C83.3982 93.0747 83.7555 93.2187 84.0649 93.432C84.3849 93.6453 84.6355 93.9333 84.8169 94.296C85.0089 94.6587 85.1049 95.1173 85.1049 95.672V101.016H84.1129L84.0489 100.296C83.4409 100.563 82.8435 100.776 82.2569 100.936C81.6809 101.085 81.1422 101.16 80.6409 101.16C80.2675 101.16 79.9209 101.112 79.6009 101.016C79.2915 100.92 79.0195 100.771 78.7849 100.568C78.5609 100.355 78.3849 100.088 78.2569 99.768C78.1289 99.448 78.0649 99.0587 78.0649 98.6C78.0649 98.1627 78.1342 97.7893 78.2729 97.48C78.4115 97.1707 78.6302 96.9147 78.9289 96.712C79.2275 96.5093 79.6115 96.3653 80.0809 96.28C80.5609 96.184 81.1315 96.136 81.7929 96.136C82.4009 96.136 83.0729 96.168 83.8089 96.232V95.656C83.8089 95.2933 83.7449 94.9947 83.6169 94.76C83.4995 94.5253 83.3342 94.3387 83.1209 94.2C82.9075 94.0613 82.6569 93.9653 82.3689 93.912C82.0915 93.8587 81.7929 93.832 81.4729 93.832C81.0035 93.832 80.5289 93.8747 80.0489 93.96C79.5795 94.0347 79.1635 94.104 78.8009 94.168L78.6729 93.288ZM83.8249 97.016C83.4409 96.9733 83.0889 96.9467 82.7689 96.936C82.4489 96.9147 82.1502 96.904 81.8729 96.904C81.3395 96.904 80.9075 96.9413 80.5769 97.016C80.2462 97.08 79.9902 97.1813 79.8089 97.32C79.6275 97.4587 79.5049 97.6347 79.4409 97.848C79.3769 98.0507 79.3449 98.2853 79.3449 98.552C79.3449 99.16 79.4889 99.5867 79.7769 99.832C80.0755 100.077 80.4702 100.2 80.9609 100.2C81.3662 100.2 81.8089 100.131 82.2889 99.992C82.7795 99.8533 83.2862 99.6613 83.8089 99.416L83.8249 97.016ZM81.0889 103.384V102.232H82.3369V103.384H81.0889ZM87.4984 91.528V89.896H88.8584V91.528H87.4984ZM87.5304 101V93H88.8264V101H87.5304ZM102.3 100.84C101.724 100.947 101.185 101.027 100.684 101.08C100.182 101.144 99.7184 101.176 99.2918 101.176C98.6304 101.176 98.0704 101.096 97.6118 100.936C97.1638 100.776 96.7958 100.531 96.5078 100.2C96.2198 99.8587 96.0118 99.4267 95.8838 98.904C95.7558 98.3813 95.6918 97.752 95.6918 97.016C95.6918 96.28 95.7558 95.6507 95.8838 95.128C96.0224 94.5947 96.2358 94.1627 96.5238 93.832C96.8118 93.4907 97.1851 93.2453 97.6438 93.096C98.1131 92.936 98.6784 92.856 99.3398 92.856C100.15 92.856 101.137 92.9627 102.3 93.176L102.124 94.12C101.59 94.024 101.11 93.9493 100.684 93.896C100.257 93.832 99.8731 93.8 99.5318 93.8C99.0304 93.8 98.6144 93.864 98.2838 93.992C97.9638 94.1093 97.7078 94.296 97.5158 94.552C97.3238 94.808 97.1904 95.1387 97.1158 95.544C97.0411 95.9493 97.0038 96.4347 97.0038 97C97.0038 97.5653 97.0411 98.0507 97.1158 98.456C97.1904 98.8613 97.3238 99.192 97.5158 99.448C97.7078 99.704 97.9638 99.896 98.2838 100.024C98.6144 100.141 99.0304 100.2 99.5318 100.2C99.8731 100.2 100.257 100.173 100.684 100.12C101.11 100.056 101.59 99.976 102.124 99.88L102.3 100.84ZM106.264 91.72L107.8 89.528H108.952L107.288 91.72H106.264ZM107.704 92.856C108.536 92.856 109.202 92.9573 109.704 93.16C110.216 93.3627 110.605 93.6453 110.872 94.008C111.149 94.3707 111.33 94.808 111.416 95.32C111.501 95.832 111.544 96.392 111.544 97C111.544 97.608 111.501 98.168 111.416 98.68C111.33 99.192 111.149 99.6293 110.872 99.992C110.605 100.355 110.216 100.637 109.704 100.84C109.202 101.043 108.536 101.144 107.704 101.144C106.872 101.144 106.2 101.043 105.688 100.84C105.186 100.637 104.797 100.355 104.52 99.992C104.253 99.6293 104.077 99.192 103.992 98.68C103.906 98.168 103.864 97.608 103.864 97C103.864 96.392 103.906 95.832 103.992 95.32C104.077 94.808 104.253 94.3707 104.52 94.008C104.797 93.6453 105.186 93.3627 105.688 93.16C106.2 92.9573 106.872 92.856 107.704 92.856ZM107.704 93.752C107.149 93.752 106.701 93.816 106.36 93.944C106.029 94.072 105.773 94.2693 105.592 94.536C105.421 94.8027 105.304 95.144 105.24 95.56C105.186 95.9653 105.16 96.4507 105.16 97.016C105.16 97.5813 105.186 98.072 105.24 98.488C105.304 98.8933 105.421 99.2293 105.592 99.496C105.773 99.7627 106.029 99.96 106.36 100.088C106.701 100.216 107.149 100.28 107.704 100.28C108.258 100.28 108.701 100.216 109.032 100.088C109.373 99.96 109.629 99.7627 109.8 99.496C109.981 99.2293 110.098 98.8933 110.152 98.488C110.216 98.072 110.248 97.5813 110.248 97.016C110.248 96.4507 110.216 95.9653 110.152 95.56C110.098 95.144 109.981 94.8027 109.8 94.536C109.629 94.2693 109.373 94.072 109.032 93.944C108.701 93.816 108.258 93.752 107.704 93.752ZM123.652 93L123.412 93.992H120.324V98.584C120.324 99.192 120.436 99.608 120.66 99.832C120.884 100.056 121.209 100.168 121.636 100.168C121.913 100.168 122.222 100.136 122.564 100.072C122.905 99.9973 123.268 99.9173 123.652 99.832L123.828 100.744C123.337 100.861 122.873 100.957 122.436 101.032C122.009 101.117 121.609 101.16 121.236 101.16C120.542 101.16 119.998 100.973 119.604 100.6C119.22 100.216 119.028 99.544 119.028 98.584V93.992V93V90.552H120.324V93H123.652ZM127.326 93.752C128.03 93.432 128.643 93.2027 129.166 93.064C129.699 92.9253 130.201 92.856 130.67 92.856C131.065 92.856 131.427 92.9093 131.758 93.016C132.089 93.112 132.377 93.2667 132.622 93.48C132.867 93.6827 133.059 93.9493 133.198 94.28C133.337 94.6107 133.406 95 133.406 95.448V101H132.11V95.8C132.11 95.1707 131.961 94.6907 131.662 94.36C131.363 94.0187 130.91 93.848 130.302 93.848C129.929 93.848 129.507 93.912 129.038 94.04C128.579 94.168 128.003 94.392 127.31 94.712V101H126.014V89H127.31L127.326 93.752ZM142.644 100.536C141.94 100.728 141.289 100.877 140.692 100.984C140.105 101.08 139.556 101.128 139.044 101.128C137.774 101.128 136.846 100.792 136.26 100.12C135.673 99.448 135.38 98.4027 135.38 96.984C135.38 96.376 135.422 95.816 135.508 95.304C135.593 94.792 135.769 94.3547 136.036 93.992C136.313 93.6293 136.702 93.3467 137.204 93.144C137.716 92.9413 138.388 92.84 139.22 92.84C140.062 92.84 140.724 92.9413 141.204 93.144C141.694 93.3467 142.062 93.6347 142.308 94.008C142.553 94.3707 142.708 94.808 142.772 95.32C142.846 95.8213 142.884 96.376 142.884 96.984V97.416H136.692C136.702 98.3333 136.894 99.016 137.268 99.464C137.641 99.912 138.276 100.136 139.172 100.136C140.046 100.136 141.14 99.9493 142.452 99.576L142.644 100.536ZM141.572 96.664C141.572 96.1627 141.545 95.7307 141.492 95.368C141.449 94.9947 141.348 94.6907 141.188 94.456C141.028 94.2107 140.793 94.0293 140.484 93.912C140.174 93.7947 139.758 93.736 139.236 93.736C138.692 93.736 138.254 93.7947 137.924 93.912C137.593 94.0293 137.337 94.2107 137.156 94.456C136.974 94.7013 136.852 95.0107 136.788 95.384C136.724 95.7467 136.692 96.1733 136.692 96.664H141.572ZM139.06 90.808L137.892 91.96H136.82L138.82 89.816H139.3L141.156 91.96H140.132L139.06 90.808ZM140.148 87.544C140.265 87.5227 140.43 87.4907 140.644 87.448C140.857 87.4053 141.086 87.384 141.332 87.384C141.748 87.384 142.084 87.4693 142.34 87.64C142.606 87.8107 142.74 88.152 142.74 88.664C142.74 89.0053 142.654 89.2507 142.484 89.4C142.313 89.5493 142.089 89.6827 141.812 89.8C141.726 89.8427 141.646 89.8907 141.572 89.944C141.508 89.9973 141.476 90.0827 141.476 90.2V90.344H140.74V90.2C140.74 89.8907 140.825 89.6613 140.996 89.512C141.166 89.3627 141.385 89.2187 141.652 89.08C141.737 89.0373 141.817 88.9893 141.892 88.936C141.966 88.872 142.004 88.7813 142.004 88.664C142.004 88.4613 141.945 88.3227 141.828 88.248C141.71 88.1627 141.545 88.12 141.332 88.12C140.99 88.12 140.606 88.1733 140.18 88.28L140.148 87.544ZM154.839 93L154.599 93.992H151.511V98.584C151.511 99.192 151.623 99.608 151.847 99.832C152.071 100.056 152.396 100.168 152.823 100.168C153.1 100.168 153.41 100.136 153.751 100.072C154.092 99.9973 154.455 99.9173 154.839 99.832L155.015 100.744C154.524 100.861 154.06 100.957 153.623 101.032C153.196 101.117 152.796 101.16 152.423 101.16C151.73 101.16 151.186 100.973 150.791 100.6C150.407 100.216 150.215 99.544 150.215 98.584V93.992V93V90.552H151.511V93H154.839ZM158.034 91.704L156.37 89.512H157.538L159.058 91.704H158.034ZM157.202 101V93H158.498V101H157.202ZM161.96 93.752C162.514 93.4747 163.069 93.256 163.624 93.096C164.189 92.9253 164.717 92.84 165.208 92.84C165.645 92.84 166.034 92.92 166.376 93.08C166.717 93.2293 166.994 93.4747 167.208 93.816C167.848 93.5067 168.445 93.2667 169 93.096C169.565 92.9253 170.098 92.84 170.6 92.84C170.941 92.84 171.256 92.888 171.544 92.984C171.842 93.08 172.098 93.2347 172.312 93.448C172.536 93.6507 172.706 93.9227 172.824 94.264C172.952 94.5947 173.016 95 173.016 95.48V101H171.72V95.688C171.72 95.0053 171.581 94.5307 171.304 94.264C171.026 93.9867 170.669 93.848 170.232 93.848C169.837 93.848 169.405 93.928 168.936 94.088C168.477 94.2373 168.008 94.4187 167.528 94.632C167.613 94.888 167.656 95.176 167.656 95.496V101H166.36V95.688C166.36 95.0053 166.221 94.5307 165.944 94.264C165.666 93.9867 165.309 93.848 164.872 93.848C164.477 93.848 164.045 93.928 163.576 94.088C163.117 94.2373 162.648 94.4187 162.168 94.632V101H160.872V93H161.896L161.96 93.752ZM185.61 93.016H187.114L184.026 96.056L187.385 101.016H186.01L183.194 96.84L181.45 98.536V101H180.154V89H181.45V97.144L185.61 93.016ZM189.17 91.528V89.896H190.53V91.528H189.17ZM189.202 101V93H190.498V101H189.202ZM199.847 100.536C199.143 100.728 198.492 100.877 197.895 100.984C197.308 101.08 196.759 101.128 196.247 101.128C194.977 101.128 194.049 100.792 193.463 100.12C192.876 99.448 192.583 98.4027 192.583 96.984C192.583 96.376 192.625 95.816 192.711 95.304C192.796 94.792 192.972 94.3547 193.239 93.992C193.516 93.6293 193.905 93.3467 194.407 93.144C194.919 92.9413 195.591 92.84 196.423 92.84C197.265 92.84 197.927 92.9413 198.407 93.144C198.897 93.3467 199.265 93.6347 199.511 94.008C199.756 94.3707 199.911 94.808 199.975 95.32C200.049 95.8213 200.087 96.376 200.087 96.984V97.416H193.895C193.905 98.3333 194.097 99.016 194.471 99.464C194.844 99.912 195.479 100.136 196.375 100.136C197.249 100.136 198.343 99.9493 199.655 99.576L199.847 100.536ZM198.775 96.664C198.775 96.1627 198.748 95.7307 198.695 95.368C198.652 94.9947 198.551 94.6907 198.391 94.456C198.231 94.2107 197.996 94.0293 197.687 93.912C197.377 93.7947 196.961 93.736 196.439 93.736C195.895 93.736 195.457 93.7947 195.127 93.912C194.796 94.0293 194.54 94.2107 194.359 94.456C194.177 94.7013 194.055 95.0107 193.991 95.384C193.927 95.7467 193.895 96.1733 193.895 96.664H198.775ZM196.263 90.808L195.095 91.96H194.023L196.023 89.816H196.503L198.359 91.96H197.335L196.263 90.808ZM197.831 90.28L199.367 88.088H200.519L198.855 90.28H197.831ZM203.053 93.752C203.608 93.4747 204.163 93.256 204.717 93.096C205.283 92.9253 205.811 92.84 206.301 92.84C206.739 92.84 207.128 92.92 207.469 93.08C207.811 93.2293 208.088 93.4747 208.301 93.816C208.941 93.5067 209.539 93.2667 210.093 93.096C210.659 92.9253 211.192 92.84 211.693 92.84C212.035 92.84 212.349 92.888 212.637 92.984C212.936 93.08 213.192 93.2347 213.405 93.448C213.629 93.6507 213.8 93.9227 213.917 94.264C214.045 94.5947 214.109 95 214.109 95.48V101H212.813V95.688C212.813 95.0053 212.675 94.5307 212.397 94.264C212.12 93.9867 211.763 93.848 211.325 93.848C210.931 93.848 210.499 93.928 210.029 94.088C209.571 94.2373 209.101 94.4187 208.621 94.632C208.707 94.888 208.749 95.176 208.749 95.496V101H207.453V95.688C207.453 95.0053 207.315 94.5307 207.037 94.264C206.76 93.9867 206.403 93.848 205.965 93.848C205.571 93.848 205.139 93.928 204.669 94.088C204.211 94.2373 203.741 94.4187 203.261 94.632V101H201.965V93H202.989L203.053 93.752ZM215.922 101V99.08H217.298V101H215.922Z" fill="url(#paint0_linear)"/>
<path d="M79.002 4.4C79.47 4.4 79.902 4.46 80.298 4.58C80.694 4.7 81.036 4.886 81.324 5.138C81.612 5.39 81.834 5.708 81.99 6.092C82.158 6.476 82.242 6.938 82.242 7.478C82.242 7.79 82.224 8.09 82.188 8.378C82.152 8.666 82.08 8.93 81.972 9.17C81.876 9.41 81.732 9.626 81.54 9.818C81.348 9.998 81.096 10.136 80.784 10.232C81.468 10.424 81.96 10.778 82.26 11.294C82.572 11.798 82.728 12.446 82.728 13.238C82.728 13.91 82.65 14.486 82.494 14.966C82.338 15.446 82.104 15.836 81.792 16.136C81.492 16.436 81.12 16.658 80.676 16.802C80.244 16.934 79.746 17 79.182 17H73.26V4.4H79.002ZM75.636 9.458H78.588C78.984 9.458 79.302 9.332 79.542 9.08C79.782 8.828 79.902 8.414 79.902 7.838C79.902 7.298 79.782 6.896 79.542 6.632C79.302 6.368 78.978 6.236 78.57 6.236H75.618L75.636 9.458ZM75.636 15.164H78.894C79.374 15.164 79.758 15.014 80.046 14.714C80.346 14.414 80.496 13.922 80.496 13.238C80.496 12.578 80.352 12.092 80.064 11.78C79.776 11.456 79.386 11.294 78.894 11.294H75.636V15.164ZM84.777 8.306C85.257 8.21 85.821 8.108 86.469 8C87.117 7.892 87.771 7.838 88.431 7.838C88.935 7.838 89.421 7.886 89.889 7.982C90.369 8.078 90.789 8.246 91.149 8.486C91.509 8.714 91.797 9.032 92.013 9.44C92.229 9.848 92.337 10.364 92.337 10.988V17H90.627L90.519 16.316C89.907 16.58 89.301 16.79 88.701 16.946C88.113 17.09 87.561 17.162 87.045 17.162C86.613 17.162 86.211 17.108 85.839 17C85.467 16.88 85.149 16.7 84.885 16.46C84.621 16.22 84.411 15.914 84.255 15.542C84.111 15.17 84.039 14.72 84.039 14.192C84.039 13.652 84.135 13.202 84.327 12.842C84.531 12.482 84.813 12.194 85.173 11.978C85.545 11.762 85.989 11.612 86.505 11.528C87.033 11.432 87.627 11.384 88.287 11.384C88.575 11.384 88.863 11.396 89.151 11.42C89.451 11.432 89.757 11.45 90.069 11.474V11.006C90.069 10.718 90.015 10.484 89.907 10.304C89.799 10.112 89.649 9.962 89.457 9.854C89.265 9.746 89.037 9.668 88.773 9.62C88.521 9.572 88.245 9.548 87.945 9.548C87.477 9.548 86.985 9.59 86.469 9.674C85.965 9.746 85.485 9.818 85.029 9.89L84.777 8.306ZM90.051 12.698C89.379 12.626 88.815 12.59 88.359 12.59C87.903 12.59 87.531 12.62 87.243 12.68C86.967 12.74 86.751 12.83 86.595 12.95C86.439 13.07 86.331 13.22 86.271 13.4C86.223 13.58 86.199 13.784 86.199 14.012C86.199 14.528 86.325 14.894 86.577 15.11C86.841 15.326 87.183 15.434 87.603 15.434C87.951 15.434 88.329 15.374 88.737 15.254C89.157 15.134 89.595 14.972 90.051 14.768V12.698ZM86.793 3.32C87.057 3.248 87.309 3.2 87.549 3.176C87.801 3.14 88.065 3.122 88.341 3.122C88.605 3.122 88.845 3.146 89.061 3.194C89.289 3.242 89.481 3.332 89.637 3.464C89.793 3.584 89.913 3.752 89.997 3.968C90.093 4.172 90.141 4.442 90.141 4.778C90.141 5.222 90.027 5.546 89.799 5.75C89.583 5.942 89.307 6.104 88.971 6.236C88.911 6.26 88.851 6.296 88.791 6.344C88.743 6.392 88.719 6.446 88.719 6.506V6.74H87.459V6.506C87.459 6.098 87.567 5.798 87.783 5.606C87.999 5.414 88.275 5.234 88.611 5.066C88.671 5.042 88.731 5.006 88.791 4.958C88.851 4.91 88.881 4.85 88.881 4.778C88.881 4.514 88.701 4.382 88.341 4.382C88.149 4.382 87.933 4.388 87.693 4.4C87.465 4.412 87.177 4.46 86.829 4.544L86.793 3.32ZM96.3994 8.774C97.0954 8.45 97.7314 8.216 98.3074 8.072C98.8954 7.916 99.4474 7.838 99.9634 7.838C100.419 7.838 100.845 7.898 101.241 8.018C101.637 8.138 101.979 8.324 102.267 8.576C102.555 8.828 102.777 9.146 102.933 9.53C103.101 9.914 103.185 10.364 103.185 10.88V17H100.899V11.474C100.899 10.814 100.761 10.334 100.485 10.034C100.209 9.722 99.8074 9.566 99.2794 9.566C98.9554 9.566 98.5894 9.62 98.1814 9.728C97.7854 9.836 97.2994 10.022 96.7234 10.286V17H94.4374V8H96.2014L96.3994 8.774ZM118.726 16.586C118.69 17.066 118.594 17.54 118.438 18.008C118.294 18.488 118.066 18.914 117.754 19.286C117.442 19.67 117.034 19.976 116.53 20.204C116.038 20.444 115.426 20.564 114.694 20.564C114.154 20.564 113.56 20.522 112.912 20.438C112.264 20.366 111.556 20.24 110.788 20.06L111.31 18.494C112.078 18.662 112.744 18.782 113.308 18.854C113.884 18.938 114.346 18.98 114.694 18.98C115.102 18.98 115.432 18.896 115.684 18.728C115.936 18.56 116.134 18.344 116.278 18.08C116.422 17.816 116.518 17.528 116.566 17.216C116.614 16.904 116.638 16.61 116.638 16.334C116.026 16.598 115.486 16.802 115.018 16.946C114.562 17.09 114.1 17.162 113.632 17.162C113.128 17.162 112.672 17.072 112.264 16.892C111.856 16.712 111.502 16.436 111.202 16.064C110.914 15.68 110.692 15.194 110.536 14.606C110.38 14.018 110.302 13.316 110.302 12.5C110.302 10.88 110.596 9.692 111.184 8.936C111.784 8.18 112.642 7.802 113.758 7.802C114.142 7.802 114.586 7.85 115.09 7.946C115.606 8.03 116.122 8.156 116.638 8.324L116.944 7.694H118.726V16.586ZM116.44 9.926C115.96 9.794 115.54 9.698 115.18 9.638C114.82 9.578 114.496 9.548 114.208 9.548C113.62 9.548 113.2 9.776 112.948 10.232C112.696 10.688 112.57 11.45 112.57 12.518C112.57 13.082 112.6 13.556 112.66 13.94C112.732 14.312 112.834 14.612 112.966 14.84C113.098 15.068 113.254 15.23 113.434 15.326C113.614 15.422 113.824 15.47 114.064 15.47C114.376 15.47 114.718 15.422 115.09 15.326C115.474 15.23 115.918 15.098 116.422 14.93L116.44 9.926ZM122.97 8.666C123.582 8.39 124.146 8.186 124.662 8.054C125.178 7.922 125.676 7.856 126.156 7.856C126.6 7.856 127.02 7.916 127.416 8.036C127.812 8.144 128.16 8.318 128.46 8.558C128.76 8.798 128.994 9.11 129.162 9.494C129.342 9.866 129.432 10.316 129.432 10.844V17H127.146V11.474C127.146 10.898 127.014 10.436 126.75 10.088C126.486 9.74 126.06 9.566 125.472 9.566C125.16 9.566 124.806 9.62 124.41 9.728C124.014 9.836 123.528 10.022 122.952 10.286V17H120.666V3.5H122.952L122.97 8.666ZM131.582 6.65V4.562H133.922V6.65H131.582ZM131.6 17V8H133.886V17H131.6ZM144.194 17L140.702 8H143.024L145.58 15.11L148.136 8H150.458L146.966 17H144.194ZM155.207 6.74L153.155 4.094H155.099L156.953 6.74H155.207ZM151.715 8.306C152.195 8.21 152.759 8.108 153.407 8C154.055 7.892 154.709 7.838 155.369 7.838C155.873 7.838 156.359 7.886 156.827 7.982C157.307 8.078 157.727 8.246 158.087 8.486C158.447 8.714 158.735 9.032 158.951 9.44C159.167 9.848 159.275 10.364 159.275 10.988V17H157.565L157.457 16.316C156.845 16.58 156.239 16.79 155.639 16.946C155.051 17.09 154.499 17.162 153.983 17.162C153.551 17.162 153.149 17.108 152.777 17C152.405 16.88 152.087 16.7 151.823 16.46C151.559 16.22 151.349 15.914 151.193 15.542C151.049 15.17 150.977 14.72 150.977 14.192C150.977 13.652 151.073 13.202 151.265 12.842C151.469 12.482 151.751 12.194 152.111 11.978C152.483 11.762 152.927 11.612 153.443 11.528C153.971 11.432 154.565 11.384 155.225 11.384C155.513 11.384 155.801 11.396 156.089 11.42C156.389 11.432 156.695 11.45 157.007 11.474V11.006C157.007 10.718 156.953 10.484 156.845 10.304C156.737 10.112 156.587 9.962 156.395 9.854C156.203 9.746 155.975 9.668 155.711 9.62C155.459 9.572 155.183 9.548 154.883 9.548C154.415 9.548 153.923 9.59 153.407 9.674C152.903 9.746 152.423 9.818 151.967 9.89L151.715 8.306ZM156.989 12.698C156.317 12.626 155.753 12.59 155.297 12.59C154.841 12.59 154.469 12.62 154.181 12.68C153.905 12.74 153.689 12.83 153.533 12.95C153.377 13.07 153.269 13.22 153.209 13.4C153.161 13.58 153.137 13.784 153.137 14.012C153.137 14.528 153.263 14.894 153.515 15.11C153.779 15.326 154.121 15.434 154.541 15.434C154.889 15.434 155.267 15.374 155.675 15.254C156.095 15.134 156.533 14.972 156.989 14.768V12.698ZM169.057 8.36C170.101 8.012 171.001 7.838 171.757 7.838C172.873 7.838 173.725 8.216 174.313 8.972C174.913 9.728 175.213 10.916 175.213 12.536C175.213 13.256 175.153 13.904 175.033 14.48C174.913 15.056 174.703 15.548 174.403 15.956C174.115 16.352 173.719 16.658 173.215 16.874C172.723 17.09 172.093 17.198 171.325 17.198C170.713 17.198 170.005 17.114 169.201 16.946C168.409 16.778 167.599 16.55 166.771 16.262V3.5H169.057V8.36ZM169.057 15.164C169.537 15.296 169.957 15.392 170.317 15.452C170.677 15.512 171.001 15.542 171.289 15.542C171.877 15.542 172.297 15.314 172.549 14.858C172.801 14.402 172.927 13.64 172.927 12.572C172.927 11.504 172.801 10.742 172.549 10.286C172.297 9.83 171.877 9.602 171.289 9.602C171.001 9.602 170.677 9.632 170.317 9.692C169.957 9.752 169.537 9.848 169.057 9.98V15.164ZM177.361 8.306C177.841 8.21 178.405 8.108 179.053 8C179.701 7.892 180.355 7.838 181.015 7.838C181.519 7.838 182.005 7.886 182.473 7.982C182.953 8.078 183.373 8.246 183.733 8.486C184.093 8.714 184.381 9.032 184.597 9.44C184.813 9.848 184.921 10.364 184.921 10.988V17H183.211L183.103 16.316C182.491 16.58 181.885 16.79 181.285 16.946C180.697 17.09 180.145 17.162 179.629 17.162C179.197 17.162 178.795 17.108 178.423 17C178.051 16.88 177.733 16.7 177.469 16.46C177.205 16.22 176.995 15.914 176.839 15.542C176.695 15.17 176.623 14.72 176.623 14.192C176.623 13.652 176.719 13.202 176.911 12.842C177.115 12.482 177.397 12.194 177.757 11.978C178.129 11.762 178.573 11.612 179.089 11.528C179.617 11.432 180.211 11.384 180.871 11.384C181.159 11.384 181.447 11.396 181.735 11.42C182.035 11.432 182.341 11.45 182.653 11.474V11.006C182.653 10.718 182.599 10.484 182.491 10.304C182.383 10.112 182.233 9.962 182.041 9.854C181.849 9.746 181.621 9.668 181.357 9.62C181.105 9.572 180.829 9.548 180.529 9.548C180.061 9.548 179.569 9.59 179.053 9.674C178.549 9.746 178.069 9.818 177.613 9.89L177.361 8.306ZM182.635 12.698C181.963 12.626 181.399 12.59 180.943 12.59C180.487 12.59 180.115 12.62 179.827 12.68C179.551 12.74 179.335 12.83 179.179 12.95C179.023 13.07 178.915 13.22 178.855 13.4C178.807 13.58 178.783 13.784 178.783 14.012C178.783 14.528 178.909 14.894 179.161 15.11C179.425 15.326 179.767 15.434 180.187 15.434C180.535 15.434 180.913 15.374 181.321 15.254C181.741 15.134 182.179 14.972 182.635 14.768V12.698ZM179.377 3.32C179.641 3.248 179.893 3.2 180.133 3.176C180.385 3.14 180.649 3.122 180.925 3.122C181.189 3.122 181.429 3.146 181.645 3.194C181.873 3.242 182.065 3.332 182.221 3.464C182.377 3.584 182.497 3.752 182.581 3.968C182.677 4.172 182.725 4.442 182.725 4.778C182.725 5.222 182.611 5.546 182.383 5.75C182.167 5.942 181.891 6.104 181.555 6.236C181.495 6.26 181.435 6.296 181.375 6.344C181.327 6.392 181.303 6.446 181.303 6.506V6.74H180.043V6.506C180.043 6.098 180.151 5.798 180.367 5.606C180.583 5.414 180.859 5.234 181.195 5.066C181.255 5.042 181.315 5.006 181.375 4.958C181.435 4.91 181.465 4.85 181.465 4.778C181.465 4.514 181.285 4.382 180.925 4.382C180.733 4.382 180.517 4.388 180.277 4.4C180.049 4.412 179.761 4.46 179.413 4.544L179.377 3.32ZM188.983 8.774C189.679 8.45 190.315 8.216 190.891 8.072C191.479 7.916 192.031 7.838 192.547 7.838C193.003 7.838 193.429 7.898 193.825 8.018C194.221 8.138 194.563 8.324 194.851 8.576C195.139 8.828 195.361 9.146 195.517 9.53C195.685 9.914 195.769 10.364 195.769 10.88V17H193.483V11.474C193.483 10.814 193.345 10.334 193.069 10.034C192.793 9.722 192.391 9.566 191.863 9.566C191.539 9.566 191.173 9.62 190.765 9.728C190.369 9.836 189.883 10.022 189.307 10.286V17H187.021V8H188.785L188.983 8.774ZM210.662 16.766C210.002 16.886 209.378 16.982 208.79 17.054C208.202 17.126 207.65 17.162 207.134 17.162C206.426 17.162 205.802 17.078 205.262 16.91C204.734 16.742 204.296 16.472 203.948 16.1C203.6 15.728 203.336 15.248 203.156 14.66C202.988 14.06 202.904 13.334 202.904 12.482C202.904 11.618 202.988 10.892 203.156 10.304C203.336 9.716 203.6 9.236 203.948 8.864C204.308 8.492 204.752 8.228 205.28 8.072C205.82 7.904 206.45 7.82 207.17 7.82C207.674 7.82 208.214 7.856 208.79 7.928C209.378 8 209.996 8.096 210.644 8.216L210.356 9.854C209.768 9.758 209.24 9.674 208.772 9.602C208.304 9.53 207.884 9.494 207.512 9.494C207.068 9.494 206.696 9.548 206.396 9.656C206.096 9.764 205.856 9.938 205.676 10.178C205.496 10.418 205.364 10.73 205.28 11.114C205.208 11.498 205.172 11.96 205.172 12.5C205.172 13.04 205.208 13.502 205.28 13.886C205.364 14.27 205.496 14.582 205.676 14.822C205.856 15.062 206.096 15.236 206.396 15.344C206.696 15.452 207.068 15.506 207.512 15.506C207.884 15.506 208.304 15.47 208.772 15.398C209.24 15.326 209.768 15.242 210.356 15.146L210.662 16.766ZM214.745 8.666C215.357 8.39 215.921 8.186 216.437 8.054C216.953 7.922 217.451 7.856 217.931 7.856C218.375 7.856 218.795 7.916 219.191 8.036C219.587 8.144 219.935 8.318 220.235 8.558C220.535 8.798 220.769 9.11 220.937 9.494C221.117 9.866 221.207 10.316 221.207 10.844V17H218.921V11.474C218.921 10.898 218.789 10.436 218.525 10.088C218.261 9.74 217.835 9.566 217.247 9.566C216.935 9.566 216.581 9.62 216.185 9.728C215.789 9.836 215.303 10.022 214.727 10.286V17H212.441V3.5H214.727L214.745 8.666ZM225.212 6.74L227.066 4.094H229.01L226.958 6.74H225.212ZM231.422 16.514C230.666 16.73 229.952 16.892 229.28 17C228.608 17.12 227.972 17.18 227.372 17.18C225.968 17.168 224.876 16.796 224.096 16.064C223.328 15.332 222.944 14.15 222.944 12.518C222.944 11.858 222.992 11.246 223.088 10.682C223.196 10.106 223.406 9.614 223.718 9.206C224.042 8.786 224.498 8.456 225.086 8.216C225.686 7.976 226.478 7.856 227.462 7.856C228.458 7.856 229.244 7.982 229.82 8.234C230.396 8.474 230.828 8.804 231.116 9.224C231.416 9.644 231.602 10.136 231.674 10.7C231.758 11.264 231.8 11.87 231.8 12.518V13.184H225.248C225.26 13.952 225.458 14.522 225.842 14.894C226.226 15.254 226.832 15.434 227.66 15.434C228.128 15.434 228.65 15.386 229.226 15.29C229.814 15.182 230.438 15.032 231.098 14.84L231.422 16.514ZM229.532 11.888C229.532 11.444 229.508 11.06 229.46 10.736C229.424 10.412 229.334 10.154 229.19 9.962C229.046 9.758 228.836 9.608 228.56 9.512C228.296 9.416 227.942 9.368 227.498 9.368C227.03 9.368 226.652 9.416 226.364 9.512C226.076 9.608 225.848 9.758 225.68 9.962C225.512 10.166 225.398 10.43 225.338 10.754C225.278 11.078 225.248 11.462 225.248 11.906L229.532 11.888ZM235.442 8.666C236.066 8.402 236.654 8.198 237.206 8.054C237.758 7.91 238.268 7.838 238.736 7.838C239.744 7.838 240.548 8.21 241.148 8.954C241.748 9.686 242.048 10.868 242.048 12.5C242.048 14.12 241.748 15.308 241.148 16.064C240.56 16.82 239.708 17.198 238.592 17.198C237.836 17.198 236.936 17.024 235.892 16.676V20.24H233.606V8H235.316L235.442 8.666ZM235.892 15.074C236.372 15.206 236.792 15.302 237.152 15.362C237.512 15.422 237.836 15.452 238.124 15.452C238.712 15.452 239.132 15.224 239.384 14.768C239.636 14.312 239.762 13.55 239.762 12.482C239.762 11.918 239.726 11.45 239.654 11.078C239.594 10.694 239.498 10.388 239.366 10.16C239.234 9.932 239.072 9.77 238.88 9.674C238.7 9.578 238.496 9.53 238.268 9.53C237.956 9.53 237.608 9.578 237.224 9.674C236.852 9.77 236.414 9.902 235.91 10.07L235.892 15.074ZM251.642 14.246C251.642 14.702 251.708 15.014 251.84 15.182C251.984 15.35 252.188 15.446 252.452 15.47C252.608 15.494 252.776 15.494 252.956 15.47C253.136 15.434 253.328 15.386 253.532 15.326L253.82 16.892C253.58 16.952 253.364 17 253.172 17.036C252.992 17.072 252.824 17.096 252.668 17.108C252.512 17.132 252.368 17.15 252.236 17.162C252.104 17.174 251.966 17.18 251.822 17.18C250.958 17.156 250.328 16.928 249.932 16.496C249.548 16.052 249.356 15.332 249.356 14.336V3.5H251.642V14.246ZM255.636 8.306C256.116 8.21 256.68 8.108 257.328 8C257.976 7.892 258.63 7.838 259.29 7.838C259.794 7.838 260.28 7.886 260.748 7.982C261.228 8.078 261.648 8.246 262.008 8.486C262.368 8.714 262.656 9.032 262.872 9.44C263.088 9.848 263.196 10.364 263.196 10.988V17H261.486L261.378 16.316C260.766 16.58 260.16 16.79 259.56 16.946C258.972 17.09 258.42 17.162 257.904 17.162C257.472 17.162 257.07 17.108 256.698 17C256.326 16.88 256.008 16.7 255.744 16.46C255.48 16.22 255.27 15.914 255.114 15.542C254.97 15.17 254.898 14.72 254.898 14.192C254.898 13.652 254.994 13.202 255.186 12.842C255.39 12.482 255.672 12.194 256.032 11.978C256.404 11.762 256.848 11.612 257.364 11.528C257.892 11.432 258.486 11.384 259.146 11.384C259.434 11.384 259.722 11.396 260.01 11.42C260.31 11.432 260.616 11.45 260.928 11.474V11.006C260.928 10.718 260.874 10.484 260.766 10.304C260.658 10.112 260.508 9.962 260.316 9.854C260.124 9.746 259.896 9.668 259.632 9.62C259.38 9.572 259.104 9.548 258.804 9.548C258.336 9.548 257.844 9.59 257.328 9.674C256.824 9.746 256.344 9.818 255.888 9.89L255.636 8.306ZM260.91 12.698C260.238 12.626 259.674 12.59 259.218 12.59C258.762 12.59 258.39 12.62 258.102 12.68C257.826 12.74 257.61 12.83 257.454 12.95C257.298 13.07 257.19 13.22 257.13 13.4C257.082 13.58 257.058 13.784 257.058 14.012C257.058 14.528 257.184 14.894 257.436 15.11C257.7 15.326 258.042 15.434 258.462 15.434C258.81 15.434 259.188 15.374 259.596 15.254C260.016 15.134 260.454 14.972 260.91 14.768V12.698ZM258.066 20.132V18.188H260.19V20.132H258.066ZM265.387 6.65V4.562H267.727V6.65H265.387ZM265.405 17V8H267.691V17H265.405Z" fill="url(#paint1_linear)"/>
<circle cx="28" cy="29" r="28" fill="#AB8843"/>
<circle cx="28" cy="29" r="7" fill="white"/>
<circle cx="28" cy="29" r="12" stroke="white" stroke-width="2"/>
<defs>
<linearGradient id="paint0_linear" x1="72.3428" y1="89.5859" x2="346.872" y2="89.5859" gradientUnits="userSpaceOnUse">
<stop stop-color="#293171"/>
<stop offset="1" stop-color="#1D214A"/>
</linearGradient>
<linearGradient id="paint1_linear" x1="72.2475" y1="11.0173" x2="270.463" y2="11.0173" gradientUnits="userSpaceOnUse">
<stop stop-color="#293171"/>
<stop offset="1" stop-color="#1D214A"/>
</linearGradient>
</defs>
</svg>
