<?xml version="1.0" encoding="UTF-8"?>
<!DOCTYPE svg PUBLIC "-//W3C//DTD SVG 1.1//EN" "http://www.w3.org/Graphics/SVG/1.1/DTD/svg11.dtd">
<!-- Creator: CorelDRAW 2019 (64-Bit) -->
<svg xmlns="http://www.w3.org/2000/svg" xml:space="preserve" width="32.3454mm" height="9.029mm" version="1.1" style="shape-rendering:geometricPrecision; text-rendering:geometricPrecision; image-rendering:optimizeQuality; fill-rule:evenodd; clip-rule:evenodd"
viewBox="0 0 61.91 17.28"
 xmlns:xlink="http://www.w3.org/1999/xlink"
 xmlns:xodm="http://www.corel.com/coreldraw/odm/2003">
 <defs>
  <style type="text/css">
   <![CDATA[
    .fil2 {fill:none}
    .fil0 {fill:#3BA0E3;fill-rule:nonzero}
    .fil1 {fill:url(#id0)}
   ]]>
  </style>
  <linearGradient id="id0" gradientUnits="userSpaceOnUse" x1="2.35" y1="8.53" x2="17.89" y2="8.53">
   <stop offset="0" style="stop-opacity:1; stop-color:#5B2BBA"/>
   <stop offset="1" style="stop-opacity:1; stop-color:#3BA0E3"/>
  </linearGradient>
 </defs>
 <g id="Layer_x0020_1">
  <metadata id="CorelCorpID_0Corel-Layer"/>
  <path class="fil0" d="M27.4 12.23l0 -4.87 -2.01 3.96 -0.78 0 -2.01 -3.96 0 4.87 -1.26 0 0 -6.84 1.54 0 2.12 4.2 2.12 -4.2 1.54 0 0 6.84 -1.26 0zm6.98 -0.26c-0.41,0.12 -0.8,0.21 -1.16,0.27 -0.36,0.06 -0.71,0.09 -1.04,0.09 -0.76,-0.01 -1.35,-0.21 -1.78,-0.61 -0.42,-0.4 -0.64,-1.04 -0.64,-1.92 0,-0.36 0.03,-0.69 0.08,-1 0.06,-0.31 0.17,-0.58 0.34,-0.8 0.17,-0.22 0.42,-0.4 0.74,-0.53 0.32,-0.13 0.75,-0.2 1.28,-0.2 0.54,0 0.97,0.07 1.28,0.2 0.31,0.13 0.55,0.31 0.71,0.54 0.16,0.23 0.26,0.49 0.3,0.8 0.04,0.31 0.06,0.64 0.06,0.99l0 0.36 -3.55 0c0.01,0.42 0.11,0.72 0.32,0.92 0.21,0.2 0.54,0.3 0.99,0.3 0.25,0 0.54,-0.03 0.86,-0.08 0.32,-0.06 0.65,-0.14 1.01,-0.24l0.18 0.91zm-1.04 -2.51c0,-0.24 -0.01,-0.45 -0.03,-0.63 -0.02,-0.18 -0.07,-0.32 -0.15,-0.43 -0.08,-0.11 -0.19,-0.19 -0.34,-0.24 -0.14,-0.05 -0.34,-0.08 -0.58,-0.08 -0.25,0 -0.46,0.03 -0.61,0.08 -0.15,0.05 -0.28,0.13 -0.37,0.24 -0.09,0.11 -0.15,0.25 -0.18,0.43 -0.03,0.18 -0.05,0.38 -0.05,0.63l2.32 -0.01zm5.54 -2.11l1.26 0 -2.04 5.27c-0.12,0.32 -0.27,0.57 -0.44,0.75 -0.17,0.18 -0.37,0.33 -0.6,0.44 -0.18,0.09 -0.38,0.16 -0.6,0.21 -0.21,0.05 -0.46,0.1 -0.72,0.15l-0.16 -0.87c0.22,-0.04 0.41,-0.08 0.58,-0.13 0.16,-0.05 0.31,-0.1 0.43,-0.18 0.23,-0.13 0.4,-0.33 0.51,-0.59l0.07 -0.18 -0.32 0 -1.87 -4.89 1.26 0 1.31 3.68 1.33 -3.68zm6.76 4.69c-0.37,0.08 -0.73,0.14 -1.08,0.19 -0.35,0.05 -0.68,0.07 -0.99,0.07 -0.42,0 -0.79,-0.06 -1.13,-0.17 -0.34,-0.11 -0.63,-0.3 -0.87,-0.57 -0.24,-0.27 -0.43,-0.63 -0.56,-1.07 -0.13,-0.45 -0.2,-1.01 -0.2,-1.69 0,-0.68 0.07,-1.25 0.2,-1.7 0.14,-0.45 0.32,-0.81 0.57,-1.07 0.24,-0.27 0.53,-0.46 0.87,-0.57 0.34,-0.11 0.72,-0.17 1.13,-0.17 0.31,0 0.64,0.02 0.98,0.07 0.34,0.05 0.69,0.11 1.07,0.19l-0.18 1c-0.35,-0.07 -0.67,-0.13 -0.97,-0.18 -0.29,-0.05 -0.56,-0.07 -0.79,-0.07 -0.27,0 -0.5,0.04 -0.7,0.12 -0.2,0.08 -0.37,0.21 -0.51,0.4 -0.14,0.19 -0.24,0.44 -0.31,0.77 -0.07,0.32 -0.1,0.73 -0.1,1.21 0,0.49 0.03,0.89 0.1,1.21 0.07,0.32 0.17,0.58 0.31,0.77 0.14,0.19 0.31,0.32 0.51,0.4 0.2,0.08 0.44,0.12 0.7,0.12 0.23,0 0.5,-0.02 0.79,-0.07 0.29,-0.05 0.62,-0.11 0.97,-0.18l0.2 0.99zm3.11 -4.77c0.53,0 0.96,0.07 1.28,0.2 0.32,0.13 0.57,0.31 0.74,0.53 0.17,0.22 0.29,0.49 0.34,0.8 0.06,0.31 0.08,0.64 0.08,1 0,0.36 -0.03,0.69 -0.08,1 -0.06,0.31 -0.17,0.58 -0.34,0.8 -0.17,0.22 -0.42,0.4 -0.74,0.53 -0.32,0.13 -0.75,0.2 -1.28,0.2 -0.53,0 -0.96,-0.07 -1.28,-0.2 -0.32,-0.13 -0.57,-0.31 -0.74,-0.53 -0.17,-0.22 -0.29,-0.49 -0.34,-0.8 -0.06,-0.31 -0.08,-0.64 -0.08,-1 0,-0.36 0.03,-0.69 0.08,-1 0.06,-0.31 0.17,-0.58 0.34,-0.8 0.17,-0.22 0.42,-0.4 0.74,-0.53 0.32,-0.13 0.75,-0.2 1.28,-0.2zm0 0.83c-0.27,0 -0.48,0.03 -0.64,0.09 -0.16,0.06 -0.29,0.16 -0.37,0.29 -0.08,0.14 -0.14,0.31 -0.17,0.53 -0.03,0.21 -0.04,0.48 -0.04,0.79 0,0.31 0.01,0.58 0.04,0.79 0.03,0.21 0.08,0.39 0.17,0.53 0.08,0.14 0.21,0.23 0.37,0.29 0.16,0.06 0.38,0.09 0.64,0.09 0.27,0 0.48,-0.03 0.65,-0.09 0.16,-0.06 0.29,-0.16 0.37,-0.29 0.08,-0.14 0.14,-0.31 0.17,-0.53 0.03,-0.21 0.04,-0.48 0.04,-0.79 0,-0.31 -0.01,-0.58 -0.04,-0.79 -0.03,-0.21 -0.08,-0.39 -0.17,-0.53 -0.08,-0.14 -0.21,-0.23 -0.37,-0.29 -0.16,-0.06 -0.38,-0.09 -0.65,-0.09zm3.51 -1.48l0 -1.13 1.27 0 0 1.13 -1.27 0zm0.01 5.62l0 -4.89 1.24 0 0 4.89 -1.24 0zm3.51 -4.47c0.38,-0.18 0.72,-0.3 1.04,-0.39 0.32,-0.08 0.61,-0.12 0.89,-0.12 0.25,0 0.48,0.03 0.69,0.1 0.22,0.07 0.4,0.17 0.56,0.3 0.16,0.14 0.28,0.31 0.37,0.52 0.09,0.21 0.13,0.45 0.13,0.73l0 3.32 -1.24 0 0 -3c0,-0.36 -0.08,-0.62 -0.22,-0.79 -0.15,-0.17 -0.37,-0.25 -0.65,-0.25 -0.18,0 -0.37,0.03 -0.59,0.09 -0.22,0.06 -0.48,0.16 -0.8,0.3l0 3.64 -1.24 0 0 -4.89 0.96 0 0.11 0.42z"/>
  <path class="fil1" d="M8.17 10.79c0,0 0,0 0,0 0.74,1.13 2.02,1.88 3.47,1.88 1.29,0 2.49,-0.59 3.27,-1.59 0.01,-0.01 0.02,-0.03 0.03,-0.04 0.24,-0.31 0.38,-0.38 0.79,-0.37l0.04 0 1.47 0 0.02 0c0.32,0.01 0.82,-0.03 0.55,0.56 -0,0 -0,0.01 -0.01,0.02 -1.05,2.37 -3.41,4.02 -6.16,4.02 -2.2,0 -4.24,-1.07 -5.5,-2.85 -0,-0 -0,-0 -0,-0 -0.04,-0.07 -0.01,-0.15 0.11,-0.15l0.01 0 0.79 0 0.01 0c0.18,0 0.21,-0 0.35,0.14 0,0 0,0 0,0 0.66,0.71 1.49,1.25 2.41,1.55l0 -0c0.02,0 0.04,0.01 0.06,0.01 0.12,0 0.22,-0.1 0.22,-0.22 0,-0.1 -0.07,-0.19 -0.17,-0.21l0 0c-0.88,-0.31 -1.66,-0.84 -2.26,-1.53 -0,-0 -0,-0 -0,-0 -0.1,-0.12 -0.15,-0.15 -0.32,-0.14l-0 0 -1.34 0c-0,0 -0,0 -0.01,0 -0.14,-0.01 -0.25,-0.06 -0.32,-0.2 -0,-0 -0,-0 -0,-0.01 -0.06,-0.11 -0.11,-0.21 -0.16,-0.32l0 0 -0 -0 -0.01 -0.03c-0.05,-0.1 -0.15,-0.18 -0.27,-0.19l0 -0 -0.72 0 0 -0c-0.14,-0 -0.25,-0.11 -0.25,-0.25 0,-0.14 0.11,-0.25 0.25,-0.25l0.01 0 1.75 0 0 0 1.53 0 0.01 0c0.13,-0 0.26,0.07 0.35,0.19zm-2.17 -1.93l0.67 0 0.53 0c0.2,0 0.37,0.17 0.37,0.37l0 0c0,0.2 -0.17,0.37 -0.37,0.37l-1.2 0c-0.02,0 -0.03,-0 -0.05,-0l-0.74 0 -0 0c-0.1,-0 -0.17,-0.05 -0.22,-0.13 -0,-0 -0,-0 -0,-0 -0.05,-0.06 -0.12,-0.1 -0.19,-0.11l-2.2 0 -0 0c-0.14,-0 -0.25,-0.11 -0.25,-0.25 0,-0.14 0.11,-0.25 0.25,-0.25l0 -0 3.41 0zm-2.37 -1.44l3.68 0c0.14,0 0.25,0.11 0.25,0.25l0 0c0,0.14 -0.11,0.25 -0.25,0.25l-3.68 0c-0.14,0 -0.25,-0.11 -0.25,-0.25l0 0c0,-0.14 0.11,-0.25 0.25,-0.25zm1.61 -1.45c0.12,-0.01 0.21,-0.08 0.27,-0.19l0.02 -0.04 0 -0 0 0c0.03,-0.06 0.06,-0.13 0.09,-0.19 0.05,-0.1 0.19,-0.14 0.23,-0.14l1.3 0c0.15,0 0.29,-0.06 0.4,-0.19 0,-0 0,-0 0,-0 0.97,-1.19 2.44,-1.96 4.1,-1.96 0.35,0 0.7,0.04 1.04,0.1l0.01 0 0 0c0.01,0 0.03,0 0.04,0 0.13,0 0.23,-0.1 0.23,-0.23 0,-0.11 -0.08,-0.21 -0.19,-0.23l0 -0c-0.38,-0.08 -0.77,-0.12 -1.17,-0.12 -1.74,0 -3.3,0.78 -4.34,2 -0,0 -0,0 -0,0 -0.08,0.1 -0.2,0.14 -0.34,0.14 -0,0 -0,0 -0,0l-0.65 0c-0,0 -0.01,0 -0.01,0 -0.18,0 -0.2,-0.14 -0.11,-0.27 0,-0 0,-0 0,-0.01 1.22,-1.72 3.23,-2.85 5.5,-2.85 2.74,0 5.1,1.64 6.15,3.99 0,0.01 0.01,0.02 0.01,0.03 0.16,0.39 -0.14,0.59 -0.34,0.57l-0.03 0 -1.82 0 -0.03 0c-0.37,0.01 -0.44,-0.09 -0.61,-0.32 -0.01,-0.01 -0.01,-0.02 -0.02,-0.02 -0.76,-1.01 -1.96,-1.66 -3.32,-1.66 -1.45,0 -2.73,0.75 -3.47,1.87 -0,0 -0.01,0.01 -0.01,0.01 -0.09,0.12 -0.22,0.19 -0.38,0.19l-0.01 0 -1.57 0 -0.97 0 -0.64 0 -0.01 0 0 -0c-0.13,-0.01 -0.24,-0.12 -0.24,-0.25 0,-0.13 0.11,-0.24 0.24,-0.25l0 -0 0.01 0 0.64 0zm9.7 2.61l-1.08 -1.83c-0.17,-0.29 -0.58,-0.29 -0.75,0l-0.89 1.52 -0.32 0.54 -0.5 0 -0.13 -0.23 0 0 -1.08 -1.83c-0.17,-0.29 -0.58,-0.29 -0.75,0l-1.08 1.83c-0.17,0.29 0.04,0.66 0.38,0.66l1.51 0 1.07 1.83c0.15,0.25 0.51,0.25 0.66,0l1.07 -1.83 1.51 0c0.34,0 0.55,-0.37 0.38,-0.66z"/>
  <rect class="fil2" width="61.91" height="17.28"/>
 </g>
</svg>
