<svg width="634" height="634" viewBox="0 0 634 634" fill="none" xmlns="http://www.w3.org/2000/svg">
<path d="M634 484.883H0V485.2H634V484.883Z" fill="#EBEBEB"/>
<path d="M407.687 502.559H365.691V502.876H407.687V502.559Z" fill="#EBEBEB"/>
<path d="M527.197 499.123H516.178V499.44H527.197V499.123Z" fill="#EBEBEB"/>
<path d="M502.876 493.518H415.486V493.835H502.876V493.518Z" fill="#EBEBEB"/>
<path d="M285.478 500.999H247.057V501.316H285.478V500.999Z" fill="#EBEBEB"/>
<path d="M235.772 500.999H211.401V501.316H235.772V500.999Z" fill="#EBEBEB"/>
<path d="M125.912 495.649H66.5194V495.966H125.912V495.649Z" fill="#EBEBEB"/>
<path d="M300.516 428.33H55.6776C53.7596 428.327 51.9213 427.563 50.5662 426.205C49.2111 424.848 48.45 423.008 48.45 421.09V76.9167C48.4667 75.0097 49.2352 73.1863 50.5885 71.8425C51.9417 70.4987 53.7705 69.7431 55.6776 69.7399H300.516C302.436 69.7399 304.278 70.5027 305.635 71.8605C306.993 73.2183 307.756 75.0599 307.756 76.9801V421.09C307.756 423.01 306.993 424.852 305.635 426.21C304.278 427.567 302.436 428.33 300.516 428.33ZM55.6776 69.9935C53.8437 69.9968 52.086 70.7277 50.7903 72.0257C49.4947 73.3237 48.767 75.0828 48.767 76.9167V421.09C48.767 422.924 49.4947 424.683 50.7903 425.981C52.086 427.279 53.8437 428.01 55.6776 428.013H300.516C302.351 428.01 304.11 427.279 305.408 425.982C306.705 424.684 307.436 422.925 307.439 421.09V76.9167C307.436 75.0816 306.705 73.3226 305.408 72.025C304.11 70.7273 302.351 69.9968 300.516 69.9935H55.6776Z" fill="#EBEBEB"/>
<path d="M574.798 428.33H329.947C328.028 428.327 326.188 427.563 324.831 426.206C323.474 424.849 322.71 423.009 322.706 421.09V76.9167C322.726 75.0086 323.498 73.1851 324.853 71.8417C326.208 70.4983 328.038 69.7431 329.947 69.7399H574.798C576.702 69.7465 578.528 70.5035 579.879 71.8469C581.229 73.1904 581.996 75.0119 582.013 76.9167V421.09C582.013 423.006 581.253 424.844 579.901 426.201C578.549 427.558 576.713 428.323 574.798 428.33ZM329.947 69.9935C328.112 69.9968 326.353 70.7273 325.055 72.025C323.757 73.3226 323.027 75.0816 323.023 76.9167V421.09C323.027 422.925 323.757 424.684 325.055 425.982C326.353 427.279 328.112 428.01 329.947 428.013H574.798C576.633 428.01 578.392 427.279 579.689 425.982C580.987 424.684 581.717 422.925 581.721 421.09V76.9167C581.717 75.0816 580.987 73.3226 579.689 72.025C578.392 70.7273 576.633 69.9968 574.798 69.9935H329.947Z" fill="#EBEBEB"/>
<path d="M72.7068 297.663H288.635V98.8658L72.7068 98.8658L72.7068 297.663Z" fill="#E6E6E6"/>
<path d="M67.5714 297.663H286.403V98.8658L67.5714 98.8658L67.5714 297.663Z" fill="#F5F5F5"/>
<path d="M277.21 287.722V108.807L76.7773 108.807V287.722H277.21Z" fill="#FAFAFA"/>
<path d="M252.447 287.709L185.04 108.807H156.662L224.069 287.709H252.447Z" fill="white"/>
<path d="M216.017 287.709L148.623 108.807H129.083L196.477 287.709H216.017Z" fill="white"/>
<path d="M155.609 287.722V108.807H144.628V287.722H155.609Z" fill="#E6E6E6"/>
<path d="M216.714 287.709V108.795H205.733V287.709H216.714Z" fill="#E6E6E6"/>
<path d="M153.631 294.011V101.402H139.759V294.011H153.631Z" fill="#F5F5F5"/>
<path d="M214.735 294.023V101.414H200.864V294.023H214.735Z" fill="#F5F5F5"/>
<path d="M77.7542 287.722L77.7542 108.807H76.7778L76.7778 287.722H77.7542Z" fill="#E6E6E6"/>
<path d="M508.075 484.871V346.38H95.1002V484.871H508.075Z" fill="#F0F0F0"/>
<path d="M491.286 402.374V357.69C491.286 355.785 489.742 354.241 487.837 354.241H115.362C113.458 354.241 111.913 355.785 111.913 357.69V402.374C111.913 404.279 113.458 405.823 115.362 405.823H487.837C489.742 405.823 491.286 404.279 491.286 402.374Z" fill="#F5F5F5"/>
<path d="M491.274 472.875V415.08C491.274 413.175 489.73 411.631 487.825 411.631H115.35C113.445 411.631 111.901 413.175 111.901 415.08V472.875C111.901 474.78 113.445 476.324 115.35 476.324H487.825C489.73 476.324 491.274 474.78 491.274 472.875Z" fill="#F5F5F5"/>
<path d="M415.333 353.378H187.841C187.841 355.157 188.548 356.864 189.806 358.121C191.064 359.379 192.77 360.086 194.549 360.086H408.625C410.404 360.086 412.11 359.379 413.368 358.121C414.626 356.864 415.333 355.157 415.333 353.378Z" fill="#F0F0F0"/>
<path d="M415.333 410.832H187.841C187.841 411.713 188.015 412.585 188.352 413.399C188.689 414.213 189.183 414.952 189.806 415.575C190.429 416.198 191.168 416.692 191.982 417.029C192.796 417.366 193.668 417.54 194.549 417.54H408.625C409.506 417.54 410.378 417.366 411.192 417.029C412.006 416.692 412.745 416.198 413.368 415.575C413.991 414.952 414.485 414.213 414.822 413.399C415.159 412.585 415.333 411.713 415.333 410.832Z" fill="#F0F0F0"/>
<path d="M538.9 484.871V346.38H508.075V484.871H538.9Z" fill="#E6E6E6"/>
<path d="M95.1002 337.846V346.38H508.075V337.846H95.1002Z" fill="#FAFAFA"/>
<path d="M471.772 325.483C471.772 328.761 473.074 331.906 475.393 334.224C477.711 336.543 480.856 337.845 484.135 337.845C487.413 337.845 490.558 336.543 492.876 334.224C495.195 331.906 496.497 328.761 496.497 325.483H471.772Z" fill="#F5F5F5"/>
<path d="M438.818 325.483C438.818 328.761 440.12 331.906 442.439 334.224C444.757 336.543 447.902 337.845 451.181 337.845C454.459 337.845 457.604 336.543 459.922 334.224C462.241 331.906 463.544 328.761 463.544 325.483H438.818Z" fill="#F5F5F5"/>
<path d="M99.5385 333.674C99.5385 335.969 109.822 337.846 122.502 337.846C135.182 337.846 145.465 335.969 145.465 333.674H99.5385Z" fill="#F5F5F5"/>
<path d="M99.5385 331.48C99.5385 333.788 109.822 335.665 122.502 335.665C135.182 335.665 145.465 333.788 145.465 331.48H99.5385Z" fill="#F5F5F5"/>
<path d="M508.075 337.846V346.38H538.9V337.846H508.075Z" fill="#E0E0E0"/>
<path d="M525.459 96.3173H450.089V194.524H525.459V96.3173Z" fill="#EBEBEB"/>
<path d="M521.947 96.3173H446.577V194.524H521.947V96.3173Z" fill="#F5F5F5"/>
<path d="M511.828 109.517H456.708V181.336H511.828V109.517Z" fill="white"/>
<path d="M353.67 223.739V299.109H472.761V223.739H353.67Z" fill="#EBEBEB"/>
<path d="M350.044 223.739V299.109H469.134V223.739H350.044Z" fill="#F5F5F5"/>
<path d="M363.244 233.857V288.977H455.935V233.857H363.244Z" fill="white"/>
<path d="M567.012 214.723H505.729V275.105H567.012V214.723Z" fill="#EBEBEB"/>
<path d="M563.5 214.723H502.217V275.105H563.5V214.723Z" fill="#F5F5F5"/>
<path d="M553.381 227.923H512.349V261.918H553.381V227.923Z" fill="white"/>
<path d="M430.6 142.511H369.318V202.893H430.6V142.511Z" fill="#EBEBEB"/>
<path d="M427.1 142.511H365.818V202.893H427.1V142.511Z" fill="#F5F5F5"/>
<path d="M416.982 155.71H375.949V189.706H416.982V155.71Z" fill="white"/>
<path d="M317 542.146C452.78 542.146 562.852 535.72 562.852 527.793C562.852 519.865 452.78 513.439 317 513.439C181.219 513.439 71.1472 519.865 71.1472 527.793C71.1472 535.72 181.219 542.146 317 542.146Z" fill="#F5F5F5"/>
<path d="M401.69 162.405H400.371V170.749H401.69V162.405Z" fill="#273879"/>
<path d="M401.69 155.621H400.422C400.415 150.762 398.48 146.103 395.043 142.668C391.606 139.233 386.946 137.302 382.086 137.299V136.031C387.278 136.047 392.253 138.116 395.925 141.786C399.597 145.456 401.669 150.429 401.69 155.621Z" fill="#273879"/>
<path d="M382.036 140.596H207.026C198.721 140.596 191.988 147.329 191.988 155.634V512.576C191.988 520.882 198.721 527.615 207.026 527.615H382.036C390.341 527.615 397.074 520.882 397.074 512.576V155.634C397.074 147.329 390.341 140.596 382.036 140.596Z" fill="#273879"/>
<path opacity="0.95" d="M390.252 512.576V155.621C390.252 150.516 386.113 146.377 381.008 146.377H205.999C200.894 146.377 196.755 150.516 196.755 155.621L196.755 512.576C196.755 517.681 200.894 521.82 205.999 521.82H381.008C386.113 521.82 390.252 517.681 390.252 512.576Z" fill="white"/>
<path d="M293.517 507.491C299.294 507.491 303.978 502.807 303.978 497.03C303.978 491.252 299.294 486.569 293.517 486.569C287.739 486.569 283.056 491.252 283.056 497.03C283.056 502.807 287.739 507.491 293.517 507.491Z" fill="#273879"/>
<path d="M285.516 145.325C285.516 147.615 286.426 149.811 288.045 151.431C289.664 153.05 291.861 153.96 294.151 153.96C296.441 153.96 298.638 153.05 300.257 151.431C301.876 149.811 302.786 147.615 302.786 145.325H285.516Z" fill="#273879"/>
<path opacity="0.7" d="M350.615 182.794H237.763C233.16 182.808 228.749 184.642 225.494 187.897C222.239 191.152 220.405 195.563 220.391 200.166V211.756C220.405 216.359 222.239 220.769 225.494 224.024C228.749 227.279 233.16 229.114 237.763 229.127H350.615L367.987 239.423V200.115C367.957 195.522 366.115 191.126 362.862 187.883C359.61 184.64 355.208 182.811 350.615 182.794Z" fill="#DCC181"/>
<path d="M347.47 199.393H240.844V202.284H347.47V199.393Z" fill="white"/>
<path d="M347.47 209.638H261.36V212.529H347.47V209.638Z" fill="white"/>
<path opacity="0.15" d="M237.699 259.94H350.551C355.154 259.953 359.565 261.788 362.82 265.043C366.075 268.298 367.909 272.708 367.923 277.312V288.888C367.909 293.492 366.075 297.902 362.82 301.157C359.565 304.412 355.154 306.247 350.551 306.26H237.699L220.328 316.556V277.248C220.354 272.655 222.195 268.259 225.449 265.017C228.703 261.775 233.106 259.95 237.699 259.94Z" fill="#737EA5"/>
<path opacity="0.5" d="M347.47 276.525H240.844V279.416H347.47V276.525Z" fill="#273879"/>
<path opacity="0.5" d="M290.296 286.784H240.844V289.675H290.296V286.784Z" fill="#273879"/>
<path opacity="0.5" d="M318.128 286.784H298.018V289.675H318.128V286.784Z" fill="#273879"/>
<path opacity="0.7" d="M350.615 337.072H237.763C233.16 337.086 228.749 338.92 225.494 342.175C222.239 345.43 220.405 349.841 220.391 354.444V366.021C220.402 370.625 222.235 375.038 225.491 378.293C228.746 381.549 233.159 383.382 237.763 383.392H350.615L367.987 393.688V354.38C367.953 349.789 366.11 345.397 362.858 342.156C359.606 338.916 355.206 337.089 350.615 337.072Z" fill="#DCC181"/>
<path d="M347.47 353.658H240.844V356.549H347.47V353.658Z" fill="white"/>
<path d="M347.47 363.916H261.36V366.807H347.47V363.916Z" fill="white"/>
<path opacity="0.15" d="M237.699 414.205H281.61C286.212 414.222 290.621 416.057 293.875 419.311C297.129 422.566 298.965 426.974 298.982 431.576V443.166C298.965 447.768 297.129 452.177 293.875 455.431C290.621 458.685 286.212 460.521 281.61 460.538H237.699L220.328 470.821V431.576C220.341 426.973 222.175 422.563 225.43 419.308C228.685 416.053 233.096 414.218 237.699 414.205Z" fill="#273879"/>
<path opacity="0.5" d="M246.499 437.37C246.499 438.374 246.201 439.354 245.644 440.188C245.087 441.022 244.295 441.672 243.368 442.056C242.441 442.44 241.421 442.541 240.437 442.345C239.453 442.149 238.55 441.666 237.84 440.957C237.131 440.247 236.648 439.344 236.452 438.36C236.257 437.376 236.357 436.356 236.741 435.429C237.125 434.503 237.775 433.71 238.609 433.153C239.443 432.596 240.424 432.298 241.427 432.298C242.767 432.315 244.047 432.854 244.995 433.802C245.943 434.75 246.482 436.03 246.499 437.37Z" fill="#273879"/>
<path opacity="0.5" d="M256.758 438.398C259.594 438.398 261.893 436.098 261.893 433.262C261.893 430.426 259.594 428.127 256.758 428.127C253.921 428.127 251.622 430.426 251.622 433.262C251.622 436.098 253.921 438.398 256.758 438.398Z" fill="#273879"/>
<path opacity="0.5" d="M277.273 443.521C277.273 444.524 276.976 445.505 276.419 446.339C275.861 447.173 275.069 447.823 274.142 448.207C273.216 448.591 272.196 448.691 271.212 448.495C270.228 448.3 269.324 447.817 268.615 447.107C267.906 446.398 267.422 445.494 267.227 444.51C267.031 443.526 267.132 442.507 267.515 441.58C267.899 440.653 268.549 439.861 269.383 439.304C270.218 438.746 271.198 438.449 272.201 438.449C273.547 438.449 274.837 438.983 275.788 439.934C276.739 440.885 277.273 442.176 277.273 443.521Z" fill="#273879"/>
<path d="M436.611 425.033C438.006 427.81 439.248 430.6 440.555 433.389C441.861 436.179 443.091 439.019 444.257 441.86C445.424 444.7 446.641 447.553 447.757 450.457C448.873 453.36 450.001 456.264 451.028 459.333L446.489 455.06C449.136 455.964 451.909 456.443 454.705 456.48C457.95 456.567 461.196 456.419 464.418 456.036C467.766 455.681 471.139 455.123 474.562 454.489C477.986 453.855 481.41 453.069 484.706 452.295L487.711 459.599C484.412 461.413 480.998 463.01 477.491 464.379C473.979 465.789 470.384 466.983 466.726 467.955C462.923 468.98 459.036 469.659 455.111 469.984C450.733 470.409 446.315 470.048 442.063 468.919L439.084 468.095L437.461 464.608C435.026 459.269 432.389 453.792 429.853 448.326C428.585 445.588 427.253 442.836 425.985 440.084C424.717 437.333 423.449 434.569 422.181 431.804L436.611 425.033Z" fill="#FFC3BD"/>
<path d="M480.572 454.527L485.555 449.658L493.467 458.217C493.467 458.217 490.602 463.226 483.476 460.309L480.572 454.527Z" fill="#FFC3BD"/>
<path d="M493.075 446.437L497.437 453.551L493.481 458.217L485.569 449.658L493.075 446.437Z" fill="#FFC3BD"/>
<path d="M414.219 413.635C424.362 409.717 432.224 415.562 445.044 431.742L430.03 447.173C430.03 447.173 394.438 421.217 414.219 413.635Z" fill="#263238"/>
<path opacity="0.2" d="M433.264 430.372C428.471 427.266 424.299 428.14 420.774 431.031C422.105 435.964 425.516 441.619 428.8 446.247C429.574 446.856 430.068 447.186 430.068 447.186L438.437 438.576C438.219 436.916 437.643 435.323 436.75 433.907C435.857 432.491 434.667 431.285 433.264 430.372Z" fill="black"/>
<path d="M491.477 521.199L503.625 519.791L502.611 494.888L490.476 496.283L491.477 521.199Z" fill="#FFC3BD"/>
<path d="M503.727 514.554L490.045 514.744C489.823 514.756 489.612 514.846 489.451 515C489.291 515.154 489.191 515.36 489.17 515.581L487.623 526.347C487.577 526.601 487.587 526.862 487.651 527.112C487.715 527.362 487.832 527.596 487.995 527.797C488.157 527.997 488.361 528.161 488.592 528.276C488.823 528.391 489.077 528.456 489.335 528.464C493.582 528.325 495.535 528.008 500.899 527.919C504.208 527.919 514.175 528.109 518.74 528.046C523.304 527.982 523.609 522.974 521.719 522.53C513.237 520.628 508.355 517.902 505.527 515.264C505.044 514.799 504.397 514.543 503.727 514.554Z" fill="#263238"/>
<path d="M506.63 511.384C506.821 511.311 507.027 511.286 507.23 511.31C507.433 511.335 507.628 511.408 507.797 511.523C507.93 511.59 508.046 511.688 508.132 511.81C508.218 511.931 508.273 512.073 508.291 512.221C508.443 513.489 505.755 515.771 505.387 516.025C505.35 516.052 505.306 516.066 505.26 516.066C505.215 516.066 505.171 516.052 505.134 516.025C505.091 516.002 505.056 515.967 505.033 515.924C505.01 515.881 505.001 515.832 505.007 515.784C505.096 514.414 505.413 511.98 506.49 511.435L506.63 511.384ZM505.527 515.264C506.592 514.338 507.911 512.944 507.822 512.246C507.822 512.17 507.822 512.056 507.606 511.955C507.481 511.863 507.334 511.808 507.179 511.795C507.025 511.781 506.87 511.81 506.731 511.879C506.148 512.196 505.704 513.451 505.527 515.264Z" fill="#273879"/>
<path d="M506.503 514.808C506.951 514.572 507.443 514.428 507.948 514.384C508.453 514.341 508.962 514.399 509.444 514.555C509.61 514.659 509.738 514.814 509.809 514.997C509.879 515.18 509.89 515.38 509.838 515.569C509.811 515.747 509.744 515.917 509.64 516.065C509.537 516.212 509.4 516.333 509.242 516.419C507.974 517.116 505.285 516.076 505.171 516.038C505.132 516.02 505.097 515.994 505.068 515.961C505.04 515.928 505.019 515.89 505.007 515.848C504.998 515.807 505.001 515.764 505.014 515.724C505.027 515.684 505.051 515.648 505.083 515.62C505.506 515.27 505.986 514.995 506.503 514.808ZM508.861 516.076L509.001 516.013C509.1 515.955 509.186 515.877 509.251 515.782C509.317 515.688 509.361 515.581 509.381 515.468C509.381 515.163 509.318 515.049 509.216 514.998C508.608 514.605 506.744 515.113 505.742 515.759C506.732 516.153 507.812 516.263 508.861 516.076Z" fill="#273879"/>
<path opacity="0.2" d="M490.476 496.295L502.611 494.888L503.13 507.733L490.932 507.783L490.476 496.295Z" fill="black"/>
<path d="M430.917 481.84C430.917 481.84 462.44 452.523 482.905 452.08C497.842 451.763 508.519 501.164 508.519 501.164L490.767 501.506C490.767 501.506 487.648 484.033 476.046 479.215C459.283 504.372 390.95 554.09 397.429 500.188C407.573 496.371 430.917 481.84 430.917 481.84Z" fill="#273879"/>
<path opacity="0.2" d="M430.917 481.84C430.917 481.84 462.44 452.523 482.905 452.08C497.842 451.763 508.519 501.164 508.519 501.164L490.767 501.506C490.767 501.506 487.648 484.033 476.046 479.215C459.283 504.372 390.95 554.09 397.429 500.188C407.573 496.371 430.917 481.84 430.917 481.84Z" fill="black"/>
<path d="M508.456 503.612L487.585 505.615L487.648 498.007L509.724 495.383L508.456 503.612Z" fill="#263238"/>
<path d="M389.53 502.052C389.53 502.052 375.975 475.576 374.314 432.933C373.934 422.891 382.975 413.419 393.334 412.886C402.033 412.43 411.238 412.316 418.694 412.341C426.15 412.366 431.856 417.312 432.706 424.488C434.582 440.313 434.912 464.342 444.612 492.96L389.53 502.052Z" fill="#263238"/>
<path opacity="0.2" d="M380.666 433.148C388.135 424.716 390.709 427.404 391.825 428.419C402.172 437.789 386.981 466.966 383.938 471.265C381.8 460.368 380.528 449.318 380.134 438.22C380.056 436.513 380.236 434.803 380.666 433.148Z" fill="black"/>
<path d="M403.427 387.539C402.59 395.312 400.536 407.244 395.249 412.785C399.408 416.703 406.179 420.558 415.803 422.168C420.773 420.114 421.433 415.537 419.024 412.354C410.528 410.87 410.629 408.461 413.837 403.047L403.427 387.539Z" fill="#FFC3BD"/>
<path opacity="0.2" d="M407.676 393.866L413.838 403.034C413.021 404.295 412.385 405.665 411.949 407.104C408.931 405.836 405.609 401.22 406.268 397.822C406.499 396.43 406.975 395.091 407.676 393.866Z" fill="black"/>
<path d="M425.693 373.211C430.677 378.498 441.15 378.524 436.649 372.26C432.147 365.996 421.813 369.09 425.693 373.211Z" fill="#263238"/>
<path d="M405.494 372.639C402.717 382.783 400.587 388.464 403.745 395.463C404.703 397.746 406.272 399.721 408.278 401.172C410.285 402.622 412.652 403.493 415.12 403.688C417.588 403.883 420.063 403.395 422.272 402.278C424.481 401.16 426.341 399.456 427.646 397.353C432.718 389.339 436.446 374.186 428.318 366.49C426.635 364.77 424.523 363.529 422.201 362.896C419.879 362.262 417.43 362.258 415.107 362.885C412.783 363.511 410.667 364.744 408.978 366.459C407.289 368.173 406.086 370.306 405.494 372.639Z" fill="#FFC3BD"/>
<path d="M403.224 382.048C404.492 381.82 410.756 379.918 413.812 376.976C417.248 373.667 417.274 370.459 416.348 369C415.422 367.542 408.169 364.74 404.784 365.387C399.433 366.414 400.752 375.886 400.828 378.447C400.868 379.207 401.112 379.942 401.533 380.575C401.955 381.209 402.539 381.717 403.224 382.048Z" fill="#FFC3BD"/>
<path opacity="0.7" d="M403.224 382.048C404.492 381.82 410.756 379.918 413.812 376.976C417.248 373.667 417.274 370.459 416.348 369C415.422 367.542 408.169 364.74 404.784 365.387C399.433 366.414 400.752 375.886 400.828 378.447C400.868 379.207 401.112 379.942 401.533 380.575C401.955 381.209 402.539 381.717 403.224 382.048Z" fill="#263238"/>
<path d="M397.912 382.746C398.898 384.925 400.668 386.654 402.87 387.589C405.786 388.769 407.447 386.321 406.813 383.341C406.243 380.717 404.036 376.925 401.031 377.001C398.026 377.078 396.72 380.057 397.912 382.746Z" fill="#FFC3BD"/>
<path d="M407.447 368.418C420.381 371.182 429.574 378.46 435.686 374.086C440.009 370.992 437.169 365.349 432.211 361.266C427.976 357.779 422.067 356.701 420.292 353.848C420.085 354.797 420.165 355.786 420.522 356.689C420.879 357.592 421.496 358.369 422.296 358.92C422.296 358.92 410.617 357.12 407.384 354.077C406.61 355.89 409.603 359.39 409.603 359.39C409.603 359.39 406.306 362.521 396.923 358.984C397.481 362.014 400.093 366.845 407.447 368.418Z" fill="#263238"/>
<path d="M433.137 375.112H432.63V374.453C433.747 374.592 434.879 374.361 435.852 373.795C436.826 373.23 437.587 372.361 438.019 371.321C438.504 369.932 438.54 368.425 438.121 367.014C437.703 365.603 436.851 364.359 435.686 363.46C434.566 362.588 433.344 361.855 432.047 361.279C429.041 359.77 425.631 358.058 423.982 353.075L424.603 352.872C426.163 357.589 429.308 359.212 432.351 360.683C433.706 361.287 434.984 362.053 436.155 362.965C437.436 363.946 438.372 365.308 438.828 366.856C439.284 368.404 439.236 370.056 438.691 371.575C438.246 372.667 437.472 373.594 436.477 374.228C435.482 374.862 434.315 375.171 433.137 375.112Z" fill="#263238"/>
<path d="M420.152 382.493C419.873 383.292 420.076 384.116 420.583 384.319C421.091 384.522 421.737 384.04 422.016 383.241C422.295 382.442 422.092 381.618 421.585 381.415C421.078 381.212 420.419 381.669 420.152 382.493Z" fill="#263238"/>
<path d="M429.713 385.383C429.447 386.182 429.637 386.993 430.157 387.196C430.676 387.399 431.31 386.93 431.577 386.119C431.843 385.307 431.666 384.508 431.146 384.293C430.626 384.077 429.992 384.572 429.713 385.383Z" fill="#263238"/>
<path d="M426.2 384.407C426.3 387.247 426.777 390.062 427.62 392.776C425.769 393.536 423.601 391.989 423.601 391.989L426.2 384.407Z" fill="#ED847E"/>
<path d="M418.441 393.917C416.723 392.97 415.447 391.385 414.89 389.504C414.881 389.473 414.878 389.441 414.882 389.409C414.886 389.377 414.897 389.346 414.913 389.318C414.93 389.291 414.953 389.267 414.979 389.249C415.006 389.231 415.036 389.218 415.068 389.212C415.099 389.205 415.132 389.204 415.164 389.21C415.196 389.215 415.227 389.227 415.254 389.245C415.281 389.263 415.305 389.286 415.323 389.313C415.341 389.34 415.353 389.371 415.359 389.403C415.684 390.425 416.235 391.361 416.97 392.143C417.705 392.924 418.606 393.53 419.607 393.917C419.669 393.942 419.719 393.991 419.745 394.053C419.771 394.114 419.772 394.184 419.747 394.246C419.739 394.277 419.724 394.306 419.703 394.331C419.683 394.355 419.657 394.375 419.628 394.388C419.599 394.402 419.567 394.409 419.535 394.408C419.503 394.408 419.471 394.4 419.442 394.386C419.098 394.252 418.764 394.095 418.441 393.917Z" fill="#263238"/>
<path d="M417.553 377.243C417.475 377.201 417.409 377.14 417.362 377.065C417.29 376.956 417.264 376.822 417.29 376.694C417.317 376.566 417.393 376.453 417.502 376.381C418.145 375.945 418.886 375.677 419.658 375.599C420.431 375.522 421.211 375.638 421.927 375.937C421.988 375.964 422.043 376.003 422.089 376.052C422.134 376.101 422.17 376.158 422.193 376.22C422.217 376.283 422.228 376.349 422.226 376.416C422.224 376.482 422.208 376.548 422.181 376.609C422.156 376.667 422.12 376.72 422.074 376.764C422.029 376.808 421.975 376.842 421.915 376.865C421.856 376.887 421.793 376.898 421.73 376.895C421.666 376.892 421.604 376.877 421.547 376.85C420.975 376.628 420.358 376.548 419.749 376.617C419.139 376.685 418.556 376.9 418.047 377.243C417.972 377.286 417.887 377.309 417.8 377.309C417.713 377.309 417.628 377.286 417.553 377.243Z" fill="#263238"/>
<path d="M432.972 383.012C432.894 382.985 432.823 382.94 432.766 382.881C432.709 382.821 432.666 382.749 432.643 382.669C432.48 382.052 432.178 381.479 431.761 380.996C431.343 380.513 430.821 380.131 430.233 379.88C430.108 379.836 430.004 379.746 429.942 379.628C429.881 379.511 429.867 379.374 429.904 379.246C429.919 379.184 429.948 379.127 429.987 379.077C430.026 379.027 430.076 378.986 430.132 378.956C430.188 378.926 430.25 378.908 430.313 378.903C430.376 378.899 430.44 378.907 430.5 378.929C431.246 379.229 431.912 379.7 432.445 380.303C432.978 380.906 433.362 381.625 433.568 382.403C433.59 382.465 433.599 382.53 433.594 382.595C433.59 382.66 433.573 382.724 433.543 382.782C433.513 382.84 433.472 382.891 433.422 382.933C433.372 382.975 433.314 383.006 433.251 383.025C433.159 383.046 433.062 383.041 432.972 383.012Z" fill="#263238"/>
<path d="M533.613 527.12L540.841 516.609L521.377 499.656L514.149 510.167L533.613 527.12Z" fill="#FFC3BD"/>
<path d="M535.845 511.638L527.362 522.2C527.213 522.378 527.132 522.602 527.132 522.834C527.132 523.066 527.213 523.29 527.362 523.468L533.968 531.685C534.125 531.88 534.324 532.038 534.55 532.147C534.776 532.255 535.023 532.312 535.274 532.312C535.525 532.312 535.772 532.255 535.998 532.147C536.225 532.038 536.423 531.88 536.58 531.685C539.256 528.236 541.043 525.586 544.48 521.3C546.597 518.662 553.254 510.953 556.183 507.352C559.112 503.751 555.765 500.2 554.231 501.418C547.345 506.857 541.221 510.192 537.518 510.699C536.863 510.793 536.267 511.128 535.845 511.638Z" fill="#263238"/>
<path d="M535.286 507.301C535.348 507.106 535.453 506.926 535.593 506.777C535.734 506.628 535.906 506.512 536.098 506.439C536.231 506.37 536.379 506.334 536.529 506.334C536.679 506.334 536.827 506.37 536.96 506.439C538.114 507.111 538.228 510.636 538.228 511.042C538.227 511.089 538.211 511.134 538.184 511.172C538.157 511.211 538.12 511.24 538.076 511.258C538.036 511.282 537.99 511.295 537.943 511.295C537.896 511.295 537.85 511.282 537.81 511.258C536.77 510.37 535.045 508.722 535.274 507.454C535.271 507.403 535.275 507.351 535.286 507.301ZM537.734 510.509C537.632 509.089 537.315 507.213 536.707 506.858C536.647 506.829 536.582 506.813 536.516 506.813C536.45 506.813 536.385 506.829 536.326 506.858C536.181 506.908 536.051 506.996 535.948 507.111C535.846 507.227 535.776 507.366 535.743 507.517C535.654 508.176 536.364 509.279 537.734 510.509Z" fill="#273879"/>
<path d="M537.974 509.457C538.266 508.379 538.824 507.212 539.521 506.921C539.705 506.85 539.906 506.839 540.096 506.892C540.286 506.944 540.453 507.057 540.574 507.212C540.7 507.342 540.795 507.498 540.853 507.669C540.91 507.84 540.927 508.022 540.904 508.202C540.726 509.596 538.266 511.169 538.152 511.232C538.116 511.254 538.074 511.266 538.032 511.266C537.989 511.266 537.947 511.254 537.911 511.232C537.871 511.219 537.836 511.193 537.811 511.159C537.786 511.125 537.772 511.084 537.772 511.042C537.75 510.506 537.819 509.97 537.974 509.457ZM540.384 508.303C540.384 508.303 540.384 508.214 540.384 508.163C540.399 508.05 540.388 507.935 540.351 507.827C540.313 507.719 540.251 507.621 540.168 507.542C539.965 507.314 539.813 507.327 539.699 507.377C539.027 507.631 538.317 509.431 538.228 510.611C539.144 510.053 539.89 509.255 540.384 508.303Z" fill="#273879"/>
<path opacity="0.2" d="M514.149 510.167L521.377 499.656L531.42 508.392L523.127 517.991L514.149 510.167Z" fill="black"/>
<path d="M409.324 498.185C409.324 498.185 464.735 441.886 489.677 465.978C505.21 480.991 528.034 501.672 528.034 501.672L514.809 514.542C514.809 514.542 481.308 496.727 472.584 486.887C426.81 538.064 385.904 541.563 389.581 502.103C396.07 500.37 402.665 499.061 409.324 498.185Z" fill="#273879"/>
<path d="M531.977 501.786L517.446 520.045L511.283 515.911L526.132 496.523L531.977 501.786Z" fill="#263238"/>
<path d="M389.72 429.357L390.81 452.435C391.013 456.239 391.254 460.043 391.546 463.847C391.698 465.711 391.901 467.549 392.104 469.312C392.218 470.2 392.332 471.062 392.472 471.848C392.611 472.634 392.763 473.37 392.865 473.813C392.87 473.881 392.87 473.949 392.865 474.016C392.656 473.639 392.36 473.318 392.002 473.078C391.795 472.928 391.564 472.817 391.318 472.748C391.178 472.748 391.102 472.748 391.166 472.748C392.203 472.908 393.264 472.839 394.272 472.545C397.626 471.709 400.892 470.549 404.023 469.084C407.409 467.6 410.782 465.888 414.167 464.113C417.553 462.338 420.938 460.449 424.222 458.61L428.965 464.95C423.02 470.483 416.562 475.438 409.678 479.748C407.916 480.825 406.09 481.865 404.163 482.842C402.15 483.88 400.06 484.762 397.911 485.479C396.689 485.883 395.439 486.196 394.171 486.417C392.612 486.708 391.021 486.785 389.441 486.646C388.42 486.55 387.415 486.329 386.449 485.986C385.284 485.576 384.189 484.991 383.202 484.249C382.174 483.452 381.287 482.487 380.578 481.396C380.254 480.897 379.966 480.376 379.715 479.836L379.234 478.67C378.788 477.462 378.411 476.23 378.105 474.98C377.826 473.851 377.598 472.799 377.395 471.747C376.977 469.654 376.66 467.613 376.381 465.597C375.797 461.565 375.379 457.583 375.024 453.614C374.314 445.676 373.895 437.828 373.756 429.852L389.72 429.357Z" fill="#FFC3BD"/>
<path d="M385.828 414.484C379.855 415.156 370.916 420.824 370.612 447.173L396.225 445.157C396.225 445.157 408.297 411.91 385.828 414.484Z" fill="#263238"/>
<path d="M445.766 445.258L436.256 445.88C435.695 445.958 435.17 446.202 434.749 446.582C434.329 446.962 434.032 447.459 433.898 448.01L429.447 468.907C429.371 469.134 429.354 469.377 429.397 469.612C429.439 469.848 429.54 470.069 429.69 470.256C429.84 470.443 430.035 470.589 430.256 470.681C430.477 470.773 430.718 470.808 430.956 470.783L440.466 470.162C441.028 470.087 441.555 469.844 441.976 469.463C442.397 469.083 442.693 468.584 442.824 468.032L447.275 447.135C447.35 446.908 447.368 446.665 447.325 446.429C447.283 446.194 447.182 445.972 447.032 445.786C446.882 445.599 446.687 445.453 446.466 445.361C446.245 445.269 446.004 445.234 445.766 445.258Z" fill="#273879"/>
<path d="M424.996 458.116L432.871 455.377L430.931 467.715C430.931 467.715 422.156 469.642 421.433 464.925L422.701 460.728C422.861 460.147 423.151 459.611 423.549 459.158C423.946 458.706 424.441 458.349 424.996 458.116Z" fill="#FFC3BD"/>
<path d="M441.873 456.417L438.462 467.398L430.93 467.715L432.87 455.377L441.873 456.417Z" fill="#FFC3BD"/>
<path d="M169.125 197.808C162.937 183.442 196.679 168.403 206.214 190.771C222.407 197.808 201.713 227.733 206.392 232.805C211.071 237.877 214.596 231.727 214.596 231.727C214.596 231.727 219.325 244.331 207.267 254.424C196.463 263.49 163.965 265.95 163.888 248.084C163.787 224.854 177.24 216.638 169.125 197.808Z" fill="#263238"/>
<path d="M200.153 499.414L191.074 504.702L169.277 479.786L180.588 469.578L200.153 499.414Z" fill="#FFC3BD"/>
<path d="M190.034 502.42L199.405 495.23C199.551 495.099 199.741 495.027 199.937 495.027C200.134 495.027 200.324 495.099 200.47 495.23L206.683 501.368C206.835 501.539 206.949 501.741 207.017 501.96C207.085 502.179 207.106 502.41 207.079 502.638C207.051 502.865 206.976 503.084 206.857 503.281C206.739 503.477 206.58 503.646 206.392 503.777C203.095 506.224 201.383 507.251 197.262 510.421C194.726 512.361 189.654 516.622 186.18 519.297C182.705 521.973 180.068 518.891 181.298 517.484C186.852 511.144 188.056 507.34 188.906 503.954C189.098 503.33 189.496 502.789 190.034 502.42Z" fill="#263238"/>
<path d="M187.93 506.173C187.278 506.781 186.445 507.159 185.559 507.251C185.347 507.242 185.141 507.181 184.96 507.073C184.778 506.964 184.626 506.812 184.519 506.63C184.457 506.515 184.424 506.386 184.424 506.256C184.424 506.125 184.457 505.996 184.519 505.882C185.153 504.614 189.667 503.612 190.174 503.498C190.223 503.49 190.273 503.497 190.318 503.517C190.363 503.537 190.401 503.57 190.428 503.612C190.452 503.654 190.465 503.702 190.465 503.751C190.465 503.8 190.452 503.848 190.428 503.891C189.666 504.726 188.83 505.49 187.93 506.173ZM185.242 505.704C185.109 505.795 185 505.917 184.925 506.059C184.896 506.102 184.881 506.153 184.881 506.205C184.881 506.257 184.896 506.307 184.925 506.351C184.991 506.473 185.087 506.576 185.205 506.649C185.323 506.723 185.458 506.764 185.597 506.769C186.421 506.769 187.854 505.831 189.477 504.132C187.988 504.42 186.557 504.951 185.242 505.704Z" fill="#273879"/>
<path d="M190.314 503.916H190.213C188.945 504.259 185.686 504.081 185.141 503.08C185.027 502.851 184.989 502.458 185.496 501.989C185.857 501.653 186.333 501.467 186.827 501.469C188.488 501.469 190.264 503.435 190.327 503.523C190.348 503.558 190.36 503.597 190.36 503.637C190.36 503.678 190.348 503.717 190.327 503.752C190.339 503.807 190.335 503.864 190.314 503.916ZM185.952 502.281L185.838 502.382C185.508 502.686 185.585 502.839 185.61 502.889C185.914 503.498 188.235 503.79 189.68 503.587C188.924 502.76 187.917 502.203 186.815 502.002C186.504 501.995 186.2 502.093 185.952 502.281Z" fill="#273879"/>
<path d="M167.147 249.897C166.551 252.624 165.879 255.083 165.118 257.632C164.358 260.181 163.571 262.704 162.658 265.139C160.904 270.141 158.846 275.032 156.496 279.784L154.632 283.335C153.96 284.501 153.364 285.668 152.603 286.822L151.513 288.533C151.132 289.117 150.841 289.637 150.321 290.321C150.067 290.651 149.814 290.981 149.471 291.374C149.04 291.881 148.556 292.34 148.026 292.743C147.385 293.234 146.645 293.58 145.857 293.757C145.491 293.84 145.117 293.882 144.742 293.884C144.282 293.889 143.825 293.825 143.385 293.694C142.562 293.472 141.814 293.034 141.217 292.426C140.618 291.827 140.182 291.085 139.949 290.27C139.831 289.895 139.75 289.508 139.708 289.117C139.608 288.202 139.608 287.28 139.708 286.365C139.796 285.604 139.923 284.894 140.05 284.209C140.304 282.827 140.633 281.534 140.976 280.241C141.688 277.695 142.534 275.19 143.512 272.734L148.584 273.85L148.241 281.458C148.241 282.726 148.165 283.918 148.152 285.084C148.152 285.668 148.152 286.238 148.152 286.745C148.15 287.11 148.201 287.473 148.305 287.823C148.305 287.823 148.305 287.823 148.305 287.595C148.148 287.115 147.878 286.68 147.518 286.327C147.027 285.827 146.416 285.46 145.743 285.262C145.379 285.164 145.005 285.108 144.627 285.097C144.329 285.102 144.032 285.136 143.74 285.198C143.286 285.309 142.856 285.503 142.472 285.769C142.206 285.959 142.307 285.858 142.358 285.769L142.649 285.275L144.348 282.231C144.919 281.166 145.439 280.076 145.997 278.998L147.557 275.701C149.535 271.225 151.361 266.622 152.882 261.931C153.668 259.585 154.391 257.214 155.114 254.843C155.837 252.471 156.483 250.024 157.054 247.78L167.147 249.897Z" fill="#FFC3BD"/>
<path d="M162.81 236.697C159.133 237.293 153.3 260.663 153.3 260.663L161.783 267.193C161.783 267.193 170.292 250.303 170.659 242.708C170.913 237.205 165.587 236.254 162.81 236.697Z" fill="#FFC3BD"/>
<path d="M149.51 274.978L148.077 263.363L141.42 273.127C141.703 274.304 142.323 275.373 143.203 276.203C144.083 277.034 145.186 277.591 146.378 277.806L149.51 274.978Z" fill="#FFC3BD"/>
<path d="M196.033 519.132L185.889 519.475L183.949 484.072L198.024 484.275L196.033 519.132Z" fill="#FFC3BD"/>
<path d="M185.204 516.241L196.615 516.165C196.806 516.158 196.993 516.225 197.135 516.353C197.277 516.481 197.363 516.659 197.376 516.85L198.061 525.84C198.068 526.312 197.888 526.767 197.56 527.107C197.232 527.447 196.783 527.643 196.311 527.653C192.355 527.653 190.453 527.387 185.457 527.425C182.376 527.425 177.849 527.792 173.614 527.83C169.379 527.868 169.417 523.659 171.217 523.266C179.269 521.503 180.677 519.145 183.504 516.926C183.982 516.519 184.578 516.279 185.204 516.241Z" fill="#263238"/>
<path d="M162.19 236.622C162.19 236.622 157.118 237.89 157.118 297.905L197.808 301.506C199.849 284.781 201.498 274.497 214.976 240.997C209.446 239.304 203.796 238.032 198.074 237.193C191.968 236.2 185.797 235.653 179.612 235.557C171.497 235.57 162.19 236.622 162.19 236.622Z" fill="#273879"/>
<path opacity="0.2" d="M206.899 248.655L209.067 256.047C207.368 260.625 205.961 264.67 204.781 268.309C203.883 261.683 204.609 254.938 206.899 248.655Z" fill="black"/>
<path d="M148.077 263.363L141.42 273.127L149.51 272.658L153.821 263.731L148.077 263.363Z" fill="#FFC3BD"/>
<path d="M152.299 285.82L159.907 285.706C160.157 285.701 160.404 285.643 160.631 285.536C160.857 285.429 161.059 285.275 161.222 285.085C161.385 284.894 161.505 284.671 161.576 284.431C161.647 284.19 161.665 283.938 161.631 283.689L159.26 266.635C159.204 266.207 158.992 265.815 158.664 265.534C158.336 265.253 157.916 265.103 157.485 265.113L149.877 265.227C149.626 265.228 149.379 265.283 149.151 265.388C148.924 265.493 148.721 265.646 148.558 265.836C148.394 266.026 148.273 266.248 148.204 266.489C148.134 266.73 148.116 266.983 148.153 267.231L150.524 284.285C150.58 284.714 150.792 285.108 151.119 285.391C151.446 285.674 151.866 285.826 152.299 285.82Z" fill="#263238"/>
<path d="M199.596 216.08C197.453 221.963 194.524 232.817 198.011 237.179C191.946 242.25 185.148 246.376 177.85 249.415C173.602 239.5 179.549 235.543 179.549 235.543C186.434 234.542 187.068 229.571 186.663 224.816L199.596 216.08Z" fill="#FFC3BD"/>
<path d="M171.725 209.334C170.66 226.947 160.072 231.994 162.558 241.034C166.07 253.714 180.398 243.786 180.398 243.786C180.398 243.786 172.6 246.322 172.106 240.159C171.7 235.087 189.705 235.874 184.709 223.942C181.501 216.258 171.725 209.334 171.725 209.334Z" fill="#263238"/>
<path opacity="0.2" d="M195.906 220.531L186.675 224.817C186.776 225.93 186.776 227.051 186.675 228.164C188.602 228.342 193.598 226.896 195.488 223.777C196.011 222.78 196.16 221.628 195.906 220.531Z" fill="black"/>
<path d="M201.193 199.52C202.118 209.512 202.727 213.734 198.505 219.592C192.165 228.405 179.675 227.365 175.782 217.83C172.27 209.258 171.344 194.346 180.436 188.907C182.433 187.694 184.708 187.013 187.043 186.928C189.378 186.842 191.696 187.356 193.776 188.42C195.857 189.484 197.631 191.062 198.929 193.005C200.227 194.948 201.006 197.191 201.193 199.52Z" fill="#FFC3BD"/>
<path d="M198.986 189.49C191.099 184.075 184.544 194.473 198.543 204.579C212.541 214.685 207.951 195.64 198.986 189.49Z" fill="#263238"/>
<path d="M194.789 186.586C198.048 189.515 178.648 200.319 168.098 196.73C157.548 193.142 166.019 185.09 169.861 184.05C166.564 187.233 172.333 192.064 175.123 189.046C177.912 186.028 188.247 180.716 194.789 186.586Z" fill="#263238"/>
<path d="M157.067 297.903C157.067 297.903 135.6 388.806 137.489 411.757C139.683 438.588 169.024 481.839 169.024 481.839L182.503 469.603C182.503 469.603 169.126 434.175 159.223 411.098C162.393 388.02 190.415 322.82 190.415 300.858L157.067 297.903Z" fill="#273879"/>
<path opacity="0.6" d="M157.067 297.903C157.067 297.903 135.6 388.806 137.489 411.757C139.683 438.588 169.024 481.839 169.024 481.839L182.503 469.603C182.503 469.603 169.126 434.175 159.223 411.098C162.393 388.02 190.415 322.82 190.415 300.858L157.067 297.903Z" fill="black"/>
<path d="M184.988 471.43L169.062 483.298L164.979 480.192L182.452 466.408L184.988 471.43Z" fill="#273879"/>
<path opacity="0.2" d="M172.956 337.884C161.125 354.266 160.555 384.394 161.29 401.284C165.348 385.738 173.856 362.521 180.64 341.599C180.475 333.585 178.484 330.212 172.956 337.884Z" fill="black"/>
<path d="M164.7 297.98C164.7 297.98 172.562 376.482 175.186 402.983C178.306 434.442 182.883 484.896 182.883 484.896L198.023 484.262C198.023 484.262 201.345 441.492 198.885 413.254C199.329 375.848 204.845 324.988 197.744 301.454L164.7 297.98Z" fill="#273879"/>
<path opacity="0.6" d="M164.7 297.98C164.7 297.98 172.562 376.482 175.186 402.983C178.306 434.442 182.883 484.896 182.883 484.896L198.023 484.262C198.023 484.262 201.345 441.492 198.885 413.254C199.329 375.848 204.845 324.988 197.744 301.454L164.7 297.98Z" fill="black"/>
<path d="M199.177 487.039L181.806 486.544L180.588 481.079L200.242 480.534L199.177 487.039Z" fill="#273879"/>
<path d="M185.648 205.036C185.775 205.835 185.445 206.557 184.912 206.646C184.38 206.735 183.86 206.139 183.733 205.378C183.606 204.617 183.936 203.857 184.469 203.768C185.001 203.679 185.521 204.224 185.648 205.036Z" fill="#263238"/>
<path d="M176.53 206.443C176.657 207.254 176.327 207.977 175.795 208.053C175.262 208.129 174.742 207.546 174.616 206.785C174.489 206.024 174.818 205.251 175.351 205.175C175.884 205.099 176.403 205.644 176.53 206.443Z" fill="#263238"/>
<path d="M175.579 205.137L173.563 204.883C173.563 204.883 174.793 206.24 175.579 205.137Z" fill="#263238"/>
<path d="M179.524 207.242C179.087 209.191 178.387 211.072 177.444 212.833C177.901 213.062 178.401 213.188 178.912 213.204C179.422 213.219 179.929 213.123 180.399 212.922L179.524 207.242Z" fill="#ED847E"/>
<path d="M185.647 215.141C185.236 215.287 184.811 215.393 184.379 215.458C184.317 215.469 184.253 215.456 184.201 215.42C184.149 215.385 184.112 215.33 184.1 215.268C184.095 215.236 184.096 215.204 184.103 215.173C184.11 215.141 184.124 215.112 184.143 215.086C184.162 215.06 184.186 215.038 184.213 215.021C184.241 215.005 184.271 214.994 184.303 214.989C185.311 214.858 186.273 214.49 187.111 213.915C187.949 213.34 188.638 212.573 189.121 211.68C189.151 211.625 189.2 211.583 189.258 211.562C189.317 211.541 189.381 211.542 189.438 211.565C189.468 211.578 189.494 211.596 189.516 211.619C189.538 211.641 189.556 211.668 189.568 211.698C189.579 211.727 189.585 211.759 189.585 211.79C189.584 211.822 189.578 211.853 189.565 211.882C188.734 213.438 187.328 214.608 185.647 215.141Z" fill="#263238"/>
<path d="M203.97 206.342C203.902 207.313 203.643 208.26 203.208 209.131C202.773 210.001 202.17 210.777 201.434 211.414C199.481 213.088 197.414 211.617 197.047 209.195C196.704 207.027 197.326 203.54 199.722 202.855C200.242 202.695 200.794 202.666 201.328 202.772C201.862 202.877 202.362 203.113 202.782 203.458C203.203 203.803 203.531 204.247 203.739 204.751C203.946 205.254 204.025 205.8 203.97 206.342Z" fill="#FFC3BD"/>
<path d="M189.794 200.04C189.731 200.052 189.666 200.052 189.602 200.039C189.539 200.026 189.479 200 189.426 199.964C188.942 199.604 188.379 199.364 187.783 199.265C187.188 199.166 186.578 199.21 186.003 199.393C185.945 199.417 185.882 199.43 185.819 199.43C185.756 199.43 185.693 199.417 185.635 199.392C185.577 199.367 185.525 199.331 185.481 199.285C185.438 199.24 185.404 199.186 185.381 199.127C185.335 199.009 185.338 198.878 185.387 198.761C185.437 198.645 185.531 198.553 185.648 198.505C186.369 198.26 187.139 198.193 187.892 198.31C188.645 198.427 189.359 198.724 189.972 199.177C190.074 199.249 190.145 199.358 190.169 199.481C190.192 199.604 190.167 199.732 190.098 199.837C190.023 199.937 189.916 200.009 189.794 200.04Z" fill="#263238"/>
<path d="M172.574 202.943C172.518 202.968 172.458 202.982 172.397 202.982C172.335 202.982 172.275 202.968 172.219 202.943C172.162 202.917 172.11 202.88 172.068 202.834C172.025 202.788 171.992 202.734 171.971 202.675C171.949 202.615 171.94 202.553 171.944 202.49C171.947 202.427 171.963 202.366 171.991 202.309C172.291 201.61 172.756 200.994 173.345 200.513C173.935 200.031 174.631 199.699 175.376 199.545C175.498 199.536 175.618 199.573 175.713 199.65C175.808 199.726 175.871 199.835 175.889 199.956C175.906 200.076 175.878 200.199 175.808 200.299C175.739 200.399 175.635 200.47 175.516 200.496C174.928 200.629 174.38 200.899 173.917 201.285C173.454 201.67 173.089 202.161 172.853 202.715C172.825 202.77 172.785 202.819 172.737 202.858C172.689 202.897 172.634 202.926 172.574 202.943Z" fill="#263238"/>
<path d="M217.652 253.169C217.842 255.007 217.943 256.618 217.994 258.33C218.045 260.041 218.083 261.69 218.07 263.402C218.019 266.783 217.804 270.164 217.423 273.546C217.035 276.968 216.399 280.358 215.521 283.69C215.069 285.41 214.518 287.104 213.873 288.762C213.556 289.598 213.201 290.435 212.833 291.298C212.833 291.298 212.643 291.703 212.516 291.932C212.382 292.194 212.225 292.445 212.047 292.68C211.734 293.143 211.368 293.569 210.957 293.948C210.289 294.519 209.542 294.989 208.738 295.342C207.589 295.823 206.375 296.131 205.136 296.255C204.147 296.365 203.152 296.407 202.157 296.382C200.365 296.334 198.578 296.177 196.806 295.913C193.484 295.388 190.195 294.677 186.953 293.783C183.771 292.908 180.613 291.944 177.532 290.917C174.451 289.89 171.382 288.749 168.326 287.468L169.911 282.599C172.993 283.271 176.125 283.981 179.244 284.577C182.363 285.173 185.47 285.845 188.564 286.302C191.658 286.758 194.752 287.227 197.744 287.417C199.174 287.53 200.61 287.556 202.043 287.494C202.655 287.464 203.265 287.397 203.868 287.291C204.234 287.234 204.588 287.122 204.921 286.961C204.921 286.961 204.921 286.961 204.731 287.062C204.614 287.152 204.511 287.259 204.426 287.379L204.274 287.608C204.274 287.608 204.16 287.861 204.274 287.696C204.515 287.037 204.756 286.428 204.959 285.693C205.39 284.324 205.745 282.916 206.062 281.483C206.656 278.552 207.079 275.588 207.33 272.607C207.609 269.589 207.698 266.521 207.698 263.452C207.698 261.918 207.698 260.384 207.698 258.849C207.698 257.315 207.558 255.73 207.47 254.361L217.652 253.169Z" fill="#FFC3BD"/>
<path d="M214.875 240.996C219.25 243.849 217.766 268.714 217.766 268.714L207.47 270.781C207.47 270.781 207.381 258.101 206.278 249.872C205.53 244.28 211.756 238.955 214.875 240.996Z" fill="#FFC3BD"/>
<path d="M179.625 517.42C179.501 517.255 179.417 517.064 179.38 516.862C179.343 516.659 179.353 516.451 179.409 516.253C179.433 516.107 179.493 515.968 179.584 515.851C179.675 515.734 179.793 515.641 179.929 515.581C181.197 515.036 184.088 517.001 184.418 517.217C184.455 517.244 184.484 517.281 184.5 517.324C184.515 517.367 184.518 517.413 184.507 517.458C184.496 517.505 184.472 517.549 184.439 517.585C184.405 517.62 184.363 517.647 184.317 517.661C182.985 517.978 180.614 518.384 179.726 517.521L179.625 517.42ZM183.657 517.318C182.389 516.57 180.741 515.721 180.094 516.05C180.035 516.078 179.984 516.121 179.946 516.174C179.909 516.228 179.885 516.29 179.879 516.355C179.832 516.5 179.825 516.656 179.859 516.805C179.892 516.955 179.965 517.092 180.069 517.204C180.551 517.635 181.869 517.686 183.657 517.344V517.318Z" fill="#273879"/>
<path d="M182.947 516.52C182.588 516.16 182.304 515.733 182.11 515.263C181.916 514.793 181.817 514.29 181.818 513.781C181.874 513.593 181.987 513.427 182.142 513.307C182.296 513.186 182.485 513.117 182.681 513.109C182.858 513.081 183.039 513.094 183.21 513.147C183.382 513.2 183.539 513.291 183.67 513.414C184.697 514.377 184.519 517.294 184.507 517.421C184.505 517.464 184.492 517.507 184.47 517.544C184.448 517.582 184.417 517.613 184.38 517.636C184.343 517.655 184.301 517.665 184.259 517.665C184.218 517.665 184.176 517.655 184.139 517.636C183.685 517.329 183.283 516.953 182.947 516.52ZM183.429 513.883C183.398 513.846 183.364 513.812 183.327 513.781C183.246 513.703 183.148 513.644 183.04 513.608C182.932 513.573 182.818 513.563 182.706 513.578C182.389 513.578 182.326 513.756 182.288 513.87C182.097 514.567 183.137 516.203 184.05 516.964C184.134 515.899 183.919 514.832 183.429 513.883Z" fill="#273879"/>
<path d="M198.746 299.147L199.19 302.951C199.291 303.242 198.911 303.509 198.442 303.458L156.598 299.755C156.23 299.755 155.951 299.515 155.964 299.286L156.205 295.584C156.205 295.33 156.572 295.14 156.966 295.178L198.163 298.83C198.279 298.828 198.394 298.856 198.496 298.911C198.599 298.967 198.685 299.048 198.746 299.147Z" fill="white"/>
<path d="M192.457 303.306L193.56 303.394C193.789 303.394 193.966 303.318 193.979 303.179L194.232 298.373C194.232 298.234 194.068 298.094 193.852 298.081L192.736 297.98C192.521 297.98 192.33 298.056 192.318 298.196L192.064 303.014C192.064 303.153 192.242 303.28 192.457 303.306Z" fill="#273879"/>
<path opacity="0.6" d="M192.457 303.306L193.56 303.394C193.789 303.394 193.966 303.318 193.979 303.179L194.232 298.373C194.232 298.234 194.068 298.094 193.852 298.081L192.736 297.98C192.521 297.98 192.33 298.056 192.318 298.196L192.064 303.014C192.064 303.153 192.242 303.28 192.457 303.306Z" fill="black"/>
<path d="M159.603 300.389L160.706 300.491C160.934 300.491 161.112 300.415 161.125 300.275L161.378 295.457C161.378 295.317 161.213 295.191 160.998 295.165L159.895 295.076C159.666 295.076 159.489 295.152 159.476 295.292L159.223 300.098C159.21 300.237 159.387 300.377 159.603 300.389Z" fill="#273879"/>
<path opacity="0.6" d="M159.603 300.389L160.706 300.491C160.934 300.491 161.112 300.415 161.125 300.275L161.378 295.457C161.378 295.317 161.213 295.191 160.998 295.165L159.895 295.076C159.666 295.076 159.489 295.152 159.476 295.292L159.223 300.098C159.21 300.237 159.387 300.377 159.603 300.389Z" fill="black"/>
<path d="M176.036 301.848L177.139 301.949C177.355 301.949 177.545 301.861 177.545 301.721L177.811 296.915C177.811 296.776 177.647 296.649 177.418 296.624L176.315 296.522C176.1 296.522 175.909 296.611 175.909 296.751L175.643 301.556C175.643 301.696 175.821 301.785 176.036 301.848Z" fill="#273879"/>
<path opacity="0.6" d="M176.036 301.848L177.139 301.949C177.355 301.949 177.545 301.861 177.545 301.721L177.811 296.915C177.811 296.776 177.647 296.649 177.418 296.624L176.315 296.522C176.1 296.522 175.909 296.611 175.909 296.751L175.643 301.556C175.643 301.696 175.821 301.785 176.036 301.848Z" fill="black"/>
<path d="M171.496 282.903L165.156 274.446L162.519 284.59C162.519 284.59 167.236 288.711 171.243 287.126L171.496 282.903Z" fill="#FFC3BD"/>
<path d="M157.041 272.582L155.278 281.141L163.837 285.516L165.194 274.446L157.041 272.582Z" fill="#FFC3BD"/>
<path d="M184.71 203.73L182.681 203.476C182.681 203.476 183.86 204.833 184.71 203.73Z" fill="#263238"/>
<path opacity="0.24" d="M502.389 143.77L496.321 134.321C495.328 132.796 493.011 132.796 492.129 134.321L487.164 142.144L485.398 144.887H482.64L481.757 143.77L475.8 134.321C474.807 132.796 472.49 132.796 471.607 134.321L465.539 143.77C464.546 145.294 465.759 147.122 467.635 147.122H476.131L482.088 156.571C482.971 157.892 484.957 157.892 485.84 156.571L491.798 147.122H500.293C502.169 147.122 503.272 145.294 502.389 143.77Z" fill="#E4D1A5"/>
</svg>
