<svg width="49" height="50" viewBox="0 0 49 50" fill="none" xmlns="http://www.w3.org/2000/svg">
<g clip-path="url(#clip0)">
<g clip-path="url(#clip1)">
<rect x="0.25" y="1.125" width="48" height="48" rx="12" fill="url(#paint0_linear)"/>
<path fill-rule="evenodd" clip-rule="evenodd" d="M28.4426 11.9793C28.4426 14.3591 26.4966 16.2882 24.096 16.2882C21.6954 16.2882 19.7493 14.3591 19.7493 11.9793C19.7493 9.59958 21.6954 7.67041 24.096 7.67041C26.4966 7.67041 28.4426 9.59958 28.4426 11.9793ZM17.065 14.7497C17.065 16.6359 15.5255 18.1651 13.6265 18.1651C11.7275 18.1651 10.1881 16.6359 10.1881 14.7497C10.1881 12.8634 11.7275 11.3343 13.6265 11.3343C15.5255 11.3343 17.065 12.8634 17.065 14.7497ZM19.7495 22.2936V22.2567H19.7597C19.7529 22.1575 19.7491 22.0573 19.7491 21.9562C19.7491 19.5786 21.6929 17.6516 24.0909 17.6516C26.4889 17.6516 28.4327 19.5786 28.4327 21.9562C28.4327 22.0573 28.4289 22.157 28.4221 22.2567H28.4322V22.296C28.231 22.3646 28.0341 22.4537 27.8449 22.564C27.399 22.8233 27.0086 23.1967 26.7219 23.6823L24.0947 28.1293L21.4676 23.6823C21.1809 23.1972 20.7905 22.8238 20.3451 22.5645C20.1535 22.4528 19.9542 22.3627 19.75 22.2936H19.7495ZM28.4316 41.9351C27.0756 42.3536 25.6365 42.5794 24.1468 42.5794C22.6155 42.5794 21.1383 42.3407 19.7494 41.8996V41.8982C19.0719 41.6566 18.4093 41.3896 17.7617 41.0977C13.152 38.6669 9.60065 33.65 9.60065 28.1307V23.4517V23.3534H9.60209C9.6547 21.1599 11.461 19.3983 13.6814 19.3983C15.5485 19.3983 17.1227 20.6441 17.6077 22.3444C17.4499 22.4048 17.2964 22.4781 17.1483 22.5644C16.7029 22.8242 16.3125 23.1967 16.0258 23.6823L12.8924 28.9854C12.5888 29.5002 12.4503 30.0428 12.4503 30.5682C12.4503 31.1223 12.6009 31.6602 12.8716 32.129C13.1385 32.5915 13.5308 32.9908 14.0192 33.2751C14.4897 33.5493 15.0317 33.7099 15.6142 33.7099H18.9358L21.506 38.0619C21.7797 38.5245 22.1513 38.8792 22.575 39.1256C23.0426 39.3979 23.5701 39.534 24.0946 39.534V39.5412C24.612 39.5412 25.1394 39.4027 25.6143 39.1251C26.0385 38.8778 26.4101 38.5226 26.6823 38.0615L29.253 33.7094H32.5746C33.1576 33.7094 33.6995 33.5488 34.1696 33.2746C34.6575 32.9904 35.0498 32.5906 35.3167 32.1285C35.5821 31.6678 35.7303 31.13 35.7303 30.5682H35.7375C35.7375 30.0423 35.599 29.4997 35.295 28.9854L32.1615 23.6823C31.8749 23.1967 31.4845 22.8233 31.0386 22.5639C30.8899 22.4776 30.737 22.4038 30.5806 22.3434C31.0661 20.6436 32.6398 19.3987 34.5064 19.3987C36.7273 19.3987 38.5336 21.1608 38.5857 23.3539H38.5872V23.4522V28.1311C38.5872 33.6504 35.0358 38.6674 30.4262 41.0982L30.3552 41.1301C29.7285 41.4125 29.0854 41.7023 28.4312 41.9356L28.4316 41.9351ZM34.8254 18.1651C36.7244 18.1651 38.2639 16.6359 38.2639 14.7497C38.2639 12.8634 36.7244 11.3343 34.8254 11.3343C32.9265 11.3343 31.387 12.8634 31.387 14.7497C31.387 16.6359 32.9265 18.1651 34.8254 18.1651Z" fill="url(#paint1_linear)"/>
<path fill-rule="evenodd" clip-rule="evenodd" d="M33.6684 29.9331L30.535 24.63C30.0457 23.8007 28.8373 23.8007 28.3479 24.63L25.7439 29.0372L24.8236 30.5951H23.3638L22.9729 29.9326L19.8399 24.6295C19.3496 23.8002 18.1422 23.8002 17.6524 24.6295L14.5189 29.9326C14.0233 30.7729 14.6328 31.8294 15.6134 31.8294H20.0108L23.1321 37.1143C23.5631 37.8434 24.6248 37.8434 25.0548 37.1143L28.1766 31.8294H32.5744C33.5545 31.8294 34.1645 30.7725 33.6684 29.9326V29.9331Z" fill="url(#paint2_linear)"/>
</g>
</g>
<defs>
<linearGradient id="paint0_linear" x1="44.9773" y1="3.46266" x2="3.36688" y2="46.9432" gradientUnits="userSpaceOnUse">
<stop stop-color="#EFF2F7"/>
<stop offset="1" stop-color="#CEE0FF"/>
</linearGradient>
<linearGradient id="paint1_linear" x1="9.60065" y1="53.3328" x2="38.5877" y2="15.1509" gradientUnits="userSpaceOnUse">
<stop stop-color="#1E2D65"/>
<stop offset="1" stop-color="#3050A8"/>
</linearGradient>
<linearGradient id="paint2_linear" x1="30.4835" y1="21.8521" x2="15.988" y2="37.5905" gradientUnits="userSpaceOnUse">
<stop stop-color="#FFFACD"/>
<stop offset="0.490196" stop-color="#D0A352"/>
<stop offset="1" stop-color="#926928"/>
</linearGradient>
<clipPath id="clip0">
<rect width="49" height="49" fill="white" transform="translate(0 0.5)"/>
</clipPath>
<clipPath id="clip1">
<rect width="48" height="48" fill="white" transform="translate(0.25 1.125)"/>
</clipPath>
</defs>
</svg>
