<svg width="50" height="50" viewBox="0 0 50 50" fill="none" xmlns="http://www.w3.org/2000/svg">
<rect width="50" height="50" rx="8" fill="#8492A6"/>
<g clip-path="url(#clip0)">
<path d="M20.4546 22.0967H25.0182H29.5817C30.0774 22.0967 30.4789 21.6937 30.4789 21.1959V20.2142C30.4789 17.6397 28.4343 15.4162 25.6486 15.4162C27.1197 15.1221 28.2289 13.8189 28.2289 12.2547C28.2289 10.4744 26.7912 9.03131 25.0182 9.03131C23.2452 9.03131 21.8074 10.4744 21.8074 12.2547C21.8074 13.8189 22.9166 15.1221 24.3878 15.4162C21.6057 15.4162 19.5575 17.6362 19.5575 20.2142V21.1959C19.5576 21.6936 19.9589 22.0967 20.4546 22.0967Z" fill="white"/>
<path d="M13.0319 24.6103C13.0887 24.6207 13.145 24.6257 13.2007 24.6257C13.6444 24.6257 14.0386 24.3076 14.1209 23.8536C14.3515 22.5815 14.788 21.3454 15.4182 20.1798C16.0265 19.055 16.7892 18.0449 17.6853 17.1776C18.0577 16.8172 18.0685 16.2219 17.7096 15.848C17.3507 15.4741 16.7578 15.4632 16.3855 15.8235C15.3513 16.8246 14.472 17.9883 13.7723 19.2825C13.0471 20.6236 12.5444 22.0482 12.2782 23.5168C12.1857 24.0278 12.5231 24.5173 13.0319 24.6103Z" fill="white"/>
<path d="M34.6177 20.18C35.248 21.3456 35.6845 22.5816 35.9151 23.8537C35.9974 24.3078 36.3915 24.6259 36.8353 24.6259C36.8909 24.6259 36.9474 24.6209 37.0041 24.6105C37.5129 24.5175 37.8503 24.0279 37.7577 23.517C37.4915 22.0484 36.9888 20.6237 36.2636 19.2826C35.5639 17.9885 34.6846 16.8247 33.6504 15.8237C33.2781 15.4632 32.6852 15.4742 32.3263 15.8481C31.9674 16.222 31.9783 16.8173 32.3506 17.1777C33.2467 18.045 34.0095 19.0552 34.6177 20.18Z" fill="white"/>
<path d="M28.8015 31.7925C27.5935 32.1912 26.3211 32.3956 25.0183 32.3999C25.0014 32.4006 24.984 32.4006 24.9671 32.4006C23.6929 32.4006 22.4443 32.2094 21.2575 31.8326C20.7643 31.6759 20.2386 31.9504 20.0826 32.4457C19.9265 32.9409 20.2 33.4688 20.6931 33.6254C22.0628 34.0605 23.5006 34.2811 24.9671 34.2811H25.0183C26.5203 34.2755 27.9893 34.0397 29.3858 33.579C29.8771 33.4173 30.145 32.8857 29.9833 32.3923C29.8222 31.8991 29.2928 31.6301 28.8015 31.7925Z" fill="white"/>
<path d="M15.0909 34.2882C16.5622 33.994 17.6714 32.6904 17.6714 31.1267C17.6714 29.3464 16.2337 27.9027 14.4607 27.9027C12.6877 27.9027 11.2499 29.3464 11.2499 31.1267C11.2499 32.6904 12.3592 33.994 13.8304 34.2882C11.0507 34.2882 9 36.506 9 39.0863V40.068C9 40.5651 9.40144 40.9688 9.89713 40.9688H14.4607H19.0243C19.5199 40.9688 19.9214 40.5651 19.9214 40.068V39.0863C19.9214 36.5169 17.8824 34.2882 15.0909 34.2882Z" fill="white"/>
<path d="M36.1694 34.2882C37.6406 33.994 38.7499 32.6904 38.7499 31.1267C38.7499 29.3464 37.3121 27.9027 35.5391 27.9027C33.7655 27.9027 32.3284 29.3464 32.3284 31.1267C32.3284 32.6904 33.4372 33.994 34.9087 34.2882C32.1226 34.2882 30.0784 36.5112 30.0784 39.0863V40.068C30.0784 40.5651 30.4798 40.9688 30.9755 40.9688H35.5391H40.1026C40.5977 40.9688 40.9997 40.5651 40.9997 40.068V39.0863C40.9998 36.5115 38.9551 34.2882 36.1694 34.2882Z" fill="white"/>
</g>
<defs>
<clipPath id="clip0">
<rect width="32" height="32" fill="white" transform="translate(9 9)"/>
</clipPath>
</defs>
</svg>
