<svg width="50" height="50" viewBox="0 0 50 50" fill="none" xmlns="http://www.w3.org/2000/svg">
<rect width="50" height="50" rx="8" fill="#8492A6"/>
<g clip-path="url(#clip0)">
<path d="M29.5233 16.7404C27.8297 13.2822 24.2869 10.9958 20.313 10.9958C14.6267 10.9958 10.0007 15.5956 10.0007 21.2495C10.0007 22.786 10.3306 24.2588 10.9816 25.6319L10.0177 30.452C9.89505 31.0656 10.4363 31.6079 11.05 31.4865L15.9295 30.5218C16.5865 30.8334 17.2662 31.0704 17.9646 31.2337C16.3992 23.8194 22.0191 16.8598 29.5233 16.7404Z" fill="white"/>
<path d="M39.0189 33.1317C39.1873 32.7766 39.3337 32.4147 39.459 32.047H39.4268C41.621 25.6067 37.0067 18.8378 30.1946 18.5083C30.1945 18.5079 30.1944 18.5075 30.1943 18.5072C24.333 18.2371 19.4633 22.9301 19.4633 28.7494C19.4633 34.3985 24.0546 38.9947 29.7019 39.0029C31.2336 39.0008 32.7019 38.6711 34.071 38.0216C39.415 39.0782 38.9982 39.003 39.121 39.003C39.6764 39.003 40.0913 38.4941 39.9828 37.9518L39.0189 33.1317Z" fill="white"/>
</g>
<defs>
<clipPath id="clip0">
<rect width="30" height="30" fill="white" transform="translate(10 10)"/>
</clipPath>
</defs>
</svg>
