<svg width="50" height="50" viewBox="0 0 50 50" fill="none" xmlns="http://www.w3.org/2000/svg">
<rect width="50" height="50" rx="8" fill="#DAB868"/>
<path fill-rule="evenodd" clip-rule="evenodd" d="M10.3334 19.9333C10.3334 17.5769 12.1906 15.6666 14.4815 15.6666H26.926C29.2169 15.6666 31.0741 17.5769 31.0741 19.9333H20.7037C17.84 19.9333 15.5186 22.3211 15.5186 25.2666V29.5333C15.5186 29.8986 15.5543 30.2553 15.6223 30.6H14.4815C12.1906 30.6 10.3334 28.6897 10.3334 26.3333V19.9333ZM21.7408 22.0666C19.4498 22.0666 17.5926 23.9769 17.5926 26.3333V32.7333C17.5926 35.0897 19.4498 37 21.7408 37H34.1852C36.4762 37 38.3334 35.0897 38.3334 32.7333V26.3333C38.3334 23.9769 36.4762 22.0666 34.1852 22.0666H21.7408Z" fill="white"/>
</svg>
